<?xml version="1.0" standalone="no"?>
<!DOCTYPE svg PUBLIC "-//W3C//DTD SVG 20010904//EN"
 "http://www.w3.org/TR/2001/REC-SVG-20010904/DTD/svg10.dtd">
<svg version="1.0" xmlns="http://www.w3.org/2000/svg"
 width="700.000000pt" height="700.000000pt" viewBox="0 0 700.000000 700.000000"
 preserveAspectRatio="xMidYMid meet">
<metadata>
Created by potrace 1.14, written by Peter Selinger 2001-2017
</metadata>
<g transform="translate(0.000000,700.000000) scale(0.100000,-0.100000)"
fill="#000000" stroke="none">
<path d="M1513 5303 c-6 -2 -9 -3505 -4 -3674 1 -15 31 -17 313 -15 l313 1 0
830 0 830 150 1 c267 2 393 13 575 50 152 30 330 89 465 154 95 45 252 142
305 189 146 128 232 247 281 389 68 196 25 439 -113 647 -154 233 -426 433
-720 529 -57 19 -119 37 -138 40 -19 4 -64 12 -100 18 -56 9 -1301 19 -1327
11z m1177 -131 c251 -70 485 -271 599 -516 136 -293 47 -699 -210 -956 -123
-123 -280 -215 -444 -261 -67 -18 -113 -23 -290 -26 l-210 -5 1 894 c1 491 2
894 3 895 0 2 108 1 239 -1 201 -3 248 -7 312 -24z"/>
<path d="M4815 5297 c-22 -5 -78 -20 -125 -32 -47 -13 -104 -28 -128 -35 l-43
-11 24 -29 c53 -62 51 -7 51 -1850 0 -1095 4 -1717 10 -1722 6 -4 126 -7 268
-7 l258 0 0 1845 c0 1014 -3 1845 -7 1845 -38 6 -277 3 -308 -4z"/>
</g>
</svg>
