<svg xmlns="http://www.w3.org/2000/svg" xmlns:xlink="http://www.w3.org/1999/xlink" width="1920" zoomAndPan="magnify" viewBox="0 0 1440 809.999993" height="1080" preserveAspectRatio="xMidYMid meet" version="1.0"><defs><g/><clipPath id="c2966be2a4"><path d="M 606.203125 56 L 819.953125 56 L 819.953125 361.8125 L 606.203125 361.8125 Z M 606.203125 56 " clip-rule="nonzero"/></clipPath></defs><g clip-path="url(#c2966be2a4)"><path fill="#ffffff" d="M 801.363281 334.296875 C 801.359375 336.675781 800.40625 338.796875 798.800781 340.414062 C 797.1875 342.015625 795.058594 342.972656 792.667969 342.972656 L 633.808594 342.972656 C 631.410156 342.96875 629.289062 342.015625 627.679688 340.417969 C 626.082031 338.804688 625.128906 336.679688 625.125 334.296875 L 625.125 207.132812 C 625.128906 204.753906 626.074219 202.632812 627.679688 201.019531 C 629.289062 199.417969 631.414062 198.464844 633.808594 198.460938 L 792.667969 198.460938 C 795.054688 198.460938 797.179688 199.417969 798.800781 201.019531 C 800.40625 202.640625 801.359375 204.761719 801.363281 207.132812 Z M 665.707031 91.71875 C 676.070312 81.378906 690.273438 75.011719 706.066406 75.007812 L 720.425781 75.007812 C 736.214844 75.011719 750.421875 81.378906 760.78125 91.71875 C 771.121094 102.078125 777.488281 116.285156 777.492188 132.074219 L 777.492188 179.539062 L 648.996094 179.539062 L 648.996094 132.074219 C 649 116.285156 655.367188 102.078125 665.707031 91.71875 Z M 796.414062 179.828125 L 796.414062 132.074219 C 796.410156 90.101562 762.398438 56.089844 720.425781 56.085938 L 706.066406 56.085938 C 664.09375 56.089844 630.078125 90.101562 630.074219 132.074219 L 630.074219 179.824219 C 616.597656 181.671875 606.234375 193.171875 606.203125 207.132812 L 606.203125 334.296875 C 606.230469 349.53125 618.554688 361.867188 633.808594 361.894531 L 792.667969 361.894531 C 807.90625 361.855469 820.246094 349.550781 820.285156 334.296875 L 820.285156 207.132812 C 820.246094 193.164062 809.875 181.6875 796.414062 179.828125 " fill-opacity="1" fill-rule="nonzero"/></g><path fill="#ffffff" d="M 732.164062 253.371094 C 732.164062 242.917969 723.691406 234.449219 713.242188 234.449219 C 702.792969 234.449219 694.324219 242.917969 694.324219 253.371094 C 694.324219 261.074219 698.945312 267.675781 705.550781 270.628906 L 692.050781 306.976562 L 734.429688 306.976562 L 720.933594 270.628906 C 727.539062 267.675781 732.164062 261.074219 732.164062 253.371094 " fill-opacity="1" fill-rule="nonzero"/><g fill="#ffffff" fill-opacity="1"><g transform="translate(390.470624, 551.626776)"><g><path d="M 24.632812 13.71875 C 45.835938 13.71875 76.707031 -5.925781 96.039062 -23.699219 C 96.351562 -24.011719 96.664062 -24.632812 96.664062 -24.945312 C 96.664062 -25.882812 95.726562 -26.816406 94.792969 -26.816406 C 94.167969 -26.816406 93.855469 -26.503906 93.546875 -26.503906 C 74.523438 -9.042969 44.902344 10.289062 24.632812 10.289062 C 11.847656 10.289062 5.925781 5.613281 5.925781 -4.675781 C 5.925781 -25.882812 45.214844 -56.75 82.945312 -67.039062 C 85.4375 -67.664062 87.933594 -67.976562 90.117188 -68.601562 C 91.363281 -69.222656 91.675781 -69.847656 91.363281 -71.09375 C 91.050781 -72.03125 90.425781 -72.652344 89.492188 -72.339844 C 86.996094 -72.03125 84.503906 -71.40625 82.007812 -70.472656 C 78.578125 -70.160156 75.460938 -69.847656 72.339844 -69.847656 C 63.921875 -69.847656 58.308594 -72.964844 58.308594 -77.953125 C 58.308594 -86.375 75.460938 -97.910156 88.246094 -97.910156 C 92.921875 -97.910156 95.726562 -94.167969 95.726562 -87.933594 C 95.726562 -86.996094 96.664062 -86.0625 97.597656 -86.0625 C 98.535156 -86.0625 99.46875 -86.996094 99.46875 -87.933594 C 99.46875 -96.039062 95.105469 -101.652344 88.246094 -101.652344 C 73.277344 -101.652344 54.566406 -88.554688 54.566406 -77.953125 C 54.566406 -72.03125 59.867188 -67.664062 67.351562 -66.417969 C 67.976562 -66.417969 68.289062 -66.105469 67.664062 -65.792969 C 33.363281 -52.074219 2.496094 -24.945312 2.496094 -4.675781 C 2.496094 7.796875 9.976562 13.71875 24.632812 13.71875 Z M 24.632812 13.71875 "/></g></g></g><g fill="#ffffff" fill-opacity="1"><g transform="translate(479.005557, 551.626776)"><g><path d="M -8.730469 1.871094 C -6.238281 1.871094 -1.871094 -1.246094 12.160156 -13.097656 C 26.191406 -24.320312 42.40625 -38.042969 49.890625 -38.042969 C 51.136719 -38.042969 51.761719 -37.417969 51.761719 -36.484375 C 51.761719 -34.300781 49.265625 -29.621094 42.71875 -19.332031 C 36.792969 -10.914062 35.234375 -7.796875 35.234375 -5.613281 C 35.234375 -4.054688 35.859375 -2.804688 37.417969 -2.804688 C 39.289062 -2.804688 42.40625 -4.367188 50.828125 -9.667969 C 61.738281 -16.214844 66.105469 -18.398438 68.289062 -18.398438 C 69.222656 -18.398438 69.535156 -17.773438 69.535156 -17.460938 C 69.535156 -16.214844 69.222656 -14.65625 68.910156 -12.785156 C 68.601562 -10.914062 68.601562 -8.730469 68.601562 -6.546875 C 68.601562 -2.804688 71.40625 -0.625 76.394531 -0.625 C 85.125 -0.625 98.222656 -7.171875 122.542969 -24.011719 C 123.167969 -24.320312 123.480469 -24.945312 123.480469 -25.570312 C 123.480469 -26.503906 122.542969 -27.128906 121.609375 -27.128906 C 121.296875 -27.128906 120.984375 -27.128906 120.671875 -26.816406 C 96.976562 -10.601562 84.191406 -4.054688 76.394531 -4.054688 C 73.277344 -4.054688 72.03125 -4.988281 72.03125 -6.546875 C 72.03125 -8.417969 72.339844 -10.601562 72.652344 -12.472656 C 72.652344 -14.03125 72.964844 -15.902344 72.964844 -17.460938 C 72.964844 -20.269531 71.71875 -21.828125 68.910156 -21.828125 C 64.546875 -21.828125 56.128906 -16.839844 48.957031 -12.785156 L 42.09375 -8.417969 C 40.847656 -7.796875 39.914062 -8.730469 40.847656 -9.976562 L 45.523438 -17.460938 C 52.695312 -28.375 55.503906 -33.050781 55.503906 -36.792969 C 55.503906 -39.914062 53.007812 -41.472656 48.957031 -41.472656 C 43.03125 -41.472656 33.050781 -34.613281 9.976562 -15.589844 C 3.117188 -10.289062 -1.246094 -6.546875 -4.367188 -4.367188 C -5.300781 -3.742188 -6.546875 -4.367188 -5.613281 -5.613281 C -1.871094 -12.160156 7.171875 -24.011719 17.148438 -33.050781 C 17.460938 -33.363281 17.773438 -33.988281 17.773438 -34.300781 C 17.773438 -35.546875 16.839844 -36.171875 15.902344 -36.171875 C 15.589844 -36.171875 14.96875 -36.171875 14.65625 -35.859375 C 3.742188 -25.882812 -11.539062 -5.613281 -11.539062 -1.246094 C -11.539062 0.625 -10.601562 1.558594 -8.730469 1.871094 Z M -8.730469 1.871094 "/></g></g></g><g fill="#ffffff" fill-opacity="1"><g transform="translate(593.726891, 551.626776)"><g/></g></g><g fill="#ffffff" fill-opacity="1"><g transform="translate(662.622065, 551.626776)"><g><path d="M -8.417969 4.988281 C -7.171875 4.988281 -5.613281 3.117188 -3.429688 1.246094 C 0.625 -2.496094 7.484375 -8.730469 14.96875 -14.34375 C 27.75 -23.699219 36.484375 -28.6875 40.847656 -28.6875 C 42.40625 -28.6875 43.34375 -28.375 43.34375 -26.816406 C 43.34375 -22.449219 39.601562 -16.527344 34.613281 -11.539062 L 33.050781 -11.539062 C 17.460938 -9.355469 9.976562 -8.105469 9.976562 -3.429688 C 9.976562 0 12.785156 2.183594 16.527344 2.183594 C 22.761719 2.183594 30.246094 -2.496094 36.484375 -8.417969 C 53.007812 -10.601562 74.835938 -13.71875 91.363281 -24.011719 C 91.675781 -24.320312 91.984375 -24.945312 91.984375 -25.570312 C 91.984375 -26.503906 91.363281 -27.128906 90.425781 -27.128906 L 89.492188 -27.128906 C 74.835938 -18.085938 55.816406 -14.65625 40.222656 -12.472656 C 44.277344 -17.148438 46.773438 -22.449219 46.773438 -26.816406 C 46.773438 -30.246094 44.902344 -32.429688 41.472656 -32.429688 C 35.859375 -32.429688 26.503906 -27.128906 13.097656 -17.148438 C 4.988281 -11.539062 -1.871094 -5.300781 -3.117188 -4.054688 C -5.613281 -1.871094 -6.238281 -1.871094 -4.988281 -4.367188 C -2.183594 -9.355469 2.496094 -16.527344 8.417969 -24.632812 C 73.277344 -66.730469 135.640625 -137.511719 135.640625 -153.101562 C 135.640625 -156.53125 133.769531 -158.402344 130.339844 -158.402344 C 117.242188 -158.402344 40.847656 -74.835938 6.238281 -27.441406 L 5.925781 -27.128906 C -4.367188 -13.097656 -10.914062 -1.871094 -10.914062 2.496094 C -10.914062 3.742188 -9.976562 4.988281 -8.417969 4.988281 Z M 14.96875 -33.363281 C 51.449219 -80.449219 119.425781 -154.660156 130.339844 -154.660156 C 131.898438 -154.660156 132.210938 -154.351562 132.210938 -153.101562 C 132.210938 -139.382812 76.082031 -75.460938 14.96875 -33.363281 Z M 16.527344 -1.558594 C 14.65625 -1.558594 13.71875 -2.183594 13.71875 -3.429688 C 13.71875 -4.367188 17.773438 -5.613281 29.933594 -7.484375 C 25.570312 -3.742188 20.578125 -1.558594 16.527344 -1.558594 Z M 16.527344 -1.558594 "/></g></g></g><g fill="#ffffff" fill-opacity="1"><g transform="translate(745.857397, 551.626776)"><g><path d="M 4.054688 33.675781 C 22.761719 33.675781 77.019531 -1.558594 108.199219 -24.011719 C 108.511719 -24.320312 108.824219 -24.945312 108.824219 -25.570312 C 108.824219 -26.503906 108.199219 -27.128906 106.953125 -27.128906 C 106.640625 -27.128906 106.328125 -27.128906 106.019531 -26.816406 C 75.148438 -4.367188 21.828125 29.933594 4.054688 29.933594 C 0.3125 29.933594 -0.933594 28.6875 -0.933594 25.570312 C -0.933594 16.527344 14.96875 0.933594 30.246094 -14.03125 C 43.65625 -27.441406 57.0625 -40.535156 57.0625 -48.019531 C 57.0625 -51.761719 52.695312 -54.257812 47.394531 -59.246094 C 59.246094 -72.03125 67.976562 -83.566406 67.976562 -87.933594 C 67.976562 -90.117188 66.730469 -91.675781 64.546875 -91.675781 C 54.878906 -91.675781 33.050781 -75.148438 33.050781 -67.351562 C 33.050781 -64.546875 36.171875 -62.363281 41.785156 -58.621094 C 31.492188 -47.707031 18.398438 -35.859375 5.925781 -26.816406 C 5.613281 -26.503906 5.300781 -25.882812 5.300781 -25.570312 C 5.300781 -24.320312 5.925781 -23.699219 6.859375 -23.699219 C 7.484375 -23.699219 7.796875 -23.699219 8.105469 -24.011719 C 19.332031 -32.117188 33.363281 -44.589844 44.902344 -56.75 C 51.136719 -52.386719 53.320312 -50.203125 53.320312 -48.019531 C 53.320312 -42.09375 41.160156 -29.933594 27.75 -16.839844 C 12.472656 -1.558594 -4.367188 14.96875 -4.367188 25.570312 C -4.367188 30.558594 -1.871094 33.675781 4.054688 33.675781 Z M 44.277344 -61.117188 C 38.664062 -64.859375 36.792969 -66.730469 36.792969 -67.351562 C 36.792969 -72.652344 54.566406 -86.0625 62.988281 -87.621094 C 63.921875 -87.933594 64.546875 -87.308594 64.234375 -86.375 C 62.050781 -81.074219 50.828125 -67.976562 44.277344 -61.117188 Z M 44.277344 -61.117188 "/></g></g></g><g fill="#ffffff" fill-opacity="1"><g transform="translate(845.926882, 551.626776)"><g><path d="M 10.289062 0.933594 C 19.957031 0.933594 50.203125 -7.796875 72.03125 -24.011719 C 72.652344 -24.320312 72.964844 -24.945312 72.964844 -25.570312 C 72.964844 -26.503906 72.03125 -27.128906 71.09375 -27.128906 C 70.78125 -27.128906 70.472656 -27.128906 70.160156 -26.816406 C 48.644531 -11.226562 19.332031 -2.804688 10.289062 -2.804688 C 3.117188 -2.804688 -0.625 -4.675781 -0.625 -8.730469 C -0.625 -12.785156 2.496094 -17.773438 6.546875 -22.140625 C 8.417969 -21.203125 10.914062 -20.890625 14.34375 -20.890625 C 19.957031 -20.890625 27.128906 -25.570312 27.128906 -29.621094 C 27.128906 -32.742188 24.945312 -34.613281 21.515625 -34.613281 C 11.226562 -34.613281 -4.367188 -19.019531 -4.367188 -8.730469 C -4.367188 -2.496094 1.246094 0.933594 10.289062 0.933594 Z M 14.34375 -24.320312 C 12.160156 -24.320312 10.601562 -24.632812 9.355469 -24.945312 C 13.40625 -28.375 17.773438 -30.871094 21.515625 -30.871094 C 23.074219 -30.871094 23.699219 -30.558594 23.699219 -29.621094 C 23.699219 -27.75 17.773438 -24.320312 14.34375 -24.320312 Z M 14.34375 -24.320312 "/></g></g></g><g fill="#ffffff" fill-opacity="1"><g transform="translate(909.834151, 551.626776)"><g><path d="M -18.398438 29 C -9.976562 29 11.847656 7.796875 26.191406 -10.601562 C 28.6875 -8.417969 32.429688 -7.171875 37.105469 -7.171875 C 53.320312 -7.171875 72.652344 -16.839844 83.566406 -24.011719 C 84.191406 -24.320312 84.503906 -24.945312 84.503906 -25.570312 C 84.503906 -26.503906 83.566406 -27.128906 82.632812 -27.128906 L 81.695312 -27.128906 C 70.78125 -19.957031 52.386719 -10.601562 37.105469 -10.601562 C 33.050781 -10.601562 30.246094 -11.847656 28.375 -13.40625 C 34.921875 -22.449219 39.601562 -30.246094 39.601562 -34.300781 C 39.601562 -36.484375 38.042969 -38.042969 35.546875 -38.042969 C 29.3125 -38.042969 22.449219 -28.0625 22.449219 -19.644531 C 22.449219 -17.460938 22.761719 -15.277344 23.699219 -13.71875 C 9.976562 4.054688 -11.539062 25.570312 -18.398438 25.570312 C -19.019531 25.570312 -19.957031 24.945312 -19.957031 23.699219 C -19.957031 13.40625 3.117188 -18.398438 10.289062 -26.191406 L 10.601562 -27.441406 C 10.601562 -28.375 9.667969 -29.3125 8.730469 -29.3125 C 8.417969 -29.3125 7.796875 -29 7.484375 -28.6875 C 0.3125 -20.890625 -23.699219 12.160156 -23.699219 23.699219 C -23.699219 27.128906 -21.515625 29 -18.398438 29 Z M 26.191406 -16.839844 C 26.191406 -17.773438 25.882812 -18.710938 25.882812 -19.644531 C 25.882812 -25.882812 31.492188 -34.300781 35.234375 -34.300781 C 35.859375 -34.300781 35.859375 -34.300781 35.859375 -33.988281 C 35.859375 -31.183594 32.117188 -24.632812 26.191406 -16.839844 Z M 26.191406 -16.839844 "/></g></g></g><g fill="#ffffff" fill-opacity="1"><g transform="translate(985.587665, 551.626776)"><g><path d="M 10.289062 0.933594 C 19.957031 0.933594 50.203125 -7.796875 72.03125 -24.011719 C 72.652344 -24.320312 72.964844 -24.945312 72.964844 -25.570312 C 72.964844 -26.503906 72.03125 -27.128906 71.09375 -27.128906 C 70.78125 -27.128906 70.472656 -27.128906 70.160156 -26.816406 C 48.644531 -11.226562 19.332031 -2.804688 10.289062 -2.804688 C 3.117188 -2.804688 -0.625 -4.675781 -0.625 -8.730469 C -0.625 -12.785156 2.496094 -17.773438 6.546875 -22.140625 C 8.417969 -21.203125 10.914062 -20.890625 14.34375 -20.890625 C 19.957031 -20.890625 27.128906 -25.570312 27.128906 -29.621094 C 27.128906 -32.742188 24.945312 -34.613281 21.515625 -34.613281 C 11.226562 -34.613281 -4.367188 -19.019531 -4.367188 -8.730469 C -4.367188 -2.496094 1.246094 0.933594 10.289062 0.933594 Z M 14.34375 -24.320312 C 12.160156 -24.320312 10.601562 -24.632812 9.355469 -24.945312 C 13.40625 -28.375 17.773438 -30.871094 21.515625 -30.871094 C 23.074219 -30.871094 23.699219 -30.558594 23.699219 -29.621094 C 23.699219 -27.75 17.773438 -24.320312 14.34375 -24.320312 Z M 14.34375 -24.320312 "/></g></g></g><g fill="#ffffff" fill-opacity="1"><g transform="translate(463.406695, 715.892118)"><g><path d="M 40.210938 1.164062 C 58.042969 1.164062 75.175781 -14.800781 75.175781 -40.210938 C 75.175781 -68.648438 55.945312 -82.398438 39.394531 -82.398438 C 21.445312 -82.398438 4.3125 -66.433594 4.3125 -41.023438 C 4.3125 -12.585938 23.660156 1.164062 40.210938 1.164062 Z M 13.753906 -48.019531 C 13.871094 -66.667969 21.210938 -80.070312 35.546875 -80.070312 C 53.84375 -80.070312 65.851562 -56.527344 65.734375 -33.101562 C 65.617188 -14.570312 58.390625 -1.164062 44.289062 -1.164062 C 25.640625 -1.164062 13.636719 -24.707031 13.753906 -48.019531 Z M 13.753906 -48.019531 "/></g></g><g transform="translate(542.893157, 715.892118)"><g><path d="M 30.070312 -82.398438 C 18.53125 -82.398438 3.730469 -73.890625 3.730469 -53.144531 C 3.730469 -37.179688 13.402344 -27.972656 26.691406 -27.972656 C 32.984375 -27.972656 39.625 -30.652344 44.871094 -35.082031 C 42.074219 -21.5625 34.265625 -3.03125 14.21875 9.90625 L 15.152344 11.304688 C 44.523438 -6.992188 56.757812 -32.984375 56.757812 -50.816406 C 56.757812 -70.277344 46.152344 -82.398438 30.070312 -82.398438 Z M 12.585938 -59.789062 C 12.585938 -74.007812 19.230469 -80.1875 27.15625 -80.1875 C 40.558594 -80.1875 46.269531 -64.683594 46.269531 -47.550781 C 46.269531 -44.871094 46.035156 -41.257812 45.222656 -36.945312 C 40.210938 -33.214844 35.199219 -32.402344 31.933594 -32.402344 C 19.929688 -32.402344 12.585938 -43.472656 12.585938 -59.789062 Z M 12.585938 -59.789062 "/></g></g></g><g fill="#ffffff" fill-opacity="1"><g transform="translate(603.964849, 715.892118)"><g><path d="M 13.054688 0.816406 C 16.316406 0.816406 18.996094 -2.097656 18.996094 -5.476562 C 18.996094 -8.859375 16.316406 -11.65625 13.054688 -11.65625 C 9.789062 -11.65625 6.992188 -8.859375 6.992188 -5.476562 C 6.992188 -2.097656 9.789062 0.816406 13.054688 0.816406 Z M 13.054688 0.816406 "/></g></g></g><g fill="#ffffff" fill-opacity="1"><g transform="translate(629.955271, 715.892118)"><g><path d="M 7.808594 0 L 28.554688 0 L 28.554688 -1.515625 C 24.242188 -2.5625 22.960938 -5.246094 22.960938 -14.800781 L 22.960938 -82.167969 L 22.027344 -82.167969 L 2.914062 -68.414062 L 3.148438 -67.597656 L 13.402344 -71.910156 L 13.402344 -14.800781 C 13.402344 -5.246094 12.121094 -2.5625 7.808594 -1.515625 Z M 7.808594 0 "/></g></g></g><g fill="#ffffff" fill-opacity="1"><g transform="translate(665.153093, 715.892118)"><g><path d="M 7.808594 0 L 28.554688 0 L 28.554688 -1.515625 C 24.242188 -2.5625 22.960938 -5.246094 22.960938 -14.800781 L 22.960938 -82.167969 L 22.027344 -82.167969 L 2.914062 -68.414062 L 3.148438 -67.597656 L 13.402344 -71.910156 L 13.402344 -14.800781 C 13.402344 -5.246094 12.121094 -2.5625 7.808594 -1.515625 Z M 7.808594 0 "/></g></g></g><g fill="#ffffff" fill-opacity="1"><g transform="translate(700.350915, 715.892118)"><g><path d="M 13.054688 0.816406 C 16.316406 0.816406 18.996094 -2.097656 18.996094 -5.476562 C 18.996094 -8.859375 16.316406 -11.65625 13.054688 -11.65625 C 9.789062 -11.65625 6.992188 -8.859375 6.992188 -5.476562 C 6.992188 -2.097656 9.789062 0.816406 13.054688 0.816406 Z M 13.054688 0.816406 "/></g></g></g><g fill="#ffffff" fill-opacity="1"><g transform="translate(726.341337, 715.892118)"><g><path d="M 0.582031 -1.632812 L 0.582031 0 L 51.746094 0 L 53.496094 -16.316406 L 52.332031 -16.433594 C 50.234375 -10.023438 47.785156 -7.808594 36.246094 -7.808594 L 9.671875 -7.808594 C 23.890625 -20.394531 51.046875 -41.609375 50.933594 -63.636719 C 50.816406 -75.523438 42.308594 -82.398438 32.050781 -82.398438 C 21.679688 -82.398438 13.984375 -77.039062 7.574219 -69.347656 L 8.507812 -68.296875 C 13.402344 -73.777344 19.582031 -76.339844 25.640625 -76.339844 C 34.613281 -76.339844 40.558594 -70.394531 40.558594 -60.722656 C 40.558594 -38.925781 16.667969 -17.132812 0.582031 -1.632812 Z M 0.582031 -1.632812 "/></g></g><g transform="translate(784.266222, 715.892118)"><g><path d="M 40.210938 1.164062 C 58.042969 1.164062 75.175781 -14.800781 75.175781 -40.210938 C 75.175781 -68.648438 55.945312 -82.398438 39.394531 -82.398438 C 21.445312 -82.398438 4.3125 -66.433594 4.3125 -41.023438 C 4.3125 -12.585938 23.660156 1.164062 40.210938 1.164062 Z M 13.753906 -48.019531 C 13.871094 -66.667969 21.210938 -80.070312 35.546875 -80.070312 C 53.84375 -80.070312 65.851562 -56.527344 65.734375 -33.101562 C 65.617188 -14.570312 58.390625 -1.164062 44.289062 -1.164062 C 25.640625 -1.164062 13.636719 -24.707031 13.753906 -48.019531 Z M 13.753906 -48.019531 "/></g></g><g transform="translate(863.752684, 715.892118)"><g><path d="M 0.582031 -1.632812 L 0.582031 0 L 51.746094 0 L 53.496094 -16.316406 L 52.332031 -16.433594 C 50.234375 -10.023438 47.785156 -7.808594 36.246094 -7.808594 L 9.671875 -7.808594 C 23.890625 -20.394531 51.046875 -41.609375 50.933594 -63.636719 C 50.816406 -75.523438 42.308594 -82.398438 32.050781 -82.398438 C 21.679688 -82.398438 13.984375 -77.039062 7.574219 -69.347656 L 8.507812 -68.296875 C 13.402344 -73.777344 19.582031 -76.339844 25.640625 -76.339844 C 34.613281 -76.339844 40.558594 -70.394531 40.558594 -60.722656 C 40.558594 -38.925781 16.667969 -17.132812 0.582031 -1.632812 Z M 0.582031 -1.632812 "/></g></g><g transform="translate(921.677569, 715.892118)"><g><path d="M 3.613281 14.800781 L 4.3125 16.316406 C 29.019531 3.261719 49.882812 -11.886719 49.882812 -31.46875 C 49.882812 -44.636719 38.226562 -48.484375 30.652344 -48.484375 C 27.972656 -48.484375 25.875 -48.132812 24.007812 -47.550781 C 35.082031 -53.144531 43.007812 -58.390625 43.007812 -68.765625 C 43.007812 -75.875 37.179688 -82.398438 27.390625 -82.398438 C 17.949219 -82.398438 10.839844 -77.738281 4.078125 -70.164062 L 5.128906 -69.113281 C 10.140625 -74.242188 15.851562 -76.574219 21.445312 -76.574219 C 28.902344 -76.574219 33.800781 -72.492188 33.800781 -65.5 C 33.800781 -56.527344 27.855469 -50.464844 16.78125 -45.335938 L 17.25 -44.171875 C 19.8125 -45.453125 22.609375 -46.152344 25.175781 -46.152344 C 32.167969 -46.152344 39.625 -42.890625 39.625 -29.488281 C 39.625 -15.152344 25.992188 3.378906 3.613281 14.800781 Z M 3.613281 14.800781 "/></g></g></g></svg>