<svg xmlns="http://www.w3.org/2000/svg" xmlns:xlink="http://www.w3.org/1999/xlink" width="150" zoomAndPan="magnify" viewBox="0 0 112.5 30.000001" height="40" preserveAspectRatio="xMidYMid meet" version="1.0"><defs><g/></defs><g fill="#6a7153" fill-opacity="1"><g transform="translate(12.626213, 39.760881)"><g><path d="M -1.0625 -19.078125 C -0.296875 -19.234375 0.191406 -19.382812 1.4375 -20.035156 L 4.558594 -21.496094 L 5.460938 -21.933594 C 5.527344 -22.003906 5.523438 -22.214844 5.382812 -22.28125 L 5.3125 -22.347656 L 5.101562 -22.34375 L 4.964844 -22.273438 C 1.148438 -20.519531 -1.144531 -19.636719 -1.566406 -19.769531 C -1.707031 -19.835938 -1.707031 -19.90625 -1.503906 -20.121094 C -1.367188 -20.402344 -1.230469 -20.476562 -0.742188 -20.625 C 0.0234375 -20.847656 0.714844 -21.210938 1.890625 -22.074219 C 2.992188 -22.863281 3.476562 -23.292969 3.402344 -23.503906 C 3.253906 -23.917969 2.625 -23.835938 1.515625 -23.398438 C 0.125 -22.878906 -1.460938 -21.589844 -2.136719 -20.457031 C -2.476562 -19.890625 -2.542969 -19.679688 -2.398438 -19.402344 C -2.320312 -18.914062 -2.179688 -18.917969 -1.0625 -19.078125 Z M -0.546875 -21.398438 C -0.480469 -21.609375 0.691406 -22.472656 1.179688 -22.621094 C 1.59375 -22.839844 2.289062 -23.132812 2.292969 -22.992188 C 2.222656 -22.921875 1.1875 -22.199219 0.5625 -21.839844 C -0.199219 -21.40625 -0.683594 -21.257812 -0.546875 -21.398438 Z M -0.546875 -21.398438 "/></g></g></g><g fill="#6a7153" fill-opacity="1"><g transform="translate(18.221267, 39.654414)"><g><path d="M 1.6875 -17.871094 C 3.4375 -17.835938 5.59375 -18.507812 7.328125 -19.378906 C 8.78125 -20.105469 10.925781 -21.40625 11.613281 -22.050781 C 11.957031 -22.335938 11.75 -22.332031 11.539062 -22.398438 C 11.46875 -22.398438 11.332031 -22.253906 11.125 -22.109375 C 10.433594 -21.675781 8.980469 -20.738281 7.179688 -19.867188 C 5.03125 -18.777344 3.425781 -18.464844 2.238281 -18.441406 C 1.046875 -18.421875 0.96875 -18.980469 0.96875 -18.980469 C 0.605469 -19.671875 0.726562 -20.582031 1.207031 -21.082031 C 1.621094 -21.441406 1.96875 -21.515625 1.976562 -21.238281 C 1.980469 -20.886719 2.261719 -20.890625 2.742188 -21.320312 C 3.984375 -22.324219 2.992188 -22.863281 1.46875 -21.996094 L 0.984375 -21.777344 C 0.769531 -22.125 0.972656 -22.476562 0.339844 -22.605469 C -0.222656 -22.734375 -0.632812 -22.238281 -0.839844 -22.023438 C -1.042969 -21.738281 -1.113281 -21.667969 -0.972656 -21.601562 C -0.898438 -21.53125 -0.691406 -21.535156 -0.621094 -21.605469 C -0.480469 -21.609375 0.00390625 -21.898438 0.140625 -21.972656 L 0.289062 -21.625 L 0.0859375 -21.269531 C 0.0195312 -21.058594 -0.320312 -20.5625 -0.664062 -20.136719 C -1.210938 -19.496094 -1.417969 -19.28125 -1.832031 -19.136719 C -2.457031 -18.914062 -2.59375 -18.699219 -2.378906 -18.355469 C -2.304688 -18.214844 -2.164062 -18.148438 -2.09375 -18.152344 C -1.816406 -18.15625 -1.261719 -18.585938 -0.644531 -19.226562 L -0.167969 -19.796875 L -0.0859375 -19.167969 C -0.0117188 -19.03125 0.136719 -18.613281 0.277344 -18.476562 C 0.5625 -18.203125 0.707031 -17.925781 1.6875 -17.871094 Z M 1.6875 -17.871094 "/></g></g></g><g fill="#6a7153" fill-opacity="1"><g transform="translate(30.040809, 39.429502)"><g><path d="M 0.78125 -17.714844 C 2.597656 -17.960938 5.800781 -18.652344 8.578125 -19.894531 C 10.378906 -20.695312 10.660156 -20.703125 13.015625 -21.867188 L 13.222656 -22.011719 C 14.195312 -22.519531 13.492188 -22.574219 13.214844 -22.5 C 13.214844 -22.429688 8.632812 -20.523438 8.636719 -20.453125 C 6.066406 -19.425781 3.492188 -18.605469 0.210938 -18.335938 C -0.976562 -18.3125 -1.40625 -18.652344 -1.550781 -19 C -1.625 -19.210938 -1.777344 -19.835938 -1.4375 -20.332031 L -1.164062 -20.6875 C -0.273438 -21.683594 1.246094 -22.832031 1.871094 -22.914062 L 2.152344 -22.917969 L 1.808594 -22.5625 C 1.605469 -22.277344 1.46875 -22.066406 1.539062 -21.996094 L 1.613281 -21.789062 C 1.617188 -21.71875 1.753906 -21.722656 1.824219 -21.722656 C 2.105469 -21.796875 3.058594 -23.007812 2.984375 -23.285156 C 2.980469 -23.496094 2.554688 -23.765625 2.277344 -23.691406 C 1.371094 -23.535156 -0.222656 -22.804688 -1.457031 -21.519531 C -2.144531 -20.808594 -2.484375 -20.3125 -2.472656 -19.542969 C -2.457031 -18.914062 -2.023438 -18.011719 -1.109375 -17.820312 C -0.546875 -17.691406 -0.265625 -17.625 0.78125 -17.714844 Z M 0.78125 -17.714844 "/></g></g></g><g fill="#6a7153" fill-opacity="1"><g transform="translate(43.67875, 39.169988)"><g><path d="M -3.351562 -14.347656 C -3.28125 -14.351562 -3.21875 -14.699219 -3.09375 -15.472656 C -2.976562 -16.734375 -2.574219 -17.652344 -1.554688 -19.210938 C -0.671875 -20.625 1.988281 -24.175781 2.128906 -24.179688 C 2.195312 -24.25 2.265625 -24.320312 2.265625 -24.390625 C 2.402344 -24.53125 2.539062 -24.605469 2.679688 -24.679688 L 3.921875 -25.542969 C 4.542969 -25.902344 4.683594 -25.976562 5.234375 -26.40625 L 5.855469 -26.835938 C 5.925781 -26.839844 6.617188 -27.273438 7.03125 -27.628906 C 7.511719 -27.988281 8.824219 -28.851562 9.035156 -28.996094 L 9.722656 -29.5 L 10.480469 -30.074219 L 11.378906 -30.789062 L 13.101562 -32.222656 C 14.132812 -33.011719 16.539062 -35.226562 16.667969 -35.859375 C 16.796875 -36.421875 16.371094 -36.691406 15.609375 -36.398438 C 14.84375 -36.171875 13.804688 -35.523438 13.253906 -35.09375 C 12.632812 -34.664062 11.800781 -34.226562 11.183594 -33.726562 C 9.390625 -32.363281 7.527344 -30.855469 5.742188 -29.214844 C 4.984375 -28.5 3.40625 -26.929688 3.0625 -26.644531 L 1.6875 -25.21875 C 1.550781 -25.144531 1.480469 -25.144531 1.480469 -25.144531 C 1.410156 -25.214844 1.339844 -25.140625 1.339844 -25.140625 C 1.34375 -25.003906 0.578125 -24.777344 0.4375 -24.84375 C 0.367188 -24.914062 0.296875 -24.84375 0.296875 -24.773438 C 0.300781 -24.632812 0.65625 -24.289062 0.796875 -24.292969 L 0.9375 -24.296875 C 0.730469 -24.082031 0.664062 -23.941406 0.664062 -23.871094 L 0.390625 -23.515625 C 0.1875 -23.300781 0.0507812 -23.160156 0.0507812 -23.089844 C 0.0507812 -23.019531 0.0546875 -22.949219 -0.015625 -22.949219 C -0.0859375 -22.945312 -0.292969 -22.664062 -0.5625 -22.308594 L -1.109375 -21.597656 C -1.179688 -21.597656 -1.179688 -21.457031 -1.175781 -21.386719 C -1.242188 -21.246094 -1.3125 -21.175781 -1.382812 -21.171875 L -1.589844 -20.957031 C -1.585938 -20.820312 -1.585938 -20.820312 -1.65625 -20.816406 C -1.726562 -20.816406 -1.792969 -20.746094 -1.792969 -20.675781 C -1.789062 -20.535156 -1.859375 -20.464844 -1.929688 -20.460938 C -1.929688 -20.53125 -2 -20.460938 -1.996094 -20.390625 C -1.996094 -20.25 -2.402344 -19.613281 -2.742188 -19.117188 C -3.015625 -18.691406 -3.082031 -18.480469 -3.148438 -18.339844 C -3.144531 -18.199219 -3.210938 -18.058594 -3.277344 -17.847656 C -3.617188 -17.351562 -3.875 -16.085938 -3.71875 -15.320312 C -3.636719 -14.554688 -3.5625 -14.414062 -3.351562 -14.347656 Z M 4.046875 -26.3125 C 3.839844 -26.238281 3.976562 -26.3125 4.523438 -26.953125 C 5.140625 -27.664062 8.648438 -30.808594 8.789062 -30.8125 L 11.269531 -32.886719 L 12.304688 -33.605469 L 12.855469 -34.105469 L 13.269531 -34.394531 L 14.375 -35.117188 L 14.859375 -35.40625 L 15.203125 -35.621094 L 15.34375 -35.695312 C 15.410156 -35.765625 15.480469 -35.765625 15.621094 -35.769531 C 15.691406 -35.839844 15.761719 -35.769531 15.761719 -35.632812 C 15.761719 -35.632812 15.765625 -35.5625 15.695312 -35.492188 L 15.558594 -35.347656 L 15.558594 -35.277344 L 15.351562 -35.132812 L 15.285156 -35.0625 L 15.148438 -34.851562 L 14.941406 -34.636719 L 13.980469 -33.707031 L 12.671875 -32.632812 C 12.121094 -32.132812 11.707031 -31.777344 11.640625 -31.773438 L 11.226562 -31.488281 C 10.675781 -30.988281 9.085938 -29.835938 8.8125 -29.621094 C 8.535156 -29.476562 7.707031 -28.902344 7.429688 -28.6875 C 7.015625 -28.328125 5.914062 -27.46875 5.636719 -27.324219 L 5.359375 -27.109375 Z M 4.046875 -26.3125 "/></g></g></g><g fill="#6a7153" fill-opacity="1"><g transform="translate(49.833304, 39.052874)"><g><path d="M -1.828125 -18.925781 L -1.410156 -18.933594 C -0.851562 -18.945312 0.117188 -19.59375 0.460938 -19.878906 L 0.941406 -20.308594 L 1.011719 -20.378906 L 1.015625 -20.097656 C 0.890625 -19.464844 1.113281 -18.703125 2.296875 -19.003906 L 2.507812 -19.007812 C 2.507812 -19.007812 3.757812 -19.382812 5.078125 -19.964844 L 8.128906 -21.421875 L 8.960938 -21.859375 C 9.167969 -21.933594 9.164062 -22.144531 9.023438 -22.210938 L 8.882812 -22.277344 L 8.742188 -22.273438 L 8.601562 -22.203125 C 5.550781 -20.816406 3.46875 -19.9375 2.492188 -19.707031 C 2.492188 -19.707031 1.800781 -19.414062 1.722656 -19.761719 C 1.578125 -19.96875 1.777344 -20.601562 2.253906 -21.242188 C 2.871094 -22.023438 3.761719 -22.949219 3.199219 -23.148438 C 2.988281 -23.214844 2.917969 -23.214844 2.574219 -22.855469 L 2.4375 -22.644531 L 2.027344 -22.21875 L 1.890625 -22.003906 C 0.933594 -20.796875 -1.132812 -19.148438 -1.425781 -19.703125 C -1.570312 -19.980469 -0.128906 -21.546875 0.484375 -22.328125 C 0.757812 -22.683594 0.960938 -23.035156 0.679688 -23.171875 C 0.535156 -23.308594 0.46875 -23.238281 0.191406 -23.023438 C -0.289062 -22.453125 -1.796875 -20.953125 -1.996094 -20.320312 C -2.058594 -20.039062 -2.191406 -19.617188 -2.046875 -19.269531 Z M -1.828125 -18.925781 "/></g></g></g><g fill="#6a7153" fill-opacity="1"><g transform="translate(59.135068, 38.875873)"><g><path d="M -2.957031 -15.683594 C -2.121094 -15.910156 -0.539062 -17.339844 -0.273438 -18.046875 C -0.136719 -18.257812 -0.00390625 -18.679688 0.0585938 -18.960938 C 0.121094 -19.3125 0.257812 -19.523438 0.464844 -19.667969 L 1.160156 -19.960938 C 1.714844 -20.253906 2.617188 -20.550781 3.519531 -20.847656 C 2.964844 -20.625 4.773438 -21.21875 6.027344 -21.59375 C 6.582031 -21.742188 6.71875 -21.886719 6.507812 -22.09375 C 6.363281 -22.230469 6.222656 -22.226562 5.804688 -22.078125 C 4.96875 -21.921875 1.351562 -20.875 0.59375 -20.371094 C 0.105469 -20.152344 -0.0390625 -20.359375 0.015625 -21.339844 C 0.136719 -22.25 0.136719 -22.320312 0.484375 -22.398438 C 0.96875 -22.546875 1.105469 -22.828125 0.820312 -23.171875 C 0.605469 -23.378906 0.394531 -23.304688 -0.0898438 -23.015625 C -0.710938 -22.65625 -0.777344 -22.375 -0.75 -21.042969 C -0.738281 -20.414062 -0.796875 -19.855469 -0.796875 -19.714844 C -0.863281 -19.644531 -1.140625 -19.5 -1.417969 -19.351562 C -1.695312 -19.277344 -1.902344 -19.132812 -1.972656 -19.132812 L -2.730469 -18.558594 C -3.699219 -17.980469 -4.113281 -17.550781 -4.171875 -16.992188 C -4.164062 -16.570312 -4.160156 -16.433594 -3.945312 -16.226562 C -3.804688 -16.089844 -3.660156 -15.882812 -3.660156 -15.882812 C -3.65625 -15.671875 -3.234375 -15.539062 -2.957031 -15.683594 Z M -2.972656 -16.453125 C -3.25 -16.449219 -3.535156 -16.722656 -3.542969 -17.003906 C -3.550781 -17.421875 -2.375 -18.144531 -2.234375 -18.21875 L -1.542969 -18.652344 L -1.058594 -18.941406 L -1.054688 -18.589844 C -1.117188 -18.167969 -1.25 -17.957031 -2.007812 -17.171875 C -2.417969 -16.746094 -2.832031 -16.457031 -2.972656 -16.453125 Z M -2.972656 -16.453125 "/></g></g></g><g fill="#6a7153" fill-opacity="1"><g transform="translate(65.919071, 38.746782)"><g><path d="M 2.480469 -24.113281 C 2.757812 -24.191406 3.027344 -24.683594 2.953125 -24.964844 C 2.949219 -25.101562 2.808594 -25.242188 2.738281 -25.308594 C 2.453125 -25.511719 2.175781 -25.367188 2.113281 -24.945312 C 2.117188 -24.738281 2.050781 -24.597656 1.980469 -24.523438 C 1.773438 -24.382812 2.203125 -23.96875 2.480469 -24.113281 Z M -1.410156 -19.003906 C -0.644531 -19.085938 0.679688 -19.53125 1.789062 -20.042969 L 4.839844 -21.5 L 5.671875 -21.867188 C 5.878906 -22.011719 5.875 -22.21875 5.734375 -22.289062 L 5.589844 -22.355469 L 5.453125 -22.351562 L 5.3125 -22.28125 C 2.261719 -20.890625 0.179688 -20.011719 -0.796875 -19.785156 C -0.796875 -19.785156 -1.351562 -19.5625 -1.632812 -19.699219 C -1.640625 -19.976562 -1.574219 -20.257812 -1.371094 -20.542969 L -0.199219 -21.546875 C 0.625 -22.261719 0.828125 -22.613281 0.476562 -22.746094 C 0.335938 -22.816406 -0.21875 -22.59375 -0.703125 -22.234375 C -1.941406 -21.160156 -2.488281 -20.453125 -2.476562 -19.753906 L -2.472656 -19.542969 C -2.460938 -19.125 -2.109375 -18.921875 -1.410156 -19.003906 Z M -1.410156 -19.003906 "/></g></g></g><g fill="#6a7153" fill-opacity="1"><g transform="translate(71.79387, 38.634991)"><g><path d="M -0.480469 -17.972656 C -0.203125 -17.976562 0.625 -18.691406 1.03125 -19.328125 C 1.167969 -19.542969 2.054688 -20.609375 2.324219 -21.3125 C 2.457031 -21.664062 2.667969 -21.667969 2.945312 -21.675781 C 3.222656 -21.75 3.296875 -21.542969 3.507812 -21.546875 L 4.703125 -21.289062 L 5.683594 -21.167969 C 6.457031 -21.042969 7.15625 -20.984375 8.066406 -21.003906 L 9.394531 -21.027344 C 9.8125 -21.035156 11.210938 -21.273438 11.488281 -21.277344 L 12.253906 -21.433594 C 13.019531 -21.65625 13.507812 -21.875 13.503906 -22.085938 C 13.214844 -22.429688 13.292969 -22.152344 12.523438 -21.996094 C 12.109375 -21.847656 10.644531 -21.542969 7.777344 -21.488281 C 5.816406 -21.519531 4.550781 -21.84375 3.28125 -22.378906 C 2.367188 -22.714844 1.878906 -22.492188 1.953125 -22.355469 C 1.953125 -22.285156 1.824219 -21.792969 1.554688 -21.296875 C 1.21875 -20.453125 1.015625 -20.167969 0.398438 -19.527344 C -0.289062 -18.816406 -0.5625 -18.597656 -0.636719 -18.808594 C -0.785156 -19.15625 -0.394531 -20.703125 0.078125 -21.691406 C 0.414062 -22.328125 0.75 -23.101562 0.535156 -23.449219 L 0.460938 -23.65625 C 0.460938 -23.65625 0.320312 -23.652344 0.179688 -23.582031 C 0.109375 -23.578125 -0.09375 -23.367188 -0.226562 -23.015625 C -0.296875 -22.941406 -0.421875 -22.242188 -0.492188 -22.167969 C -0.960938 -21.179688 -1.359375 -19.984375 -1.417969 -19.351562 C -1.46875 -18.441406 -1.109375 -17.890625 -0.480469 -17.972656 Z M -0.480469 -17.972656 "/></g></g></g><g fill="#6a7153" fill-opacity="1"><g transform="translate(85.711559, 38.370154)"><g><path d="M -1.203125 -19.007812 C -0.222656 -19.027344 1.226562 -20.101562 1.566406 -20.667969 L 1.773438 -20.742188 C 2.476562 -20.617188 3.316406 -20.5625 4.226562 -20.578125 C 5.207031 -20.597656 7.4375 -20.921875 8.894531 -21.578125 L 9.519531 -21.871094 C 9.65625 -21.941406 9.722656 -22.082031 9.652344 -22.222656 C 9.578125 -22.359375 9.371094 -22.355469 9.300781 -22.285156 C 7.984375 -21.699219 6.453125 -21.113281 4.078125 -21.066406 C 3.515625 -21.054688 2.957031 -21.117188 2.535156 -21.246094 C 2.394531 -21.316406 2.25 -21.382812 1.96875 -21.445312 L 1.957031 -22.074219 C 1.957031 -22.144531 1.953125 -22.285156 1.882812 -22.355469 C 1.8125 -22.492188 1.597656 -22.628906 1.386719 -22.625 L 0.476562 -22.675781 L 0.335938 -22.746094 L -0.21875 -22.523438 L -1.386719 -21.3125 C -1.589844 -21.097656 -2.335938 -19.753906 -1.972656 -19.203125 C -1.757812 -18.925781 -1.757812 -18.925781 -1.203125 -19.007812 Z M 0.984375 -21.777344 C 0.84375 -21.84375 0.773438 -21.914062 0.914062 -21.914062 C 0.980469 -21.917969 1.054688 -21.847656 1.125 -21.851562 C 1.125 -21.78125 1.125 -21.710938 0.984375 -21.777344 Z M -1.003906 -19.640625 C -1.074219 -19.640625 -1.359375 -19.984375 -0.746094 -20.835938 C -0.335938 -21.402344 -0.128906 -21.476562 0.0820312 -21.480469 L 0.363281 -21.277344 L 0.789062 -21.074219 C 0.859375 -21.003906 1.140625 -20.941406 0.246094 -20.152344 C -0.371094 -19.582031 -0.933594 -19.640625 -1.003906 -19.640625 Z M -1.003906 -19.640625 "/></g></g></g><g fill="#6a7153" fill-opacity="1"><g transform="translate(95.502906, 38.183836)"><g><path d="M -2.957031 -15.683594 C -2.121094 -15.910156 -0.539062 -17.339844 -0.273438 -18.046875 C -0.136719 -18.257812 -0.00390625 -18.679688 0.0585938 -18.960938 C 0.121094 -19.3125 0.257812 -19.523438 0.464844 -19.667969 L 1.160156 -19.960938 C 1.714844 -20.253906 2.617188 -20.550781 3.519531 -20.847656 C 2.964844 -20.625 4.773438 -21.21875 6.027344 -21.59375 C 6.582031 -21.742188 6.71875 -21.886719 6.507812 -22.09375 C 6.363281 -22.230469 6.222656 -22.226562 5.804688 -22.078125 C 4.96875 -21.921875 1.351562 -20.875 0.59375 -20.371094 C 0.105469 -20.152344 -0.0390625 -20.359375 0.015625 -21.339844 C 0.136719 -22.25 0.136719 -22.320312 0.484375 -22.398438 C 0.96875 -22.546875 1.105469 -22.828125 0.820312 -23.171875 C 0.605469 -23.378906 0.394531 -23.304688 -0.0898438 -23.015625 C -0.710938 -22.65625 -0.777344 -22.375 -0.75 -21.042969 C -0.738281 -20.414062 -0.796875 -19.855469 -0.796875 -19.714844 C -0.863281 -19.644531 -1.140625 -19.5 -1.417969 -19.351562 C -1.695312 -19.277344 -1.902344 -19.132812 -1.972656 -19.132812 L -2.730469 -18.558594 C -3.699219 -17.980469 -4.113281 -17.550781 -4.171875 -16.992188 C -4.164062 -16.570312 -4.160156 -16.433594 -3.945312 -16.226562 C -3.804688 -16.089844 -3.660156 -15.882812 -3.660156 -15.882812 C -3.65625 -15.671875 -3.234375 -15.539062 -2.957031 -15.683594 Z M -2.972656 -16.453125 C -3.25 -16.449219 -3.535156 -16.722656 -3.542969 -17.003906 C -3.550781 -17.421875 -2.375 -18.144531 -2.234375 -18.21875 L -1.542969 -18.652344 L -1.058594 -18.941406 L -1.054688 -18.589844 C -1.117188 -18.167969 -1.25 -17.957031 -2.007812 -17.171875 C -2.417969 -16.746094 -2.832031 -16.457031 -2.972656 -16.453125 Z M -2.972656 -16.453125 "/></g></g></g></svg>