<svg xmlns="http://www.w3.org/2000/svg" xmlns:xlink="http://www.w3.org/1999/xlink" width="400" zoomAndPan="magnify" viewBox="0 0 300 299.999988" height="400" preserveAspectRatio="xMidYMid meet" version="1.0"><defs><g/></defs><g fill="#d5b358" fill-opacity="1"><g transform="translate(-9.250791, 282.252143)"><g><path d="M 129.851562 1.554688 C 130.046875 1.359375 131.015625 -0.195312 132.183594 -2.328125 L 134.316406 -6.210938 L 137.617188 -11.257812 L 140.140625 -14.945312 C 142.082031 -17.855469 147.128906 -24.652344 147.320312 -24.84375 C 147.710938 -25.039062 149.652344 -27.757812 149.652344 -27.949219 L 150.039062 -28.53125 L 152.175781 -31.25 L 156.054688 -36.492188 L 157.804688 -38.433594 L 176.242188 -60.363281 L 177.019531 -61.335938 L 185.171875 -69.875 C 190.410156 -74.921875 192.160156 -76.863281 193.128906 -78.027344 L 196.429688 -81.132812 C 197.59375 -82.296875 198.757812 -83.464844 198.953125 -84.046875 L 199.730469 -84.820312 C 199.921875 -84.820312 200.894531 -85.597656 201.863281 -86.761719 C 204 -89.089844 207.105469 -92.003906 208.65625 -93.167969 C 210.210938 -94.136719 215.0625 -98.214844 217.390625 -100.347656 L 222.050781 -104.621094 C 224.960938 -107.144531 225.351562 -107.917969 224.378906 -108.5 C 223.601562 -109.085938 222.4375 -108.695312 220.496094 -106.753906 C 219.332031 -105.785156 218.167969 -104.8125 217.972656 -104.8125 C 217.585938 -104.621094 217.390625 -104.425781 217.390625 -104.230469 C 217.390625 -103.648438 204.191406 -92.78125 202.640625 -92.199219 L 199.730469 -90.644531 L 189.246094 -84.628906 C 187.886719 -83.851562 186.140625 -82.6875 185.367188 -82.105469 C 184.589844 -81.328125 183.8125 -80.941406 183.617188 -80.941406 L 181.484375 -79.582031 C 180.511719 -78.804688 178.960938 -77.640625 177.988281 -77.25 L 175.464844 -75.503906 C 174.496094 -74.726562 168.671875 -71.039062 168.285156 -71.039062 L 167.121094 -70.265625 L 165.957031 -69.683594 C 165.957031 -69.875 164.984375 -69.292969 164.015625 -68.515625 L 163.433594 -68.128906 L 159.742188 -65.992188 C 157.996094 -65.023438 156.25 -64.054688 156.054688 -64.054688 C 155.863281 -64.054688 155.472656 -63.859375 155.28125 -63.664062 C 154.308594 -62.304688 147.320312 -59.394531 144.992188 -59.199219 C 143.441406 -59.007812 143.246094 -59.007812 143.632812 -59.589844 C 143.632812 -59.976562 144.214844 -60.753906 144.605469 -61.53125 L 145.769531 -63.277344 L 147.320312 -65.410156 C 147.902344 -66.382812 149.261719 -68.128906 150.039062 -69.488281 L 151.785156 -72.398438 L 153.921875 -75.117188 C 155.472656 -77.25 158.773438 -80.941406 160.328125 -82.6875 L 164.984375 -87.34375 L 167.121094 -89.867188 C 168.671875 -91.613281 170.03125 -93.167969 171.777344 -94.914062 C 172.167969 -95.304688 172.554688 -95.886719 172.554688 -95.886719 C 172.554688 -96.078125 174.496094 -97.828125 176.824219 -99.960938 L 182.648438 -105.203125 L 184.78125 -107.335938 C 189.828125 -111.21875 191.964844 -113.160156 193.128906 -114.714844 L 195.070312 -116.652344 L 196.429688 -118.207031 L 200.503906 -122.671875 L 206.523438 -129.078125 C 207.878906 -130.433594 208.851562 -131.40625 210.210938 -132.957031 L 211.761719 -134.707031 L 213.507812 -136.453125 C 215.644531 -138.976562 215.644531 -140.527344 213.316406 -140.527344 C 212.734375 -140.527344 211.957031 -140.140625 210.792969 -138.78125 L 203.804688 -131.40625 C 202.640625 -130.433594 201.28125 -129.078125 200.699219 -128.300781 C 200.117188 -127.328125 198.953125 -126.164062 198.175781 -125.386719 C 195.070312 -122.089844 193.324219 -120.34375 190.800781 -117.429688 C 188.277344 -114.714844 183.425781 -110.054688 182.84375 -110.054688 C 182.453125 -110.054688 178.183594 -106.171875 178.378906 -105.976562 C 178.570312 -105.976562 176.628906 -104.039062 174.300781 -101.902344 C 169.835938 -97.828125 168.867188 -96.855469 165.371094 -92.972656 C 164.402344 -91.808594 163.433594 -90.839844 163.238281 -90.839844 C 163.042969 -91.03125 162.851562 -91.03125 163.042969 -90.839844 C 163.238281 -90.644531 162.265625 -89.285156 160.910156 -87.925781 L 155.472656 -82.105469 C 153.921875 -80.164062 151.785156 -77.640625 151.007812 -76.476562 L 149.652344 -74.535156 C 149.070312 -73.953125 145.378906 -68.324219 145.378906 -68.128906 L 144.023438 -66.1875 C 142.273438 -63.859375 139.75 -59.199219 139.75 -58.425781 C 139.75 -56.09375 144.992188 -56.484375 150.621094 -59.007812 C 153.53125 -60.171875 157.804688 -62.695312 158.578125 -63.46875 C 158.773438 -63.859375 159.160156 -64.054688 159.355469 -64.054688 C 159.550781 -64.054688 160.519531 -64.441406 161.492188 -65.023438 L 169.253906 -69.875 L 174.109375 -72.59375 C 174.300781 -72.59375 174.691406 -72.980469 174.882812 -73.371094 C 175.273438 -73.757812 175.660156 -74.144531 175.855469 -74.144531 C 176.046875 -74.144531 176.628906 -74.535156 177.40625 -75.117188 C 178.183594 -75.699219 179.152344 -76.476562 179.542969 -76.667969 L 181.09375 -77.445312 C 182.066406 -78.222656 184.589844 -79.773438 185.171875 -80.164062 L 186.335938 -80.941406 C 187.5 -81.910156 191.578125 -84.238281 191.964844 -84.238281 C 192.160156 -84.238281 192.546875 -84.433594 192.742188 -84.820312 C 193.128906 -85.210938 193.90625 -85.792969 194.683594 -86.179688 L 198.5625 -88.121094 L 197.207031 -86.570312 L 191.382812 -80.746094 C 191.1875 -80.355469 187.695312 -76.667969 186.335938 -75.503906 C 185.171875 -74.535156 182.648438 -71.816406 181.09375 -69.875 L 178.960938 -67.351562 L 176.4375 -65.023438 L 174.300781 -62.304688 L 168.285156 -55.511719 L 165.761719 -52.210938 L 164.207031 -50.464844 C 163.625 -49.691406 163.042969 -48.914062 162.851562 -48.914062 C 162.65625 -48.914062 162.65625 -48.71875 162.65625 -48.523438 C 162.65625 -48.136719 159.160156 -43.867188 158.578125 -43.476562 L 156.636719 -40.953125 L 154.113281 -37.847656 L 151.398438 -34.355469 L 147.515625 -28.921875 L 144.410156 -24.457031 C 140.917969 -19.214844 138.585938 -15.917969 138.003906 -15.332031 C 137.617188 -14.945312 137.421875 -14.75 137.617188 -14.75 C 137.617188 -14.75 137.421875 -14.167969 137.035156 -13.585938 L 133.347656 -7.570312 L 130.628906 -2.136719 C 129.660156 -0.195312 129.269531 1.746094 129.851562 1.554688 Z M 20.960938 4.464844 C 23.292969 5.628906 28.921875 4.660156 34.355469 2.328125 C 35.132812 1.941406 36.492188 1.359375 37.265625 1.359375 C 39.789062 0.777344 59.007812 -8.734375 60.949219 -10.480469 L 65.023438 -13.199219 C 68.710938 -15.527344 68.515625 -15.332031 70.652344 -17.273438 L 75.117188 -20.769531 L 80.746094 -25.425781 L 84.238281 -28.53125 L 86.570312 -30.28125 C 87.539062 -31.054688 89.285156 -32.414062 90.449219 -33.578125 L 109.085938 -49.300781 C 112.191406 -52.019531 117.042969 -56.09375 119.566406 -57.839844 C 121.3125 -59.199219 123.058594 -60.753906 123.058594 -61.335938 C 123.058594 -61.722656 124.613281 -63.082031 125 -62.886719 C 125.195312 -62.886719 125.582031 -62.886719 125.972656 -63.277344 L 136.839844 -72.398438 C 137.230469 -72.789062 137.617188 -73.371094 137.8125 -73.953125 C 138.003906 -74.339844 138.394531 -74.921875 138.976562 -75.117188 C 139.75 -75.3125 143.632812 -78.609375 145.378906 -80.550781 L 147.320312 -82.492188 L 158.578125 -92.972656 C 160.132812 -94.332031 162.074219 -96.46875 162.851562 -97.632812 C 163.625 -98.796875 164.402344 -99.574219 164.789062 -99.378906 C 164.984375 -99.378906 165.179688 -99.378906 165.179688 -99.574219 C 165.179688 -99.960938 167.121094 -101.707031 168.089844 -102.289062 C 168.480469 -102.484375 168.671875 -102.871094 168.671875 -103.261719 C 168.480469 -103.648438 168.671875 -103.84375 169.253906 -103.84375 C 169.835938 -103.84375 170.226562 -104.230469 170.417969 -104.8125 C 170.613281 -105.394531 171 -105.785156 171.195312 -105.785156 C 171.585938 -105.785156 173.136719 -107.144531 176.824219 -110.441406 L 180.707031 -113.742188 C 184.589844 -116.847656 187.113281 -119.371094 186.917969 -119.953125 C 186.53125 -120.535156 185.558594 -120.535156 185.171875 -119.757812 C 184.976562 -119.566406 184.007812 -118.59375 182.84375 -117.625 C 179.347656 -114.714844 172.359375 -108.113281 171.972656 -107.335938 C 171.777344 -106.949219 171.585938 -106.753906 171.390625 -106.753906 C 171.195312 -106.949219 170.226562 -106.171875 169.449219 -105.394531 L 166.539062 -102.679688 C 165.957031 -102.097656 164.984375 -101.125 164.597656 -100.542969 C 164.207031 -99.960938 163.625 -99.574219 163.433594 -99.574219 C 163.433594 -99.574219 160.328125 -96.855469 157.027344 -93.554688 C 147.320312 -84.433594 141.304688 -78.804688 141.109375 -78.804688 C 140.917969 -78.804688 136.257812 -74.339844 132.570312 -71.039062 L 128.492188 -67.546875 C 127.328125 -66.769531 125.972656 -65.410156 125.195312 -64.828125 C 124.613281 -64.054688 123.835938 -63.46875 123.640625 -63.46875 C 123.449219 -63.46875 122.863281 -63.082031 122.28125 -62.5 L 111.996094 -54.152344 L 108.113281 -51.046875 C 107.53125 -50.464844 106.949219 -50.273438 106.949219 -50.273438 C 106.753906 -50.273438 106.367188 -49.882812 105.976562 -49.496094 L 100.933594 -45.03125 C 95.304688 -40.566406 93.75 -39.207031 90.0625 -35.910156 C 88.316406 -34.355469 86.375 -32.804688 85.792969 -32.609375 C 85.015625 -32.21875 84.433594 -32.027344 84.433594 -31.832031 C 84.433594 -31.636719 83.464844 -30.472656 82.105469 -29.308594 L 79 -26.398438 C 78.609375 -25.816406 78.027344 -25.425781 77.640625 -25.425781 C 77.445312 -25.425781 76.863281 -25.039062 76.28125 -24.457031 C 75.699219 -23.679688 74.921875 -23.097656 74.339844 -22.902344 C 73.953125 -22.902344 72.980469 -22.320312 72.59375 -21.933594 L 70.847656 -20.378906 C 70.457031 -20.1875 69.683594 -19.214844 69.097656 -18.632812 C 68.515625 -17.855469 68.128906 -17.273438 67.933594 -17.46875 C 67.742188 -17.46875 66.578125 -16.886719 65.21875 -15.917969 C 63.859375 -14.945312 62.5 -14.167969 62.304688 -14.167969 L 58.230469 -11.644531 C 56.09375 -10.289062 53.765625 -8.929688 52.988281 -8.734375 L 49.882812 -6.988281 L 45.613281 -5.046875 C 40.371094 -2.910156 39.402344 -2.523438 37.265625 -1.746094 L 32.414062 0 C 31.054688 0.582031 29.113281 0.96875 27.175781 0.96875 C 23.875 1.164062 23.875 1.164062 24.261719 0.195312 C 24.84375 -1.941406 24.84375 -2.523438 24.070312 -2.910156 C 23.679688 -3.300781 23.097656 -3.300781 22.320312 -3.105469 C 20.769531 -2.523438 19.796875 -0.96875 19.605469 1.554688 L 19.410156 3.882812 Z M 20.960938 4.464844 "/></g></g></g><g fill="#d5b358" fill-opacity="1"><g transform="translate(188.327632, 282.252143)"><g><path d="M 4.269531 -52.988281 C 5.046875 -52.796875 5.824219 -52.796875 6.597656 -52.988281 L 7.183594 -52.988281 C 7.183594 -52.988281 10.675781 -53.765625 14.363281 -55.511719 L 25.425781 -60.558594 C 25.816406 -60.753906 25.816406 -61.335938 25.425781 -61.53125 L 25.234375 -61.722656 L 24.652344 -61.722656 L 24.261719 -61.53125 C 15.722656 -57.839844 9.898438 -55.511719 7.375 -54.929688 C 7.375 -54.929688 4.851562 -54.152344 4.660156 -54.929688 C 3.882812 -56.675781 5.242188 -58.8125 6.210938 -59.976562 C 6.988281 -60.949219 8.929688 -63.277344 6.597656 -63.277344 C 6.210938 -63.277344 5.628906 -63.46875 5.628906 -63.664062 C 5.433594 -64.441406 4.851562 -64.246094 1.554688 -62.5 C -1.359375 -60.949219 -5.046875 -58.617188 -7.375 -56.675781 C -8.347656 -55.902344 -8.734375 -55.511719 -8.734375 -54.929688 C -8.734375 -53.960938 -8.152344 -53.765625 -6.988281 -53.765625 C -6.015625 -53.765625 -2.136719 -55.707031 -0.582031 -56.871094 C 0.96875 -58.230469 3.492188 -59.589844 3.492188 -59.394531 L 2.910156 -58.035156 C 2.523438 -57.453125 2.328125 -56.675781 2.328125 -56.09375 C 2.136719 -55.320312 2.136719 -54.734375 2.71875 -53.960938 C 3.105469 -53.378906 3.492188 -52.988281 4.269531 -52.988281 Z M -6.597656 -55.511719 L -5.433594 -56.289062 C -4.269531 -57.453125 -1.164062 -59.589844 1.359375 -60.753906 C 3.300781 -61.917969 3.6875 -61.917969 3.6875 -61.53125 C 3.6875 -61.335938 3.105469 -60.949219 2.523438 -60.753906 C 0.96875 -59.976562 0.195312 -59.394531 -0.195312 -59.007812 C -0.582031 -58.617188 -3.882812 -56.675781 -5.433594 -55.902344 Z M -6.597656 -55.511719 "/></g></g></g><g fill="#d5b358" fill-opacity="1"><g transform="translate(213.170498, 282.252143)"><g><path d="M -64.828125 4.851562 C -62.886719 4.660156 -59.199219 3.300781 -56.289062 1.746094 L -53.570312 0.195312 L -51.628906 -0.96875 L -47.167969 -4.074219 L -39.015625 -10.289062 L -29.890625 -17.664062 C -25.816406 -20.960938 -18.828125 -27.757812 -15.722656 -31.445312 C -14.167969 -33.386719 -12.421875 -34.9375 -12.226562 -35.132812 C -11.644531 -35.910156 -6.988281 -38.042969 -3.300781 -39.207031 C -2.523438 -39.402344 -1.941406 -39.789062 -1.746094 -39.984375 C -1.554688 -40.179688 -1.359375 -40.179688 -1.164062 -40.179688 C -0.96875 -39.984375 -0.582031 -40.179688 -0.195312 -40.371094 C 0 -40.566406 0.777344 -40.761719 1.164062 -40.953125 C 1.746094 -40.953125 2.328125 -41.148438 2.523438 -41.34375 C 2.71875 -41.34375 3.492188 -41.730469 4.660156 -41.925781 L 22.515625 -46.582031 C 23.292969 -46.777344 25.039062 -47.167969 26.589844 -47.359375 C 28.921875 -47.75 29.113281 -47.75 28.726562 -47.167969 C 28.144531 -46.582031 28.339844 -46.195312 29.113281 -46 C 29.695312 -45.808594 30.085938 -45.808594 31.25 -46.390625 L 32.996094 -47.167969 C 33.191406 -47.167969 33.386719 -47.359375 33.773438 -47.75 C 34.160156 -48.332031 33.773438 -49.105469 32.996094 -49.300781 C 32.027344 -49.496094 29.113281 -49.105469 26.980469 -48.71875 L 22.710938 -47.75 L 11.839844 -45.03125 C 7.957031 -44.0625 4.660156 -43.089844 -0.582031 -41.34375 L -5.046875 -39.789062 L -7.570312 -39.207031 L -9.703125 -38.433594 C -10.480469 -38.042969 1.164062 -51.046875 2.523438 -52.796875 L 5.046875 -56.09375 L 7.183594 -59.394531 C 7.765625 -60.171875 8.152344 -60.949219 8.152344 -61.140625 C 8.152344 -61.335938 7.957031 -61.722656 7.957031 -62.304688 C 7.957031 -63.859375 6.210938 -64.441406 3.6875 -63.664062 C 2.328125 -63.277344 -0.582031 -61.722656 -1.746094 -60.949219 L -3.492188 -59.589844 C -3.6875 -59.394531 -4.074219 -59.394531 -4.464844 -59.199219 L -5.242188 -58.425781 C -6.015625 -57.839844 -6.015625 -56.484375 -5.433594 -55.902344 C -5.046875 -55.511719 -2.328125 -55.320312 -1.746094 -55.707031 L 2.910156 -57.648438 C 3.882812 -58.035156 -7.957031 -44.449219 -11.257812 -40.179688 C -13.976562 -36.492188 -15.527344 -35.714844 -16.886719 -35.324219 C -17.664062 -35.132812 -18.828125 -34.742188 -19.214844 -34.355469 C -19.796875 -34.160156 -20.378906 -33.773438 -20.574219 -33.773438 C -20.960938 -33.96875 -31.636719 -28.726562 -34.355469 -27.367188 C -35.519531 -26.589844 -36.492188 -26.203125 -36.683594 -26.203125 C -36.878906 -26.203125 -37.074219 -26.007812 -37.074219 -26.007812 C -37.074219 -25.816406 -37.65625 -25.425781 -38.238281 -25.234375 C -38.820312 -25.039062 -40.371094 -24.070312 -41.730469 -23.097656 L -44.644531 -21.351562 C -45.613281 -20.769531 -49.300781 -18.246094 -51.824219 -16.109375 C -55.707031 -13.199219 -63.664062 -4.660156 -63.859375 -3.492188 C -63.859375 -3.300781 -64.054688 -2.910156 -64.246094 -2.71875 L -64.441406 -2.71875 C -64.828125 -2.136719 -65.21875 -1.554688 -65.605469 -1.164062 C -65.800781 -0.195312 -66.1875 0.582031 -66.769531 1.359375 L -66.964844 2.71875 C -67.160156 4.464844 -66.769531 5.046875 -64.828125 4.851562 Z M -3.105469 -57.257812 C -3.6875 -57.257812 -3.6875 -57.257812 -3.105469 -57.839844 C -2.328125 -58.617188 0 -60.171875 1.941406 -60.949219 C 3.492188 -61.722656 5.433594 -61.917969 5.433594 -61.335938 C 5.433594 -60.363281 -1.164062 -57.257812 -3.105469 -57.257812 Z M -65.21875 3.300781 C -65.605469 3.105469 -65.21875 1.746094 -64.441406 0 C -61.917969 -4.464844 -59.976562 -6.988281 -56.09375 -10.871094 C -52.601562 -14.167969 -51.824219 -14.75 -47.554688 -18.050781 C -45.417969 -19.605469 -37.460938 -24.652344 -37.074219 -24.652344 L -35.324219 -25.621094 C -34.550781 -26.203125 -32.027344 -27.5625 -29.695312 -28.726562 C -27.5625 -29.695312 -25.621094 -30.667969 -25.621094 -30.863281 C -25.425781 -31.054688 -25.234375 -31.054688 -24.84375 -31.054688 L -24.070312 -31.25 C -24.070312 -31.445312 -23.097656 -31.832031 -22.320312 -32.21875 L -19.796875 -33.191406 C -17.855469 -33.96875 -17.664062 -33.96875 -17.664062 -33.578125 C -17.664062 -33.386719 -17.855469 -33.191406 -17.855469 -33.191406 C -18.050781 -33.191406 -18.246094 -32.996094 -18.246094 -32.996094 C -18.246094 -32.027344 -25.234375 -25.234375 -33.773438 -17.46875 L -39.402344 -12.421875 C -40.179688 -11.644531 -41.148438 -10.871094 -41.730469 -10.480469 L -43.285156 -9.316406 C -44.644531 -8.152344 -51.046875 -3.6875 -51.4375 -3.6875 C -51.628906 -3.6875 -51.824219 -3.492188 -51.824219 -3.300781 C -52.019531 -3.105469 -52.210938 -2.910156 -52.40625 -2.910156 C -52.601562 -2.910156 -53.570312 -2.328125 -54.734375 -1.554688 C -57.839844 0.582031 -59.976562 1.554688 -62.5 2.523438 Z M -65.21875 3.300781 "/></g></g></g><g fill="#d5b358" fill-opacity="1"><g transform="translate(235.490253, 282.252143)"><g><path d="M 8.152344 -66.769531 C 8.929688 -66.964844 9.703125 -68.324219 9.511719 -69.097656 C 9.511719 -69.488281 9.121094 -69.875 8.929688 -70.070312 C 8.152344 -70.652344 7.375 -70.265625 7.183594 -69.097656 C 7.183594 -68.515625 6.988281 -68.128906 6.792969 -67.933594 C 6.210938 -67.546875 7.375 -66.382812 8.152344 -66.769531 Z M -2.910156 -52.796875 C -0.777344 -52.988281 2.910156 -54.152344 6.015625 -55.511719 L 14.558594 -59.394531 L 16.886719 -60.363281 C 17.46875 -60.753906 17.46875 -61.335938 17.082031 -61.53125 L 16.691406 -61.722656 L 16.304688 -61.722656 L 15.917969 -61.53125 C 7.375 -57.839844 1.554688 -55.511719 -1.164062 -54.929688 C -1.164062 -54.929688 -2.71875 -54.347656 -3.492188 -54.734375 C -3.492188 -55.511719 -3.300781 -56.289062 -2.71875 -57.066406 L 0.582031 -59.78125 C 2.910156 -61.722656 3.492188 -62.695312 2.523438 -63.082031 C 2.136719 -63.277344 0.582031 -62.695312 -0.777344 -61.722656 C -4.269531 -58.8125 -5.824219 -56.871094 -5.824219 -54.929688 L -5.824219 -54.347656 C -5.824219 -53.183594 -4.851562 -52.601562 -2.910156 -52.796875 Z M -2.910156 -52.796875 "/></g></g></g><g fill="#d5b358" fill-opacity="1"><g transform="translate(251.793382, 282.252143)"><g><path d="M 4.269531 -52.988281 C 5.046875 -52.796875 5.824219 -52.796875 6.597656 -52.988281 L 7.183594 -52.988281 C 7.183594 -52.988281 10.675781 -53.765625 14.363281 -55.511719 L 25.425781 -60.558594 C 25.816406 -60.753906 25.816406 -61.335938 25.425781 -61.53125 L 25.234375 -61.722656 L 24.652344 -61.722656 L 24.261719 -61.53125 C 15.722656 -57.839844 9.898438 -55.511719 7.375 -54.929688 C 7.375 -54.929688 4.851562 -54.152344 4.660156 -54.929688 C 3.882812 -56.675781 5.242188 -58.8125 6.210938 -59.976562 C 6.988281 -60.949219 8.929688 -63.277344 6.597656 -63.277344 C 6.210938 -63.277344 5.628906 -63.46875 5.628906 -63.664062 C 5.433594 -64.441406 4.851562 -64.246094 1.554688 -62.5 C -1.359375 -60.949219 -5.046875 -58.617188 -7.375 -56.675781 C -8.347656 -55.902344 -8.734375 -55.511719 -8.734375 -54.929688 C -8.734375 -53.960938 -8.152344 -53.765625 -6.988281 -53.765625 C -6.015625 -53.765625 -2.136719 -55.707031 -0.582031 -56.871094 C 0.96875 -58.230469 3.492188 -59.589844 3.492188 -59.394531 L 2.910156 -58.035156 C 2.523438 -57.453125 2.328125 -56.675781 2.328125 -56.09375 C 2.136719 -55.320312 2.136719 -54.734375 2.71875 -53.960938 C 3.105469 -53.378906 3.492188 -52.988281 4.269531 -52.988281 Z M -6.597656 -55.511719 L -5.433594 -56.289062 C -4.269531 -57.453125 -1.164062 -59.589844 1.359375 -60.753906 C 3.300781 -61.917969 3.6875 -61.917969 3.6875 -61.53125 C 3.6875 -61.335938 3.105469 -60.949219 2.523438 -60.753906 C 0.96875 -59.976562 0.195312 -59.394531 -0.195312 -59.007812 C -0.582031 -58.617188 -3.882812 -56.675781 -5.433594 -55.902344 Z M -6.597656 -55.511719 "/></g></g></g></svg>