<svg xmlns="http://www.w3.org/2000/svg" xmlns:xlink="http://www.w3.org/1999/xlink" width="300" zoomAndPan="magnify" viewBox="0 0 224.87999 149.999998" height="200" preserveAspectRatio="xMidYMid meet" version="1.0"><defs><g/><clipPath id="7010f50915"><path d="M 97 94 L 181 94 L 181 149.960938 L 97 149.960938 Z M 97 94 " clip-rule="nonzero"/></clipPath></defs><g fill="#d5b358" fill-opacity="1"><g transform="translate(20.772395, 103.715644)"><g><path d="M 64.917969 -5.9375 C 65.175781 -6.324219 65.175781 -6.324219 64.917969 -6.453125 C 64.789062 -6.582031 64.660156 -6.839844 64.789062 -6.96875 C 64.917969 -7.613281 66.597656 -10.195312 68.144531 -12.132812 L 72.148438 -17.554688 C 73.566406 -19.488281 75.117188 -21.296875 75.503906 -21.683594 C 75.890625 -22.199219 76.535156 -22.972656 76.792969 -23.488281 L 77.957031 -24.910156 L 81.828125 -29.683594 L 83.246094 -31.234375 L 87.375 -36.136719 L 93.3125 -42.71875 L 101.316406 -52.140625 L 108.671875 -60.402344 C 109.835938 -61.433594 110.09375 -61.691406 110.351562 -62.082031 L 111.253906 -62.984375 C 111.511719 -63.242188 112.929688 -64.660156 114.222656 -66.210938 L 117.449219 -69.695312 C 117.964844 -70.082031 118.222656 -70.46875 118.222656 -70.46875 L 121.320312 -73.695312 L 137.839844 -90.734375 L 139.261719 -92.152344 C 139.648438 -92.539062 140.035156 -92.925781 140.035156 -92.796875 C 140.164062 -92.796875 140.679688 -93.183594 141.324219 -93.699219 L 143.777344 -95.507812 C 144.679688 -96.28125 145.070312 -96.28125 145.457031 -95.378906 C 145.714844 -94.734375 145.972656 -94.605469 146.617188 -94.992188 C 147.003906 -95.121094 146.617188 -96.667969 145.972656 -97.445312 C 145.714844 -97.960938 145.457031 -98.089844 145.070312 -97.960938 L 144.035156 -97.703125 C 143.777344 -97.574219 143.132812 -97.1875 142.746094 -96.796875 L 140.9375 -95.507812 L 139.519531 -94.476562 L 126.097656 -81.441406 L 120.417969 -75.632812 L 119.253906 -74.46875 L 117.191406 -72.277344 L 116.027344 -70.984375 C 115.769531 -70.726562 114.351562 -69.4375 113.0625 -67.886719 C 112.671875 -67.371094 112.15625 -66.984375 112.15625 -66.984375 C 112.027344 -66.984375 111.898438 -66.855469 111.769531 -66.597656 C 111.769531 -66.46875 111.511719 -66.082031 111.125 -65.824219 L 109.1875 -63.628906 L 107.511719 -61.949219 L 104.414062 -58.464844 L 100.414062 -54.078125 L 99.121094 -52.53125 L 89.3125 -41.429688 C 88.28125 -40.398438 87.246094 -39.105469 86.214844 -37.945312 L 83.117188 -34.332031 L 81.828125 -32.78125 L 78.988281 -29.296875 C 75.246094 -24.78125 74.859375 -24.265625 73.953125 -22.84375 L 72.664062 -21.425781 L 72.019531 -20.519531 L 71.5 -19.875 C 71.371094 -19.488281 70.984375 -19.101562 70.855469 -19.101562 C 70.726562 -18.972656 70.46875 -18.714844 70.46875 -18.457031 L 68.664062 -16.003906 C 68.664062 -16.777344 68.921875 -17.554688 69.566406 -18.199219 L 69.824219 -18.328125 C 69.824219 -18.457031 69.824219 -18.84375 70.082031 -19.230469 L 71.5 -21.941406 C 72.664062 -24.265625 74.46875 -27.363281 77.308594 -32.007812 C 79.890625 -36.007812 81.050781 -37.945312 81.828125 -39.621094 L 82.730469 -41.429688 L 85.570312 -46.980469 C 87.375 -50.59375 89.441406 -54.078125 94.347656 -62.210938 C 98.347656 -68.535156 98.992188 -69.566406 101.832031 -73.179688 C 102.734375 -74.339844 103.378906 -75.632812 103.378906 -76.40625 C 103.511719 -76.921875 103.511719 -77.308594 103.25 -77.824219 C 103.121094 -78.34375 102.992188 -78.214844 102.347656 -77.695312 C 100.285156 -76.019531 99.378906 -75.246094 99.121094 -74.988281 C 98.863281 -74.726562 98.476562 -74.339844 98.089844 -74.082031 C 97.703125 -73.824219 97.316406 -73.4375 97.1875 -73.308594 C 97.1875 -73.050781 96.796875 -72.792969 96.410156 -72.535156 C 95.765625 -72.148438 89.957031 -66.726562 89.3125 -65.953125 C 89.183594 -65.695312 88.925781 -65.566406 88.796875 -65.695312 C 88.667969 -65.824219 88.667969 -65.695312 88.667969 -65.566406 C 88.667969 -65.4375 87.765625 -64.402344 86.730469 -63.242188 L 81.828125 -58.078125 L 80.921875 -57.175781 L 80.535156 -56.917969 L 77.566406 -53.691406 C 76.921875 -52.917969 76.277344 -52.269531 76.148438 -52.269531 L 75.890625 -52.011719 C 75.761719 -51.753906 75.246094 -51.109375 74.597656 -50.335938 C 73.953125 -49.5625 73.308594 -48.785156 73.308594 -48.65625 C 73.308594 -48.527344 73.179688 -48.527344 73.050781 -48.527344 C 72.921875 -48.527344 71.761719 -47.367188 71.5 -46.980469 L 69.953125 -45.171875 L 69.695312 -45.042969 L 69.050781 -44.398438 C 68.792969 -43.753906 68.40625 -43.238281 67.757812 -42.847656 L 67.628906 -42.589844 C 67.628906 -42.460938 67.371094 -42.074219 66.597656 -41.300781 L 62.46875 -36.914062 L 59.371094 -33.429688 L 55.367188 -29.167969 C 54.335938 -28.265625 52.660156 -26.328125 52.660156 -26.070312 C 52.660156 -25.8125 53.820312 -26.199219 53.949219 -26.457031 C 54.207031 -27.105469 55.757812 -28.652344 56.015625 -28.652344 C 56.144531 -28.652344 56.53125 -29.039062 56.789062 -29.554688 C 57.175781 -30.070312 57.691406 -30.71875 58.078125 -30.976562 L 59.371094 -32.265625 C 59.757812 -32.78125 60.144531 -33.167969 60.144531 -33.167969 C 60.273438 -33.167969 60.660156 -33.558594 60.917969 -34.074219 C 61.304688 -34.589844 61.691406 -34.976562 61.820312 -34.976562 C 61.949219 -34.976562 63.886719 -37.042969 64.015625 -37.300781 C 64.015625 -37.429688 64.53125 -38.074219 65.175781 -38.71875 C 65.824219 -39.363281 66.46875 -40.011719 66.597656 -40.269531 C 66.726562 -40.527344 66.855469 -40.65625 66.984375 -40.65625 C 67.113281 -40.65625 67.5 -41.042969 68.015625 -41.6875 C 68.535156 -42.332031 69.050781 -42.71875 69.4375 -42.980469 L 69.4375 -43.109375 C 69.695312 -43.882812 70.210938 -44.398438 70.726562 -44.785156 L 71.371094 -45.171875 L 71.632812 -45.558594 C 71.5 -45.558594 71.632812 -45.6875 71.761719 -45.816406 L 72.40625 -46.59375 C 72.535156 -46.722656 72.792969 -46.980469 73.050781 -47.109375 C 73.308594 -47.109375 73.4375 -47.367188 73.4375 -47.496094 C 73.4375 -47.753906 73.566406 -47.882812 73.824219 -48.011719 C 73.953125 -48.140625 74.339844 -48.398438 74.46875 -48.65625 L 75.375 -49.820312 L 76.148438 -50.722656 L 77.566406 -52.269531 C 78.214844 -52.917969 78.859375 -53.691406 78.859375 -53.820312 C 78.859375 -53.949219 78.988281 -54.078125 79.117188 -54.078125 C 79.246094 -54.078125 79.761719 -54.59375 80.148438 -55.109375 C 80.535156 -55.757812 81.050781 -56.273438 81.183594 -56.273438 C 81.3125 -56.273438 81.570312 -56.53125 81.699219 -56.789062 C 81.957031 -57.175781 82.085938 -57.304688 82.214844 -57.304688 C 82.34375 -57.175781 82.472656 -57.304688 82.472656 -57.5625 C 82.601562 -57.820312 82.730469 -58.078125 82.859375 -57.949219 C 82.988281 -57.949219 83.246094 -58.078125 83.246094 -58.207031 C 83.246094 -58.335938 83.761719 -58.984375 84.410156 -59.628906 C 85.054688 -60.273438 85.570312 -60.917969 85.699219 -61.175781 C 85.699219 -61.433594 85.957031 -61.5625 86.085938 -61.5625 C 86.34375 -61.5625 86.730469 -61.949219 86.988281 -62.210938 C 87.246094 -62.597656 87.765625 -63.242188 88.28125 -63.5 C 88.667969 -63.886719 89.183594 -64.402344 89.441406 -64.789062 L 90.601562 -65.953125 C 91.25 -66.46875 93.441406 -68.535156 93.828125 -68.921875 C 93.960938 -69.179688 94.605469 -69.695312 96.28125 -70.984375 L 97.574219 -72.148438 C 97.960938 -72.535156 98.21875 -72.792969 98.21875 -72.535156 C 98.605469 -72.921875 98.992188 -73.179688 99.507812 -73.4375 C 99.765625 -73.695312 100.023438 -73.824219 100.285156 -73.953125 L 100.152344 -73.824219 L 98.863281 -72.148438 C 98.863281 -72.019531 98.347656 -71.632812 97.574219 -70.855469 L 97.445312 -70.339844 L 96.667969 -68.921875 L 96.28125 -68.273438 C 96.152344 -68.015625 95.894531 -67.371094 96.023438 -68.015625 C 95.765625 -67.371094 95.378906 -66.855469 94.992188 -66.46875 C 94.605469 -65.566406 93.441406 -63.757812 91.378906 -60.402344 C 87.765625 -54.722656 83.761719 -47.882812 83.890625 -47.625 L 82.859375 -45.558594 C 82.859375 -45.429688 82.601562 -45.042969 82.34375 -44.527344 C 81.957031 -44.011719 81.828125 -43.625 81.828125 -43.496094 L 81.570312 -42.847656 C 80.921875 -41.816406 79.632812 -39.492188 79.632812 -39.363281 L 76.019531 -33.167969 L 73.050781 -28.523438 C 72.40625 -27.363281 71.761719 -26.457031 71.761719 -26.457031 C 71.632812 -26.457031 71.632812 -26.328125 71.632812 -26.199219 C 71.632812 -25.941406 70.210938 -23.488281 70.082031 -23.617188 C 70.082031 -23.617188 69.953125 -23.617188 70.082031 -23.488281 C 70.082031 -23.359375 69.824219 -22.714844 69.4375 -21.941406 C 69.050781 -21.296875 68.664062 -20.648438 68.792969 -20.519531 C 68.792969 -20.390625 68.664062 -20.261719 68.535156 -20.261719 C 68.40625 -20.261719 68.273438 -20.132812 68.273438 -20.003906 C 68.144531 -19.230469 65.566406 -13.421875 64.660156 -11.746094 L 64.015625 -10.066406 L 63.242188 -8.390625 C 62.855469 -7.613281 62.855469 -7.226562 63.113281 -6.839844 L 63.242188 -6.710938 C 63.371094 -5.679688 64.144531 -5.164062 64.917969 -5.9375 Z M 16.003906 13.808594 C 17.292969 13.035156 19.359375 11.488281 19.488281 11.097656 C 19.617188 10.96875 19.875 10.582031 20.261719 10.324219 C 20.648438 10.195312 21.167969 9.679688 21.425781 9.292969 C 21.554688 9.035156 21.8125 8.777344 21.941406 8.777344 C 22.070312 8.777344 22.585938 8.261719 23.101562 7.484375 C 23.617188 6.839844 24.394531 6.066406 24.78125 5.679688 C 25.167969 5.421875 25.554688 5.035156 25.554688 4.90625 C 25.554688 4.777344 25.8125 4.515625 25.941406 4.386719 C 26.328125 4.257812 28.007812 2.582031 29.167969 1.160156 C 30.71875 -0.515625 32.652344 -2.710938 33.167969 -3.097656 C 33.429688 -3.355469 33.816406 -3.742188 33.945312 -4.128906 C 34.074219 -4.386719 34.203125 -4.777344 34.460938 -4.777344 C 34.589844 -4.644531 34.976562 -5.035156 35.234375 -5.421875 C 35.492188 -5.808594 36.007812 -6.453125 36.265625 -6.710938 C 36.65625 -6.96875 36.914062 -7.484375 36.914062 -7.742188 C 36.914062 -7.871094 36.914062 -8.003906 37.042969 -7.871094 C 37.042969 -7.742188 37.429688 -8.003906 37.816406 -8.519531 C 38.203125 -8.90625 38.589844 -9.164062 38.589844 -9.164062 C 38.71875 -9.164062 38.976562 -9.421875 38.976562 -9.550781 C 39.105469 -9.808594 39.882812 -10.710938 40.785156 -11.746094 L 43.753906 -15.101562 L 45.429688 -16.777344 L 46.207031 -17.8125 L 47.496094 -19.230469 C 48.398438 -20.132812 48.398438 -20.261719 50.207031 -22.585938 C 50.722656 -23.230469 51.367188 -23.878906 51.496094 -23.878906 C 51.753906 -23.878906 52.917969 -25.296875 52.660156 -25.425781 C 52.660156 -25.554688 52.398438 -25.554688 52.140625 -25.425781 C 51.882812 -25.296875 51.238281 -24.652344 50.59375 -24.007812 L 43.753906 -16.132812 L 34.976562 -6.582031 C 30.460938 -1.417969 28.523438 0.644531 28.136719 0.902344 C 27.878906 1.03125 27.363281 1.679688 26.84375 2.195312 C 26.328125 2.839844 25.8125 3.226562 25.683594 3.355469 C 25.554688 3.355469 25.425781 3.484375 25.425781 3.613281 C 25.425781 3.742188 25.167969 4 25.039062 4.128906 C 24.78125 4.128906 24.523438 4.386719 24.394531 4.515625 L 23.488281 5.550781 C 23.230469 5.9375 22.714844 6.324219 22.585938 6.324219 C 22.328125 6.453125 21.941406 6.839844 21.554688 7.355469 C 21.167969 7.871094 20.390625 8.648438 19.875 9.164062 C 17.8125 10.839844 16.648438 11.617188 16.132812 11.875 C 14.84375 12.261719 14.714844 12.261719 14.457031 11.359375 C 14.195312 10.324219 14.328125 9.808594 14.714844 9.421875 C 14.972656 9.164062 14.972656 9.035156 14.84375 8.261719 C 14.714844 7.613281 14.585938 7.355469 14.195312 7.226562 C 13.550781 7.097656 13.550781 7.226562 13.164062 8.777344 C 12.648438 10.710938 12.777344 12.261719 13.421875 13.421875 C 14.066406 14.457031 14.585938 14.585938 16.003906 13.808594 Z M 16.003906 13.808594 "/></g></g></g><g fill="#d5b358" fill-opacity="1"><g transform="translate(122.346158, 103.715644)"><g><path d="M 2.839844 -35.234375 C 3.355469 -35.105469 3.871094 -35.105469 4.386719 -35.234375 L 4.777344 -35.234375 C 4.777344 -35.234375 7.097656 -35.75 9.550781 -36.914062 L 16.90625 -40.269531 C 17.164062 -40.398438 17.164062 -40.785156 16.90625 -40.914062 L 16.777344 -41.042969 L 16.390625 -41.042969 L 16.132812 -40.914062 C 10.453125 -38.460938 6.582031 -36.914062 4.90625 -36.523438 C 4.90625 -36.523438 3.226562 -36.007812 3.097656 -36.523438 C 2.582031 -37.6875 3.484375 -39.105469 4.128906 -39.882812 C 4.644531 -40.527344 5.9375 -42.074219 4.386719 -42.074219 C 4.128906 -42.074219 3.742188 -42.203125 3.742188 -42.332031 C 3.613281 -42.847656 3.226562 -42.71875 1.03125 -41.558594 C -0.902344 -40.527344 -3.355469 -38.976562 -4.90625 -37.6875 C -5.550781 -37.171875 -5.808594 -36.914062 -5.808594 -36.523438 C -5.808594 -35.878906 -5.421875 -35.75 -4.644531 -35.75 C -4 -35.75 -1.417969 -37.042969 -0.386719 -37.816406 C 0.644531 -38.71875 2.324219 -39.621094 2.324219 -39.492188 L 1.9375 -38.589844 C 1.679688 -38.203125 1.546875 -37.6875 1.546875 -37.300781 C 1.417969 -36.785156 1.417969 -36.394531 1.808594 -35.878906 C 2.066406 -35.492188 2.324219 -35.234375 2.839844 -35.234375 Z M -4.386719 -36.914062 L -3.613281 -37.429688 C -2.839844 -38.203125 -0.773438 -39.621094 0.902344 -40.398438 C 2.195312 -41.171875 2.453125 -41.171875 2.453125 -40.914062 C 2.453125 -40.785156 2.066406 -40.527344 1.679688 -40.398438 C 0.644531 -39.882812 0.128906 -39.492188 -0.128906 -39.234375 C -0.386719 -38.976562 -2.582031 -37.6875 -3.613281 -37.171875 Z M -4.386719 -36.914062 "/></g></g></g><g fill="#d5b358" fill-opacity="1"><g transform="translate(138.866411, 103.715644)"><g><path d="M 58.207031 -61.175781 C 57.5625 -61.433594 56.53125 -61.5625 53.5625 -61.820312 C 50.851562 -62.082031 30.847656 -62.855469 28.394531 -62.855469 L 24.78125 -62.984375 L 22.328125 -62.984375 C 22.714844 -63.5 23.878906 -64.789062 24.652344 -65.4375 C 25.167969 -65.824219 25.683594 -66.339844 26.199219 -66.984375 C 26.714844 -67.628906 28.523438 -69.308594 29.425781 -70.082031 L 30.71875 -71.113281 L 31.234375 -71.761719 C 31.621094 -72.148438 31.621094 -72.277344 31.363281 -72.664062 C 31.234375 -72.921875 30.976562 -73.050781 30.847656 -73.050781 C 30.589844 -73.050781 29.039062 -71.890625 28.910156 -71.5 L 27.75 -70.46875 C 26.328125 -69.308594 26.070312 -69.179688 25.8125 -68.792969 C 25.554688 -68.535156 22.199219 -65.308594 21.683594 -64.917969 L 21.296875 -64.53125 L 20.261719 -63.371094 L 19.746094 -62.855469 L 1.546875 -62.46875 L -1.289062 -62.210938 C -3.484375 -62.082031 -9.679688 -61.5625 -10.710938 -61.304688 C -11.746094 -61.046875 -12.261719 -60.53125 -11.875 -60.144531 C -11.746094 -59.886719 -9.164062 -60.144531 -7.355469 -60.53125 C -6.96875 -60.660156 -3.871094 -61.046875 -0.773438 -61.175781 L 2.453125 -61.433594 L 5.9375 -61.5625 L 10.195312 -61.820312 C 11.359375 -61.949219 15.746094 -61.949219 18.585938 -61.949219 C 18.457031 -61.691406 18.199219 -61.5625 18.070312 -61.304688 L 17.683594 -61.046875 L 17.292969 -60.53125 L 15.746094 -58.851562 C 13.9375 -56.917969 8.261719 -50.722656 7.097656 -49.042969 C 7.097656 -49.042969 5.035156 -46.59375 5.035156 -46.722656 C 5.035156 -46.59375 4.515625 -46.074219 4 -45.558594 C 3.355469 -44.914062 2.324219 -43.753906 -0.386719 -40.527344 L -1.417969 -39.363281 L -2.453125 -38.074219 C -2.710938 -37.6875 -2.839844 -37.429688 -2.96875 -37.429688 C -3.226562 -37.429688 -3.871094 -36.65625 -5.9375 -33.945312 C -6.710938 -33.039062 -7.355469 -32.265625 -7.613281 -32.136719 C -7.742188 -31.878906 -9.035156 -30.332031 -10.453125 -28.652344 L -13.679688 -24.652344 L -18.972656 -17.554688 C -20.261719 -15.746094 -21.039062 -14.714844 -21.296875 -14.84375 L -21.296875 -14.585938 C -21.296875 -14.457031 -21.296875 -14.195312 -21.425781 -13.9375 C -21.554688 -13.550781 -21.683594 -13.421875 -21.8125 -13.550781 C -21.8125 -13.421875 -21.941406 -13.292969 -21.941406 -13.292969 C -21.941406 -13.035156 -21.941406 -12.90625 -22.070312 -12.90625 C -22.070312 -13.035156 -22.457031 -12.261719 -22.714844 -11.359375 C -23.230469 -10.066406 -23.359375 -9.550781 -23.230469 -8.90625 C -22.972656 -8.132812 -22.84375 -8.003906 -22.457031 -7.871094 C -21.941406 -7.871094 -21.683594 -7.871094 -21.554688 -8.132812 C -21.296875 -8.519531 -21.296875 -8.519531 -21.8125 -8.648438 C -22.328125 -8.648438 -22.328125 -8.777344 -22.328125 -9.292969 C -22.199219 -9.9375 -21.167969 -12.132812 -20.261719 -13.550781 C -17.8125 -17.164062 -11.359375 -25.425781 -7.226562 -30.199219 L -5.164062 -32.652344 L -0.902344 -37.558594 L 2.582031 -41.429688 L 3.742188 -42.847656 L 5.292969 -44.527344 C 6.453125 -45.816406 7.484375 -47.109375 9.679688 -49.691406 C 10.453125 -50.59375 11.359375 -51.496094 11.746094 -51.882812 C 12.132812 -52.269531 12.777344 -53.046875 13.164062 -53.5625 L 15.359375 -55.886719 C 16.777344 -57.433594 17.683594 -58.207031 18.457031 -59.242188 L 19.617188 -60.402344 C 20.003906 -60.917969 20.390625 -61.175781 20.648438 -61.5625 L 21.296875 -61.949219 C 22.328125 -62.082031 23.101562 -61.949219 23.488281 -61.949219 L 24.007812 -61.949219 C 31.492188 -61.820312 49.433594 -61.304688 52.011719 -60.917969 C 52.789062 -60.660156 54.078125 -60.660156 54.722656 -60.53125 C 56.015625 -60.53125 56.015625 -60.53125 55.757812 -60.015625 C 55.496094 -59.757812 55.625 -59.5 55.757812 -59.371094 C 56.015625 -59.113281 56.144531 -58.984375 56.273438 -59.113281 L 57.5625 -59.628906 C 58.984375 -60.273438 59.113281 -60.660156 58.207031 -61.175781 Z M 58.207031 -61.175781 "/></g></g></g><g fill="#d5b358" fill-opacity="1"><g transform="translate(149.836882, 103.715644)"><g><path d="M 2.839844 -35.234375 C 3.355469 -35.105469 3.871094 -35.105469 4.386719 -35.234375 L 4.777344 -35.234375 C 4.777344 -35.234375 7.097656 -35.75 9.550781 -36.914062 L 16.90625 -40.269531 C 17.164062 -40.398438 17.164062 -40.785156 16.90625 -40.914062 L 16.777344 -41.042969 L 16.390625 -41.042969 L 16.132812 -40.914062 C 10.453125 -38.460938 6.582031 -36.914062 4.90625 -36.523438 C 4.90625 -36.523438 3.226562 -36.007812 3.097656 -36.523438 C 2.582031 -37.6875 3.484375 -39.105469 4.128906 -39.882812 C 4.644531 -40.527344 5.9375 -42.074219 4.386719 -42.074219 C 4.128906 -42.074219 3.742188 -42.203125 3.742188 -42.332031 C 3.613281 -42.847656 3.226562 -42.71875 1.03125 -41.558594 C -0.902344 -40.527344 -3.355469 -38.976562 -4.90625 -37.6875 C -5.550781 -37.171875 -5.808594 -36.914062 -5.808594 -36.523438 C -5.808594 -35.878906 -5.421875 -35.75 -4.644531 -35.75 C -4 -35.75 -1.417969 -37.042969 -0.386719 -37.816406 C 0.644531 -38.71875 2.324219 -39.621094 2.324219 -39.492188 L 1.9375 -38.589844 C 1.679688 -38.203125 1.546875 -37.6875 1.546875 -37.300781 C 1.417969 -36.785156 1.417969 -36.394531 1.808594 -35.878906 C 2.066406 -35.492188 2.324219 -35.234375 2.839844 -35.234375 Z M -4.386719 -36.914062 L -3.613281 -37.429688 C -2.839844 -38.203125 -0.773438 -39.621094 0.902344 -40.398438 C 2.195312 -41.171875 2.453125 -41.171875 2.453125 -40.914062 C 2.453125 -40.785156 2.066406 -40.527344 1.679688 -40.398438 C 0.644531 -39.882812 0.128906 -39.492188 -0.128906 -39.234375 C -0.386719 -38.976562 -2.582031 -37.6875 -3.613281 -37.171875 Z M -4.386719 -36.914062 "/></g></g></g><g fill="#d5b358" fill-opacity="1"><g transform="translate(166.357135, 103.715644)"><g><path d="M -5.679688 -26.585938 C -5.550781 -26.585938 -5.421875 -27.234375 -5.164062 -28.652344 C -4.90625 -30.976562 -4.128906 -32.652344 -2.195312 -35.492188 C -0.515625 -38.074219 4.515625 -44.527344 4.777344 -44.527344 C 4.90625 -44.65625 5.035156 -44.785156 5.035156 -44.914062 C 5.292969 -45.171875 5.550781 -45.300781 5.808594 -45.429688 L 8.132812 -46.980469 C 9.292969 -47.625 9.550781 -47.753906 10.582031 -48.527344 L 11.746094 -49.300781 C 11.875 -49.300781 13.164062 -50.078125 13.9375 -50.722656 C 14.84375 -51.367188 17.292969 -52.917969 17.683594 -53.175781 L 18.972656 -54.078125 L 20.390625 -55.109375 L 22.070312 -56.402344 L 25.296875 -58.984375 C 27.234375 -60.402344 31.75 -64.402344 32.007812 -65.566406 C 32.265625 -66.597656 31.492188 -67.113281 30.070312 -66.597656 C 28.652344 -66.210938 26.714844 -65.046875 25.683594 -64.273438 C 24.523438 -63.5 22.972656 -62.726562 21.8125 -61.820312 C 18.457031 -59.371094 14.972656 -56.660156 11.617188 -53.691406 C 10.195312 -52.398438 7.226562 -49.5625 6.582031 -49.042969 L 4 -46.464844 C 3.742188 -46.335938 3.613281 -46.335938 3.613281 -46.335938 C 3.484375 -46.464844 3.355469 -46.335938 3.355469 -46.335938 C 3.355469 -46.074219 1.9375 -45.6875 1.679688 -45.816406 C 1.546875 -45.945312 1.417969 -45.816406 1.417969 -45.6875 C 1.417969 -45.429688 2.066406 -44.785156 2.324219 -44.785156 L 2.582031 -44.785156 C 2.195312 -44.398438 2.066406 -44.140625 2.066406 -44.011719 L 1.546875 -43.367188 C 1.160156 -42.980469 0.902344 -42.71875 0.902344 -42.589844 C 0.902344 -42.460938 0.902344 -42.332031 0.773438 -42.332031 C 0.644531 -42.332031 0.257812 -41.816406 -0.257812 -41.171875 L -1.289062 -39.882812 C -1.417969 -39.882812 -1.417969 -39.621094 -1.417969 -39.492188 C -1.546875 -39.234375 -1.679688 -39.105469 -1.808594 -39.105469 L -2.195312 -38.71875 C -2.195312 -38.460938 -2.195312 -38.460938 -2.324219 -38.460938 C -2.453125 -38.460938 -2.582031 -38.332031 -2.582031 -38.203125 C -2.582031 -37.945312 -2.710938 -37.816406 -2.839844 -37.816406 C -2.839844 -37.945312 -2.96875 -37.816406 -2.96875 -37.6875 C -2.96875 -37.429688 -3.742188 -36.265625 -4.386719 -35.363281 C -4.90625 -34.589844 -5.035156 -34.203125 -5.164062 -33.945312 C -5.164062 -33.6875 -5.292969 -33.429688 -5.421875 -33.039062 C -6.066406 -32.136719 -6.582031 -29.8125 -6.324219 -28.394531 C -6.195312 -26.972656 -6.066406 -26.714844 -5.679688 -26.585938 Z M 8.390625 -48.398438 C 8.003906 -48.269531 8.261719 -48.398438 9.292969 -49.5625 C 10.453125 -50.851562 17.035156 -56.53125 17.292969 -56.53125 L 21.941406 -60.273438 L 23.878906 -61.5625 L 24.910156 -62.46875 L 25.683594 -62.984375 L 27.75 -64.273438 L 28.652344 -64.789062 L 29.296875 -65.175781 L 29.554688 -65.308594 C 29.683594 -65.4375 29.8125 -65.4375 30.070312 -65.4375 C 30.199219 -65.566406 30.332031 -65.4375 30.332031 -65.175781 C 30.332031 -65.175781 30.332031 -65.046875 30.199219 -64.917969 L 29.941406 -64.660156 L 29.941406 -64.53125 L 29.554688 -64.273438 L 29.425781 -64.144531 L 29.167969 -63.757812 L 28.78125 -63.371094 L 26.972656 -61.691406 L 24.523438 -59.757812 C 23.488281 -58.851562 22.714844 -58.207031 22.585938 -58.207031 L 21.8125 -57.691406 C 20.78125 -56.789062 17.8125 -54.722656 17.292969 -54.335938 C 16.777344 -54.078125 15.230469 -53.046875 14.714844 -52.660156 C 13.9375 -52.011719 11.875 -50.464844 11.359375 -50.207031 L 10.839844 -49.820312 Z M 8.390625 -48.398438 "/></g></g></g><g fill="#d5b358" fill-opacity="1"><g transform="translate(177.719489, 103.715644)"><g/></g></g><g fill="#d5b358" fill-opacity="1"><g transform="translate(20.772395, 167.972118)"><g><path d="M -1.289062 -35.234375 C 0.128906 -35.492188 1.03125 -35.75 3.355469 -36.914062 L 9.164062 -39.492188 L 10.839844 -40.269531 C 10.96875 -40.398438 10.96875 -40.785156 10.710938 -40.914062 L 10.582031 -41.042969 L 10.195312 -41.042969 L 9.9375 -40.914062 C 2.839844 -37.816406 -1.417969 -36.265625 -2.195312 -36.523438 C -2.453125 -36.65625 -2.453125 -36.785156 -2.066406 -37.171875 C -1.808594 -37.6875 -1.546875 -37.816406 -0.644531 -38.074219 C 0.773438 -38.460938 2.066406 -39.105469 4.257812 -40.65625 C 6.324219 -42.074219 7.226562 -42.847656 7.097656 -43.238281 C 6.839844 -44.011719 5.679688 -43.882812 3.613281 -43.109375 C 1.03125 -42.203125 -1.9375 -39.882812 -3.226562 -37.816406 C -3.871094 -36.785156 -4 -36.394531 -3.742188 -35.878906 C -3.613281 -34.976562 -3.355469 -34.976562 -1.289062 -35.234375 Z M -0.257812 -39.492188 C -0.128906 -39.882812 2.066406 -41.429688 2.96875 -41.6875 C 3.742188 -42.074219 5.035156 -42.589844 5.035156 -42.332031 C 4.90625 -42.203125 2.96875 -40.914062 1.808594 -40.269531 C 0.386719 -39.492188 -0.515625 -39.234375 -0.257812 -39.492188 Z M -0.257812 -39.492188 "/></g></g></g><g fill="#d5b358" fill-opacity="1"><g transform="translate(31.097558, 167.972118)"><g><path d="M 7.613281 -34.589844 L 10.324219 -34.976562 C 12.777344 -35.492188 17.164062 -37.042969 17.164062 -37.042969 L 18.972656 -37.816406 L 20.390625 -38.460938 L 21.167969 -38.847656 C 22.199219 -39.363281 22.328125 -39.363281 23.359375 -39.75 C 24.78125 -40.269531 25.425781 -40.527344 24.523438 -40.914062 C 24.265625 -41.042969 23.359375 -40.785156 20.648438 -39.621094 C 18.714844 -38.847656 16.003906 -37.816406 14.714844 -37.429688 C 8.519531 -35.492188 5.421875 -35.105469 5.421875 -36.785156 C 5.292969 -37.300781 5.550781 -37.945312 6.453125 -38.847656 C 7.484375 -40.011719 7.484375 -42.203125 5.550781 -40.785156 C 5.292969 -40.527344 4.644531 -40.269531 4.128906 -40.011719 L 0 -38.203125 L 0.902344 -39.621094 C 1.289062 -40.398438 1.289062 -40.398438 0.902344 -40.914062 C 0.386719 -41.558594 -0.128906 -41.429688 -1.03125 -40.140625 L -1.9375 -38.976562 C -2.195312 -38.332031 -3.226562 -36.785156 -3.742188 -36.265625 L -3.742188 -35.878906 C -4 -35.492188 -3.613281 -34.976562 -3.097656 -34.976562 C -2.96875 -34.847656 -2.582031 -35.105469 -2.195312 -35.234375 C -1.03125 -36.007812 2.96875 -38.203125 4.257812 -38.847656 L 4.386719 -38.847656 L 4.128906 -38.332031 L 4.128906 -38.203125 L 3.871094 -37.816406 C 3.484375 -37.171875 3.742188 -35.621094 4.257812 -35.234375 C 5.035156 -34.589844 6.324219 -34.460938 7.613281 -34.589844 Z M 7.613281 -34.589844 "/></g></g></g><g fill="#d5b358" fill-opacity="1"><g transform="translate(55.361685, 167.972118)"><g><path d="M 2.066406 -32.652344 C 5.421875 -33.039062 11.359375 -34.203125 16.519531 -36.394531 C 19.875 -37.816406 20.390625 -37.816406 24.78125 -39.882812 L 25.167969 -40.140625 C 26.972656 -41.042969 25.683594 -41.171875 25.167969 -41.042969 C 25.167969 -40.914062 16.648438 -37.558594 16.648438 -37.429688 C 11.875 -35.621094 7.097656 -34.203125 1.03125 -33.816406 C -1.160156 -33.816406 -1.9375 -34.460938 -2.195312 -35.105469 C -2.324219 -35.492188 -2.582031 -36.65625 -1.9375 -37.558594 L -1.417969 -38.203125 C 0.257812 -40.011719 3.097656 -42.074219 4.257812 -42.203125 L 4.777344 -42.203125 L 4.128906 -41.558594 C 3.742188 -41.042969 3.484375 -40.65625 3.613281 -40.527344 L 3.742188 -40.140625 C 3.742188 -40.011719 4 -40.011719 4.128906 -40.011719 C 4.644531 -40.140625 6.453125 -42.332031 6.324219 -42.847656 C 6.324219 -43.238281 5.550781 -43.753906 5.035156 -43.625 C 3.355469 -43.367188 0.386719 -42.074219 -1.9375 -39.75 C -3.226562 -38.460938 -3.871094 -37.558594 -3.871094 -36.136719 C -3.871094 -34.976562 -3.097656 -33.296875 -1.417969 -32.910156 C -0.386719 -32.652344 0.128906 -32.523438 2.066406 -32.652344 Z M 2.066406 -32.652344 "/></g></g></g><g fill="#d5b358" fill-opacity="1"><g transform="translate(80.529262, 167.972118)"><g><path d="M 2.839844 -35.234375 C 3.355469 -35.105469 3.871094 -35.105469 4.386719 -35.234375 L 4.777344 -35.234375 C 4.777344 -35.234375 7.097656 -35.75 9.550781 -36.914062 L 16.90625 -40.269531 C 17.164062 -40.398438 17.164062 -40.785156 16.90625 -40.914062 L 16.777344 -41.042969 L 16.390625 -41.042969 L 16.132812 -40.914062 C 10.453125 -38.460938 6.582031 -36.914062 4.90625 -36.523438 C 4.90625 -36.523438 3.226562 -36.007812 3.097656 -36.523438 C 2.582031 -37.6875 3.484375 -39.105469 4.128906 -39.882812 C 4.644531 -40.527344 5.9375 -42.074219 4.386719 -42.074219 C 4.128906 -42.074219 3.742188 -42.203125 3.742188 -42.332031 C 3.613281 -42.847656 3.226562 -42.71875 1.03125 -41.558594 C -0.902344 -40.527344 -3.355469 -38.976562 -4.90625 -37.6875 C -5.550781 -37.171875 -5.808594 -36.914062 -5.808594 -36.523438 C -5.808594 -35.878906 -5.421875 -35.75 -4.644531 -35.75 C -4 -35.75 -1.417969 -37.042969 -0.386719 -37.816406 C 0.644531 -38.71875 2.324219 -39.621094 2.324219 -39.492188 L 1.9375 -38.589844 C 1.679688 -38.203125 1.546875 -37.6875 1.546875 -37.300781 C 1.417969 -36.785156 1.417969 -36.394531 1.808594 -35.878906 C 2.066406 -35.492188 2.324219 -35.234375 2.839844 -35.234375 Z M -4.386719 -36.914062 L -3.613281 -37.429688 C -2.839844 -38.203125 -0.773438 -39.621094 0.902344 -40.398438 C 2.195312 -41.171875 2.453125 -41.171875 2.453125 -40.914062 C 2.453125 -40.785156 2.066406 -40.527344 1.679688 -40.398438 C 0.644531 -39.882812 0.128906 -39.492188 -0.128906 -39.234375 C -0.386719 -38.976562 -2.582031 -37.6875 -3.613281 -37.171875 Z M -4.386719 -36.914062 "/></g></g></g><g fill="#d5b358" fill-opacity="1"><g transform="translate(97.049515, 167.972118)"><g><path d="M 7.613281 -34.589844 L 10.324219 -34.976562 C 12.777344 -35.492188 17.164062 -37.042969 17.164062 -37.042969 L 18.972656 -37.816406 L 20.390625 -38.460938 L 21.167969 -38.847656 C 22.199219 -39.363281 22.328125 -39.363281 23.359375 -39.75 C 24.78125 -40.269531 25.425781 -40.527344 24.523438 -40.914062 C 24.265625 -41.042969 23.359375 -40.785156 20.648438 -39.621094 C 18.714844 -38.847656 16.003906 -37.816406 14.714844 -37.429688 C 8.519531 -35.492188 5.421875 -35.105469 5.421875 -36.785156 C 5.292969 -37.300781 5.550781 -37.945312 6.453125 -38.847656 C 7.484375 -40.011719 7.484375 -42.203125 5.550781 -40.785156 C 5.292969 -40.527344 4.644531 -40.269531 4.128906 -40.011719 L 0 -38.203125 L 0.902344 -39.621094 C 1.289062 -40.398438 1.289062 -40.398438 0.902344 -40.914062 C 0.386719 -41.558594 -0.128906 -41.429688 -1.03125 -40.140625 L -1.9375 -38.976562 C -2.195312 -38.332031 -3.226562 -36.785156 -3.742188 -36.265625 L -3.742188 -35.878906 C -4 -35.492188 -3.613281 -34.976562 -3.097656 -34.976562 C -2.96875 -34.847656 -2.582031 -35.105469 -2.195312 -35.234375 C -1.03125 -36.007812 2.96875 -38.203125 4.257812 -38.847656 L 4.386719 -38.847656 L 4.128906 -38.332031 L 4.128906 -38.203125 L 3.871094 -37.816406 C 3.484375 -37.171875 3.742188 -35.621094 4.257812 -35.234375 C 5.035156 -34.589844 6.324219 -34.460938 7.613281 -34.589844 Z M 7.613281 -34.589844 "/></g></g></g><g clip-path="url(#7010f50915)"><g fill="#d5b358" fill-opacity="1"><g transform="translate(121.313642, 167.972118)"><g><path d="M 58.207031 -61.175781 C 57.5625 -61.433594 56.53125 -61.5625 53.5625 -61.820312 C 50.851562 -62.082031 30.847656 -62.855469 28.394531 -62.855469 L 24.78125 -62.984375 L 22.328125 -62.984375 C 22.714844 -63.5 23.878906 -64.789062 24.652344 -65.4375 C 25.167969 -65.824219 25.683594 -66.339844 26.199219 -66.984375 C 26.714844 -67.628906 28.523438 -69.308594 29.425781 -70.082031 L 30.71875 -71.113281 L 31.234375 -71.761719 C 31.621094 -72.148438 31.621094 -72.277344 31.363281 -72.664062 C 31.234375 -72.921875 30.976562 -73.050781 30.847656 -73.050781 C 30.589844 -73.050781 29.039062 -71.890625 28.910156 -71.5 L 27.75 -70.46875 C 26.328125 -69.308594 26.070312 -69.179688 25.8125 -68.792969 C 25.554688 -68.535156 22.199219 -65.308594 21.683594 -64.917969 L 21.296875 -64.53125 L 20.261719 -63.371094 L 19.746094 -62.855469 L 1.546875 -62.46875 L -1.289062 -62.210938 C -3.484375 -62.082031 -9.679688 -61.5625 -10.710938 -61.304688 C -11.746094 -61.046875 -12.261719 -60.53125 -11.875 -60.144531 C -11.746094 -59.886719 -9.164062 -60.144531 -7.355469 -60.53125 C -6.96875 -60.660156 -3.871094 -61.046875 -0.773438 -61.175781 L 2.453125 -61.433594 L 5.9375 -61.5625 L 10.195312 -61.820312 C 11.359375 -61.949219 15.746094 -61.949219 18.585938 -61.949219 C 18.457031 -61.691406 18.199219 -61.5625 18.070312 -61.304688 L 17.683594 -61.046875 L 17.292969 -60.53125 L 15.746094 -58.851562 C 13.9375 -56.917969 8.261719 -50.722656 7.097656 -49.042969 C 7.097656 -49.042969 5.035156 -46.59375 5.035156 -46.722656 C 5.035156 -46.59375 4.515625 -46.074219 4 -45.558594 C 3.355469 -44.914062 2.324219 -43.753906 -0.386719 -40.527344 L -1.417969 -39.363281 L -2.453125 -38.074219 C -2.710938 -37.6875 -2.839844 -37.429688 -2.96875 -37.429688 C -3.226562 -37.429688 -3.871094 -36.65625 -5.9375 -33.945312 C -6.710938 -33.039062 -7.355469 -32.265625 -7.613281 -32.136719 C -7.742188 -31.878906 -9.035156 -30.332031 -10.453125 -28.652344 L -13.679688 -24.652344 L -18.972656 -17.554688 C -20.261719 -15.746094 -21.039062 -14.714844 -21.296875 -14.84375 L -21.296875 -14.585938 C -21.296875 -14.457031 -21.296875 -14.195312 -21.425781 -13.9375 C -21.554688 -13.550781 -21.683594 -13.421875 -21.8125 -13.550781 C -21.8125 -13.421875 -21.941406 -13.292969 -21.941406 -13.292969 C -21.941406 -13.035156 -21.941406 -12.90625 -22.070312 -12.90625 C -22.070312 -13.035156 -22.457031 -12.261719 -22.714844 -11.359375 C -23.230469 -10.066406 -23.359375 -9.550781 -23.230469 -8.90625 C -22.972656 -8.132812 -22.84375 -8.003906 -22.457031 -7.871094 C -21.941406 -7.871094 -21.683594 -7.871094 -21.554688 -8.132812 C -21.296875 -8.519531 -21.296875 -8.519531 -21.8125 -8.648438 C -22.328125 -8.648438 -22.328125 -8.777344 -22.328125 -9.292969 C -22.199219 -9.9375 -21.167969 -12.132812 -20.261719 -13.550781 C -17.8125 -17.164062 -11.359375 -25.425781 -7.226562 -30.199219 L -5.164062 -32.652344 L -0.902344 -37.558594 L 2.582031 -41.429688 L 3.742188 -42.847656 L 5.292969 -44.527344 C 6.453125 -45.816406 7.484375 -47.109375 9.679688 -49.691406 C 10.453125 -50.59375 11.359375 -51.496094 11.746094 -51.882812 C 12.132812 -52.269531 12.777344 -53.046875 13.164062 -53.5625 L 15.359375 -55.886719 C 16.777344 -57.433594 17.683594 -58.207031 18.457031 -59.242188 L 19.617188 -60.402344 C 20.003906 -60.917969 20.390625 -61.175781 20.648438 -61.5625 L 21.296875 -61.949219 C 22.328125 -62.082031 23.101562 -61.949219 23.488281 -61.949219 L 24.007812 -61.949219 C 31.492188 -61.820312 49.433594 -61.304688 52.011719 -60.917969 C 52.789062 -60.660156 54.078125 -60.660156 54.722656 -60.53125 C 56.015625 -60.53125 56.015625 -60.53125 55.757812 -60.015625 C 55.496094 -59.757812 55.625 -59.5 55.757812 -59.371094 C 56.015625 -59.113281 56.144531 -58.984375 56.273438 -59.113281 L 57.5625 -59.628906 C 58.984375 -60.273438 59.113281 -60.660156 58.207031 -61.175781 Z M 58.207031 -61.175781 "/></g></g></g></g><g fill="#d5b358" fill-opacity="1"><g transform="translate(132.284113, 167.972118)"><g><path d="M 2.839844 -35.234375 C 3.355469 -35.105469 3.871094 -35.105469 4.386719 -35.234375 L 4.777344 -35.234375 C 4.777344 -35.234375 7.097656 -35.75 9.550781 -36.914062 L 16.90625 -40.269531 C 17.164062 -40.398438 17.164062 -40.785156 16.90625 -40.914062 L 16.777344 -41.042969 L 16.390625 -41.042969 L 16.132812 -40.914062 C 10.453125 -38.460938 6.582031 -36.914062 4.90625 -36.523438 C 4.90625 -36.523438 3.226562 -36.007812 3.097656 -36.523438 C 2.582031 -37.6875 3.484375 -39.105469 4.128906 -39.882812 C 4.644531 -40.527344 5.9375 -42.074219 4.386719 -42.074219 C 4.128906 -42.074219 3.742188 -42.203125 3.742188 -42.332031 C 3.613281 -42.847656 3.226562 -42.71875 1.03125 -41.558594 C -0.902344 -40.527344 -3.355469 -38.976562 -4.90625 -37.6875 C -5.550781 -37.171875 -5.808594 -36.914062 -5.808594 -36.523438 C -5.808594 -35.878906 -5.421875 -35.75 -4.644531 -35.75 C -4 -35.75 -1.417969 -37.042969 -0.386719 -37.816406 C 0.644531 -38.71875 2.324219 -39.621094 2.324219 -39.492188 L 1.9375 -38.589844 C 1.679688 -38.203125 1.546875 -37.6875 1.546875 -37.300781 C 1.417969 -36.785156 1.417969 -36.394531 1.808594 -35.878906 C 2.066406 -35.492188 2.324219 -35.234375 2.839844 -35.234375 Z M -4.386719 -36.914062 L -3.613281 -37.429688 C -2.839844 -38.203125 -0.773438 -39.621094 0.902344 -40.398438 C 2.195312 -41.171875 2.453125 -41.171875 2.453125 -40.914062 C 2.453125 -40.785156 2.066406 -40.527344 1.679688 -40.398438 C 0.644531 -39.882812 0.128906 -39.492188 -0.128906 -39.234375 C -0.386719 -38.976562 -2.582031 -37.6875 -3.613281 -37.171875 Z M -4.386719 -36.914062 "/></g></g></g><g fill="#d5b358" fill-opacity="1"><g transform="translate(148.804366, 167.972118)"><g><path d="M 2.96875 -30.71875 L 6.453125 -34.976562 C 9.808594 -39.363281 13.808594 -43.753906 16.003906 -45.558594 L 18.328125 -47.753906 L 20.132812 -49.171875 L 22.070312 -50.59375 C 22.84375 -51.109375 25.167969 -52.660156 25.8125 -53.304688 L 27.75 -54.851562 C 29.296875 -55.886719 32.78125 -58.722656 34.074219 -60.144531 C 36.394531 -62.46875 37.558594 -63.757812 38.71875 -65.308594 C 39.75 -66.726562 40.011719 -67.113281 39.882812 -67.628906 C 39.75 -68.40625 39.105469 -68.273438 37.6875 -67.5 C 37.171875 -67.113281 36.007812 -66.339844 35.363281 -65.695312 L 33.167969 -64.015625 C 32.007812 -63.242188 29.8125 -61.175781 27.878906 -59.113281 C 26.328125 -57.433594 25.941406 -57.046875 23.878906 -55.109375 L 22.585938 -53.820312 L 17.554688 -48.65625 C 16.648438 -47.753906 14.585938 -46.335938 12.519531 -45.300781 C 11.359375 -44.785156 10.066406 -44.011719 9.421875 -43.625 L 7.355469 -42.332031 L 6.453125 -41.816406 L 6.066406 -42.203125 C 5.164062 -43.367188 3.742188 -43.238281 1.160156 -41.816406 C -0.515625 -40.914062 -3.613281 -38.203125 -4.644531 -36.65625 C -5.550781 -35.363281 -5.164062 -34.589844 -3.742188 -35.105469 C -2.453125 -35.492188 -0.386719 -36.523438 0.644531 -37.171875 L 1.160156 -37.429688 C 1.289062 -37.429688 1.808594 -37.816406 2.453125 -38.203125 L 3.742188 -38.847656 L 4.90625 -39.492188 L 9.292969 -42.203125 C 10.453125 -42.847656 11.359375 -43.367188 11.488281 -43.367188 C 11.488281 -43.367188 10.96875 -42.71875 10.324219 -42.203125 C 8.648438 -40.527344 1.808594 -32.007812 1.808594 -31.492188 C 1.9375 -30.847656 2.582031 -30.460938 2.96875 -30.71875 Z M 23.488281 -52.398438 C 22.84375 -52.140625 24.523438 -54.078125 27.105469 -56.402344 L 28.78125 -58.078125 C 29.683594 -59.242188 30.589844 -60.144531 31.75 -61.175781 L 32.78125 -62.210938 L 34.460938 -63.628906 C 37.945312 -66.210938 38.460938 -66.339844 36.523438 -64.015625 C 35.363281 -62.46875 34.460938 -61.691406 31.363281 -58.722656 C 30.199219 -57.691406 28.652344 -56.402344 27.75 -55.757812 L 25.683594 -54.078125 Z M -2.453125 -37.042969 C -2.839844 -37.042969 -1.9375 -38.074219 -0.773438 -39.105469 L 0.257812 -40.011719 C 0.386719 -40.140625 0.773438 -40.398438 1.417969 -40.65625 L 2.710938 -41.300781 C 3.097656 -41.429688 4 -41.429688 4.257812 -41.300781 C 4.515625 -41.042969 3.871094 -40.269531 2.839844 -39.75 C 2.195312 -39.363281 1.679688 -39.105469 1.546875 -38.976562 C 1.417969 -38.976562 0.515625 -38.589844 -0.515625 -38.074219 C -1.417969 -37.558594 -2.324219 -37.042969 -2.453125 -37.042969 Z M -2.453125 -37.042969 "/></g></g></g><g fill="#d5b358" fill-opacity="1"><g transform="translate(169.325611, 167.972118)"><g><path d="M -1.546875 -35.105469 C 0.257812 -35.105469 2.96875 -37.042969 3.613281 -38.074219 L 4 -38.203125 C 5.292969 -37.945312 6.839844 -37.816406 8.519531 -37.816406 C 10.324219 -37.816406 14.457031 -38.332031 17.164062 -39.492188 L 18.328125 -40.011719 C 18.585938 -40.140625 18.714844 -40.398438 18.585938 -40.65625 C 18.457031 -40.914062 18.070312 -40.914062 17.941406 -40.785156 C 15.488281 -39.75 12.648438 -38.71875 8.261719 -38.71875 C 7.226562 -38.71875 6.195312 -38.847656 5.421875 -39.105469 C 5.164062 -39.234375 4.90625 -39.363281 4.386719 -39.492188 L 4.386719 -40.65625 C 4.386719 -40.785156 4.386719 -41.042969 4.257812 -41.171875 C 4.128906 -41.429688 3.742188 -41.6875 3.355469 -41.6875 L 1.679688 -41.816406 L 1.417969 -41.945312 L 0.386719 -41.558594 L -1.808594 -39.363281 C -2.195312 -38.976562 -3.613281 -36.523438 -2.96875 -35.492188 C -2.582031 -34.976562 -2.582031 -34.976562 -1.546875 -35.105469 Z M 2.582031 -40.140625 C 2.324219 -40.269531 2.195312 -40.398438 2.453125 -40.398438 C 2.582031 -40.398438 2.710938 -40.269531 2.839844 -40.269531 C 2.839844 -40.140625 2.839844 -40.011719 2.582031 -40.140625 Z M -1.160156 -36.265625 C -1.289062 -36.265625 -1.808594 -36.914062 -0.644531 -38.460938 C 0.128906 -39.492188 0.515625 -39.621094 0.902344 -39.621094 L 1.417969 -39.234375 L 2.195312 -38.847656 C 2.324219 -38.71875 2.839844 -38.589844 1.160156 -37.171875 C 0 -36.136719 -1.03125 -36.265625 -1.160156 -36.265625 Z M -1.160156 -36.265625 "/></g></g></g></svg>