<svg xmlns="http://www.w3.org/2000/svg" xmlns:xlink="http://www.w3.org/1999/xlink" width="300" zoomAndPan="magnify" viewBox="0 0 224.87999 149.999998" height="200" preserveAspectRatio="xMidYMid meet" version="1.0"><defs><g/></defs><g fill="#d5b358" fill-opacity="1"><g transform="translate(-6.010942, 139.243213)"><g><path d="M 38.597656 -3.53125 C 38.75 -3.761719 38.75 -3.761719 38.597656 -3.835938 C 38.523438 -3.914062 38.445312 -4.066406 38.523438 -4.144531 C 38.597656 -4.527344 39.597656 -6.0625 40.515625 -7.214844 L 42.894531 -10.4375 C 43.738281 -11.585938 44.660156 -12.660156 44.890625 -12.890625 C 45.121094 -13.199219 45.503906 -13.660156 45.65625 -13.964844 L 46.347656 -14.808594 L 48.652344 -17.648438 L 49.496094 -18.570312 L 51.949219 -21.484375 L 55.480469 -25.398438 L 60.238281 -31 L 64.613281 -35.914062 C 65.300781 -36.527344 65.457031 -36.679688 65.609375 -36.910156 L 66.148438 -37.449219 C 66.300781 -37.601562 67.144531 -38.445312 67.910156 -39.367188 L 69.828125 -41.4375 C 70.136719 -41.667969 70.289062 -41.898438 70.289062 -41.898438 L 72.132812 -43.816406 L 81.953125 -53.945312 L 82.796875 -54.789062 C 83.027344 -55.019531 83.257812 -55.25 83.257812 -55.171875 C 83.335938 -55.171875 83.644531 -55.402344 84.027344 -55.710938 L 85.484375 -56.785156 C 86.019531 -57.246094 86.25 -57.246094 86.480469 -56.707031 C 86.636719 -56.324219 86.789062 -56.246094 87.171875 -56.476562 C 87.402344 -56.554688 87.171875 -57.476562 86.789062 -57.9375 C 86.636719 -58.242188 86.480469 -58.320312 86.25 -58.242188 L 85.636719 -58.089844 C 85.484375 -58.011719 85.101562 -57.78125 84.871094 -57.550781 L 83.796875 -56.785156 L 82.953125 -56.171875 L 74.972656 -48.421875 L 71.59375 -44.96875 L 70.90625 -44.277344 L 69.675781 -42.972656 L 68.984375 -42.203125 C 68.832031 -42.050781 67.988281 -41.285156 67.222656 -40.363281 C 66.992188 -40.054688 66.683594 -39.824219 66.683594 -39.824219 C 66.605469 -39.824219 66.53125 -39.75 66.453125 -39.597656 C 66.453125 -39.519531 66.300781 -39.289062 66.070312 -39.136719 L 64.917969 -37.832031 L 63.921875 -36.832031 L 62.078125 -34.761719 L 59.699219 -32.152344 L 58.933594 -31.230469 L 53.101562 -24.632812 C 52.488281 -24.019531 51.875 -23.25 51.261719 -22.558594 L 49.417969 -20.410156 L 48.652344 -19.492188 L 46.960938 -17.417969 C 44.738281 -14.734375 44.507812 -14.425781 43.96875 -13.582031 L 43.203125 -12.738281 L 42.820312 -12.199219 L 42.511719 -11.816406 C 42.433594 -11.585938 42.203125 -11.355469 42.128906 -11.355469 C 42.050781 -11.28125 41.898438 -11.125 41.898438 -10.972656 L 40.824219 -9.515625 C 40.824219 -9.976562 40.976562 -10.4375 41.359375 -10.820312 L 41.515625 -10.898438 C 41.515625 -10.972656 41.515625 -11.203125 41.667969 -11.433594 L 42.511719 -13.046875 C 43.203125 -14.425781 44.277344 -16.269531 45.964844 -19.03125 C 47.5 -21.410156 48.191406 -22.558594 48.652344 -23.558594 L 49.1875 -24.632812 L 50.875 -27.933594 C 51.949219 -30.082031 53.179688 -32.152344 56.09375 -36.988281 C 58.472656 -40.746094 58.855469 -41.359375 60.546875 -43.507812 C 61.082031 -44.199219 61.464844 -44.96875 61.464844 -45.429688 C 61.542969 -45.734375 61.542969 -45.964844 61.390625 -46.273438 C 61.3125 -46.578125 61.234375 -46.503906 60.851562 -46.195312 C 59.625 -45.199219 59.085938 -44.738281 58.933594 -44.582031 C 58.78125 -44.429688 58.550781 -44.199219 58.320312 -44.046875 C 58.089844 -43.894531 57.859375 -43.664062 57.78125 -43.585938 C 57.78125 -43.433594 57.550781 -43.277344 57.320312 -43.125 C 56.9375 -42.894531 53.484375 -39.671875 53.101562 -39.210938 C 53.023438 -39.058594 52.871094 -38.980469 52.792969 -39.058594 C 52.71875 -39.136719 52.71875 -39.058594 52.71875 -38.980469 C 52.71875 -38.90625 52.179688 -38.292969 51.566406 -37.601562 L 48.652344 -34.53125 L 48.113281 -33.996094 L 47.882812 -33.839844 L 46.117188 -31.921875 C 45.734375 -31.460938 45.351562 -31.078125 45.273438 -31.078125 L 45.121094 -30.925781 C 45.042969 -30.769531 44.738281 -30.386719 44.355469 -29.925781 C 43.96875 -29.464844 43.585938 -29.007812 43.585938 -28.929688 C 43.585938 -28.851562 43.507812 -28.851562 43.433594 -28.851562 C 43.355469 -28.851562 42.664062 -28.164062 42.511719 -27.933594 L 41.589844 -26.859375 L 41.4375 -26.78125 L 41.054688 -26.398438 C 40.902344 -26.011719 40.671875 -25.707031 40.285156 -25.476562 L 40.210938 -25.324219 C 40.210938 -25.246094 40.054688 -25.015625 39.597656 -24.554688 L 37.140625 -21.945312 L 35.296875 -19.875 L 32.917969 -17.34375 C 32.304688 -16.804688 31.308594 -15.652344 31.308594 -15.5 C 31.308594 -15.347656 32 -15.578125 32.074219 -15.730469 C 32.230469 -16.113281 33.148438 -17.035156 33.304688 -17.035156 C 33.378906 -17.035156 33.609375 -17.265625 33.765625 -17.574219 C 33.996094 -17.878906 34.300781 -18.261719 34.53125 -18.417969 L 35.296875 -19.183594 C 35.527344 -19.492188 35.757812 -19.722656 35.757812 -19.722656 C 35.835938 -19.722656 36.066406 -19.953125 36.21875 -20.257812 C 36.449219 -20.566406 36.679688 -20.796875 36.757812 -20.796875 C 36.832031 -20.796875 37.984375 -22.023438 38.0625 -22.175781 C 38.0625 -22.253906 38.367188 -22.636719 38.75 -23.019531 C 39.136719 -23.40625 39.519531 -23.789062 39.597656 -23.941406 C 39.671875 -24.09375 39.75 -24.171875 39.824219 -24.171875 C 39.902344 -24.171875 40.132812 -24.402344 40.441406 -24.785156 C 40.746094 -25.167969 41.054688 -25.398438 41.285156 -25.554688 L 41.285156 -25.628906 C 41.4375 -26.089844 41.746094 -26.398438 42.050781 -26.628906 L 42.433594 -26.859375 L 42.589844 -27.089844 C 42.511719 -27.089844 42.589844 -27.164062 42.664062 -27.242188 L 43.050781 -27.703125 C 43.125 -27.777344 43.277344 -27.933594 43.433594 -28.007812 C 43.585938 -28.007812 43.664062 -28.164062 43.664062 -28.238281 C 43.664062 -28.390625 43.738281 -28.46875 43.894531 -28.546875 C 43.96875 -28.621094 44.199219 -28.777344 44.277344 -28.929688 L 44.8125 -29.621094 L 45.273438 -30.15625 L 46.117188 -31.078125 C 46.503906 -31.460938 46.886719 -31.921875 46.886719 -32 C 46.886719 -32.074219 46.960938 -32.152344 47.039062 -32.152344 C 47.117188 -32.152344 47.421875 -32.460938 47.652344 -32.765625 C 47.882812 -33.148438 48.191406 -33.457031 48.265625 -33.457031 C 48.34375 -33.457031 48.496094 -33.609375 48.574219 -33.765625 C 48.726562 -33.996094 48.804688 -34.070312 48.882812 -34.070312 C 48.957031 -33.996094 49.035156 -34.070312 49.035156 -34.222656 C 49.109375 -34.378906 49.1875 -34.53125 49.265625 -34.453125 C 49.339844 -34.453125 49.496094 -34.53125 49.496094 -34.609375 C 49.496094 -34.683594 49.800781 -35.070312 50.1875 -35.453125 C 50.570312 -35.835938 50.875 -36.21875 50.953125 -36.371094 C 50.953125 -36.527344 51.105469 -36.601562 51.183594 -36.601562 C 51.335938 -36.601562 51.566406 -36.832031 51.71875 -36.988281 C 51.875 -37.21875 52.179688 -37.601562 52.488281 -37.753906 C 52.71875 -37.984375 53.023438 -38.292969 53.179688 -38.523438 L 53.867188 -39.210938 C 54.253906 -39.519531 55.558594 -40.746094 55.789062 -40.976562 C 55.863281 -41.128906 56.246094 -41.4375 57.246094 -42.203125 L 58.011719 -42.894531 C 58.242188 -43.125 58.394531 -43.277344 58.394531 -43.125 C 58.625 -43.355469 58.855469 -43.507812 59.164062 -43.664062 C 59.316406 -43.816406 59.46875 -43.894531 59.625 -43.96875 L 59.546875 -43.894531 L 58.78125 -42.894531 C 58.78125 -42.820312 58.472656 -42.589844 58.011719 -42.128906 L 57.9375 -41.820312 L 57.476562 -40.976562 L 57.246094 -40.59375 C 57.167969 -40.441406 57.015625 -40.054688 57.09375 -40.441406 C 56.9375 -40.054688 56.707031 -39.75 56.476562 -39.519531 C 56.246094 -38.980469 55.558594 -37.90625 54.328125 -35.914062 C 52.179688 -32.535156 49.800781 -28.46875 49.878906 -28.316406 L 49.265625 -27.089844 C 49.265625 -27.011719 49.109375 -26.78125 48.957031 -26.472656 C 48.726562 -26.167969 48.652344 -25.9375 48.652344 -25.859375 L 48.496094 -25.476562 C 48.113281 -24.863281 47.347656 -23.480469 47.347656 -23.40625 L 45.199219 -19.722656 L 43.433594 -16.957031 C 43.050781 -16.269531 42.664062 -15.730469 42.664062 -15.730469 C 42.589844 -15.730469 42.589844 -15.652344 42.589844 -15.578125 C 42.589844 -15.425781 41.746094 -13.964844 41.667969 -14.042969 C 41.667969 -14.042969 41.589844 -14.042969 41.667969 -13.964844 C 41.667969 -13.890625 41.515625 -13.503906 41.285156 -13.046875 C 41.054688 -12.660156 40.824219 -12.277344 40.902344 -12.199219 C 40.902344 -12.125 40.824219 -12.046875 40.746094 -12.046875 C 40.671875 -12.046875 40.59375 -11.972656 40.59375 -11.894531 C 40.515625 -11.433594 38.980469 -7.980469 38.445312 -6.984375 L 38.0625 -5.984375 L 37.601562 -4.988281 C 37.371094 -4.527344 37.371094 -4.296875 37.523438 -4.066406 L 37.601562 -3.992188 C 37.675781 -3.375 38.136719 -3.070312 38.597656 -3.53125 Z M 9.515625 8.210938 C 10.28125 7.75 11.511719 6.828125 11.585938 6.597656 C 11.664062 6.523438 11.816406 6.292969 12.046875 6.140625 C 12.277344 6.0625 12.585938 5.753906 12.738281 5.523438 C 12.816406 5.371094 12.96875 5.21875 13.046875 5.21875 C 13.121094 5.21875 13.429688 4.910156 13.734375 4.449219 C 14.042969 4.066406 14.503906 3.605469 14.734375 3.375 C 14.964844 3.222656 15.195312 2.992188 15.195312 2.914062 C 15.195312 2.839844 15.347656 2.6875 15.425781 2.609375 C 15.652344 2.53125 16.652344 1.535156 17.34375 0.691406 C 18.261719 -0.308594 19.414062 -1.613281 19.722656 -1.839844 C 19.875 -1.996094 20.105469 -2.226562 20.183594 -2.457031 C 20.257812 -2.609375 20.335938 -2.839844 20.488281 -2.839844 C 20.566406 -2.761719 20.796875 -2.992188 20.949219 -3.222656 C 21.101562 -3.453125 21.410156 -3.835938 21.5625 -3.992188 C 21.792969 -4.144531 21.945312 -4.449219 21.945312 -4.605469 C 21.945312 -4.679688 21.945312 -4.757812 22.023438 -4.679688 C 22.023438 -4.605469 22.253906 -4.757812 22.484375 -5.066406 C 22.714844 -5.292969 22.945312 -5.449219 22.945312 -5.449219 C 23.019531 -5.449219 23.175781 -5.601562 23.175781 -5.679688 C 23.25 -5.832031 23.710938 -6.367188 24.25 -6.984375 L 26.011719 -8.976562 L 27.011719 -9.976562 L 27.472656 -10.589844 L 28.238281 -11.433594 C 28.777344 -11.972656 28.777344 -12.046875 29.851562 -13.429688 C 30.15625 -13.8125 30.542969 -14.195312 30.617188 -14.195312 C 30.769531 -14.195312 31.460938 -15.039062 31.308594 -15.117188 C 31.308594 -15.195312 31.15625 -15.195312 31 -15.117188 C 30.847656 -15.039062 30.464844 -14.65625 30.082031 -14.273438 L 26.011719 -9.59375 L 20.796875 -3.914062 C 18.109375 -0.84375 16.957031 0.382812 16.730469 0.539062 C 16.574219 0.613281 16.269531 0.996094 15.960938 1.304688 C 15.652344 1.6875 15.347656 1.917969 15.269531 1.996094 C 15.195312 1.996094 15.117188 2.070312 15.117188 2.148438 C 15.117188 2.226562 14.964844 2.378906 14.886719 2.457031 C 14.734375 2.457031 14.578125 2.609375 14.503906 2.6875 L 13.964844 3.300781 C 13.8125 3.53125 13.503906 3.761719 13.429688 3.761719 C 13.273438 3.835938 13.046875 4.066406 12.816406 4.375 C 12.585938 4.679688 12.125 5.140625 11.816406 5.449219 C 10.589844 6.445312 9.898438 6.90625 9.59375 7.058594 C 8.824219 7.289062 8.746094 7.289062 8.59375 6.753906 C 8.441406 6.140625 8.519531 5.832031 8.746094 5.601562 C 8.902344 5.449219 8.902344 5.371094 8.824219 4.910156 C 8.746094 4.527344 8.671875 4.375 8.441406 4.296875 C 8.058594 4.21875 8.058594 4.296875 7.828125 5.21875 C 7.519531 6.367188 7.597656 7.289062 7.980469 7.980469 C 8.363281 8.59375 8.671875 8.671875 9.515625 8.210938 Z M 9.515625 8.210938 "/></g></g></g><g fill="#d5b358" fill-opacity="1"><g transform="translate(54.380443, 139.243213)"><g><path d="M 1.6875 -20.949219 C 1.996094 -20.871094 2.300781 -20.871094 2.609375 -20.949219 L 2.839844 -20.949219 C 2.839844 -20.949219 4.21875 -21.257812 5.679688 -21.945312 L 10.050781 -23.941406 C 10.207031 -24.019531 10.207031 -24.25 10.050781 -24.324219 L 9.976562 -24.402344 L 9.746094 -24.402344 L 9.59375 -24.324219 C 6.214844 -22.867188 3.914062 -21.945312 2.914062 -21.714844 C 2.914062 -21.714844 1.917969 -21.410156 1.839844 -21.714844 C 1.535156 -22.40625 2.070312 -23.25 2.457031 -23.710938 C 2.761719 -24.09375 3.53125 -25.015625 2.609375 -25.015625 C 2.457031 -25.015625 2.226562 -25.09375 2.226562 -25.167969 C 2.148438 -25.476562 1.917969 -25.398438 0.613281 -24.710938 C -0.539062 -24.09375 -1.996094 -23.175781 -2.914062 -22.40625 C -3.300781 -22.101562 -3.453125 -21.945312 -3.453125 -21.714844 C -3.453125 -21.332031 -3.222656 -21.257812 -2.761719 -21.257812 C -2.378906 -21.257812 -0.84375 -22.023438 -0.230469 -22.484375 C 0.382812 -23.019531 1.382812 -23.558594 1.382812 -23.480469 L 1.152344 -22.945312 C 0.996094 -22.714844 0.921875 -22.40625 0.921875 -22.175781 C 0.84375 -21.871094 0.84375 -21.640625 1.074219 -21.332031 C 1.226562 -21.101562 1.382812 -20.949219 1.6875 -20.949219 Z M -2.609375 -21.945312 L -2.148438 -22.253906 C -1.6875 -22.714844 -0.460938 -23.558594 0.539062 -24.019531 C 1.304688 -24.480469 1.457031 -24.480469 1.457031 -24.324219 C 1.457031 -24.25 1.226562 -24.09375 0.996094 -24.019531 C 0.382812 -23.710938 0.078125 -23.480469 -0.078125 -23.328125 C -0.230469 -23.175781 -1.535156 -22.40625 -2.148438 -22.101562 Z M -2.609375 -21.945312 "/></g></g></g><g fill="#d5b358" fill-opacity="1"><g transform="translate(64.202674, 139.243213)"><g><path d="M 34.609375 -36.371094 C 34.222656 -36.527344 33.609375 -36.601562 31.84375 -36.757812 C 30.234375 -36.910156 18.339844 -37.371094 16.882812 -37.371094 L 14.734375 -37.449219 L 13.273438 -37.449219 C 13.503906 -37.753906 14.195312 -38.523438 14.65625 -38.90625 C 14.964844 -39.136719 15.269531 -39.441406 15.578125 -39.824219 C 15.882812 -40.210938 16.957031 -41.207031 17.496094 -41.667969 L 18.261719 -42.28125 L 18.570312 -42.664062 C 18.800781 -42.894531 18.800781 -42.972656 18.648438 -43.203125 C 18.570312 -43.355469 18.417969 -43.433594 18.339844 -43.433594 C 18.1875 -43.433594 17.265625 -42.742188 17.1875 -42.511719 L 16.5 -41.898438 C 15.652344 -41.207031 15.5 -41.128906 15.347656 -40.902344 C 15.195312 -40.746094 13.199219 -38.828125 12.890625 -38.597656 L 12.660156 -38.367188 L 12.046875 -37.675781 L 11.742188 -37.371094 L 0.921875 -37.140625 L -0.765625 -36.988281 C -2.070312 -36.910156 -5.753906 -36.601562 -6.367188 -36.449219 C -6.984375 -36.296875 -7.289062 -35.988281 -7.058594 -35.757812 C -6.984375 -35.605469 -5.449219 -35.757812 -4.375 -35.988281 C -4.144531 -36.066406 -2.300781 -36.296875 -0.460938 -36.371094 L 1.457031 -36.527344 L 3.53125 -36.601562 L 6.0625 -36.757812 C 6.753906 -36.832031 9.363281 -36.832031 11.050781 -36.832031 C 10.972656 -36.679688 10.820312 -36.601562 10.742188 -36.449219 L 10.511719 -36.296875 L 10.28125 -35.988281 L 9.363281 -34.992188 C 8.289062 -33.839844 4.910156 -30.15625 4.21875 -29.160156 C 4.21875 -29.160156 2.992188 -27.703125 2.992188 -27.777344 C 2.992188 -27.703125 2.6875 -27.394531 2.378906 -27.089844 C 1.996094 -26.703125 1.382812 -26.011719 -0.230469 -24.09375 L -0.84375 -23.40625 L -1.457031 -22.636719 C -1.613281 -22.40625 -1.6875 -22.253906 -1.765625 -22.253906 C -1.917969 -22.253906 -2.300781 -21.792969 -3.53125 -20.183594 C -3.992188 -19.644531 -4.375 -19.183594 -4.527344 -19.105469 C -4.605469 -18.953125 -5.371094 -18.03125 -6.214844 -17.035156 L -8.132812 -14.65625 L -11.28125 -10.4375 C -12.046875 -9.363281 -12.507812 -8.746094 -12.660156 -8.824219 L -12.660156 -8.671875 C -12.660156 -8.59375 -12.660156 -8.441406 -12.738281 -8.289062 C -12.816406 -8.058594 -12.890625 -7.980469 -12.96875 -8.058594 C -12.96875 -7.980469 -13.046875 -7.902344 -13.046875 -7.902344 C -13.046875 -7.75 -13.046875 -7.671875 -13.121094 -7.671875 C -13.121094 -7.75 -13.351562 -7.289062 -13.503906 -6.753906 C -13.8125 -5.984375 -13.890625 -5.679688 -13.8125 -5.292969 C -13.660156 -4.835938 -13.582031 -4.757812 -13.351562 -4.679688 C -13.046875 -4.679688 -12.890625 -4.679688 -12.816406 -4.835938 C -12.660156 -5.066406 -12.660156 -5.066406 -12.96875 -5.140625 C -13.273438 -5.140625 -13.273438 -5.21875 -13.273438 -5.523438 C -13.199219 -5.910156 -12.585938 -7.214844 -12.046875 -8.058594 C -10.589844 -10.207031 -6.753906 -15.117188 -4.296875 -17.957031 L -3.070312 -19.414062 L -0.539062 -22.332031 L 1.535156 -24.632812 L 2.226562 -25.476562 L 3.144531 -26.472656 C 3.835938 -27.242188 4.449219 -28.007812 5.753906 -29.542969 C 6.214844 -30.082031 6.753906 -30.617188 6.984375 -30.847656 C 7.214844 -31.078125 7.597656 -31.539062 7.828125 -31.84375 L 9.132812 -33.226562 C 9.976562 -34.148438 10.511719 -34.609375 10.972656 -35.222656 L 11.664062 -35.914062 C 11.894531 -36.21875 12.125 -36.371094 12.277344 -36.601562 L 12.660156 -36.832031 C 13.273438 -36.910156 13.734375 -36.832031 13.964844 -36.832031 L 14.273438 -36.832031 C 18.722656 -36.757812 29.390625 -36.449219 30.925781 -36.21875 C 31.386719 -36.066406 32.152344 -36.066406 32.535156 -35.988281 C 33.304688 -35.988281 33.304688 -35.988281 33.148438 -35.683594 C 32.996094 -35.527344 33.074219 -35.375 33.148438 -35.296875 C 33.304688 -35.144531 33.378906 -35.070312 33.457031 -35.144531 L 34.222656 -35.453125 C 35.070312 -35.835938 35.144531 -36.066406 34.609375 -36.371094 Z M 34.609375 -36.371094 "/></g></g></g><g fill="#d5b358" fill-opacity="1"><g transform="translate(70.725244, 139.243213)"><g><path d="M 1.6875 -20.949219 C 1.996094 -20.871094 2.300781 -20.871094 2.609375 -20.949219 L 2.839844 -20.949219 C 2.839844 -20.949219 4.21875 -21.257812 5.679688 -21.945312 L 10.050781 -23.941406 C 10.207031 -24.019531 10.207031 -24.25 10.050781 -24.324219 L 9.976562 -24.402344 L 9.746094 -24.402344 L 9.59375 -24.324219 C 6.214844 -22.867188 3.914062 -21.945312 2.914062 -21.714844 C 2.914062 -21.714844 1.917969 -21.410156 1.839844 -21.714844 C 1.535156 -22.40625 2.070312 -23.25 2.457031 -23.710938 C 2.761719 -24.09375 3.53125 -25.015625 2.609375 -25.015625 C 2.457031 -25.015625 2.226562 -25.09375 2.226562 -25.167969 C 2.148438 -25.476562 1.917969 -25.398438 0.613281 -24.710938 C -0.539062 -24.09375 -1.996094 -23.175781 -2.914062 -22.40625 C -3.300781 -22.101562 -3.453125 -21.945312 -3.453125 -21.714844 C -3.453125 -21.332031 -3.222656 -21.257812 -2.761719 -21.257812 C -2.378906 -21.257812 -0.84375 -22.023438 -0.230469 -22.484375 C 0.382812 -23.019531 1.382812 -23.558594 1.382812 -23.480469 L 1.152344 -22.945312 C 0.996094 -22.714844 0.921875 -22.40625 0.921875 -22.175781 C 0.84375 -21.871094 0.84375 -21.640625 1.074219 -21.332031 C 1.226562 -21.101562 1.382812 -20.949219 1.6875 -20.949219 Z M -2.609375 -21.945312 L -2.148438 -22.253906 C -1.6875 -22.714844 -0.460938 -23.558594 0.539062 -24.019531 C 1.304688 -24.480469 1.457031 -24.480469 1.457031 -24.324219 C 1.457031 -24.25 1.226562 -24.09375 0.996094 -24.019531 C 0.382812 -23.710938 0.078125 -23.480469 -0.078125 -23.328125 C -0.230469 -23.175781 -1.535156 -22.40625 -2.148438 -22.101562 Z M -2.609375 -21.945312 "/></g></g></g><g fill="#d5b358" fill-opacity="1"><g transform="translate(80.547475, 139.243213)"><g><path d="M -3.375 -15.808594 C -3.300781 -15.808594 -3.222656 -16.191406 -3.070312 -17.035156 C -2.914062 -18.417969 -2.457031 -19.414062 -1.304688 -21.101562 C -0.308594 -22.636719 2.6875 -26.472656 2.839844 -26.472656 C 2.914062 -26.550781 2.992188 -26.628906 2.992188 -26.703125 C 3.144531 -26.859375 3.300781 -26.933594 3.453125 -27.011719 L 4.835938 -27.933594 C 5.523438 -28.316406 5.679688 -28.390625 6.292969 -28.851562 L 6.984375 -29.3125 C 7.058594 -29.3125 7.828125 -29.773438 8.289062 -30.15625 C 8.824219 -30.542969 10.28125 -31.460938 10.511719 -31.617188 L 11.28125 -32.152344 L 12.125 -32.765625 L 13.121094 -33.535156 L 15.039062 -35.070312 C 16.191406 -35.914062 18.878906 -38.292969 19.03125 -38.980469 C 19.183594 -39.597656 18.722656 -39.902344 17.878906 -39.597656 C 17.035156 -39.367188 15.882812 -38.675781 15.269531 -38.214844 C 14.578125 -37.753906 13.660156 -37.292969 12.96875 -36.757812 C 10.972656 -35.296875 8.902344 -33.6875 6.90625 -31.921875 C 6.0625 -31.15625 4.296875 -29.464844 3.914062 -29.160156 L 2.378906 -27.625 C 2.226562 -27.546875 2.148438 -27.546875 2.148438 -27.546875 C 2.070312 -27.625 1.996094 -27.546875 1.996094 -27.546875 C 1.996094 -27.394531 1.152344 -27.164062 0.996094 -27.242188 C 0.921875 -27.316406 0.84375 -27.242188 0.84375 -27.164062 C 0.84375 -27.011719 1.226562 -26.628906 1.382812 -26.628906 L 1.535156 -26.628906 C 1.304688 -26.398438 1.226562 -26.242188 1.226562 -26.167969 L 0.921875 -25.785156 C 0.691406 -25.554688 0.539062 -25.398438 0.539062 -25.324219 C 0.539062 -25.246094 0.539062 -25.167969 0.460938 -25.167969 C 0.382812 -25.167969 0.152344 -24.863281 -0.152344 -24.480469 L -0.765625 -23.710938 C -0.84375 -23.710938 -0.84375 -23.558594 -0.84375 -23.480469 C -0.921875 -23.328125 -0.996094 -23.25 -1.074219 -23.25 L -1.304688 -23.019531 C -1.304688 -22.867188 -1.304688 -22.867188 -1.382812 -22.867188 C -1.457031 -22.867188 -1.535156 -22.789062 -1.535156 -22.714844 C -1.535156 -22.558594 -1.613281 -22.484375 -1.6875 -22.484375 C -1.6875 -22.558594 -1.765625 -22.484375 -1.765625 -22.40625 C -1.765625 -22.253906 -2.226562 -21.5625 -2.609375 -21.027344 C -2.914062 -20.566406 -2.992188 -20.335938 -3.070312 -20.183594 C -3.070312 -20.027344 -3.144531 -19.875 -3.222656 -19.644531 C -3.605469 -19.105469 -3.914062 -17.726562 -3.761719 -16.882812 C -3.683594 -16.039062 -3.605469 -15.882812 -3.375 -15.808594 Z M 4.988281 -28.777344 C 4.757812 -28.699219 4.910156 -28.777344 5.523438 -29.464844 C 6.214844 -30.234375 10.128906 -33.609375 10.28125 -33.609375 L 13.046875 -35.835938 L 14.195312 -36.601562 L 14.808594 -37.140625 L 15.269531 -37.449219 L 16.5 -38.214844 L 17.035156 -38.523438 L 17.417969 -38.75 L 17.574219 -38.828125 C 17.648438 -38.90625 17.726562 -38.90625 17.878906 -38.90625 C 17.957031 -38.980469 18.03125 -38.90625 18.03125 -38.75 C 18.03125 -38.75 18.03125 -38.675781 17.957031 -38.597656 L 17.804688 -38.445312 L 17.804688 -38.367188 L 17.574219 -38.214844 L 17.496094 -38.136719 L 17.34375 -37.90625 L 17.113281 -37.675781 L 16.039062 -36.679688 L 14.578125 -35.527344 C 13.964844 -34.992188 13.503906 -34.609375 13.429688 -34.609375 L 12.96875 -34.300781 C 12.355469 -33.765625 10.589844 -32.535156 10.28125 -32.304688 C 9.976562 -32.152344 9.054688 -31.539062 8.746094 -31.308594 C 8.289062 -30.925781 7.058594 -30.003906 6.753906 -29.851562 L 6.445312 -29.621094 Z M 4.988281 -28.777344 "/></g></g></g><g fill="#d5b358" fill-opacity="1"><g transform="translate(87.300252, 139.243213)"><g/></g></g><g fill="#d5b358" fill-opacity="1"><g transform="translate(117.994737, 139.243213)"><g><path d="M -0.765625 -20.949219 C 0.078125 -21.101562 0.613281 -21.257812 1.996094 -21.945312 L 5.449219 -23.480469 L 6.445312 -23.941406 C 6.523438 -24.019531 6.523438 -24.25 6.367188 -24.324219 L 6.292969 -24.402344 L 6.0625 -24.402344 L 5.910156 -24.324219 C 1.6875 -22.484375 -0.84375 -21.5625 -1.304688 -21.714844 C -1.457031 -21.792969 -1.457031 -21.871094 -1.226562 -22.101562 C -1.074219 -22.40625 -0.921875 -22.484375 -0.382812 -22.636719 C 0.460938 -22.867188 1.226562 -23.25 2.53125 -24.171875 C 3.761719 -25.015625 4.296875 -25.476562 4.21875 -25.707031 C 4.066406 -26.167969 3.375 -26.089844 2.148438 -25.628906 C 0.613281 -25.09375 -1.152344 -23.710938 -1.917969 -22.484375 C -2.300781 -21.871094 -2.378906 -21.640625 -2.226562 -21.332031 C -2.148438 -20.796875 -1.996094 -20.796875 -0.765625 -20.949219 Z M -0.152344 -23.480469 C -0.078125 -23.710938 1.226562 -24.632812 1.765625 -24.785156 C 2.226562 -25.015625 2.992188 -25.324219 2.992188 -25.167969 C 2.914062 -25.09375 1.765625 -24.324219 1.074219 -23.941406 C 0.230469 -23.480469 -0.308594 -23.328125 -0.152344 -23.480469 Z M -0.152344 -23.480469 "/></g></g></g><g fill="#d5b358" fill-opacity="1"><g transform="translate(124.133631, 139.243213)"><g><path d="M 4.527344 -20.566406 L 6.140625 -20.796875 C 7.597656 -21.101562 10.207031 -22.023438 10.207031 -22.023438 L 11.28125 -22.484375 L 12.125 -22.867188 L 12.585938 -23.097656 C 13.199219 -23.40625 13.273438 -23.40625 13.890625 -23.636719 C 14.734375 -23.941406 15.117188 -24.09375 14.578125 -24.324219 C 14.425781 -24.402344 13.890625 -24.25 12.277344 -23.558594 C 11.125 -23.097656 9.515625 -22.484375 8.746094 -22.253906 C 5.066406 -21.101562 3.222656 -20.871094 3.222656 -21.871094 C 3.144531 -22.175781 3.300781 -22.558594 3.835938 -23.097656 C 4.449219 -23.789062 4.449219 -25.09375 3.300781 -24.25 C 3.144531 -24.09375 2.761719 -23.941406 2.457031 -23.789062 L 0 -22.714844 L 0.539062 -23.558594 C 0.765625 -24.019531 0.765625 -24.019531 0.539062 -24.324219 C 0.230469 -24.710938 -0.078125 -24.632812 -0.613281 -23.863281 L -1.152344 -23.175781 C -1.304688 -22.789062 -1.917969 -21.871094 -2.226562 -21.5625 L -2.226562 -21.332031 C -2.378906 -21.101562 -2.148438 -20.796875 -1.839844 -20.796875 C -1.765625 -20.71875 -1.535156 -20.871094 -1.304688 -20.949219 C -0.613281 -21.410156 1.765625 -22.714844 2.53125 -23.097656 L 2.609375 -23.097656 L 2.457031 -22.789062 L 2.457031 -22.714844 L 2.300781 -22.484375 C 2.070312 -22.101562 2.226562 -21.179688 2.53125 -20.949219 C 2.992188 -20.566406 3.761719 -20.488281 4.527344 -20.566406 Z M 4.527344 -20.566406 "/></g></g></g><g fill="#d5b358" fill-opacity="1"><g transform="translate(138.56003, 139.243213)"><g><path d="M 1.226562 -19.414062 C 3.222656 -19.644531 6.753906 -20.335938 9.820312 -21.640625 C 11.816406 -22.484375 12.125 -22.484375 14.734375 -23.710938 L 14.964844 -23.863281 C 16.039062 -24.402344 15.269531 -24.480469 14.964844 -24.402344 C 14.964844 -24.324219 9.898438 -22.332031 9.898438 -22.253906 C 7.058594 -21.179688 4.21875 -20.335938 0.613281 -20.105469 C -0.691406 -20.105469 -1.152344 -20.488281 -1.304688 -20.871094 C -1.382812 -21.101562 -1.535156 -21.792969 -1.152344 -22.332031 L -0.84375 -22.714844 C 0.152344 -23.789062 1.839844 -25.015625 2.53125 -25.09375 L 2.839844 -25.09375 L 2.457031 -24.710938 C 2.226562 -24.402344 2.070312 -24.171875 2.148438 -24.09375 L 2.226562 -23.863281 C 2.226562 -23.789062 2.378906 -23.789062 2.457031 -23.789062 C 2.761719 -23.863281 3.835938 -25.167969 3.761719 -25.476562 C 3.761719 -25.707031 3.300781 -26.011719 2.992188 -25.9375 C 1.996094 -25.785156 0.230469 -25.015625 -1.152344 -23.636719 C -1.917969 -22.867188 -2.300781 -22.332031 -2.300781 -21.484375 C -2.300781 -20.796875 -1.839844 -19.796875 -0.84375 -19.566406 C -0.230469 -19.414062 0.078125 -19.335938 1.226562 -19.414062 Z M 1.226562 -19.414062 "/></g></g></g><g fill="#d5b358" fill-opacity="1"><g transform="translate(153.52359, 139.243213)"><g><path d="M 1.6875 -20.949219 C 1.996094 -20.871094 2.300781 -20.871094 2.609375 -20.949219 L 2.839844 -20.949219 C 2.839844 -20.949219 4.21875 -21.257812 5.679688 -21.945312 L 10.050781 -23.941406 C 10.207031 -24.019531 10.207031 -24.25 10.050781 -24.324219 L 9.976562 -24.402344 L 9.746094 -24.402344 L 9.59375 -24.324219 C 6.214844 -22.867188 3.914062 -21.945312 2.914062 -21.714844 C 2.914062 -21.714844 1.917969 -21.410156 1.839844 -21.714844 C 1.535156 -22.40625 2.070312 -23.25 2.457031 -23.710938 C 2.761719 -24.09375 3.53125 -25.015625 2.609375 -25.015625 C 2.457031 -25.015625 2.226562 -25.09375 2.226562 -25.167969 C 2.148438 -25.476562 1.917969 -25.398438 0.613281 -24.710938 C -0.539062 -24.09375 -1.996094 -23.175781 -2.914062 -22.40625 C -3.300781 -22.101562 -3.453125 -21.945312 -3.453125 -21.714844 C -3.453125 -21.332031 -3.222656 -21.257812 -2.761719 -21.257812 C -2.378906 -21.257812 -0.84375 -22.023438 -0.230469 -22.484375 C 0.382812 -23.019531 1.382812 -23.558594 1.382812 -23.480469 L 1.152344 -22.945312 C 0.996094 -22.714844 0.921875 -22.40625 0.921875 -22.175781 C 0.84375 -21.871094 0.84375 -21.640625 1.074219 -21.332031 C 1.226562 -21.101562 1.382812 -20.949219 1.6875 -20.949219 Z M -2.609375 -21.945312 L -2.148438 -22.253906 C -1.6875 -22.714844 -0.460938 -23.558594 0.539062 -24.019531 C 1.304688 -24.480469 1.457031 -24.480469 1.457031 -24.324219 C 1.457031 -24.25 1.226562 -24.09375 0.996094 -24.019531 C 0.382812 -23.710938 0.078125 -23.480469 -0.078125 -23.328125 C -0.230469 -23.175781 -1.535156 -22.40625 -2.148438 -22.101562 Z M -2.609375 -21.945312 "/></g></g></g><g fill="#d5b358" fill-opacity="1"><g transform="translate(163.345821, 139.243213)"><g><path d="M 4.527344 -20.566406 L 6.140625 -20.796875 C 7.597656 -21.101562 10.207031 -22.023438 10.207031 -22.023438 L 11.28125 -22.484375 L 12.125 -22.867188 L 12.585938 -23.097656 C 13.199219 -23.40625 13.273438 -23.40625 13.890625 -23.636719 C 14.734375 -23.941406 15.117188 -24.09375 14.578125 -24.324219 C 14.425781 -24.402344 13.890625 -24.25 12.277344 -23.558594 C 11.125 -23.097656 9.515625 -22.484375 8.746094 -22.253906 C 5.066406 -21.101562 3.222656 -20.871094 3.222656 -21.871094 C 3.144531 -22.175781 3.300781 -22.558594 3.835938 -23.097656 C 4.449219 -23.789062 4.449219 -25.09375 3.300781 -24.25 C 3.144531 -24.09375 2.761719 -23.941406 2.457031 -23.789062 L 0 -22.714844 L 0.539062 -23.558594 C 0.765625 -24.019531 0.765625 -24.019531 0.539062 -24.324219 C 0.230469 -24.710938 -0.078125 -24.632812 -0.613281 -23.863281 L -1.152344 -23.175781 C -1.304688 -22.789062 -1.917969 -21.871094 -2.226562 -21.5625 L -2.226562 -21.332031 C -2.378906 -21.101562 -2.148438 -20.796875 -1.839844 -20.796875 C -1.765625 -20.71875 -1.535156 -20.871094 -1.304688 -20.949219 C -0.613281 -21.410156 1.765625 -22.714844 2.53125 -23.097656 L 2.609375 -23.097656 L 2.457031 -22.789062 L 2.457031 -22.714844 L 2.300781 -22.484375 C 2.070312 -22.101562 2.226562 -21.179688 2.53125 -20.949219 C 2.992188 -20.566406 3.761719 -20.488281 4.527344 -20.566406 Z M 4.527344 -20.566406 "/></g></g></g><g fill="#d5b358" fill-opacity="1"><g transform="translate(177.772232, 139.243213)"><g><path d="M 34.609375 -36.371094 C 34.222656 -36.527344 33.609375 -36.601562 31.84375 -36.757812 C 30.234375 -36.910156 18.339844 -37.371094 16.882812 -37.371094 L 14.734375 -37.449219 L 13.273438 -37.449219 C 13.503906 -37.753906 14.195312 -38.523438 14.65625 -38.90625 C 14.964844 -39.136719 15.269531 -39.441406 15.578125 -39.824219 C 15.882812 -40.210938 16.957031 -41.207031 17.496094 -41.667969 L 18.261719 -42.28125 L 18.570312 -42.664062 C 18.800781 -42.894531 18.800781 -42.972656 18.648438 -43.203125 C 18.570312 -43.355469 18.417969 -43.433594 18.339844 -43.433594 C 18.1875 -43.433594 17.265625 -42.742188 17.1875 -42.511719 L 16.5 -41.898438 C 15.652344 -41.207031 15.5 -41.128906 15.347656 -40.902344 C 15.195312 -40.746094 13.199219 -38.828125 12.890625 -38.597656 L 12.660156 -38.367188 L 12.046875 -37.675781 L 11.742188 -37.371094 L 0.921875 -37.140625 L -0.765625 -36.988281 C -2.070312 -36.910156 -5.753906 -36.601562 -6.367188 -36.449219 C -6.984375 -36.296875 -7.289062 -35.988281 -7.058594 -35.757812 C -6.984375 -35.605469 -5.449219 -35.757812 -4.375 -35.988281 C -4.144531 -36.066406 -2.300781 -36.296875 -0.460938 -36.371094 L 1.457031 -36.527344 L 3.53125 -36.601562 L 6.0625 -36.757812 C 6.753906 -36.832031 9.363281 -36.832031 11.050781 -36.832031 C 10.972656 -36.679688 10.820312 -36.601562 10.742188 -36.449219 L 10.511719 -36.296875 L 10.28125 -35.988281 L 9.363281 -34.992188 C 8.289062 -33.839844 4.910156 -30.15625 4.21875 -29.160156 C 4.21875 -29.160156 2.992188 -27.703125 2.992188 -27.777344 C 2.992188 -27.703125 2.6875 -27.394531 2.378906 -27.089844 C 1.996094 -26.703125 1.382812 -26.011719 -0.230469 -24.09375 L -0.84375 -23.40625 L -1.457031 -22.636719 C -1.613281 -22.40625 -1.6875 -22.253906 -1.765625 -22.253906 C -1.917969 -22.253906 -2.300781 -21.792969 -3.53125 -20.183594 C -3.992188 -19.644531 -4.375 -19.183594 -4.527344 -19.105469 C -4.605469 -18.953125 -5.371094 -18.03125 -6.214844 -17.035156 L -8.132812 -14.65625 L -11.28125 -10.4375 C -12.046875 -9.363281 -12.507812 -8.746094 -12.660156 -8.824219 L -12.660156 -8.671875 C -12.660156 -8.59375 -12.660156 -8.441406 -12.738281 -8.289062 C -12.816406 -8.058594 -12.890625 -7.980469 -12.96875 -8.058594 C -12.96875 -7.980469 -13.046875 -7.902344 -13.046875 -7.902344 C -13.046875 -7.75 -13.046875 -7.671875 -13.121094 -7.671875 C -13.121094 -7.75 -13.351562 -7.289062 -13.503906 -6.753906 C -13.8125 -5.984375 -13.890625 -5.679688 -13.8125 -5.292969 C -13.660156 -4.835938 -13.582031 -4.757812 -13.351562 -4.679688 C -13.046875 -4.679688 -12.890625 -4.679688 -12.816406 -4.835938 C -12.660156 -5.066406 -12.660156 -5.066406 -12.96875 -5.140625 C -13.273438 -5.140625 -13.273438 -5.21875 -13.273438 -5.523438 C -13.199219 -5.910156 -12.585938 -7.214844 -12.046875 -8.058594 C -10.589844 -10.207031 -6.753906 -15.117188 -4.296875 -17.957031 L -3.070312 -19.414062 L -0.539062 -22.332031 L 1.535156 -24.632812 L 2.226562 -25.476562 L 3.144531 -26.472656 C 3.835938 -27.242188 4.449219 -28.007812 5.753906 -29.542969 C 6.214844 -30.082031 6.753906 -30.617188 6.984375 -30.847656 C 7.214844 -31.078125 7.597656 -31.539062 7.828125 -31.84375 L 9.132812 -33.226562 C 9.976562 -34.148438 10.511719 -34.609375 10.972656 -35.222656 L 11.664062 -35.914062 C 11.894531 -36.21875 12.125 -36.371094 12.277344 -36.601562 L 12.660156 -36.832031 C 13.273438 -36.910156 13.734375 -36.832031 13.964844 -36.832031 L 14.273438 -36.832031 C 18.722656 -36.757812 29.390625 -36.449219 30.925781 -36.21875 C 31.386719 -36.066406 32.152344 -36.066406 32.535156 -35.988281 C 33.304688 -35.988281 33.304688 -35.988281 33.148438 -35.683594 C 32.996094 -35.527344 33.074219 -35.375 33.148438 -35.296875 C 33.304688 -35.144531 33.378906 -35.070312 33.457031 -35.144531 L 34.222656 -35.453125 C 35.070312 -35.835938 35.144531 -36.066406 34.609375 -36.371094 Z M 34.609375 -36.371094 "/></g></g></g><g fill="#d5b358" fill-opacity="1"><g transform="translate(184.294796, 139.243213)"><g><path d="M 1.6875 -20.949219 C 1.996094 -20.871094 2.300781 -20.871094 2.609375 -20.949219 L 2.839844 -20.949219 C 2.839844 -20.949219 4.21875 -21.257812 5.679688 -21.945312 L 10.050781 -23.941406 C 10.207031 -24.019531 10.207031 -24.25 10.050781 -24.324219 L 9.976562 -24.402344 L 9.746094 -24.402344 L 9.59375 -24.324219 C 6.214844 -22.867188 3.914062 -21.945312 2.914062 -21.714844 C 2.914062 -21.714844 1.917969 -21.410156 1.839844 -21.714844 C 1.535156 -22.40625 2.070312 -23.25 2.457031 -23.710938 C 2.761719 -24.09375 3.53125 -25.015625 2.609375 -25.015625 C 2.457031 -25.015625 2.226562 -25.09375 2.226562 -25.167969 C 2.148438 -25.476562 1.917969 -25.398438 0.613281 -24.710938 C -0.539062 -24.09375 -1.996094 -23.175781 -2.914062 -22.40625 C -3.300781 -22.101562 -3.453125 -21.945312 -3.453125 -21.714844 C -3.453125 -21.332031 -3.222656 -21.257812 -2.761719 -21.257812 C -2.378906 -21.257812 -0.84375 -22.023438 -0.230469 -22.484375 C 0.382812 -23.019531 1.382812 -23.558594 1.382812 -23.480469 L 1.152344 -22.945312 C 0.996094 -22.714844 0.921875 -22.40625 0.921875 -22.175781 C 0.84375 -21.871094 0.84375 -21.640625 1.074219 -21.332031 C 1.226562 -21.101562 1.382812 -20.949219 1.6875 -20.949219 Z M -2.609375 -21.945312 L -2.148438 -22.253906 C -1.6875 -22.714844 -0.460938 -23.558594 0.539062 -24.019531 C 1.304688 -24.480469 1.457031 -24.480469 1.457031 -24.324219 C 1.457031 -24.25 1.226562 -24.09375 0.996094 -24.019531 C 0.382812 -23.710938 0.078125 -23.480469 -0.078125 -23.328125 C -0.230469 -23.175781 -1.535156 -22.40625 -2.148438 -22.101562 Z M -2.609375 -21.945312 "/></g></g></g><g fill="#d5b358" fill-opacity="1"><g transform="translate(194.117027, 139.243213)"><g><path d="M 1.765625 -18.261719 L 3.835938 -20.796875 C 5.832031 -23.40625 8.210938 -26.011719 9.515625 -27.089844 L 10.898438 -28.390625 L 11.972656 -29.238281 L 13.121094 -30.082031 C 13.582031 -30.386719 14.964844 -31.308594 15.347656 -31.691406 L 16.5 -32.613281 C 17.417969 -33.226562 19.492188 -34.914062 20.257812 -35.757812 C 21.640625 -37.140625 22.332031 -37.90625 23.019531 -38.828125 C 23.636719 -39.671875 23.789062 -39.902344 23.710938 -40.210938 C 23.636719 -40.671875 23.25 -40.59375 22.40625 -40.132812 C 22.101562 -39.902344 21.410156 -39.441406 21.027344 -39.058594 L 19.722656 -38.0625 C 19.03125 -37.601562 17.726562 -36.371094 16.574219 -35.144531 C 15.652344 -34.148438 15.425781 -33.917969 14.195312 -32.765625 L 13.429688 -32 L 10.4375 -28.929688 C 9.898438 -28.390625 8.671875 -27.546875 7.445312 -26.933594 C 6.753906 -26.628906 5.984375 -26.167969 5.601562 -25.9375 L 4.375 -25.167969 L 3.835938 -24.863281 L 3.605469 -25.09375 C 3.070312 -25.785156 2.226562 -25.707031 0.691406 -24.863281 C -0.308594 -24.324219 -2.148438 -22.714844 -2.761719 -21.792969 C -3.300781 -21.027344 -3.070312 -20.566406 -2.226562 -20.871094 C -1.457031 -21.101562 -0.230469 -21.714844 0.382812 -22.101562 L 0.691406 -22.253906 C 0.765625 -22.253906 1.074219 -22.484375 1.457031 -22.714844 L 2.226562 -23.097656 L 2.914062 -23.480469 L 5.523438 -25.09375 C 6.214844 -25.476562 6.753906 -25.785156 6.828125 -25.785156 C 6.828125 -25.785156 6.523438 -25.398438 6.140625 -25.09375 C 5.140625 -24.09375 1.074219 -19.03125 1.074219 -18.722656 C 1.152344 -18.339844 1.535156 -18.109375 1.765625 -18.261719 Z M 13.964844 -31.15625 C 13.582031 -31 14.578125 -32.152344 16.113281 -33.535156 L 17.113281 -34.53125 C 17.648438 -35.222656 18.1875 -35.757812 18.878906 -36.371094 L 19.492188 -36.988281 L 20.488281 -37.832031 C 22.558594 -39.367188 22.867188 -39.441406 21.714844 -38.0625 C 21.027344 -37.140625 20.488281 -36.679688 18.648438 -34.914062 C 17.957031 -34.300781 17.035156 -33.535156 16.5 -33.148438 L 15.269531 -32.152344 Z M -1.457031 -22.023438 C -1.6875 -22.023438 -1.152344 -22.636719 -0.460938 -23.25 L 0.152344 -23.789062 C 0.230469 -23.863281 0.460938 -24.019531 0.84375 -24.171875 L 1.613281 -24.554688 C 1.839844 -24.632812 2.378906 -24.632812 2.53125 -24.554688 C 2.6875 -24.402344 2.300781 -23.941406 1.6875 -23.636719 C 1.304688 -23.40625 0.996094 -23.25 0.921875 -23.175781 C 0.84375 -23.175781 0.308594 -22.945312 -0.308594 -22.636719 C -0.84375 -22.332031 -1.382812 -22.023438 -1.457031 -22.023438 Z M -1.457031 -22.023438 "/></g></g></g><g fill="#d5b358" fill-opacity="1"><g transform="translate(206.318069, 139.243213)"><g><path d="M -0.921875 -20.871094 C 0.152344 -20.871094 1.765625 -22.023438 2.148438 -22.636719 L 2.378906 -22.714844 C 3.144531 -22.558594 4.066406 -22.484375 5.066406 -22.484375 C 6.140625 -22.484375 8.59375 -22.789062 10.207031 -23.480469 L 10.898438 -23.789062 C 11.050781 -23.863281 11.125 -24.019531 11.050781 -24.171875 C 10.972656 -24.324219 10.742188 -24.324219 10.667969 -24.25 C 9.207031 -23.636719 7.519531 -23.019531 4.910156 -23.019531 C 4.296875 -23.019531 3.683594 -23.097656 3.222656 -23.25 C 3.070312 -23.328125 2.914062 -23.40625 2.609375 -23.480469 L 2.609375 -24.171875 C 2.609375 -24.25 2.609375 -24.402344 2.53125 -24.480469 C 2.457031 -24.632812 2.226562 -24.785156 1.996094 -24.785156 L 0.996094 -24.863281 L 0.84375 -24.9375 L 0.230469 -24.710938 L -1.074219 -23.40625 C -1.304688 -23.175781 -2.148438 -21.714844 -1.765625 -21.101562 C -1.535156 -20.796875 -1.535156 -20.796875 -0.921875 -20.871094 Z M 1.535156 -23.863281 C 1.382812 -23.941406 1.304688 -24.019531 1.457031 -24.019531 C 1.535156 -24.019531 1.613281 -23.941406 1.6875 -23.941406 C 1.6875 -23.863281 1.6875 -23.789062 1.535156 -23.863281 Z M -0.691406 -21.5625 C -0.765625 -21.5625 -1.074219 -21.945312 -0.382812 -22.867188 C 0.078125 -23.480469 0.308594 -23.558594 0.539062 -23.558594 L 0.84375 -23.328125 L 1.304688 -23.097656 C 1.382812 -23.019531 1.6875 -22.945312 0.691406 -22.101562 C 0 -21.484375 -0.613281 -21.5625 -0.691406 -21.5625 Z M -0.691406 -21.5625 "/></g></g></g></svg>