<svg xmlns="http://www.w3.org/2000/svg" xmlns:xlink="http://www.w3.org/1999/xlink" width="400" zoomAndPan="magnify" viewBox="0 0 300 112.499997" height="150" preserveAspectRatio="xMidYMid meet" version="1.0"><defs><g/></defs><g fill="#c8b7a5" fill-opacity="1"><g transform="translate(96.073269, 100.838517)"><g><path d="M 54.339844 -13.1875 C 54.511719 -13.546875 54.511719 -13.546875 54.277344 -13.625 C 54.152344 -13.71875 54.007812 -13.921875 54.101562 -14.046875 C 54.132812 -14.613281 55.230469 -17.011719 56.300781 -18.847656 L 59.015625 -23.953125 C 59.976562 -25.773438 61.066406 -27.5 61.34375 -27.878906 C 61.609375 -28.363281 62.058594 -29.101562 62.214844 -29.574219 L 63.019531 -30.921875 L 65.707031 -35.460938 L 66.71875 -36.953125 L 69.605469 -41.632812 L 73.816406 -47.964844 L 79.425781 -56.964844 L 84.628906 -64.894531 C 85.488281 -65.917969 85.671875 -66.167969 85.84375 -66.53125 L 86.496094 -67.410156 C 86.683594 -67.664062 87.710938 -69.046875 88.609375 -70.519531 L 90.910156 -73.882812 C 91.300781 -74.277344 91.472656 -74.636719 91.472656 -74.636719 L 93.695312 -77.765625 L 105.574219 -94.292969 L 106.601562 -95.675781 C 106.878906 -96.054688 107.160156 -96.433594 107.175781 -96.324219 C 107.285156 -96.339844 107.675781 -96.730469 108.15625 -97.25 L 110.011719 -99.09375 C 110.679688 -99.863281 111.011719 -99.910156 111.453125 -99.191406 C 111.753906 -98.679688 111.988281 -98.601562 112.484375 -99.011719 C 112.796875 -99.167969 112.277344 -100.433594 111.628906 -101.011719 C 111.347656 -101.414062 111.113281 -101.492188 110.800781 -101.335938 L 109.957031 -100.984375 C 109.753906 -100.84375 109.253906 -100.433594 108.972656 -100.058594 L 107.601562 -98.734375 L 106.527344 -97.679688 L 96.773438 -84.933594 L 92.683594 -79.292969 L 91.84375 -78.164062 L 90.367188 -76.042969 L 89.542969 -74.800781 C 89.359375 -74.550781 88.316406 -73.277344 87.414062 -71.800781 C 87.152344 -71.3125 86.761719 -70.917969 86.761719 -70.917969 C 86.652344 -70.902344 86.558594 -70.777344 86.480469 -70.542969 C 86.496094 -70.433594 86.328125 -70.070312 86.03125 -69.804688 L 84.664062 -67.699219 L 83.449219 -66.066406 L 81.257812 -62.71875 L 78.414062 -58.492188 L 77.515625 -57.015625 L 70.585938 -46.367188 C 69.839844 -45.359375 69.125 -44.136719 68.394531 -43.019531 L 66.21875 -39.566406 L 65.316406 -38.089844 L 63.347656 -34.777344 C 60.738281 -30.472656 60.472656 -29.988281 59.886719 -28.667969 L 58.96875 -27.300781 L 58.535156 -26.453125 L 58.175781 -25.839844 C 58.117188 -25.496094 57.835938 -25.121094 57.726562 -25.105469 C 57.632812 -24.976562 57.445312 -24.726562 57.480469 -24.507812 L 56.253906 -22.199219 C 56.15625 -22.855469 56.277344 -23.546875 56.746094 -24.175781 L 56.949219 -24.316406 C 56.933594 -24.425781 56.882812 -24.753906 57.054688 -25.117188 L 57.917969 -27.59375 C 58.613281 -29.710938 59.757812 -32.566406 61.582031 -36.867188 C 63.269531 -40.585938 64.011719 -42.375 64.460938 -43.894531 L 65 -45.539062 L 66.710938 -50.605469 C 67.792969 -53.898438 69.105469 -57.117188 72.246094 -64.632812 C 74.847656 -70.5 75.265625 -71.457031 77.222656 -74.878906 C 77.84375 -75.980469 78.226562 -77.15625 78.132812 -77.8125 C 78.175781 -78.265625 78.128906 -78.59375 77.84375 -79 C 77.667969 -79.421875 77.574219 -79.296875 77.09375 -78.777344 C 75.550781 -77.09375 74.882812 -76.324219 74.695312 -76.074219 C 74.507812 -75.820312 74.230469 -75.445312 73.933594 -75.175781 C 73.636719 -74.910156 73.355469 -74.53125 73.261719 -74.40625 C 73.296875 -74.1875 73 -73.917969 72.703125 -73.652344 C 72.203125 -73.242188 67.957031 -67.914062 67.507812 -67.175781 C 67.429688 -66.941406 67.226562 -66.796875 67.101562 -66.890625 C 66.976562 -66.984375 66.992188 -66.875 67.007812 -66.765625 C 67.023438 -66.65625 66.386719 -65.667969 65.65625 -64.550781 L 62.144531 -59.554688 L 61.488281 -58.675781 L 61.191406 -58.40625 L 59.078125 -55.296875 C 58.628906 -54.558594 58.164062 -53.929688 58.054688 -53.914062 L 57.867188 -53.664062 C 57.789062 -53.425781 57.433594 -52.816406 56.980469 -52.078125 C 56.53125 -51.339844 56.082031 -50.601562 56.097656 -50.492188 C 56.113281 -50.382812 56.003906 -50.363281 55.894531 -50.347656 C 55.785156 -50.332031 54.945312 -49.203125 54.773438 -48.839844 L 53.6875 -47.113281 L 53.484375 -46.972656 L 53.019531 -46.34375 C 52.878906 -45.761719 52.617188 -45.277344 52.117188 -44.867188 L 52.039062 -44.628906 C 52.054688 -44.519531 51.886719 -44.160156 51.324219 -43.40625 L 48.371094 -39.164062 L 46.179688 -35.816406 L 43.320312 -31.703125 C 42.558594 -30.804688 41.378906 -28.953125 41.410156 -28.734375 C 41.441406 -28.515625 42.378906 -28.988281 42.457031 -29.222656 C 42.59375 -29.804688 43.714844 -31.3125 43.933594 -31.34375 C 44.042969 -31.359375 44.324219 -31.738281 44.476562 -32.207031 C 44.742188 -32.695312 45.097656 -33.308594 45.394531 -33.574219 L 46.328125 -34.832031 C 46.589844 -35.320312 46.871094 -35.695312 46.871094 -35.695312 C 46.980469 -35.710938 47.261719 -36.089844 47.414062 -36.558594 C 47.679688 -37.046875 47.957031 -37.425781 48.066406 -37.441406 C 48.175781 -37.457031 49.5625 -39.453125 49.636719 -39.6875 C 49.621094 -39.796875 49.980469 -40.410156 50.445312 -41.039062 C 50.910156 -41.664062 51.378906 -42.292969 51.457031 -42.53125 C 51.53125 -42.765625 51.625 -42.890625 51.734375 -42.90625 C 51.84375 -42.921875 52.125 -43.300781 52.480469 -43.914062 C 52.839844 -44.523438 53.230469 -44.917969 53.523438 -45.1875 L 53.507812 -45.296875 C 53.628906 -45.984375 54.003906 -46.488281 54.394531 -46.882812 L 54.890625 -47.289062 L 55.0625 -47.652344 C 54.953125 -47.636719 55.046875 -47.761719 55.140625 -47.886719 L 55.589844 -48.625 C 55.683594 -48.75 55.871094 -49.003906 56.074219 -49.144531 C 56.292969 -49.175781 56.367188 -49.410156 56.351562 -49.519531 C 56.320312 -49.742188 56.414062 -49.867188 56.617188 -50.007812 C 56.710938 -50.132812 57.003906 -50.402344 57.082031 -50.636719 L 57.703125 -51.734375 L 58.246094 -52.601562 L 59.257812 -54.09375 C 59.722656 -54.71875 60.175781 -55.457031 60.160156 -55.566406 C 60.140625 -55.679688 60.234375 -55.804688 60.34375 -55.820312 C 60.453125 -55.835938 60.828125 -56.339844 61.089844 -56.824219 C 61.339844 -57.421875 61.710938 -57.925781 61.820312 -57.941406 C 61.929688 -57.957031 62.117188 -58.207031 62.195312 -58.445312 C 62.367188 -58.804688 62.457031 -58.929688 62.570312 -58.945312 C 62.695312 -58.851562 62.789062 -58.980469 62.753906 -59.199219 C 62.832031 -59.433594 62.910156 -59.667969 63.035156 -59.574219 C 63.144531 -59.589844 63.347656 -59.734375 63.332031 -59.84375 C 63.316406 -59.953125 63.671875 -60.566406 64.136719 -61.191406 C 64.605469 -61.820312 64.960938 -62.433594 65.039062 -62.667969 C 65.007812 -62.886719 65.210938 -63.03125 65.320312 -63.046875 C 65.539062 -63.078125 65.816406 -63.457031 66.003906 -63.707031 C 66.175781 -64.070312 66.53125 -64.679688 66.9375 -64.964844 C 67.21875 -65.34375 67.589844 -65.84375 67.761719 -66.207031 L 68.601562 -67.335938 C 69.085938 -67.855469 70.6875 -69.882812 70.964844 -70.261719 C 71.042969 -70.496094 71.527344 -71.015625 72.789062 -72.320312 L 73.738281 -73.46875 C 74.015625 -73.847656 74.203125 -74.097656 74.238281 -73.878906 C 74.515625 -74.253906 74.8125 -74.523438 75.21875 -74.808594 C 75.40625 -75.058594 75.609375 -75.199219 75.8125 -75.34375 L 75.71875 -75.21875 L 74.832031 -73.632812 C 74.847656 -73.523438 74.460938 -73.128906 73.898438 -72.375 L 73.855469 -71.917969 L 73.375 -70.617188 L 73.128906 -70.023438 C 73.050781 -69.785156 72.914062 -69.207031 72.941406 -69.769531 C 72.804688 -69.191406 72.539062 -68.703125 72.261719 -68.328125 C 72.046875 -67.511719 71.285156 -65.832031 69.957031 -62.726562 C 67.601562 -57.453125 65.066406 -51.144531 65.207031 -50.941406 L 64.589844 -49.0625 C 64.605469 -48.953125 64.4375 -48.589844 64.28125 -48.121094 C 64.019531 -47.632812 63.957031 -47.289062 63.972656 -47.179688 L 63.835938 -46.597656 C 63.417969 -45.640625 62.613281 -43.507812 62.628906 -43.398438 L 60.339844 -37.6875 L 58.40625 -33.375 C 58.003906 -32.308594 57.570312 -31.460938 57.570312 -31.460938 C 57.460938 -31.441406 57.476562 -31.332031 57.492188 -31.222656 C 57.523438 -31.003906 56.628906 -28.746094 56.503906 -28.839844 C 56.503906 -28.839844 56.394531 -28.824219 56.519531 -28.730469 C 56.535156 -28.621094 56.398438 -28.039062 56.164062 -27.335938 C 55.917969 -26.738281 55.671875 -26.140625 55.796875 -26.050781 C 55.8125 -25.941406 55.71875 -25.8125 55.609375 -25.796875 C 55.5 -25.78125 55.40625 -25.65625 55.421875 -25.546875 C 55.410156 -24.871094 53.949219 -19.621094 53.394531 -18.082031 L 53.054688 -16.578125 L 52.609375 -15.058594 C 52.378906 -14.351562 52.425781 -14.023438 52.695312 -13.726562 L 52.820312 -13.632812 C 53.058594 -12.773438 53.78125 -12.433594 54.339844 -13.1875 Z M 15.3125 9.710938 C 16.3125 8.890625 17.871094 7.316406 17.929688 6.972656 C 18.023438 6.847656 18.195312 6.484375 18.492188 6.21875 C 18.800781 6.058594 19.175781 5.554688 19.347656 5.195312 C 19.421875 4.960938 19.609375 4.707031 19.71875 4.691406 C 19.828125 4.675781 20.203125 4.171875 20.542969 3.453125 C 20.898438 2.839844 21.460938 2.085938 21.738281 1.707031 C 22.035156 1.441406 22.316406 1.0625 22.300781 0.953125 C 22.285156 0.84375 22.46875 0.59375 22.5625 0.46875 C 22.875 0.308594 24.089844 -1.324219 24.898438 -2.675781 C 26 -4.292969 27.367188 -6.398438 27.757812 -6.792969 C 27.945312 -7.042969 28.222656 -7.421875 28.285156 -7.765625 C 28.363281 -8 28.421875 -8.347656 28.640625 -8.378906 C 28.765625 -8.285156 29.046875 -8.660156 29.21875 -9.023438 C 29.386719 -9.382812 29.746094 -9.996094 29.933594 -10.246094 C 30.226562 -10.515625 30.382812 -10.984375 30.351562 -11.203125 C 30.332031 -11.3125 30.316406 -11.425781 30.441406 -11.332031 C 30.460938 -11.222656 30.753906 -11.488281 31.019531 -11.976562 C 31.300781 -12.351562 31.59375 -12.621094 31.59375 -12.621094 C 31.703125 -12.636719 31.890625 -12.886719 31.875 -12.996094 C 31.953125 -13.234375 32.496094 -14.097656 33.132812 -15.085938 L 35.230469 -18.304688 L 36.445312 -19.941406 L 36.972656 -20.914062 L 37.886719 -22.28125 C 38.542969 -23.160156 38.523438 -23.269531 39.765625 -25.46875 C 40.125 -26.082031 40.589844 -26.710938 40.699219 -26.726562 C 40.917969 -26.757812 41.726562 -28.109375 41.492188 -28.183594 C 41.476562 -28.296875 41.253906 -28.261719 41.054688 -28.121094 C 40.851562 -27.980469 40.382812 -27.351562 39.917969 -26.722656 L 35.101562 -19.183594 L 28.851562 -9.976562 C 25.667969 -5.027344 24.285156 -3.03125 23.988281 -2.765625 C 23.785156 -2.625 23.429688 -2.011719 23.054688 -1.507812 C 22.699219 -0.894531 22.308594 -0.503906 22.214844 -0.375 C 22.105469 -0.359375 22.011719 -0.234375 22.027344 -0.125 C 22.042969 -0.015625 21.859375 0.234375 21.765625 0.359375 C 21.546875 0.394531 21.359375 0.644531 21.265625 0.769531 L 20.628906 1.761719 C 20.457031 2.121094 20.070312 2.515625 19.960938 2.53125 C 19.757812 2.671875 19.476562 3.050781 19.210938 3.535156 C 18.949219 4.023438 18.390625 4.777344 18.015625 5.28125 C 16.472656 6.964844 15.585938 7.765625 15.179688 8.050781 C 14.132812 8.539062 14.023438 8.558594 13.691406 7.824219 C 13.34375 6.980469 13.386719 6.523438 13.667969 6.148438 C 13.855469 5.894531 13.839844 5.785156 13.632812 5.144531 C 13.441406 4.613281 13.300781 4.410156 12.953125 4.351562 C 12.390625 4.320312 12.40625 4.433594 12.273438 5.792969 C 12.078125 7.503906 12.382812 8.800781 13.074219 9.703125 C 13.753906 10.5 14.207031 10.542969 15.3125 9.710938 Z M 15.3125 9.710938 "/></g></g></g><g fill="#c8b7a5" fill-opacity="1"><g transform="translate(182.256168, 88.0882)"><g><path d="M -2.015625 -30.253906 C -1.558594 -30.210938 -1.121094 -30.273438 -0.699219 -30.449219 L -0.371094 -30.496094 C -0.371094 -30.496094 1.535156 -31.226562 3.46875 -32.519531 L 9.292969 -36.292969 C 9.496094 -36.433594 9.445312 -36.761719 9.210938 -36.839844 L 9.085938 -36.933594 L 8.757812 -36.882812 L 8.554688 -36.742188 C 4.042969 -33.949219 0.953125 -32.148438 -0.421875 -31.609375 C -0.421875 -31.609375 -1.78125 -30.960938 -1.957031 -31.382812 C -2.539062 -32.304688 -1.953125 -33.621094 -1.503906 -34.359375 C -1.144531 -34.972656 -0.246094 -36.449219 -1.558594 -36.253906 C -1.777344 -36.222656 -2.121094 -36.28125 -2.136719 -36.390625 C -2.3125 -36.8125 -2.625 -36.65625 -4.339844 -35.394531 C -5.855469 -34.273438 -7.742188 -32.652344 -8.894531 -31.363281 C -9.375 -30.84375 -9.5625 -30.59375 -9.511719 -30.265625 C -9.433594 -29.714844 -9.085938 -29.65625 -8.429688 -29.753906 C -7.882812 -29.832031 -5.855469 -31.253906 -5.074219 -32.039062 C -4.3125 -32.9375 -3.003906 -33.914062 -2.988281 -33.804688 L -3.203125 -32.988281 C -3.371094 -32.628906 -3.417969 -32.171875 -3.367188 -31.84375 C -3.414062 -31.390625 -3.363281 -31.0625 -2.972656 -30.671875 C -2.703125 -30.375 -2.453125 -30.191406 -2.015625 -30.253906 Z M -8.359375 -30.769531 L -7.765625 -31.304688 C -7.207031 -32.0625 -5.632812 -33.523438 -4.304688 -34.390625 C -3.308594 -35.210938 -3.085938 -35.242188 -3.054688 -35.023438 C -3.039062 -34.914062 -3.335938 -34.648438 -3.648438 -34.488281 C -4.457031 -33.921875 -4.847656 -33.527344 -5.035156 -33.277344 C -5.222656 -33.027344 -6.921875 -31.65625 -7.734375 -31.085938 Z M -8.359375 -30.769531 "/></g></g></g><g fill="#c8b7a5" fill-opacity="1"><g transform="translate(196.273208, 86.014451)"><g><path d="M 41.710938 -59.21875 C 41.132812 -59.355469 40.238281 -59.335938 37.6875 -59.183594 C 35.355469 -59.0625 18.285156 -57.207031 16.203125 -56.898438 L 13.121094 -56.554688 L 11.039062 -56.246094 C 11.304688 -56.734375 12.128906 -57.976562 12.703125 -58.621094 C 13.09375 -59.011719 13.464844 -59.515625 13.824219 -60.128906 C 14.179688 -60.742188 15.503906 -62.390625 16.171875 -63.160156 L 17.136719 -64.199219 L 17.496094 -64.8125 C 17.773438 -65.191406 17.757812 -65.300781 17.492188 -65.59375 C 17.347656 -65.796875 17.113281 -65.875 17.003906 -65.859375 C 16.785156 -65.828125 15.617188 -64.648438 15.554688 -64.300781 L 14.699219 -63.28125 C 13.640625 -62.117188 13.4375 -61.972656 13.265625 -61.613281 C 13.082031 -61.363281 10.636719 -58.203125 10.25 -57.808594 L 9.96875 -57.433594 L 9.238281 -56.316406 L 8.867188 -55.8125 L -6.527344 -53.199219 L -8.90625 -52.625 C -10.75 -52.238281 -15.941406 -51.023438 -16.785156 -50.675781 C -17.628906 -50.328125 -18.003906 -49.824219 -17.625 -49.542969 C -17.484375 -49.339844 -15.324219 -49.882812 -13.839844 -50.441406 C -13.527344 -50.597656 -10.949219 -51.316406 -8.335938 -51.8125 L -5.632812 -52.4375 L -2.691406 -52.984375 L 0.890625 -53.738281 C 1.859375 -53.992188 5.582031 -54.542969 7.992188 -54.902344 C 7.917969 -54.667969 7.714844 -54.523438 7.636719 -54.289062 L 7.339844 -54.019531 L 7.078125 -53.535156 L 5.972656 -51.917969 C 4.683594 -50.046875 0.640625 -44.078125 -0.132812 -42.507812 C -0.132812 -42.507812 -1.578125 -40.167969 -1.59375 -40.277344 C -1.578125 -40.167969 -1.953125 -39.664062 -2.324219 -39.160156 C -2.792969 -38.53125 -3.519531 -37.417969 -5.417969 -34.339844 L -6.144531 -33.222656 L -6.859375 -32 C -7.03125 -31.640625 -7.109375 -31.402344 -7.21875 -31.386719 C -7.4375 -31.355469 -7.886719 -30.617188 -9.300781 -28.058594 C -9.84375 -27.195312 -10.292969 -26.457031 -10.496094 -26.3125 C -10.574219 -26.078125 -11.472656 -24.601562 -12.46875 -23 L -14.703125 -19.199219 L -18.300781 -12.511719 C -19.171875 -10.816406 -19.699219 -9.84375 -19.933594 -9.921875 L -19.902344 -9.703125 C -19.886719 -9.59375 -19.851562 -9.375 -19.929688 -9.136719 C -19.992188 -8.792969 -20.082031 -8.667969 -20.210938 -8.761719 C -20.195312 -8.652344 -20.285156 -8.527344 -20.285156 -8.527344 C -20.253906 -8.308594 -20.238281 -8.199219 -20.347656 -8.179688 C -20.363281 -8.289062 -20.59375 -7.585938 -20.699219 -6.785156 C -20.976562 -5.625 -21.023438 -5.171875 -20.832031 -4.640625 C -20.515625 -4.015625 -20.390625 -3.921875 -20.042969 -3.859375 C -19.605469 -3.925781 -19.386719 -3.957031 -19.308594 -4.195312 C -19.140625 -4.554688 -19.140625 -4.554688 -19.59375 -4.597656 C -20.03125 -4.535156 -20.046875 -4.644531 -20.113281 -5.082031 C -20.085938 -5.644531 -19.484375 -7.636719 -18.894531 -8.957031 C -17.269531 -12.328125 -12.828125 -20.148438 -9.925781 -24.71875 L -8.480469 -27.058594 L -5.480469 -31.757812 L -3.011719 -35.480469 L -2.203125 -36.828125 L -1.101562 -38.449219 C -0.277344 -39.6875 0.4375 -40.914062 1.976562 -43.378906 C 2.519531 -44.242188 3.171875 -45.125 3.453125 -45.5 C 3.734375 -45.878906 4.183594 -46.617188 4.445312 -47.101562 L 6.015625 -49.347656 C 7.027344 -50.839844 7.695312 -51.613281 8.222656 -52.585938 L 9.0625 -53.714844 C 9.328125 -54.203125 9.625 -54.472656 9.792969 -54.832031 L 10.292969 -55.242188 C 11.152344 -55.480469 11.828125 -55.46875 12.15625 -55.515625 L 12.59375 -55.582031 C 18.960938 -56.410156 34.25 -58.226562 36.488281 -58.222656 C 37.175781 -58.101562 38.273438 -58.261719 38.835938 -58.234375 C 39.929688 -58.394531 39.929688 -58.394531 39.777344 -57.925781 C 39.589844 -57.671875 39.734375 -57.46875 39.859375 -57.378906 C 40.109375 -57.191406 40.234375 -57.097656 40.328125 -57.222656 L 41.359375 -57.824219 C 42.484375 -58.550781 42.542969 -58.894531 41.710938 -59.21875 Z M 41.710938 -59.21875 "/></g></g></g><g fill="#c8b7a5" fill-opacity="1"><g transform="translate(205.581397, 84.637352)"><g><path d="M -2.015625 -30.253906 C -1.558594 -30.210938 -1.121094 -30.273438 -0.699219 -30.449219 L -0.371094 -30.496094 C -0.371094 -30.496094 1.535156 -31.226562 3.46875 -32.519531 L 9.292969 -36.292969 C 9.496094 -36.433594 9.445312 -36.761719 9.210938 -36.839844 L 9.085938 -36.933594 L 8.757812 -36.882812 L 8.554688 -36.742188 C 4.042969 -33.949219 0.953125 -32.148438 -0.421875 -31.609375 C -0.421875 -31.609375 -1.78125 -30.960938 -1.957031 -31.382812 C -2.539062 -32.304688 -1.953125 -33.621094 -1.503906 -34.359375 C -1.144531 -34.972656 -0.246094 -36.449219 -1.558594 -36.253906 C -1.777344 -36.222656 -2.121094 -36.28125 -2.136719 -36.390625 C -2.3125 -36.8125 -2.625 -36.65625 -4.339844 -35.394531 C -5.855469 -34.273438 -7.742188 -32.652344 -8.894531 -31.363281 C -9.375 -30.84375 -9.5625 -30.59375 -9.511719 -30.265625 C -9.433594 -29.714844 -9.085938 -29.65625 -8.429688 -29.753906 C -7.882812 -29.832031 -5.855469 -31.253906 -5.074219 -32.039062 C -4.3125 -32.9375 -3.003906 -33.914062 -2.988281 -33.804688 L -3.203125 -32.988281 C -3.371094 -32.628906 -3.417969 -32.171875 -3.367188 -31.84375 C -3.414062 -31.390625 -3.363281 -31.0625 -2.972656 -30.671875 C -2.703125 -30.375 -2.453125 -30.191406 -2.015625 -30.253906 Z M -8.359375 -30.769531 L -7.765625 -31.304688 C -7.207031 -32.0625 -5.632812 -33.523438 -4.304688 -34.390625 C -3.308594 -35.210938 -3.085938 -35.242188 -3.054688 -35.023438 C -3.039062 -34.914062 -3.335938 -34.648438 -3.648438 -34.488281 C -4.457031 -33.921875 -4.847656 -33.527344 -5.035156 -33.277344 C -5.222656 -33.027344 -6.921875 -31.65625 -7.734375 -31.085938 Z M -8.359375 -30.769531 "/></g></g></g><g fill="#c8b7a5" fill-opacity="1"><g transform="translate(219.598437, 82.563603)"><g><path d="M -8.15625 -21.847656 C -8.046875 -21.863281 -8.019531 -22.425781 -7.976562 -23.664062 C -8.050781 -25.667969 -7.605469 -27.1875 -6.316406 -29.839844 C -5.21875 -32.242188 -1.757812 -38.351562 -1.539062 -38.382812 C -1.445312 -38.507812 -1.351562 -38.632812 -1.367188 -38.742188 C -1.179688 -38.996094 -0.976562 -39.136719 -0.773438 -39.277344 L 1 -40.886719 C 1.90625 -41.578125 2.109375 -41.71875 2.886719 -42.507812 L 3.777344 -43.308594 C 3.886719 -43.324219 4.882812 -44.144531 5.460938 -44.789062 C 6.144531 -45.449219 8.03125 -47.074219 8.328125 -47.339844 L 9.308594 -48.269531 L 10.386719 -49.324219 L 11.648438 -50.628906 L 14.0625 -53.226562 C 15.523438 -54.671875 18.855469 -58.632812 18.929688 -59.652344 C 19.019531 -60.5625 18.296875 -60.902344 17.15625 -60.285156 C 16 -59.777344 14.503906 -58.550781 13.726562 -57.765625 C 12.835938 -56.960938 11.621094 -56.109375 10.746094 -55.195312 C 8.207031 -52.695312 5.589844 -49.957031 3.117188 -47.015625 C 2.074219 -45.742188 -0.0898438 -42.960938 -0.570312 -42.441406 L -2.4375 -39.929688 C -2.640625 -39.785156 -2.75 -39.769531 -2.75 -39.769531 C -2.875 -39.863281 -2.96875 -39.738281 -2.96875 -39.738281 C -2.9375 -39.519531 -4.09375 -39.011719 -4.328125 -39.089844 C -4.453125 -39.183594 -4.546875 -39.058594 -4.53125 -38.945312 C -4.5 -38.726562 -3.871094 -38.261719 -3.652344 -38.292969 L -3.433594 -38.328125 C -3.710938 -37.949219 -3.789062 -37.714844 -3.773438 -37.605469 L -4.128906 -36.992188 C -4.410156 -36.613281 -4.597656 -36.363281 -4.582031 -36.253906 C -4.5625 -36.144531 -4.546875 -36.035156 -4.65625 -36.019531 C -4.765625 -36.003906 -5.03125 -35.515625 -5.386719 -34.902344 L -6.101562 -33.679688 C -6.210938 -33.664062 -6.179688 -33.445312 -6.164062 -33.332031 C -6.238281 -33.097656 -6.332031 -32.972656 -6.441406 -32.957031 L -6.722656 -32.578125 C -6.691406 -32.359375 -6.691406 -32.359375 -6.800781 -32.34375 C -6.910156 -32.328125 -7.003906 -32.203125 -6.984375 -32.09375 C -6.953125 -31.875 -7.046875 -31.75 -7.15625 -31.730469 C -7.171875 -31.839844 -7.265625 -31.714844 -7.25 -31.605469 C -7.21875 -31.386719 -7.730469 -30.304688 -8.164062 -29.457031 C -8.503906 -28.734375 -8.566406 -28.390625 -8.640625 -28.15625 C -8.609375 -27.9375 -8.6875 -27.699219 -8.746094 -27.355469 C -9.183594 -26.507812 -9.328125 -24.472656 -8.929688 -23.300781 C -8.644531 -22.109375 -8.5 -21.910156 -8.15625 -21.847656 Z M 1.042969 -42.121094 C 0.730469 -41.964844 0.933594 -42.105469 1.664062 -43.222656 C 2.488281 -44.460938 7.359375 -50.105469 7.578125 -50.140625 L 11.050781 -53.898438 L 12.53125 -55.238281 L 13.292969 -56.132812 L 13.886719 -56.667969 L 15.476562 -58.023438 L 16.179688 -58.574219 L 16.679688 -58.984375 L 16.882812 -59.125 C 16.972656 -59.25 17.082031 -59.269531 17.304688 -59.300781 C 17.394531 -59.425781 17.523438 -59.332031 17.554688 -59.113281 C 17.554688 -59.113281 17.570312 -59.003906 17.476562 -58.878906 L 17.289062 -58.628906 L 17.308594 -58.515625 L 17.011719 -58.25 L 16.917969 -58.125 L 16.746094 -57.761719 L 16.46875 -57.386719 L 15.144531 -55.734375 L 13.304688 -53.785156 C 12.542969 -52.886719 11.96875 -52.242188 11.859375 -52.226562 L 11.265625 -51.691406 C 10.503906 -50.796875 8.242188 -48.671875 7.855469 -48.277344 C 7.449219 -47.992188 6.265625 -46.921875 5.875 -46.53125 C 5.296875 -45.886719 3.742188 -44.3125 3.335938 -44.027344 L 2.945312 -43.632812 Z M 1.042969 -42.121094 "/></g></g></g><g fill="#6a7153" fill-opacity="1"><g transform="translate(64.905022, 65.517641)"><g><path d="M 8.929688 0.285156 C 12.089844 0.285156 15.1875 -2.617188 15.1875 -5.601562 C 15.1875 -7.679688 12.6875 -10.894531 9.527344 -12.34375 C 6.230469 -13.878906 3.582031 -16.554688 3.582031 -18.003906 C 3.582031 -20.394531 5.460938 -22.726562 7.394531 -22.726562 C 8.304688 -22.726562 9.359375 -22.414062 10.324219 -21.902344 C 11.460938 -21.304688 13.027344 -19.683594 13.453125 -18.601562 C 13.480469 -18.488281 13.597656 -18.316406 13.625 -18.203125 L 13.992188 -18.203125 L 13.992188 -21.078125 L 13.851562 -21.078125 L 13.824219 -20.761719 C 13.792969 -20.421875 13.140625 -20.5625 12.542969 -21.019531 C 11.347656 -21.929688 9.300781 -22.898438 7.394531 -22.898438 C 4.664062 -22.898438 1.992188 -20.082031 1.992188 -17.238281 C 1.992188 -15.1875 4.808594 -11.890625 8.332031 -10.238281 C 11.234375 -8.875 13.566406 -6.429688 13.566406 -5.007812 C 13.566406 -2.445312 11.261719 0.0859375 8.929688 0.0859375 C 7.679688 0.0859375 6.117188 -0.597656 4.75 -1.621094 C 3.726562 -2.445312 2.445312 -4.125 2.019531 -5.175781 C 1.992188 -5.289062 1.878906 -5.460938 1.847656 -5.574219 L 1.480469 -5.574219 L 1.480469 -1.679688 L 1.621094 -1.679688 L 1.648438 -2.246094 C 1.679688 -2.871094 2.53125 -2.816406 3.328125 -2.132812 C 4.949219 -0.738281 7.167969 0.285156 8.929688 0.285156 Z M 8.929688 0.285156 "/></g></g><g transform="translate(81.231277, 65.517641)"><g><path d="M 8.304688 0.285156 C 10.949219 0.285156 14.222656 -1.878906 14.902344 -4.066406 L 14.820312 -4.066406 C 14.222656 -2.132812 11.0625 -0.226562 8.476562 -0.226562 C 5.746094 -0.226562 3.070312 -4.039062 3.070312 -7.9375 C 3.070312 -8.875 3.1875 -9.726562 3.382812 -10.523438 L 15.332031 -10.523438 C 15.019531 -13.710938 11.945312 -15.757812 9.015625 -15.757812 C 5.121094 -15.757812 1.28125 -12.402344 1.28125 -7.253906 C 1.28125 -3.441406 4.75 0.285156 8.304688 0.285156 Z M 3.414062 -10.636719 C 4.292969 -13.738281 6.628906 -15.644531 8.988281 -15.644531 C 10.949219 -15.644531 13.054688 -13.679688 13.425781 -10.667969 Z M 3.414062 -10.636719 "/></g></g></g><g fill="#6a7153" fill-opacity="1"><g transform="translate(97.415316, 65.517641)"><g><path d="M 6.769531 0.226562 C 9.074219 0.226562 11.347656 -1.792969 11.347656 -3.867188 C 11.347656 -5.402344 9.472656 -7.59375 7.140625 -8.449219 C 4.808594 -9.300781 2.929688 -11.261719 2.929688 -12.601562 C 2.929688 -14.164062 4.351562 -15.699219 5.832031 -15.699219 C 6.429688 -15.699219 7.109375 -15.5 7.765625 -15.160156 C 8.589844 -14.703125 9.898438 -13.425781 10.382812 -12.488281 C 10.410156 -12.457031 10.4375 -12.34375 10.46875 -12.316406 L 10.609375 -12.289062 L 10.609375 -14.109375 L 10.523438 -14.109375 C 10.523438 -14.050781 10.496094 -13.992188 10.496094 -13.9375 C 10.496094 -13.9375 8.332031 -15.160156 7.878906 -15.386719 L 7.851562 -15.359375 C 7.167969 -15.613281 6.457031 -15.785156 5.832031 -15.785156 C 3.753906 -15.785156 1.707031 -13.910156 1.707031 -11.972656 C 1.707031 -10.382812 3.78125 -8.050781 6.398438 -7.109375 C 8.417969 -6.371094 10.039062 -4.609375 10.039062 -3.382812 C 10.039062 -1.59375 8.417969 0.140625 6.769531 0.140625 C 6.03125 0.140625 5.121094 -0.226562 4.292969 -0.796875 C 3.527344 -1.367188 2.390625 -2.730469 1.878906 -3.667969 C 1.847656 -3.699219 1.820312 -3.8125 1.792969 -3.839844 L 1.679688 -3.839844 L 1.679688 -1.707031 L 1.792969 -1.707031 L 1.792969 -1.933594 C 1.820312 -2.078125 2.617188 -1.648438 3.414062 -1.050781 C 4.4375 -0.285156 5.71875 0.226562 6.769531 0.226562 Z M 6.769531 0.226562 "/></g></g><g transform="translate(110.214645, 65.517641)"><g><path d="M 6.769531 0.226562 C 9.074219 0.226562 11.347656 -1.792969 11.347656 -3.867188 C 11.347656 -5.402344 9.472656 -7.59375 7.140625 -8.449219 C 4.808594 -9.300781 2.929688 -11.261719 2.929688 -12.601562 C 2.929688 -14.164062 4.351562 -15.699219 5.832031 -15.699219 C 6.429688 -15.699219 7.109375 -15.5 7.765625 -15.160156 C 8.589844 -14.703125 9.898438 -13.425781 10.382812 -12.488281 C 10.410156 -12.457031 10.4375 -12.34375 10.46875 -12.316406 L 10.609375 -12.289062 L 10.609375 -14.109375 L 10.523438 -14.109375 C 10.523438 -14.050781 10.496094 -13.992188 10.496094 -13.9375 C 10.496094 -13.9375 8.332031 -15.160156 7.878906 -15.386719 L 7.851562 -15.359375 C 7.167969 -15.613281 6.457031 -15.785156 5.832031 -15.785156 C 3.753906 -15.785156 1.707031 -13.910156 1.707031 -11.972656 C 1.707031 -10.382812 3.78125 -8.050781 6.398438 -7.109375 C 8.417969 -6.371094 10.039062 -4.609375 10.039062 -3.382812 C 10.039062 -1.59375 8.417969 0.140625 6.769531 0.140625 C 6.03125 0.140625 5.121094 -0.226562 4.292969 -0.796875 C 3.527344 -1.367188 2.390625 -2.730469 1.878906 -3.667969 C 1.847656 -3.699219 1.820312 -3.8125 1.792969 -3.839844 L 1.679688 -3.839844 L 1.679688 -1.707031 L 1.792969 -1.707031 L 1.792969 -1.933594 C 1.820312 -2.078125 2.617188 -1.648438 3.414062 -1.050781 C 4.4375 -0.285156 5.71875 0.226562 6.769531 0.226562 Z M 6.769531 0.226562 "/></g></g></g><g fill="#6a7153" fill-opacity="1"><g transform="translate(123.013973, 65.517641)"><g><path d="M 10.523438 -18.859375 C 11.546875 -18.859375 12.570312 -20.308594 12.570312 -21.789062 L 12.488281 -21.789062 C 12.488281 -20.933594 11.691406 -20.082031 10.894531 -20.082031 C 9.441406 -20.082031 6.597656 -21.929688 5.148438 -21.929688 C 4.152344 -21.929688 3.1875 -20.421875 3.1875 -18.886719 L 3.269531 -18.886719 C 3.269531 -19.796875 4.011719 -20.707031 4.777344 -20.707031 C 6.230469 -20.707031 9.074219 -18.859375 10.523438 -18.859375 Z M 4.976562 0.285156 C 6.171875 0.285156 8.503906 -0.796875 10.410156 -2.472656 C 10.410156 -1.167969 11.71875 0.140625 13.027344 0.140625 C 14.109375 0.140625 15.386719 -1.136719 15.613281 -2.417969 L 15.417969 -2.53125 C 15.273438 -1.792969 14.449219 -1.082031 13.710938 -1.082031 C 12.914062 -1.082031 12.144531 -1.761719 12.144531 -2.472656 L 12.144531 -11.0625 C 12.144531 -13.792969 10.039062 -15.757812 7.878906 -15.757812 C 4.921875 -15.757812 2.019531 -12.769531 2.019531 -11.492188 C 2.019531 -10.894531 2.445312 -10.296875 2.902344 -10.296875 C 3.414062 -10.296875 3.898438 -10.835938 3.898438 -11.148438 C 3.898438 -11.519531 3.328125 -12.289062 3.328125 -12.601562 C 3.328125 -13.511719 5.488281 -15.585938 7.707031 -15.585938 C 9.074219 -15.585938 10.4375 -13.964844 10.4375 -11.691406 L 10.4375 -8.25 C 4.324219 -7.140625 1.480469 -5.632812 1.480469 -2.558594 C 1.480469 -1.136719 3.214844 0.285156 4.976562 0.285156 Z M 5.832031 -0.625 C 4.464844 -0.625 3.128906 -1.679688 3.128906 -2.757812 C 3.128906 -5.832031 5.433594 -7.253906 10.382812 -8.132812 L 10.410156 -8.132812 L 10.410156 -2.589844 C 8.988281 -1.394531 6.996094 -0.625 5.832031 -0.625 Z M 5.832031 -0.625 "/></g></g><g transform="translate(138.344725, 65.517641)"><g><path d="M 9.015625 0.285156 C 12.914062 0.285156 16.722656 -3.699219 16.722656 -7.738281 C 16.722656 -11.773438 12.914062 -15.757812 9.015625 -15.757812 C 5.121094 -15.757812 1.28125 -11.773438 1.28125 -7.738281 C 1.28125 -3.699219 5.121094 0.285156 9.015625 0.285156 Z M 9.015625 0.113281 C 6.058594 0.113281 3.15625 -3.78125 3.15625 -7.738281 C 3.15625 -11.691406 6.058594 -15.585938 9.015625 -15.585938 C 11.972656 -15.585938 14.847656 -11.691406 14.847656 -7.738281 C 14.847656 -3.78125 11.972656 0.113281 9.015625 0.113281 Z M 9.015625 0.113281 "/></g></g></g></svg>