<svg xmlns="http://www.w3.org/2000/svg" xmlns:xlink="http://www.w3.org/1999/xlink" width="1920" zoomAndPan="magnify" viewBox="0 0 1440 809.999993" height="1080" preserveAspectRatio="xMidYMid meet" version="1.0"><defs><g/></defs><g fill="#c8b7a5" fill-opacity="1"><g transform="translate(524.883369, 653.801567)"><g><path d="M 249.324219 -60.507812 C 250.105469 -62.160156 250.105469 -62.160156 249.027344 -62.515625 C 248.449219 -62.945312 247.800781 -63.875 248.226562 -64.453125 C 248.359375 -67.039062 253.402344 -78.054688 258.316406 -86.484375 L 270.773438 -109.890625 C 275.183594 -118.246094 280.171875 -126.171875 281.457031 -127.902344 C 282.667969 -130.136719 284.734375 -133.523438 285.441406 -135.679688 L 289.144531 -141.878906 L 301.46875 -162.699219 L 306.105469 -169.546875 L 319.359375 -191.019531 L 338.683594 -220.066406 L 364.410156 -261.355469 L 388.292969 -297.75 C 392.21875 -302.4375 393.074219 -303.59375 393.859375 -305.25 L 396.855469 -309.285156 C 397.710938 -310.441406 402.421875 -316.785156 406.554688 -323.558594 L 417.109375 -338.984375 C 418.894531 -340.789062 419.675781 -342.445312 419.675781 -342.445312 L 429.878906 -356.789062 L 484.382812 -432.632812 L 489.089844 -438.976562 C 490.375 -440.707031 491.660156 -442.4375 491.734375 -441.933594 C 492.238281 -442.007812 494.023438 -443.8125 496.238281 -446.195312 L 504.746094 -454.644531 C 507.816406 -458.179688 509.324219 -458.402344 511.351562 -455.105469 C 512.726562 -452.742188 513.808594 -452.390625 516.097656 -454.269531 C 517.53125 -454.992188 515.128906 -460.800781 512.171875 -463.445312 C 510.871094 -465.304688 509.789062 -465.660156 508.355469 -464.933594 L 504.484375 -463.332031 C 503.554688 -462.683594 501.265625 -460.804688 499.980469 -459.074219 L 493.691406 -453.007812 L 488.757812 -448.171875 L 444.007812 -389.6875 L 425.246094 -363.808594 L 421.390625 -358.617188 L 414.617188 -348.882812 L 410.835938 -343.191406 C 409.980469 -342.035156 405.195312 -336.195312 401.066406 -329.421875 C 399.855469 -327.1875 398.066406 -325.382812 398.066406 -325.382812 C 397.566406 -325.308594 397.136719 -324.730469 396.78125 -323.652344 C 396.859375 -323.152344 396.074219 -321.496094 394.71875 -320.265625 L 388.445312 -310.609375 L 382.878906 -303.109375 L 372.824219 -287.761719 L 359.777344 -268.371094 L 355.644531 -261.597656 L 323.847656 -212.734375 C 320.421875 -208.121094 317.148438 -202.503906 313.796875 -197.386719 L 303.820312 -181.53125 L 299.6875 -174.757812 L 290.640625 -159.554688 C 278.667969 -139.8125 277.457031 -137.582031 274.757812 -131.535156 L 270.550781 -125.261719 L 268.558594 -121.375 L 266.921875 -118.5625 C 266.640625 -116.984375 265.359375 -115.253906 264.855469 -115.179688 C 264.425781 -114.601562 263.570312 -113.449219 263.71875 -112.441406 L 258.097656 -101.855469 C 257.652344 -104.871094 258.210938 -108.03125 260.351562 -110.917969 L 261.28125 -111.566406 C 261.207031 -112.070312 260.984375 -113.578125 261.765625 -115.234375 L 265.734375 -126.605469 C 268.917969 -136.316406 274.167969 -149.417969 282.546875 -169.140625 C 290.289062 -186.207031 293.699219 -194.410156 295.746094 -201.390625 L 298.222656 -208.945312 L 306.082031 -232.1875 C 311.035156 -247.296875 317.066406 -262.050781 331.476562 -296.535156 C 343.410156 -323.460938 345.328125 -327.851562 354.300781 -343.554688 C 357.148438 -348.597656 358.917969 -353.996094 358.472656 -357.007812 C 358.679688 -359.09375 358.453125 -360.601562 357.152344 -362.460938 C 356.351562 -364.398438 355.925781 -363.820312 353.710938 -361.4375 C 346.636719 -353.71875 343.566406 -350.183594 342.707031 -349.027344 C 341.851562 -347.875 340.566406 -346.144531 339.210938 -344.917969 C 337.851562 -343.6875 336.566406 -341.957031 336.136719 -341.382812 C 336.285156 -340.375 334.929688 -339.148438 333.570312 -337.921875 C 331.28125 -336.042969 311.789062 -311.59375 309.722656 -308.207031 C 309.371094 -307.125 308.441406 -306.476562 307.863281 -306.902344 C 307.285156 -307.332031 307.359375 -306.828125 307.433594 -306.328125 C 307.507812 -305.824219 304.585938 -301.285156 301.234375 -296.167969 L 285.117188 -273.242188 L 282.117188 -269.207031 L 280.761719 -267.976562 L 271.0625 -253.707031 C 268.996094 -250.320312 266.855469 -247.4375 266.351562 -247.359375 L 265.496094 -246.207031 C 265.140625 -245.128906 263.503906 -242.320312 261.4375 -238.933594 C 259.371094 -235.546875 257.304688 -232.160156 257.378906 -231.65625 C 257.453125 -231.152344 256.949219 -231.078125 256.449219 -231.003906 C 255.945312 -230.929688 252.09375 -225.738281 251.3125 -224.082031 L 246.320312 -216.15625 L 245.390625 -215.503906 L 243.25 -212.621094 C 242.617188 -209.960938 241.40625 -207.726562 239.117188 -205.847656 L 238.765625 -204.769531 C 238.839844 -204.265625 238.058594 -202.609375 235.488281 -199.148438 L 221.9375 -179.6875 L 211.882812 -164.335938 L 198.761719 -145.449219 C 195.261719 -141.339844 189.84375 -132.835938 189.992188 -131.828125 C 190.140625 -130.824219 194.441406 -133 194.792969 -134.082031 C 195.425781 -136.742188 200.566406 -143.664062 201.570312 -143.8125 C 202.074219 -143.886719 203.355469 -145.617188 204.066406 -147.773438 C 205.273438 -150.007812 206.914062 -152.816406 208.273438 -154.046875 L 212.554688 -159.8125 C 213.761719 -162.046875 215.046875 -163.777344 215.046875 -163.777344 C 215.550781 -163.851562 216.835938 -165.582031 217.542969 -167.742188 C 218.753906 -169.972656 220.035156 -171.703125 220.539062 -171.777344 C 221.042969 -171.851562 227.390625 -181.007812 227.742188 -182.085938 C 227.667969 -182.589844 229.308594 -185.398438 231.449219 -188.28125 C 233.589844 -191.167969 235.730469 -194.050781 236.082031 -195.128906 C 236.4375 -196.210938 236.863281 -196.785156 237.367188 -196.859375 C 237.871094 -196.933594 239.152344 -198.664062 240.792969 -201.476562 C 242.429688 -204.285156 244.21875 -206.089844 245.574219 -207.316406 L 245.5 -207.820312 C 246.058594 -210.984375 247.773438 -213.289062 249.558594 -215.09375 L 251.847656 -216.976562 L 252.632812 -218.628906 C 252.128906 -218.554688 252.558594 -219.132812 252.984375 -219.710938 L 255.050781 -223.097656 C 255.480469 -223.671875 256.335938 -224.828125 257.265625 -225.476562 C 258.269531 -225.625 258.625 -226.707031 258.550781 -227.207031 C 258.402344 -228.214844 258.832031 -228.789062 259.761719 -229.441406 C 260.1875 -230.019531 261.546875 -231.246094 261.902344 -232.324219 L 264.75 -237.367188 L 267.246094 -241.332031 L 271.878906 -248.179688 C 274.019531 -251.0625 276.085938 -254.449219 276.011719 -254.953125 C 275.9375 -255.453125 276.367188 -256.03125 276.867188 -256.105469 C 277.371094 -256.179688 279.082031 -258.488281 280.292969 -260.71875 C 281.429688 -263.457031 283.140625 -265.761719 283.644531 -265.835938 C 284.148438 -265.910156 285.003906 -267.066406 285.355469 -268.144531 C 286.136719 -269.800781 286.566406 -270.378906 287.070312 -270.453125 C 287.644531 -270.023438 288.074219 -270.601562 287.925781 -271.605469 C 288.277344 -272.683594 288.632812 -273.765625 289.210938 -273.335938 C 289.710938 -273.410156 290.644531 -274.0625 290.570312 -274.5625 C 290.496094 -275.066406 292.132812 -277.875 294.273438 -280.761719 C 296.414062 -283.644531 298.050781 -286.453125 298.40625 -287.53125 C 298.257812 -288.539062 299.1875 -289.1875 299.691406 -289.261719 C 300.695312 -289.410156 301.980469 -291.140625 302.835938 -292.296875 C 303.617188 -293.953125 305.257812 -296.761719 307.117188 -298.0625 C 308.402344 -299.792969 310.113281 -302.101562 310.894531 -303.757812 L 314.75 -308.949219 C 316.964844 -311.332031 324.316406 -320.632812 325.601562 -322.363281 C 325.957031 -323.445312 328.171875 -325.824219 333.957031 -331.816406 L 338.316406 -337.082031 C 339.597656 -338.8125 340.457031 -339.964844 340.605469 -338.960938 C 341.886719 -340.691406 343.246094 -341.917969 345.109375 -343.222656 C 345.964844 -344.375 346.894531 -345.027344 347.824219 -345.679688 L 347.398438 -345.101562 L 343.339844 -337.824219 C 343.414062 -337.324219 341.625 -335.519531 339.058594 -332.058594 L 338.851562 -329.972656 L 336.65625 -324 L 335.519531 -321.265625 C 335.167969 -320.183594 334.53125 -317.523438 334.664062 -320.109375 C 334.03125 -317.449219 332.820312 -315.21875 331.535156 -313.488281 C 330.550781 -309.746094 327.066406 -302.042969 320.960938 -287.789062 C 310.164062 -263.597656 298.527344 -234.664062 299.175781 -233.734375 L 296.347656 -225.097656 C 296.421875 -224.597656 295.640625 -222.941406 294.929688 -220.78125 C 293.722656 -218.546875 293.441406 -216.964844 293.515625 -216.464844 L 292.882812 -213.804688 C 290.964844 -209.410156 287.277344 -199.625 287.351562 -199.121094 L 276.851562 -172.921875 L 267.972656 -153.121094 C 266.128906 -148.226562 264.136719 -144.339844 264.136719 -144.339844 C 263.632812 -144.265625 263.707031 -143.761719 263.78125 -143.261719 C 263.929688 -142.253906 259.816406 -131.890625 259.238281 -132.316406 C 259.238281 -132.316406 258.738281 -132.242188 259.3125 -131.816406 C 259.386719 -131.3125 258.753906 -128.652344 257.691406 -125.414062 C 256.558594 -122.679688 255.421875 -119.945312 256 -119.515625 C 256.074219 -119.011719 255.644531 -118.4375 255.140625 -118.363281 C 254.640625 -118.289062 254.210938 -117.710938 254.285156 -117.207031 C 254.230469 -114.117188 247.523438 -90.019531 244.972656 -82.96875 L 243.429688 -76.066406 L 241.378906 -69.085938 C 240.320312 -65.847656 240.542969 -64.339844 241.769531 -62.984375 L 242.347656 -62.554688 C 243.445312 -58.609375 246.753906 -57.046875 249.324219 -60.507812 Z M 70.261719 44.546875 C 74.839844 40.789062 81.988281 33.570312 82.265625 31.988281 C 82.695312 31.410156 83.476562 29.753906 84.835938 28.527344 C 86.269531 27.800781 87.980469 25.492188 88.761719 23.839844 C 89.117188 22.757812 89.972656 21.605469 90.476562 21.53125 C 90.976562 21.457031 92.691406 19.148438 94.253906 15.835938 C 95.890625 13.027344 98.460938 9.566406 99.746094 7.835938 C 101.105469 6.609375 102.390625 4.878906 102.316406 4.375 C 102.238281 3.871094 103.097656 2.71875 103.523438 2.140625 C 104.957031 1.417969 110.523438 -6.082031 114.226562 -12.277344 C 119.292969 -19.703125 125.566406 -29.359375 127.351562 -31.164062 C 128.207031 -32.316406 129.492188 -34.046875 129.773438 -35.628906 C 130.125 -36.710938 130.40625 -38.292969 131.410156 -38.441406 C 131.988281 -38.011719 133.269531 -39.742188 134.054688 -41.398438 C 134.835938 -43.054688 136.472656 -45.863281 137.328125 -47.019531 C 138.6875 -48.246094 139.394531 -50.402344 139.246094 -51.410156 C 139.171875 -51.910156 139.097656 -52.414062 139.675781 -51.984375 C 139.75 -51.484375 141.109375 -52.710938 142.316406 -54.945312 C 143.601562 -56.675781 144.960938 -57.902344 144.960938 -57.902344 C 145.464844 -57.976562 146.320312 -59.128906 146.246094 -59.632812 C 146.601562 -60.710938 149.09375 -64.675781 152.015625 -69.214844 L 161.640625 -83.988281 L 167.207031 -91.488281 L 169.625 -95.953125 L 173.832031 -102.226562 C 176.832031 -106.261719 176.757812 -106.765625 182.453125 -116.851562 C 184.089844 -119.660156 186.230469 -122.542969 186.734375 -122.617188 C 187.738281 -122.765625 191.445312 -128.964844 190.363281 -129.316406 C 190.289062 -129.820312 189.285156 -129.671875 188.355469 -129.019531 C 187.425781 -128.367188 185.285156 -125.484375 183.140625 -122.601562 L 161.046875 -88.011719 L 132.378906 -45.773438 C 117.765625 -23.070312 111.417969 -13.917969 110.058594 -12.6875 C 109.128906 -12.039062 107.492188 -9.226562 105.777344 -6.921875 C 104.140625 -4.109375 102.351562 -2.304688 101.925781 -1.730469 C 101.421875 -1.65625 100.996094 -1.078125 101.070312 -0.574219 C 101.144531 -0.0742188 100.285156 1.082031 99.859375 1.65625 C 98.855469 1.804688 97.996094 2.960938 97.570312 3.535156 L 94.648438 8.078125 C 93.863281 9.734375 92.078125 11.539062 91.574219 11.613281 C 90.644531 12.261719 89.359375 13.992188 88.148438 16.226562 C 86.941406 18.460938 84.371094 21.921875 82.660156 24.226562 C 75.585938 31.949219 71.507812 35.632812 69.648438 36.933594 C 64.847656 39.1875 64.34375 39.261719 62.820312 35.890625 C 61.21875 32.019531 61.425781 29.9375 62.707031 28.207031 C 63.566406 27.050781 63.492188 26.550781 62.542969 23.609375 C 61.667969 21.171875 61.015625 20.242188 59.433594 19.960938 C 56.847656 19.832031 56.921875 20.332031 56.308594 26.585938 C 55.414062 34.421875 56.808594 40.375 59.988281 44.527344 C 63.09375 48.175781 65.179688 48.378906 70.261719 44.546875 Z M 70.261719 44.546875 "/></g></g></g><g fill="#c8b7a5" fill-opacity="1"><g transform="translate(920.297884, 595.302028)"><g><path d="M -9.238281 -138.8125 C -7.15625 -138.605469 -5.144531 -138.902344 -3.210938 -139.703125 L -1.703125 -139.925781 C -1.703125 -139.925781 7.042969 -143.273438 15.921875 -149.207031 L 42.628906 -166.511719 C 43.5625 -167.160156 43.339844 -168.667969 42.257812 -169.023438 L 41.683594 -169.449219 L 40.175781 -169.226562 L 39.242188 -168.578125 C 18.546875 -155.757812 4.367188 -147.5 -1.945312 -145.023438 C -1.945312 -145.023438 -8.179688 -142.046875 -8.976562 -143.984375 C -11.65625 -148.207031 -8.957031 -154.257812 -6.890625 -157.644531 C -5.253906 -160.453125 -1.121094 -167.226562 -7.148438 -166.332031 C -8.15625 -166.183594 -9.738281 -166.464844 -9.8125 -166.96875 C -10.609375 -168.902344 -12.042969 -168.175781 -19.917969 -162.390625 C -26.859375 -157.257812 -35.515625 -149.8125 -40.800781 -143.898438 C -43.015625 -141.515625 -43.871094 -140.363281 -43.648438 -138.855469 C -43.277344 -136.34375 -41.695312 -136.0625 -38.679688 -136.507812 C -36.167969 -136.878906 -26.863281 -143.390625 -23.289062 -147 C -19.789062 -151.113281 -13.777344 -155.597656 -13.703125 -155.09375 L -14.691406 -151.355469 C -15.472656 -149.699219 -15.675781 -147.613281 -15.453125 -146.105469 C -15.660156 -144.023438 -15.4375 -142.515625 -13.632812 -140.726562 C -12.402344 -139.371094 -11.25 -138.511719 -9.238281 -138.8125 Z M -38.34375 -141.179688 L -35.628906 -143.636719 C -33.058594 -147.097656 -25.835938 -153.8125 -19.75 -157.792969 C -15.171875 -161.550781 -14.167969 -161.703125 -14.019531 -160.695312 C -13.945312 -160.195312 -15.300781 -158.964844 -16.734375 -158.242188 C -20.457031 -155.636719 -22.246094 -153.832031 -23.101562 -152.675781 C -23.957031 -151.523438 -31.757812 -145.234375 -35.480469 -142.628906 Z M -38.34375 -141.179688 "/></g></g></g><g fill="#c8b7a5" fill-opacity="1"><g transform="translate(984.609262, 585.787491)"><g><path d="M 191.378906 -271.699219 C 188.71875 -272.332031 184.625 -272.238281 172.917969 -271.535156 C 162.21875 -270.980469 83.886719 -262.472656 74.339844 -261.058594 L 60.199219 -259.480469 L 50.652344 -258.066406 C 51.859375 -260.300781 55.640625 -265.992188 58.28125 -268.953125 C 60.070312 -270.757812 61.78125 -273.066406 63.421875 -275.875 C 65.058594 -278.683594 71.125 -286.257812 74.199219 -289.792969 L 78.628906 -294.554688 L 80.265625 -297.363281 C 81.550781 -299.09375 81.476562 -299.597656 80.25 -300.957031 C 79.597656 -301.886719 78.519531 -302.242188 78.015625 -302.167969 C 77.011719 -302.019531 71.648438 -296.605469 71.371094 -295.023438 L 67.441406 -290.332031 C 62.585938 -284.992188 61.652344 -284.34375 60.871094 -282.6875 C 60.015625 -281.53125 48.808594 -267.039062 47.023438 -265.234375 L 45.738281 -263.503906 L 42.386719 -258.386719 L 40.675781 -256.078125 L -29.949219 -244.089844 L -40.855469 -241.449219 C -49.324219 -239.683594 -73.144531 -234.105469 -77.015625 -232.503906 C -80.886719 -230.90625 -82.601562 -228.597656 -80.871094 -227.3125 C -80.21875 -226.382812 -70.316406 -228.875 -63.503906 -231.421875 C -62.074219 -232.148438 -50.234375 -235.441406 -38.25 -237.726562 L -25.839844 -240.589844 L -12.34375 -243.097656 L 4.085938 -246.558594 C 8.535156 -247.730469 25.621094 -250.257812 36.671875 -251.890625 C 36.320312 -250.8125 35.390625 -250.160156 35.035156 -249.082031 L 33.675781 -247.855469 L 32.464844 -245.621094 L 27.402344 -238.195312 C 21.484375 -229.621094 2.941406 -202.230469 -0.613281 -195.027344 C -0.613281 -195.027344 -7.238281 -184.292969 -7.3125 -184.792969 C -7.238281 -184.292969 -8.953125 -181.984375 -10.664062 -179.675781 C -12.804688 -176.792969 -16.15625 -171.675781 -24.851562 -157.554688 L -28.199219 -152.4375 L -31.476562 -146.816406 C -32.257812 -145.160156 -32.613281 -144.082031 -33.113281 -144.007812 C -34.121094 -143.859375 -36.1875 -140.472656 -42.664062 -128.730469 C -45.160156 -124.765625 -47.226562 -121.382812 -48.15625 -120.730469 C -48.511719 -119.652344 -52.644531 -112.878906 -57.203125 -105.527344 L -67.460938 -88.09375 L -83.972656 -57.410156 C -87.957031 -49.628906 -90.378906 -45.164062 -91.457031 -45.519531 L -91.308594 -44.511719 C -91.234375 -44.011719 -91.085938 -43.007812 -91.4375 -41.925781 C -91.71875 -40.34375 -92.148438 -39.769531 -92.722656 -40.195312 C -92.648438 -39.695312 -93.078125 -39.117188 -93.078125 -39.117188 C -92.929688 -38.113281 -92.855469 -37.609375 -93.355469 -37.535156 C -93.429688 -38.039062 -94.492188 -34.800781 -94.976562 -31.132812 C -96.242188 -25.8125 -96.449219 -23.726562 -95.574219 -21.289062 C -94.125 -18.421875 -93.546875 -17.996094 -91.964844 -17.714844 C -89.953125 -18.011719 -88.949219 -18.160156 -88.597656 -19.242188 C -87.8125 -20.898438 -87.8125 -20.898438 -89.898438 -21.101562 C -91.910156 -20.804688 -91.984375 -21.308594 -92.28125 -23.316406 C -92.148438 -25.902344 -89.394531 -35.039062 -86.695312 -41.089844 C -79.226562 -56.570312 -58.863281 -92.445312 -45.535156 -113.414062 L -38.90625 -124.152344 L -25.148438 -145.699219 L -13.8125 -162.78125 L -10.109375 -168.976562 L -5.046875 -176.402344 C -1.265625 -182.09375 2.011719 -187.714844 9.066406 -199.027344 C 11.558594 -202.992188 14.558594 -207.027344 15.839844 -208.757812 C 17.125 -210.488281 19.191406 -213.875 20.402344 -216.109375 L 27.605469 -226.417969 C 32.242188 -233.265625 35.3125 -236.800781 37.730469 -241.265625 L 41.585938 -246.457031 C 42.796875 -248.691406 44.15625 -249.917969 44.9375 -251.574219 L 47.226562 -253.453125 C 51.171875 -254.550781 54.261719 -254.492188 55.769531 -254.714844 L 57.777344 -255.015625 C 86.996094 -258.824219 157.136719 -267.144531 167.410156 -267.125 C 170.574219 -266.566406 175.597656 -267.308594 178.183594 -267.179688 C 183.207031 -267.921875 183.207031 -267.921875 182.5 -265.765625 C 181.644531 -264.609375 182.296875 -263.679688 182.871094 -263.25 C 184.027344 -262.394531 184.601562 -261.96875 185.03125 -262.542969 L 189.757812 -265.296875 C 194.914062 -268.628906 195.195312 -270.210938 191.378906 -271.699219 Z M 191.378906 -271.699219 "/></g></g></g><g fill="#c8b7a5" fill-opacity="1"><g transform="translate(1027.316033, 579.469245)"><g><path d="M -9.238281 -138.8125 C -7.15625 -138.605469 -5.144531 -138.902344 -3.210938 -139.703125 L -1.703125 -139.925781 C -1.703125 -139.925781 7.042969 -143.273438 15.921875 -149.207031 L 42.628906 -166.511719 C 43.5625 -167.160156 43.339844 -168.667969 42.257812 -169.023438 L 41.683594 -169.449219 L 40.175781 -169.226562 L 39.242188 -168.578125 C 18.546875 -155.757812 4.367188 -147.5 -1.945312 -145.023438 C -1.945312 -145.023438 -8.179688 -142.046875 -8.976562 -143.984375 C -11.65625 -148.207031 -8.957031 -154.257812 -6.890625 -157.644531 C -5.253906 -160.453125 -1.121094 -167.226562 -7.148438 -166.332031 C -8.15625 -166.183594 -9.738281 -166.464844 -9.8125 -166.96875 C -10.609375 -168.902344 -12.042969 -168.175781 -19.917969 -162.390625 C -26.859375 -157.257812 -35.515625 -149.8125 -40.800781 -143.898438 C -43.015625 -141.515625 -43.871094 -140.363281 -43.648438 -138.855469 C -43.277344 -136.34375 -41.695312 -136.0625 -38.679688 -136.507812 C -36.167969 -136.878906 -26.863281 -143.390625 -23.289062 -147 C -19.789062 -151.113281 -13.777344 -155.597656 -13.703125 -155.09375 L -14.691406 -151.355469 C -15.472656 -149.699219 -15.675781 -147.613281 -15.453125 -146.105469 C -15.660156 -144.023438 -15.4375 -142.515625 -13.632812 -140.726562 C -12.402344 -139.371094 -11.25 -138.511719 -9.238281 -138.8125 Z M -38.34375 -141.179688 L -35.628906 -143.636719 C -33.058594 -147.097656 -25.835938 -153.8125 -19.75 -157.792969 C -15.171875 -161.550781 -14.167969 -161.703125 -14.019531 -160.695312 C -13.945312 -160.195312 -15.300781 -158.964844 -16.734375 -158.242188 C -20.457031 -155.636719 -22.246094 -153.832031 -23.101562 -152.675781 C -23.957031 -151.523438 -31.757812 -145.234375 -35.480469 -142.628906 Z M -38.34375 -141.179688 "/></g></g></g><g fill="#c8b7a5" fill-opacity="1"><g transform="translate(1091.627411, 569.954708)"><g><path d="M -37.421875 -100.238281 C -36.921875 -100.3125 -36.789062 -102.898438 -36.601562 -108.574219 C -36.933594 -117.769531 -34.886719 -124.746094 -28.984375 -136.917969 C -23.941406 -147.933594 -8.058594 -175.953125 -7.054688 -176.105469 C -6.628906 -176.679688 -6.199219 -177.257812 -6.273438 -177.761719 C -5.417969 -178.914062 -4.488281 -179.566406 -3.554688 -180.214844 L 4.597656 -187.582031 C 8.746094 -190.765625 9.679688 -191.417969 13.25 -195.027344 L 17.328125 -198.710938 C 17.832031 -198.785156 22.410156 -202.542969 25.050781 -205.5 C 28.199219 -208.535156 36.851562 -215.976562 38.210938 -217.203125 L 42.714844 -221.464844 L 47.648438 -226.300781 L 53.4375 -232.292969 L 64.511719 -244.199219 C 71.230469 -250.84375 86.511719 -269.019531 86.847656 -273.691406 C 87.257812 -277.859375 83.949219 -279.425781 78.71875 -276.597656 C 73.414062 -274.273438 66.546875 -268.632812 62.972656 -265.023438 C 58.894531 -261.339844 53.3125 -257.433594 49.308594 -253.246094 C 37.65625 -241.769531 25.652344 -229.207031 14.296875 -215.71875 C 9.515625 -209.875 -0.40625 -197.113281 -2.621094 -194.730469 L -11.183594 -183.195312 C -12.117188 -182.542969 -12.617188 -182.46875 -12.617188 -182.46875 C -13.195312 -182.898438 -13.625 -182.320312 -13.625 -182.320312 C -13.472656 -181.316406 -18.777344 -178.992188 -19.859375 -179.34375 C -20.433594 -179.773438 -20.863281 -179.195312 -20.789062 -178.691406 C -20.640625 -177.6875 -17.753906 -175.546875 -16.75 -175.695312 L -15.746094 -175.84375 C -17.03125 -174.113281 -17.382812 -173.035156 -17.308594 -172.53125 L -18.949219 -169.722656 C -20.230469 -167.992188 -21.089844 -166.839844 -21.015625 -166.335938 C -20.941406 -165.835938 -20.867188 -165.332031 -21.367188 -165.257812 C -21.871094 -165.183594 -23.082031 -162.949219 -24.71875 -160.140625 L -27.996094 -154.519531 C -28.496094 -154.445312 -28.347656 -153.441406 -28.273438 -152.9375 C -28.628906 -151.859375 -29.058594 -151.28125 -29.558594 -151.207031 L -30.84375 -149.476562 C -30.695312 -148.472656 -30.695312 -148.472656 -31.199219 -148.398438 C -31.699219 -148.324219 -32.128906 -147.746094 -32.054688 -147.246094 C -31.90625 -146.242188 -32.332031 -145.664062 -32.835938 -145.589844 C -32.910156 -146.089844 -33.339844 -145.515625 -33.261719 -145.011719 C -33.113281 -144.007812 -35.460938 -139.039062 -37.453125 -135.148438 C -39.015625 -131.839844 -39.296875 -130.257812 -39.648438 -129.175781 C -39.5 -128.171875 -39.855469 -127.09375 -40.132812 -125.511719 C -42.125 -121.621094 -42.796875 -112.28125 -40.976562 -106.902344 C -39.65625 -101.449219 -39.003906 -100.519531 -37.421875 -100.238281 Z M 4.785156 -193.257812 C 3.351562 -192.535156 4.28125 -193.183594 7.632812 -198.300781 C 11.410156 -203.996094 33.765625 -229.894531 34.769531 -230.042969 L 50.703125 -247.292969 L 57.5 -253.433594 L 60.996094 -257.542969 L 63.714844 -260 L 71.011719 -266.214844 L 74.230469 -268.746094 L 76.519531 -270.625 L 77.449219 -271.273438 C 77.878906 -271.851562 78.382812 -271.925781 79.386719 -272.074219 C 79.816406 -272.652344 80.390625 -272.222656 80.539062 -271.21875 C 80.539062 -271.21875 80.613281 -270.714844 80.1875 -270.140625 L 79.332031 -268.984375 L 79.40625 -268.484375 L 78.046875 -267.253906 L 77.617188 -266.679688 L 76.835938 -265.023438 L 75.550781 -263.292969 L 69.484375 -255.71875 L 61.050781 -246.769531 C 57.550781 -242.65625 54.910156 -239.699219 54.40625 -239.625 L 51.6875 -237.167969 C 48.1875 -233.058594 37.820312 -223.308594 36.035156 -221.503906 C 34.171875 -220.199219 28.738281 -215.289062 26.953125 -213.484375 C 24.308594 -210.523438 17.160156 -203.304688 15.300781 -202.003906 L 13.511719 -200.199219 Z M 4.785156 -193.257812 "/></g></g></g><g fill="#6a7153" fill-opacity="1"><g transform="translate(381.883873, 491.744777)"><g><path d="M 40.976562 1.304688 C 55.460938 1.304688 69.6875 -12.007812 69.6875 -25.707031 C 69.6875 -35.234375 58.203125 -49.980469 43.71875 -56.636719 C 28.578125 -63.683594 16.441406 -75.949219 16.441406 -82.605469 C 16.441406 -93.566406 25.054688 -104.269531 33.929688 -104.269531 C 38.105469 -104.269531 42.933594 -102.832031 47.371094 -100.484375 C 52.589844 -97.742188 59.769531 -90.304688 61.726562 -85.347656 C 61.855469 -84.824219 62.378906 -84.042969 62.507812 -83.519531 L 64.207031 -83.519531 L 64.207031 -96.699219 L 63.554688 -96.699219 L 63.421875 -95.265625 C 63.292969 -93.699219 60.289062 -94.351562 57.550781 -96.4375 C 52.070312 -100.613281 42.671875 -105.050781 33.929688 -105.050781 C 21.402344 -105.050781 9.136719 -92.132812 9.136719 -79.082031 C 9.136719 -69.6875 22.054688 -54.546875 38.234375 -46.980469 C 51.546875 -40.714844 62.246094 -29.492188 62.246094 -22.96875 C 62.246094 -11.222656 51.675781 0.390625 40.976562 0.390625 C 35.234375 0.390625 28.058594 -2.742188 21.792969 -7.4375 C 17.09375 -11.222656 11.222656 -18.921875 9.265625 -23.75 C 9.136719 -24.273438 8.613281 -25.054688 8.480469 -25.578125 L 6.785156 -25.578125 L 6.785156 -7.699219 L 7.4375 -7.699219 L 7.570312 -10.308594 C 7.699219 -13.179688 11.613281 -12.917969 15.269531 -9.789062 C 22.707031 -3.394531 32.886719 1.304688 40.976562 1.304688 Z M 40.976562 1.304688 "/></g></g><g transform="translate(456.790127, 491.744777)"><g><path d="M 38.105469 1.304688 C 50.242188 1.304688 65.25 -8.613281 68.382812 -18.660156 L 67.988281 -18.660156 C 65.25 -9.789062 50.765625 -1.042969 38.886719 -1.042969 C 26.359375 -1.042969 14.09375 -18.53125 14.09375 -36.410156 C 14.09375 -40.714844 14.617188 -44.628906 15.53125 -48.285156 L 70.339844 -48.285156 C 68.902344 -62.898438 54.808594 -72.296875 41.367188 -72.296875 C 23.488281 -72.296875 5.871094 -56.898438 5.871094 -33.277344 C 5.871094 -15.789062 21.792969 1.304688 38.105469 1.304688 Z M 15.660156 -48.804688 C 19.707031 -63.03125 30.40625 -71.773438 41.238281 -71.773438 C 50.242188 -71.773438 59.898438 -62.769531 61.59375 -48.9375 Z M 15.660156 -48.804688 "/></g></g></g><g fill="#6a7153" fill-opacity="1"><g transform="translate(531.043888, 491.744777)"><g><path d="M 31.058594 1.042969 C 41.628906 1.042969 52.070312 -8.222656 52.070312 -17.746094 C 52.070312 -24.792969 43.457031 -34.84375 32.753906 -38.757812 C 22.054688 -42.671875 13.441406 -51.675781 13.441406 -57.8125 C 13.441406 -64.988281 19.964844 -72.035156 26.753906 -72.035156 C 29.492188 -72.035156 32.625 -71.121094 35.625 -69.554688 C 39.410156 -67.46875 45.414062 -61.59375 47.632812 -57.289062 C 47.761719 -57.160156 47.894531 -56.636719 48.023438 -56.507812 L 48.675781 -56.375 L 48.675781 -64.726562 L 48.285156 -64.726562 C 48.285156 -64.464844 48.152344 -64.207031 48.152344 -63.945312 C 48.152344 -63.945312 38.234375 -69.554688 36.148438 -70.601562 L 36.019531 -70.46875 C 32.886719 -71.644531 29.625 -72.425781 26.753906 -72.425781 C 17.226562 -72.425781 7.828125 -63.8125 7.828125 -54.941406 C 7.828125 -47.632812 17.355469 -36.929688 29.363281 -32.625 C 38.628906 -29.230469 46.066406 -21.140625 46.066406 -15.53125 C 46.066406 -7.308594 38.628906 0.652344 31.058594 0.652344 C 27.664062 0.652344 23.488281 -1.042969 19.707031 -3.652344 C 16.183594 -6.265625 10.960938 -12.527344 8.613281 -16.835938 C 8.480469 -16.964844 8.351562 -17.488281 8.222656 -17.617188 L 7.699219 -17.617188 L 7.699219 -7.828125 L 8.222656 -7.828125 L 8.222656 -8.875 C 8.351562 -9.527344 12.007812 -7.570312 15.660156 -4.828125 C 20.359375 -1.304688 26.230469 1.042969 31.058594 1.042969 Z M 31.058594 1.042969 "/></g></g><g transform="translate(589.768303, 491.744777)"><g><path d="M 31.058594 1.042969 C 41.628906 1.042969 52.070312 -8.222656 52.070312 -17.746094 C 52.070312 -24.792969 43.457031 -34.84375 32.753906 -38.757812 C 22.054688 -42.671875 13.441406 -51.675781 13.441406 -57.8125 C 13.441406 -64.988281 19.964844 -72.035156 26.753906 -72.035156 C 29.492188 -72.035156 32.625 -71.121094 35.625 -69.554688 C 39.410156 -67.46875 45.414062 -61.59375 47.632812 -57.289062 C 47.761719 -57.160156 47.894531 -56.636719 48.023438 -56.507812 L 48.675781 -56.375 L 48.675781 -64.726562 L 48.285156 -64.726562 C 48.285156 -64.464844 48.152344 -64.207031 48.152344 -63.945312 C 48.152344 -63.945312 38.234375 -69.554688 36.148438 -70.601562 L 36.019531 -70.46875 C 32.886719 -71.644531 29.625 -72.425781 26.753906 -72.425781 C 17.226562 -72.425781 7.828125 -63.8125 7.828125 -54.941406 C 7.828125 -47.632812 17.355469 -36.929688 29.363281 -32.625 C 38.628906 -29.230469 46.066406 -21.140625 46.066406 -15.53125 C 46.066406 -7.308594 38.628906 0.652344 31.058594 0.652344 C 27.664062 0.652344 23.488281 -1.042969 19.707031 -3.652344 C 16.183594 -6.265625 10.960938 -12.527344 8.613281 -16.835938 C 8.480469 -16.964844 8.351562 -17.488281 8.222656 -17.617188 L 7.699219 -17.617188 L 7.699219 -7.828125 L 8.222656 -7.828125 L 8.222656 -8.875 C 8.351562 -9.527344 12.007812 -7.570312 15.660156 -4.828125 C 20.359375 -1.304688 26.230469 1.042969 31.058594 1.042969 Z M 31.058594 1.042969 "/></g></g></g><g fill="#6a7153" fill-opacity="1"><g transform="translate(648.492718, 491.744777)"><g><path d="M 48.285156 -86.519531 C 52.984375 -86.519531 57.679688 -93.175781 57.679688 -99.960938 L 57.289062 -99.960938 C 57.289062 -96.046875 53.636719 -92.132812 49.980469 -92.132812 C 43.324219 -92.132812 30.277344 -100.613281 23.621094 -100.613281 C 19.054688 -100.613281 14.617188 -93.699219 14.617188 -86.652344 L 15.007812 -86.652344 C 15.007812 -90.828125 18.398438 -95.003906 21.921875 -95.003906 C 28.578125 -95.003906 41.628906 -86.519531 48.285156 -86.519531 Z M 22.835938 1.304688 C 28.316406 1.304688 39.019531 -3.652344 47.761719 -11.351562 C 47.761719 -5.351562 53.765625 0.652344 59.769531 0.652344 C 64.726562 0.652344 70.601562 -5.21875 71.644531 -11.09375 L 70.730469 -11.613281 C 70.078125 -8.222656 66.292969 -4.957031 62.898438 -4.957031 C 59.246094 -4.957031 55.722656 -8.089844 55.722656 -11.351562 L 55.722656 -50.765625 C 55.722656 -63.292969 46.066406 -72.296875 36.148438 -72.296875 C 22.578125 -72.296875 9.265625 -58.59375 9.265625 -52.722656 C 9.265625 -49.980469 11.222656 -47.242188 13.3125 -47.242188 C 15.660156 -47.242188 17.878906 -49.71875 17.878906 -51.15625 C 17.878906 -52.851562 15.269531 -56.375 15.269531 -57.8125 C 15.269531 -61.988281 25.1875 -71.511719 35.363281 -71.511719 C 41.628906 -71.511719 47.894531 -64.074219 47.894531 -53.636719 L 47.894531 -37.84375 C 19.835938 -32.753906 6.785156 -25.839844 6.785156 -11.746094 C 6.785156 -5.21875 14.746094 1.304688 22.835938 1.304688 Z M 26.753906 -2.871094 C 20.488281 -2.871094 14.355469 -7.699219 14.355469 -12.660156 C 14.355469 -26.753906 24.925781 -33.277344 47.632812 -37.324219 L 47.761719 -37.324219 L 47.761719 -11.875 C 41.238281 -6.394531 32.101562 -2.871094 26.753906 -2.871094 Z M 26.753906 -2.871094 "/></g></g><g transform="translate(718.831517, 491.744777)"><g><path d="M 41.367188 1.304688 C 59.246094 1.304688 76.734375 -16.964844 76.734375 -35.496094 C 76.734375 -54.027344 59.246094 -72.296875 41.367188 -72.296875 C 23.488281 -72.296875 5.871094 -54.027344 5.871094 -35.496094 C 5.871094 -16.964844 23.488281 1.304688 41.367188 1.304688 Z M 41.367188 0.523438 C 27.796875 0.523438 14.484375 -17.355469 14.484375 -35.496094 C 14.484375 -53.636719 27.796875 -71.511719 41.367188 -71.511719 C 54.941406 -71.511719 68.121094 -53.636719 68.121094 -35.496094 C 68.121094 -17.355469 54.941406 0.523438 41.367188 0.523438 Z M 41.367188 0.523438 "/></g></g></g></svg>