<svg xmlns="http://www.w3.org/2000/svg" xmlns:xlink="http://www.w3.org/1999/xlink" width="200" zoomAndPan="magnify" viewBox="0 0 150 74.999997" height="100" preserveAspectRatio="xMidYMid meet" version="1.0"><defs><g/></defs><g fill="#6a7153" fill-opacity="1"><g transform="translate(0.927932, 58.485564)"><g><path d="M 6.316406 0.179688 C 6.554688 0.179688 6.972656 -0.0585938 7.386719 -0.417969 C 7.566406 -0.597656 7.746094 -0.714844 7.746094 -0.714844 C 7.804688 -0.714844 7.925781 -0.773438 7.984375 -0.894531 L 9.59375 -2.265625 L 10.785156 -3.21875 C 10.964844 -3.394531 11.261719 -3.632812 11.378906 -3.695312 C 11.5 -3.753906 11.855469 -4.050781 12.273438 -4.410156 L 13.464844 -5.363281 L 14.359375 -6.136719 L 15.015625 -6.671875 C 15.609375 -7.148438 16.324219 -7.746094 16.742188 -8.164062 L 17.515625 -8.878906 L 18.648438 -9.769531 L 19.421875 -10.488281 L 21.390625 -12.273438 C 21.570312 -12.394531 21.746094 -12.570312 21.746094 -12.632812 C 21.746094 -12.75 21.808594 -12.808594 21.867188 -12.808594 C 21.984375 -12.808594 22.285156 -12.988281 22.9375 -13.644531 L 23.476562 -14.121094 L 24.90625 -15.371094 L 28.003906 -18.171875 L 28.539062 -18.53125 L 28.957031 -18.945312 C 29.015625 -19.125 29.136719 -19.246094 29.253906 -19.246094 C 29.3125 -19.304688 29.550781 -19.484375 29.730469 -19.722656 C 29.910156 -19.898438 30.148438 -20.078125 30.148438 -20.078125 C 30.207031 -20.078125 30.683594 -20.496094 31.160156 -20.972656 C 31.636719 -21.449219 32.054688 -21.867188 32.113281 -21.867188 C 32.175781 -21.867188 32.175781 -21.867188 32.175781 -21.925781 C 32.175781 -21.984375 35.988281 -25.859375 36.523438 -26.394531 C 37.296875 -27.109375 37.65625 -27.46875 37.597656 -27.527344 C 37.597656 -27.585938 37.953125 -27.945312 38.074219 -27.945312 C 38.132812 -27.945312 38.25 -28.003906 38.371094 -28.121094 L 43.195312 -32.769531 C 43.613281 -33.128906 44.03125 -33.484375 44.148438 -33.542969 C 44.566406 -33.722656 44.863281 -34.617188 44.6875 -35.035156 C 44.566406 -35.210938 44.210938 -35.210938 44.089844 -35.035156 C 44.03125 -34.972656 43.972656 -34.796875 43.910156 -34.617188 C 43.734375 -34.019531 43.078125 -33.246094 41.230469 -31.460938 L 34.675781 -25.023438 C 30.566406 -20.972656 29.074219 -19.542969 28.300781 -18.886719 L 26.574219 -17.339844 L 21.507812 -12.691406 C 21.449219 -12.691406 19.78125 -11.261719 18.945312 -10.546875 C 17.992188 -9.652344 17.933594 -9.59375 17.875 -9.59375 C 17.816406 -9.59375 17.695312 -9.472656 17.578125 -9.355469 C 17.457031 -9.234375 17.277344 -9.054688 17.21875 -9.054688 L 16.625 -8.578125 L 16.027344 -8.042969 L 15.132812 -7.328125 L 11.679688 -4.527344 L 11.140625 -4.109375 L 9.652344 -2.917969 L 8.996094 -2.382812 C 8.460938 -1.847656 6.792969 -0.597656 6.613281 -0.597656 C 6.316406 -0.65625 6.792969 -2.265625 7.449219 -3.515625 L 8.042969 -4.585938 L 8.9375 -6.078125 L 9.710938 -7.269531 L 10.128906 -7.984375 L 10.425781 -8.460938 L 10.785156 -9.054688 L 11.441406 -10.070312 L 12.273438 -11.261719 L 13.167969 -12.453125 L 13.761719 -13.226562 C 13.882812 -13.347656 14.300781 -14 14.65625 -14.476562 C 15.550781 -15.609375 16.148438 -16.324219 16.800781 -17.101562 L 17.636719 -18.171875 L 18.769531 -19.421875 L 20.257812 -21.152344 C 21.03125 -22.105469 22.460938 -24.128906 23.175781 -24.84375 L 27.46875 -29.550781 C 29.074219 -31.28125 30.804688 -32.890625 31.9375 -34.140625 C 33.1875 -35.511719 35.449219 -37.773438 36.523438 -38.726562 C 37.058594 -39.203125 38.011719 -40.097656 38.550781 -40.632812 L 40.039062 -42.003906 C 41.230469 -43.195312 41.828125 -43.972656 41.707031 -44.328125 C 41.648438 -44.566406 41.050781 -44.863281 40.695312 -44.863281 C 40.574219 -44.863281 40.457031 -44.925781 40.394531 -44.984375 C 40.277344 -45.042969 39.980469 -45.101562 39.621094 -45.101562 L 38.726562 -45.222656 C 38.074219 -45.339844 34.796875 -45.402344 33.722656 -45.339844 L 31.28125 -45.222656 L 29.789062 -45.101562 L 28.898438 -45.042969 L 26.8125 -44.863281 L 24.429688 -44.566406 L 22.222656 -44.328125 C 20.199219 -44.089844 19.421875 -43.972656 18.46875 -43.792969 L 17.101562 -43.496094 C 16.800781 -43.433594 15.132812 -42.957031 14.65625 -42.839844 L 14.179688 -42.71875 C 13.046875 -42.363281 10.785156 -41.585938 10.664062 -41.410156 C 10.1875 -40.992188 10.726562 -40.933594 11.679688 -41.289062 C 12.453125 -41.585938 14.300781 -42.183594 15.015625 -42.363281 L 15.910156 -42.660156 C 17.101562 -43.019531 21.746094 -43.851562 23 -43.910156 L 25.261719 -44.148438 C 26.035156 -44.269531 27.109375 -44.386719 27.585938 -44.386719 C 27.824219 -44.386719 28.183594 -44.386719 28.242188 -44.449219 C 28.480469 -44.566406 32.292969 -44.746094 35.035156 -44.746094 C 38.488281 -44.746094 39.800781 -44.625 40.394531 -44.148438 C 40.515625 -44.089844 40.515625 -44.03125 40.394531 -43.851562 C 40.277344 -43.671875 40.21875 -43.554688 40.15625 -43.554688 L 40.039062 -43.375 C 40.039062 -43.257812 39.800781 -42.957031 39.5625 -42.71875 C 38.847656 -41.945312 35.988281 -39.203125 35.332031 -38.667969 L 34.617188 -38.011719 C 34.496094 -37.894531 34.4375 -37.835938 34.378906 -37.894531 L 34.378906 -37.835938 C 34.378906 -37.714844 33.367188 -36.703125 32.472656 -35.75 L 31.9375 -35.273438 L 31.636719 -34.914062 C 30.148438 -33.246094 27.585938 -30.566406 26.335938 -29.3125 L 25.976562 -28.898438 L 24.964844 -27.765625 C 22.761719 -25.382812 20.554688 -22.582031 20.316406 -22.164062 C 20.257812 -22.046875 20.136719 -21.984375 20.078125 -21.925781 C 20.019531 -21.925781 19.960938 -21.925781 19.960938 -21.867188 C 19.960938 -21.808594 19.421875 -21.152344 18.53125 -20.078125 L 17.457031 -18.886719 L 16.863281 -18.113281 L 16.148438 -17.277344 L 15.3125 -16.207031 L 14.300781 -15.015625 C 14.0625 -14.65625 13.703125 -14.0625 13.523438 -13.824219 L 12.75 -12.871094 L 12.453125 -12.453125 C 12.332031 -12.332031 11.023438 -10.605469 11.023438 -10.546875 C 11.023438 -10.488281 10.964844 -10.367188 10.84375 -10.308594 C 10.785156 -10.1875 10.664062 -10.070312 10.664062 -10.007812 C 10.664062 -9.949219 10.605469 -9.832031 10.546875 -9.710938 L 10.1875 -9.234375 L 9.890625 -8.757812 C 9.414062 -8.101562 8.402344 -6.316406 8.402344 -6.257812 C 8.402344 -6.195312 8.28125 -6.019531 8.164062 -5.898438 C 8.042969 -5.839844 7.925781 -5.660156 7.925781 -5.601562 C 7.925781 -5.542969 7.863281 -5.480469 7.863281 -5.480469 C 7.804688 -5.480469 7.746094 -5.421875 7.746094 -5.363281 C 7.746094 -5.242188 7.566406 -4.886719 7.507812 -4.765625 L 7.089844 -4.050781 C 6.851562 -3.695312 6.671875 -3.394531 6.671875 -3.457031 C 6.613281 -3.457031 6.613281 -3.457031 6.613281 -3.394531 C 6.671875 -3.335938 6.671875 -3.21875 6.613281 -3.097656 C 6.375 -2.679688 5.957031 -1.371094 5.957031 -1.011719 C 5.898438 -0.417969 6.078125 0.121094 6.316406 0.179688 Z M 6.316406 0.179688 "/></g></g></g><g fill="#6a7153" fill-opacity="1"><g transform="translate(35.544126, 58.485564)"><g><path d="M 1.3125 -16.265625 C 1.550781 -16.207031 1.789062 -16.207031 2.027344 -16.265625 L 2.203125 -16.265625 C 2.203125 -16.265625 3.277344 -16.503906 4.410156 -17.039062 L 7.804688 -18.589844 C 7.925781 -18.648438 7.925781 -18.828125 7.804688 -18.886719 L 7.746094 -18.945312 L 7.566406 -18.945312 L 7.449219 -18.886719 C 4.824219 -17.753906 3.039062 -17.039062 2.265625 -16.863281 C 2.265625 -16.863281 1.488281 -16.625 1.429688 -16.863281 C 1.191406 -17.398438 1.609375 -18.054688 1.90625 -18.410156 C 2.144531 -18.707031 2.742188 -19.421875 2.027344 -19.421875 C 1.90625 -19.421875 1.726562 -19.484375 1.726562 -19.542969 C 1.667969 -19.78125 1.488281 -19.722656 0.476562 -19.183594 C -0.417969 -18.707031 -1.550781 -17.992188 -2.265625 -17.398438 C -2.5625 -17.160156 -2.679688 -17.039062 -2.679688 -16.863281 C -2.679688 -16.5625 -2.503906 -16.503906 -2.144531 -16.503906 C -1.847656 -16.503906 -0.65625 -17.101562 -0.179688 -17.457031 C 0.296875 -17.875 1.074219 -18.292969 1.074219 -18.230469 L 0.894531 -17.816406 C 0.773438 -17.636719 0.714844 -17.398438 0.714844 -17.21875 C 0.65625 -16.980469 0.65625 -16.800781 0.835938 -16.5625 C 0.953125 -16.386719 1.074219 -16.265625 1.3125 -16.265625 Z M -2.027344 -17.039062 L -1.667969 -17.277344 C -1.3125 -17.636719 -0.359375 -18.292969 0.417969 -18.648438 C 1.011719 -19.007812 1.132812 -19.007812 1.132812 -18.886719 C 1.132812 -18.828125 0.953125 -18.707031 0.773438 -18.648438 C 0.296875 -18.410156 0.0585938 -18.230469 -0.0585938 -18.113281 C -0.179688 -17.992188 -1.191406 -17.398438 -1.667969 -17.160156 Z M -2.027344 -17.039062 "/></g></g></g><g fill="#6a7153" fill-opacity="1"><g transform="translate(43.170413, 58.485564)"><g><path d="M -19.898438 1.488281 C -19.304688 1.429688 -18.171875 1.011719 -17.277344 0.535156 L -16.445312 0.0585938 L -15.847656 -0.296875 L -14.476562 -1.25 L -11.976562 -3.15625 L -9.175781 -5.421875 C -7.925781 -6.433594 -5.78125 -8.519531 -4.824219 -9.652344 C -4.347656 -10.246094 -3.8125 -10.726562 -3.753906 -10.785156 C -3.574219 -11.023438 -2.144531 -11.679688 -1.011719 -12.035156 C -0.773438 -12.09375 -0.597656 -12.214844 -0.535156 -12.273438 C -0.476562 -12.332031 -0.417969 -12.332031 -0.359375 -12.332031 C -0.296875 -12.273438 -0.179688 -12.332031 -0.0585938 -12.394531 C 0 -12.453125 0.238281 -12.511719 0.359375 -12.570312 C 0.535156 -12.570312 0.714844 -12.632812 0.773438 -12.691406 C 0.835938 -12.691406 1.074219 -12.808594 1.429688 -12.871094 L 6.910156 -14.300781 C 7.148438 -14.359375 7.6875 -14.476562 8.164062 -14.539062 C 8.878906 -14.65625 8.9375 -14.65625 8.816406 -14.476562 C 8.640625 -14.300781 8.699219 -14.179688 8.9375 -14.121094 C 9.117188 -14.0625 9.234375 -14.0625 9.59375 -14.238281 L 10.128906 -14.476562 C 10.1875 -14.476562 10.246094 -14.539062 10.367188 -14.65625 C 10.488281 -14.835938 10.367188 -15.074219 10.128906 -15.132812 C 9.832031 -15.191406 8.9375 -15.074219 8.28125 -14.953125 L 6.972656 -14.65625 L 3.632812 -13.824219 C 2.441406 -13.523438 1.429688 -13.226562 -0.179688 -12.691406 L -1.550781 -12.214844 L -2.324219 -12.035156 L -2.980469 -11.796875 C -3.21875 -11.679688 0.359375 -15.671875 0.773438 -16.207031 L 1.550781 -17.21875 L 2.203125 -18.230469 C 2.382812 -18.46875 2.503906 -18.707031 2.503906 -18.769531 C 2.503906 -18.828125 2.441406 -18.945312 2.441406 -19.125 C 2.441406 -19.601562 1.90625 -19.78125 1.132812 -19.542969 C 0.714844 -19.421875 -0.179688 -18.945312 -0.535156 -18.707031 L -1.074219 -18.292969 C -1.132812 -18.230469 -1.25 -18.230469 -1.371094 -18.171875 L -1.609375 -17.933594 C -1.847656 -17.753906 -1.847656 -17.339844 -1.667969 -17.160156 C -1.550781 -17.039062 -0.714844 -16.980469 -0.535156 -17.101562 L 0.894531 -17.695312 C 1.191406 -17.816406 -2.441406 -13.644531 -3.457031 -12.332031 C -4.289062 -11.203125 -4.765625 -10.964844 -5.183594 -10.84375 C -5.421875 -10.785156 -5.78125 -10.664062 -5.898438 -10.546875 C -6.078125 -10.488281 -6.257812 -10.367188 -6.316406 -10.367188 C -6.433594 -10.425781 -9.710938 -8.816406 -10.546875 -8.402344 C -10.902344 -8.164062 -11.203125 -8.042969 -11.261719 -8.042969 C -11.320312 -8.042969 -11.378906 -7.984375 -11.378906 -7.984375 C -11.378906 -7.925781 -11.558594 -7.804688 -11.738281 -7.746094 C -11.917969 -7.6875 -12.394531 -7.386719 -12.808594 -7.089844 L -13.703125 -6.554688 C -14 -6.375 -15.132812 -5.601562 -15.910156 -4.945312 C -17.101562 -4.050781 -19.542969 -1.429688 -19.601562 -1.074219 C -19.601562 -1.011719 -19.660156 -0.894531 -19.722656 -0.835938 L -19.78125 -0.835938 C -19.898438 -0.65625 -20.019531 -0.476562 -20.136719 -0.359375 C -20.199219 -0.0585938 -20.316406 0.179688 -20.496094 0.417969 L -20.554688 0.835938 C -20.613281 1.371094 -20.496094 1.550781 -19.898438 1.488281 Z M -0.953125 -17.578125 C -1.132812 -17.578125 -1.132812 -17.578125 -0.953125 -17.753906 C -0.714844 -17.992188 0 -18.46875 0.597656 -18.707031 C 1.074219 -18.945312 1.667969 -19.007812 1.667969 -18.828125 C 1.667969 -18.53125 -0.359375 -17.578125 -0.953125 -17.578125 Z M -20.019531 1.011719 C -20.136719 0.953125 -20.019531 0.535156 -19.78125 0 C -19.007812 -1.371094 -18.410156 -2.144531 -17.21875 -3.335938 C -16.148438 -4.347656 -15.910156 -4.527344 -14.597656 -5.542969 C -13.941406 -6.019531 -11.5 -7.566406 -11.378906 -7.566406 L -10.84375 -7.863281 C -10.605469 -8.042969 -9.832031 -8.460938 -9.117188 -8.816406 C -8.460938 -9.117188 -7.863281 -9.414062 -7.863281 -9.472656 C -7.804688 -9.53125 -7.746094 -9.53125 -7.625 -9.53125 L -7.386719 -9.59375 C -7.386719 -9.652344 -7.089844 -9.769531 -6.851562 -9.890625 L -6.078125 -10.1875 C -5.480469 -10.425781 -5.421875 -10.425781 -5.421875 -10.308594 C -5.421875 -10.246094 -5.480469 -10.1875 -5.480469 -10.1875 C -5.542969 -10.1875 -5.601562 -10.128906 -5.601562 -10.128906 C -5.601562 -9.832031 -7.746094 -7.746094 -10.367188 -5.363281 L -12.09375 -3.8125 C -12.332031 -3.574219 -12.632812 -3.335938 -12.808594 -3.21875 L -13.285156 -2.859375 C -13.703125 -2.503906 -15.671875 -1.132812 -15.789062 -1.132812 C -15.847656 -1.132812 -15.910156 -1.074219 -15.910156 -1.011719 C -15.96875 -0.953125 -16.027344 -0.894531 -16.085938 -0.894531 C -16.148438 -0.894531 -16.445312 -0.714844 -16.800781 -0.476562 C -17.753906 0.179688 -18.410156 0.476562 -19.183594 0.773438 Z M -20.019531 1.011719 "/></g></g></g><g fill="#6a7153" fill-opacity="1"><g transform="translate(50.022159, 58.485564)"><g><path d="M 1.3125 -16.265625 C 1.550781 -16.207031 1.789062 -16.207031 2.027344 -16.265625 L 2.203125 -16.265625 C 2.203125 -16.265625 3.277344 -16.503906 4.410156 -17.039062 L 7.804688 -18.589844 C 7.925781 -18.648438 7.925781 -18.828125 7.804688 -18.886719 L 7.746094 -18.945312 L 7.566406 -18.945312 L 7.449219 -18.886719 C 4.824219 -17.753906 3.039062 -17.039062 2.265625 -16.863281 C 2.265625 -16.863281 1.488281 -16.625 1.429688 -16.863281 C 1.191406 -17.398438 1.609375 -18.054688 1.90625 -18.410156 C 2.144531 -18.707031 2.742188 -19.421875 2.027344 -19.421875 C 1.90625 -19.421875 1.726562 -19.484375 1.726562 -19.542969 C 1.667969 -19.78125 1.488281 -19.722656 0.476562 -19.183594 C -0.417969 -18.707031 -1.550781 -17.992188 -2.265625 -17.398438 C -2.5625 -17.160156 -2.679688 -17.039062 -2.679688 -16.863281 C -2.679688 -16.5625 -2.503906 -16.503906 -2.144531 -16.503906 C -1.847656 -16.503906 -0.65625 -17.101562 -0.179688 -17.457031 C 0.296875 -17.875 1.074219 -18.292969 1.074219 -18.230469 L 0.894531 -17.816406 C 0.773438 -17.636719 0.714844 -17.398438 0.714844 -17.21875 C 0.65625 -16.980469 0.65625 -16.800781 0.835938 -16.5625 C 0.953125 -16.386719 1.074219 -16.265625 1.3125 -16.265625 Z M -2.027344 -17.039062 L -1.667969 -17.277344 C -1.3125 -17.636719 -0.359375 -18.292969 0.417969 -18.648438 C 1.011719 -19.007812 1.132812 -19.007812 1.132812 -18.886719 C 1.132812 -18.828125 0.953125 -18.707031 0.773438 -18.648438 C 0.296875 -18.410156 0.0585938 -18.230469 -0.0585938 -18.113281 C -0.179688 -17.992188 -1.191406 -17.398438 -1.667969 -17.160156 Z M -2.027344 -17.039062 "/></g></g></g><g fill="#6a7153" fill-opacity="1"><g transform="translate(57.648446, 58.485564)"><g><path d="M -2.265625 -13.40625 C -1.550781 -13.585938 -0.179688 -14.777344 0.0585938 -15.371094 C 0.179688 -15.550781 0.296875 -15.910156 0.359375 -16.148438 C 0.417969 -16.445312 0.535156 -16.625 0.714844 -16.742188 L 1.3125 -16.980469 C 1.789062 -17.21875 2.5625 -17.457031 3.335938 -17.695312 C 2.859375 -17.515625 4.410156 -17.992188 5.480469 -18.292969 C 5.957031 -18.410156 6.078125 -18.53125 5.898438 -18.707031 C 5.78125 -18.828125 5.660156 -18.828125 5.304688 -18.707031 C 4.585938 -18.589844 1.488281 -17.753906 0.835938 -17.339844 C 0.417969 -17.160156 0.296875 -17.339844 0.359375 -18.171875 C 0.476562 -18.945312 0.476562 -19.007812 0.773438 -19.066406 C 1.191406 -19.183594 1.3125 -19.421875 1.074219 -19.722656 C 0.894531 -19.898438 0.714844 -19.839844 0.296875 -19.601562 C -0.238281 -19.304688 -0.296875 -19.066406 -0.296875 -17.933594 C -0.296875 -17.398438 -0.359375 -16.921875 -0.359375 -16.800781 C -0.417969 -16.742188 -0.65625 -16.625 -0.894531 -16.503906 C -1.132812 -16.445312 -1.3125 -16.324219 -1.371094 -16.324219 L -2.027344 -15.847656 C -2.859375 -15.371094 -3.21875 -15.015625 -3.277344 -14.539062 C -3.277344 -14.179688 -3.277344 -14.0625 -3.097656 -13.882812 C -2.980469 -13.761719 -2.859375 -13.585938 -2.859375 -13.585938 C -2.859375 -13.40625 -2.503906 -13.285156 -2.265625 -13.40625 Z M -2.265625 -14.0625 C -2.503906 -14.0625 -2.742188 -14.300781 -2.742188 -14.539062 C -2.742188 -14.894531 -1.726562 -15.492188 -1.609375 -15.550781 L -1.011719 -15.910156 L -0.597656 -16.148438 L -0.597656 -15.847656 C -0.65625 -15.492188 -0.773438 -15.3125 -1.429688 -14.65625 C -1.789062 -14.300781 -2.144531 -14.0625 -2.265625 -14.0625 Z M -2.265625 -14.0625 "/></g></g></g><g fill="#6a7153" fill-opacity="1"><g transform="translate(72.561979, 58.485564)"><g><path d="M -2.621094 -12.273438 C -2.5625 -12.273438 -2.503906 -12.570312 -2.382812 -13.226562 C -2.265625 -14.300781 -1.90625 -15.074219 -1.011719 -16.386719 C -0.238281 -17.578125 2.085938 -20.554688 2.203125 -20.554688 C 2.265625 -20.613281 2.324219 -20.675781 2.324219 -20.734375 C 2.441406 -20.851562 2.5625 -20.914062 2.679688 -20.972656 L 3.753906 -21.6875 C 4.289062 -21.984375 4.410156 -22.046875 4.886719 -22.402344 L 5.421875 -22.761719 C 5.480469 -22.761719 6.078125 -23.117188 6.433594 -23.414062 C 6.851562 -23.714844 7.984375 -24.429688 8.164062 -24.546875 L 8.757812 -24.964844 L 9.414062 -25.441406 L 10.1875 -26.035156 L 11.679688 -27.230469 C 12.570312 -27.882812 14.65625 -29.730469 14.777344 -30.265625 C 14.894531 -30.742188 14.539062 -30.980469 13.882812 -30.742188 C 13.226562 -30.566406 12.332031 -30.027344 11.855469 -29.671875 C 11.320312 -29.3125 10.605469 -28.957031 10.070312 -28.539062 C 8.519531 -27.40625 6.910156 -26.15625 5.363281 -24.785156 C 4.707031 -24.191406 3.335938 -22.878906 3.039062 -22.640625 L 1.847656 -21.449219 C 1.726562 -21.390625 1.667969 -21.390625 1.667969 -21.390625 C 1.609375 -21.449219 1.550781 -21.390625 1.550781 -21.390625 C 1.550781 -21.269531 0.894531 -21.09375 0.773438 -21.152344 C 0.714844 -21.210938 0.65625 -21.152344 0.65625 -21.09375 C 0.65625 -20.972656 0.953125 -20.675781 1.074219 -20.675781 L 1.191406 -20.675781 C 1.011719 -20.496094 0.953125 -20.375 0.953125 -20.316406 L 0.714844 -20.019531 C 0.535156 -19.839844 0.417969 -19.722656 0.417969 -19.660156 C 0.417969 -19.601562 0.417969 -19.542969 0.359375 -19.542969 C 0.296875 -19.542969 0.121094 -19.304688 -0.121094 -19.007812 L -0.597656 -18.410156 C -0.65625 -18.410156 -0.65625 -18.292969 -0.65625 -18.230469 C -0.714844 -18.113281 -0.773438 -18.054688 -0.835938 -18.054688 L -1.011719 -17.875 C -1.011719 -17.753906 -1.011719 -17.753906 -1.074219 -17.753906 C -1.132812 -17.753906 -1.191406 -17.695312 -1.191406 -17.636719 C -1.191406 -17.515625 -1.25 -17.457031 -1.3125 -17.457031 C -1.3125 -17.515625 -1.371094 -17.457031 -1.371094 -17.398438 C -1.371094 -17.277344 -1.726562 -16.742188 -2.027344 -16.324219 C -2.265625 -15.96875 -2.324219 -15.789062 -2.382812 -15.671875 C -2.382812 -15.550781 -2.441406 -15.429688 -2.503906 -15.253906 C -2.800781 -14.835938 -3.039062 -13.761719 -2.917969 -13.109375 C -2.859375 -12.453125 -2.800781 -12.332031 -2.621094 -12.273438 Z M 3.871094 -22.34375 C 3.695312 -22.285156 3.8125 -22.34375 4.289062 -22.878906 C 4.824219 -23.476562 7.863281 -26.097656 7.984375 -26.097656 L 10.128906 -27.824219 L 11.023438 -28.421875 L 11.5 -28.835938 L 11.855469 -29.074219 L 12.808594 -29.671875 L 13.226562 -29.910156 L 13.523438 -30.089844 L 13.644531 -30.148438 C 13.703125 -30.207031 13.761719 -30.207031 13.882812 -30.207031 C 13.941406 -30.265625 14 -30.207031 14 -30.089844 C 14 -30.089844 14 -30.027344 13.941406 -29.96875 L 13.824219 -29.851562 L 13.824219 -29.789062 L 13.644531 -29.671875 L 13.585938 -29.613281 L 13.464844 -29.433594 L 13.285156 -29.253906 L 12.453125 -28.480469 L 11.320312 -27.585938 C 10.84375 -27.167969 10.488281 -26.871094 10.425781 -26.871094 L 10.070312 -26.632812 C 9.59375 -26.214844 8.222656 -25.261719 7.984375 -25.082031 C 7.746094 -24.964844 7.03125 -24.488281 6.792969 -24.308594 C 6.433594 -24.011719 5.480469 -23.296875 5.242188 -23.175781 L 5.003906 -23 Z M 3.871094 -22.34375 "/></g></g></g><g fill="#6a7153" fill-opacity="1"><g transform="translate(77.805048, 58.485564)"><g><path d="M 2.503906 -20.496094 C 2.742188 -20.554688 2.980469 -20.972656 2.917969 -21.210938 C 2.917969 -21.332031 2.800781 -21.449219 2.742188 -21.507812 C 2.503906 -21.6875 2.265625 -21.570312 2.203125 -21.210938 C 2.203125 -21.03125 2.144531 -20.914062 2.085938 -20.851562 C 1.90625 -20.734375 2.265625 -20.375 2.503906 -20.496094 Z M -0.894531 -16.207031 C -0.238281 -16.265625 0.894531 -16.625 1.847656 -17.039062 L 4.46875 -18.230469 L 5.183594 -18.53125 C 5.363281 -18.648438 5.363281 -18.828125 5.242188 -18.886719 L 5.125 -18.945312 L 5.003906 -18.945312 L 4.886719 -18.886719 C 2.265625 -17.753906 0.476562 -17.039062 -0.359375 -16.863281 C -0.359375 -16.863281 -0.835938 -16.683594 -1.074219 -16.800781 C -1.074219 -17.039062 -1.011719 -17.277344 -0.835938 -17.515625 L 0.179688 -18.351562 C 0.894531 -18.945312 1.074219 -19.246094 0.773438 -19.363281 C 0.65625 -19.421875 0.179688 -19.246094 -0.238281 -18.945312 C -1.3125 -18.054688 -1.789062 -17.457031 -1.789062 -16.863281 L -1.789062 -16.683594 C -1.789062 -16.324219 -1.488281 -16.148438 -0.894531 -16.207031 Z M -0.894531 -16.207031 "/></g></g></g><g fill="#6a7153" fill-opacity="1"><g transform="translate(82.809801, 58.485564)"><g><path d="M 7.746094 -14.953125 C 9.292969 -15.132812 12.035156 -15.789062 14.417969 -16.800781 C 15.96875 -17.398438 16.207031 -17.457031 18.230469 -18.410156 L 18.410156 -18.53125 C 18.53125 -18.589844 18.648438 -18.589844 18.707031 -18.707031 C 18.769531 -18.828125 18.648438 -18.886719 18.589844 -18.945312 L 18.410156 -18.945312 C 18.292969 -18.886719 18.171875 -18.886719 18.054688 -18.828125 L 17.457031 -18.53125 L 17.21875 -18.46875 L 15.253906 -17.636719 L 14.476562 -17.398438 C 12.273438 -16.5625 10.070312 -15.671875 7.269531 -15.492188 C 6.257812 -15.492188 5.839844 -15.609375 5.601562 -16.027344 C 5.421875 -16.265625 5.421875 -16.503906 5.480469 -16.980469 C 5.542969 -17.578125 6.019531 -18.171875 6.375 -18.410156 C 6.613281 -18.589844 6.671875 -18.769531 6.496094 -18.945312 C 6.316406 -19.066406 5.78125 -18.945312 5.601562 -18.828125 C 5.421875 -18.648438 2.679688 -17.816406 2.382812 -17.875 C 2.203125 -17.933594 2.203125 -17.933594 2.382812 -18.230469 C 2.503906 -18.53125 2.503906 -18.589844 2.382812 -18.707031 C 2.203125 -18.886719 1.90625 -18.886719 1.550781 -18.589844 L 1.25 -18.351562 L 0.359375 -17.816406 L 0.238281 -17.695312 L 0 -17.578125 C -0.0585938 -17.578125 -0.238281 -17.457031 -0.296875 -17.515625 C -0.296875 -17.578125 -0.121094 -17.695312 -0.0585938 -17.753906 C 0.476562 -18.230469 0.953125 -18.828125 0.894531 -19.007812 L 0.894531 -19.183594 C 0.894531 -19.304688 0.476562 -19.363281 0.359375 -19.304688 C 0.238281 -19.183594 -1.429688 -17.277344 -1.609375 -16.980469 C -1.789062 -16.625 -1.847656 -16.445312 -1.667969 -16.265625 C -1.429688 -16.027344 -1.074219 -16.207031 0.0585938 -16.921875 C 0.894531 -17.515625 1.488281 -17.816406 1.3125 -17.636719 C 1.25 -17.578125 1.3125 -17.457031 1.429688 -17.339844 C 1.667969 -17.160156 1.726562 -17.160156 2.144531 -17.160156 C 2.679688 -17.21875 4.109375 -17.578125 4.410156 -17.753906 C 4.585938 -17.816406 4.707031 -17.875 4.707031 -17.816406 C 4.765625 -17.816406 4.765625 -17.578125 4.707031 -17.339844 C 4.347656 -16.027344 4.765625 -15.3125 5.957031 -15.015625 C 6.433594 -14.894531 6.851562 -14.894531 7.746094 -14.953125 Z M 7.746094 -14.953125 "/></g></g></g><g fill="#6a7153" fill-opacity="1"><g transform="translate(101.220136, 58.485564)"><g><path d="M 2.503906 -20.496094 C 2.742188 -20.554688 2.980469 -20.972656 2.917969 -21.210938 C 2.917969 -21.332031 2.800781 -21.449219 2.742188 -21.507812 C 2.503906 -21.6875 2.265625 -21.570312 2.203125 -21.210938 C 2.203125 -21.03125 2.144531 -20.914062 2.085938 -20.851562 C 1.90625 -20.734375 2.265625 -20.375 2.503906 -20.496094 Z M -0.894531 -16.207031 C -0.238281 -16.265625 0.894531 -16.625 1.847656 -17.039062 L 4.46875 -18.230469 L 5.183594 -18.53125 C 5.363281 -18.648438 5.363281 -18.828125 5.242188 -18.886719 L 5.125 -18.945312 L 5.003906 -18.945312 L 4.886719 -18.886719 C 2.265625 -17.753906 0.476562 -17.039062 -0.359375 -16.863281 C -0.359375 -16.863281 -0.835938 -16.683594 -1.074219 -16.800781 C -1.074219 -17.039062 -1.011719 -17.277344 -0.835938 -17.515625 L 0.179688 -18.351562 C 0.894531 -18.945312 1.074219 -19.246094 0.773438 -19.363281 C 0.65625 -19.421875 0.179688 -19.246094 -0.238281 -18.945312 C -1.3125 -18.054688 -1.789062 -17.457031 -1.789062 -16.863281 L -1.789062 -16.683594 C -1.789062 -16.324219 -1.488281 -16.148438 -0.894531 -16.207031 Z M -0.894531 -16.207031 "/></g></g></g><g fill="#6a7153" fill-opacity="1"><g transform="translate(106.224889, 58.485564)"><g><path d="M 26.871094 -28.242188 C 26.574219 -28.359375 26.097656 -28.421875 24.726562 -28.539062 C 23.476562 -28.660156 14.238281 -29.015625 13.109375 -29.015625 L 11.441406 -29.074219 L 10.308594 -29.074219 C 10.488281 -29.3125 11.023438 -29.910156 11.378906 -30.207031 C 11.617188 -30.386719 11.855469 -30.625 12.09375 -30.921875 C 12.332031 -31.21875 13.167969 -31.996094 13.585938 -32.351562 L 14.179688 -32.828125 L 14.417969 -33.128906 C 14.597656 -33.304688 14.597656 -33.367188 14.476562 -33.542969 C 14.417969 -33.664062 14.300781 -33.722656 14.238281 -33.722656 C 14.121094 -33.722656 13.40625 -33.1875 13.347656 -33.007812 L 12.808594 -32.53125 C 12.15625 -31.996094 12.035156 -31.9375 11.917969 -31.757812 C 11.796875 -31.636719 10.246094 -30.148438 10.007812 -29.96875 L 9.832031 -29.789062 L 9.355469 -29.253906 L 9.117188 -29.015625 L 0.714844 -28.835938 L -0.597656 -28.71875 C -1.609375 -28.660156 -4.46875 -28.421875 -4.945312 -28.300781 C -5.421875 -28.183594 -5.660156 -27.945312 -5.480469 -27.765625 C -5.421875 -27.644531 -4.230469 -27.765625 -3.394531 -27.945312 C -3.21875 -28.003906 -1.789062 -28.183594 -0.359375 -28.242188 L 1.132812 -28.359375 L 2.742188 -28.421875 L 4.707031 -28.539062 C 5.242188 -28.597656 7.269531 -28.597656 8.578125 -28.597656 C 8.519531 -28.480469 8.402344 -28.421875 8.339844 -28.300781 L 8.164062 -28.183594 L 7.984375 -27.945312 L 7.269531 -27.167969 C 6.433594 -26.277344 3.8125 -23.414062 3.277344 -22.640625 C 3.277344 -22.640625 2.324219 -21.507812 2.324219 -21.570312 C 2.324219 -21.507812 2.085938 -21.269531 1.847656 -21.03125 C 1.550781 -20.734375 1.074219 -20.199219 -0.179688 -18.707031 L -0.65625 -18.171875 L -1.132812 -17.578125 C -1.25 -17.398438 -1.3125 -17.277344 -1.371094 -17.277344 C -1.488281 -17.277344 -1.789062 -16.921875 -2.742188 -15.671875 C -3.097656 -15.253906 -3.394531 -14.894531 -3.515625 -14.835938 C -3.574219 -14.714844 -4.171875 -14 -4.824219 -13.226562 L -6.316406 -11.378906 L -8.757812 -8.101562 C -9.355469 -7.269531 -9.710938 -6.792969 -9.832031 -6.851562 L -9.832031 -6.734375 C -9.832031 -6.671875 -9.832031 -6.554688 -9.890625 -6.433594 C -9.949219 -6.257812 -10.007812 -6.195312 -10.070312 -6.257812 C -10.070312 -6.195312 -10.128906 -6.136719 -10.128906 -6.136719 C -10.128906 -6.019531 -10.128906 -5.957031 -10.1875 -5.957031 C -10.1875 -6.019531 -10.367188 -5.660156 -10.488281 -5.242188 C -10.726562 -4.648438 -10.785156 -4.410156 -10.726562 -4.109375 C -10.605469 -3.753906 -10.546875 -3.695312 -10.367188 -3.632812 C -10.128906 -3.632812 -10.007812 -3.632812 -9.949219 -3.753906 C -9.832031 -3.933594 -9.832031 -3.933594 -10.070312 -3.992188 C -10.308594 -3.992188 -10.308594 -4.050781 -10.308594 -4.289062 C -10.246094 -4.585938 -9.769531 -5.601562 -9.355469 -6.257812 C -8.222656 -7.925781 -5.242188 -11.738281 -3.335938 -13.941406 L -2.382812 -15.074219 L -0.417969 -17.339844 L 1.191406 -19.125 L 1.726562 -19.78125 L 2.441406 -20.554688 C 2.980469 -21.152344 3.457031 -21.746094 4.46875 -22.9375 C 4.824219 -23.355469 5.242188 -23.773438 5.421875 -23.953125 C 5.601562 -24.128906 5.898438 -24.488281 6.078125 -24.726562 L 7.089844 -25.796875 C 7.746094 -26.515625 8.164062 -26.871094 8.519531 -27.347656 L 9.054688 -27.882812 C 9.234375 -28.121094 9.414062 -28.242188 9.53125 -28.421875 L 9.832031 -28.597656 C 10.308594 -28.660156 10.664062 -28.597656 10.84375 -28.597656 L 11.082031 -28.597656 C 14.539062 -28.539062 22.820312 -28.300781 24.011719 -28.121094 C 24.367188 -28.003906 24.964844 -28.003906 25.261719 -27.945312 C 25.859375 -27.945312 25.859375 -27.945312 25.738281 -27.707031 C 25.621094 -27.585938 25.679688 -27.46875 25.738281 -27.40625 C 25.859375 -27.289062 25.917969 -27.230469 25.976562 -27.289062 L 26.574219 -27.527344 C 27.230469 -27.824219 27.289062 -28.003906 26.871094 -28.242188 Z M 26.871094 -28.242188 "/></g></g></g><g fill="#6a7153" fill-opacity="1"><g transform="translate(111.289216, 58.485564)"><g><path d="M 1.3125 -16.265625 C 1.550781 -16.207031 1.789062 -16.207031 2.027344 -16.265625 L 2.203125 -16.265625 C 2.203125 -16.265625 3.277344 -16.503906 4.410156 -17.039062 L 7.804688 -18.589844 C 7.925781 -18.648438 7.925781 -18.828125 7.804688 -18.886719 L 7.746094 -18.945312 L 7.566406 -18.945312 L 7.449219 -18.886719 C 4.824219 -17.753906 3.039062 -17.039062 2.265625 -16.863281 C 2.265625 -16.863281 1.488281 -16.625 1.429688 -16.863281 C 1.191406 -17.398438 1.609375 -18.054688 1.90625 -18.410156 C 2.144531 -18.707031 2.742188 -19.421875 2.027344 -19.421875 C 1.90625 -19.421875 1.726562 -19.484375 1.726562 -19.542969 C 1.667969 -19.78125 1.488281 -19.722656 0.476562 -19.183594 C -0.417969 -18.707031 -1.550781 -17.992188 -2.265625 -17.398438 C -2.5625 -17.160156 -2.679688 -17.039062 -2.679688 -16.863281 C -2.679688 -16.5625 -2.503906 -16.503906 -2.144531 -16.503906 C -1.847656 -16.503906 -0.65625 -17.101562 -0.179688 -17.457031 C 0.296875 -17.875 1.074219 -18.292969 1.074219 -18.230469 L 0.894531 -17.816406 C 0.773438 -17.636719 0.714844 -17.398438 0.714844 -17.21875 C 0.65625 -16.980469 0.65625 -16.800781 0.835938 -16.5625 C 0.953125 -16.386719 1.074219 -16.265625 1.3125 -16.265625 Z M -2.027344 -17.039062 L -1.667969 -17.277344 C -1.3125 -17.636719 -0.359375 -18.292969 0.417969 -18.648438 C 1.011719 -19.007812 1.132812 -19.007812 1.132812 -18.886719 C 1.132812 -18.828125 0.953125 -18.707031 0.773438 -18.648438 C 0.296875 -18.410156 0.0585938 -18.230469 -0.0585938 -18.113281 C -0.179688 -17.992188 -1.191406 -17.398438 -1.667969 -17.160156 Z M -2.027344 -17.039062 "/></g></g></g><g fill="#6a7153" fill-opacity="1"><g transform="translate(118.915504, 58.485564)"><g><path d="M 1.371094 -14.179688 L 2.980469 -16.148438 C 4.527344 -18.171875 6.375 -20.199219 7.386719 -21.03125 L 8.460938 -22.046875 L 9.292969 -22.699219 L 10.1875 -23.355469 C 10.546875 -23.59375 11.617188 -24.308594 11.917969 -24.605469 L 12.808594 -25.320312 C 13.523438 -25.796875 15.132812 -27.109375 15.730469 -27.765625 C 16.800781 -28.835938 17.339844 -29.433594 17.875 -30.148438 C 18.351562 -30.804688 18.46875 -30.980469 18.410156 -31.21875 C 18.351562 -31.578125 18.054688 -31.519531 17.398438 -31.160156 C 17.160156 -30.980469 16.625 -30.625 16.324219 -30.328125 L 15.3125 -29.550781 C 14.777344 -29.195312 13.761719 -28.242188 12.871094 -27.289062 C 12.15625 -26.515625 11.976562 -26.335938 11.023438 -25.441406 L 10.425781 -24.84375 L 8.101562 -22.460938 C 7.6875 -22.046875 6.734375 -21.390625 5.78125 -20.914062 C 5.242188 -20.675781 4.648438 -20.316406 4.347656 -20.136719 L 3.394531 -19.542969 L 2.980469 -19.304688 L 2.800781 -19.484375 C 2.382812 -20.019531 1.726562 -19.960938 0.535156 -19.304688 C -0.238281 -18.886719 -1.667969 -17.636719 -2.144531 -16.921875 C -2.5625 -16.324219 -2.382812 -15.96875 -1.726562 -16.207031 C -1.132812 -16.386719 -0.179688 -16.863281 0.296875 -17.160156 L 0.535156 -17.277344 C 0.597656 -17.277344 0.835938 -17.457031 1.132812 -17.636719 L 1.726562 -17.933594 L 2.265625 -18.230469 L 4.289062 -19.484375 C 4.824219 -19.78125 5.242188 -20.019531 5.304688 -20.019531 C 5.304688 -20.019531 5.0625 -19.722656 4.765625 -19.484375 C 3.992188 -18.707031 0.835938 -14.777344 0.835938 -14.539062 C 0.894531 -14.238281 1.191406 -14.0625 1.371094 -14.179688 Z M 10.84375 -24.191406 C 10.546875 -24.070312 11.320312 -24.964844 12.511719 -26.035156 L 13.285156 -26.8125 C 13.703125 -27.347656 14.121094 -27.765625 14.65625 -28.242188 L 15.132812 -28.71875 L 15.910156 -29.375 C 17.515625 -30.566406 17.753906 -30.625 16.863281 -29.550781 C 16.324219 -28.835938 15.910156 -28.480469 14.476562 -27.109375 C 13.941406 -26.632812 13.226562 -26.035156 12.808594 -25.738281 L 11.855469 -24.964844 Z M -1.132812 -17.101562 C -1.3125 -17.101562 -0.894531 -17.578125 -0.359375 -18.054688 L 0.121094 -18.46875 C 0.179688 -18.53125 0.359375 -18.648438 0.65625 -18.769531 L 1.25 -19.066406 C 1.429688 -19.125 1.847656 -19.125 1.964844 -19.066406 C 2.085938 -18.945312 1.789062 -18.589844 1.3125 -18.351562 C 1.011719 -18.171875 0.773438 -18.054688 0.714844 -17.992188 C 0.65625 -17.992188 0.238281 -17.816406 -0.238281 -17.578125 C -0.65625 -17.339844 -1.074219 -17.101562 -1.132812 -17.101562 Z M -1.132812 -17.101562 "/></g></g></g><g fill="#6a7153" fill-opacity="1"><g transform="translate(128.388784, 58.485564)"><g><path d="M 1.3125 -16.265625 C 1.550781 -16.207031 1.789062 -16.207031 2.027344 -16.265625 L 2.203125 -16.265625 C 2.203125 -16.265625 3.277344 -16.503906 4.410156 -17.039062 L 7.804688 -18.589844 C 7.925781 -18.648438 7.925781 -18.828125 7.804688 -18.886719 L 7.746094 -18.945312 L 7.566406 -18.945312 L 7.449219 -18.886719 C 4.824219 -17.753906 3.039062 -17.039062 2.265625 -16.863281 C 2.265625 -16.863281 1.488281 -16.625 1.429688 -16.863281 C 1.191406 -17.398438 1.609375 -18.054688 1.90625 -18.410156 C 2.144531 -18.707031 2.742188 -19.421875 2.027344 -19.421875 C 1.90625 -19.421875 1.726562 -19.484375 1.726562 -19.542969 C 1.667969 -19.78125 1.488281 -19.722656 0.476562 -19.183594 C -0.417969 -18.707031 -1.550781 -17.992188 -2.265625 -17.398438 C -2.5625 -17.160156 -2.679688 -17.039062 -2.679688 -16.863281 C -2.679688 -16.5625 -2.503906 -16.503906 -2.144531 -16.503906 C -1.847656 -16.503906 -0.65625 -17.101562 -0.179688 -17.457031 C 0.296875 -17.875 1.074219 -18.292969 1.074219 -18.230469 L 0.894531 -17.816406 C 0.773438 -17.636719 0.714844 -17.398438 0.714844 -17.21875 C 0.65625 -16.980469 0.65625 -16.800781 0.835938 -16.5625 C 0.953125 -16.386719 1.074219 -16.265625 1.3125 -16.265625 Z M -2.027344 -17.039062 L -1.667969 -17.277344 C -1.3125 -17.636719 -0.359375 -18.292969 0.417969 -18.648438 C 1.011719 -19.007812 1.132812 -19.007812 1.132812 -18.886719 C 1.132812 -18.828125 0.953125 -18.707031 0.773438 -18.648438 C 0.296875 -18.410156 0.0585938 -18.230469 -0.0585938 -18.113281 C -0.179688 -17.992188 -1.191406 -17.398438 -1.667969 -17.160156 Z M -2.027344 -17.039062 "/></g></g></g><g fill="#6a7153" fill-opacity="1"><g transform="translate(136.015072, 58.485564)"><g><path d="M -2.265625 -13.40625 C -1.550781 -13.585938 -0.179688 -14.777344 0.0585938 -15.371094 C 0.179688 -15.550781 0.296875 -15.910156 0.359375 -16.148438 C 0.417969 -16.445312 0.535156 -16.625 0.714844 -16.742188 L 1.3125 -16.980469 C 1.789062 -17.21875 2.5625 -17.457031 3.335938 -17.695312 C 2.859375 -17.515625 4.410156 -17.992188 5.480469 -18.292969 C 5.957031 -18.410156 6.078125 -18.53125 5.898438 -18.707031 C 5.78125 -18.828125 5.660156 -18.828125 5.304688 -18.707031 C 4.585938 -18.589844 1.488281 -17.753906 0.835938 -17.339844 C 0.417969 -17.160156 0.296875 -17.339844 0.359375 -18.171875 C 0.476562 -18.945312 0.476562 -19.007812 0.773438 -19.066406 C 1.191406 -19.183594 1.3125 -19.421875 1.074219 -19.722656 C 0.894531 -19.898438 0.714844 -19.839844 0.296875 -19.601562 C -0.238281 -19.304688 -0.296875 -19.066406 -0.296875 -17.933594 C -0.296875 -17.398438 -0.359375 -16.921875 -0.359375 -16.800781 C -0.417969 -16.742188 -0.65625 -16.625 -0.894531 -16.503906 C -1.132812 -16.445312 -1.3125 -16.324219 -1.371094 -16.324219 L -2.027344 -15.847656 C -2.859375 -15.371094 -3.21875 -15.015625 -3.277344 -14.539062 C -3.277344 -14.179688 -3.277344 -14.0625 -3.097656 -13.882812 C -2.980469 -13.761719 -2.859375 -13.585938 -2.859375 -13.585938 C -2.859375 -13.40625 -2.503906 -13.285156 -2.265625 -13.40625 Z M -2.265625 -14.0625 C -2.503906 -14.0625 -2.742188 -14.300781 -2.742188 -14.539062 C -2.742188 -14.894531 -1.726562 -15.492188 -1.609375 -15.550781 L -1.011719 -15.910156 L -0.597656 -16.148438 L -0.597656 -15.847656 C -0.65625 -15.492188 -0.773438 -15.3125 -1.429688 -14.65625 C -1.789062 -14.300781 -2.144531 -14.0625 -2.265625 -14.0625 Z M -2.265625 -14.0625 "/></g></g></g><g fill="#6a7153" fill-opacity="1"><g transform="translate(42.231, 65.230969)"><g><path d="M 0.375 0 L 0.925781 0 L 0.925781 -3.792969 C 1.222656 -4.324219 1.816406 -4.832031 2.175781 -4.832031 C 2.378906 -4.832031 2.570312 -4.675781 2.570312 -4.507812 C 2.570312 -4.34375 2.738281 -4.1875 2.902344 -4.1875 C 3.066406 -4.1875 3.222656 -4.34375 3.222656 -4.507812 C 3.222656 -4.804688 2.828125 -5.085938 2.433594 -5.085938 C 1.984375 -5.085938 1.257812 -4.5 0.925781 -3.882812 L 0.925781 -4.996094 L 0.652344 -4.996094 L 0.238281 -4.886719 L 0.238281 -4.839844 L 0.265625 -4.839844 C 0.320312 -4.820312 0.375 -4.609375 0.375 -4.398438 Z M 0.375 0 "/></g></g></g><g fill="#6a7153" fill-opacity="1"><g transform="translate(45.545923, 65.230969)"><g><path d="M 2.679688 0.09375 C 3.535156 0.09375 4.589844 -0.605469 4.8125 -1.3125 L 4.785156 -1.3125 C 4.589844 -0.6875 3.574219 -0.0742188 2.738281 -0.0742188 C 1.855469 -0.0742188 0.992188 -1.304688 0.992188 -2.5625 C 0.992188 -2.863281 1.027344 -3.140625 1.09375 -3.398438 L 4.949219 -3.398438 C 4.847656 -4.425781 3.855469 -5.085938 2.910156 -5.085938 C 1.652344 -5.085938 0.414062 -4.003906 0.414062 -2.339844 C 0.414062 -1.109375 1.535156 0.09375 2.679688 0.09375 Z M 1.101562 -3.433594 C 1.386719 -4.433594 2.140625 -5.050781 2.902344 -5.050781 C 3.535156 -5.050781 4.214844 -4.417969 4.335938 -3.445312 Z M 1.101562 -3.433594 "/></g></g></g><g fill="#6a7153" fill-opacity="1"><g transform="translate(50.77083, 65.230969)"><g><path d="M 2.1875 0.0742188 C 2.929688 0.0742188 3.664062 -0.578125 3.664062 -1.25 C 3.664062 -1.746094 3.058594 -2.453125 2.304688 -2.726562 C 1.550781 -3.003906 0.945312 -3.636719 0.945312 -4.066406 C 0.945312 -4.574219 1.40625 -5.070312 1.882812 -5.070312 C 2.074219 -5.070312 2.296875 -5.003906 2.507812 -4.894531 C 2.773438 -4.746094 3.195312 -4.335938 3.351562 -4.03125 C 3.359375 -4.023438 3.371094 -3.984375 3.378906 -3.976562 L 3.425781 -3.96875 L 3.425781 -4.554688 L 3.398438 -4.554688 C 3.398438 -4.535156 3.386719 -4.519531 3.386719 -4.5 C 3.386719 -4.5 2.691406 -4.894531 2.542969 -4.96875 L 2.535156 -4.960938 C 2.3125 -5.042969 2.085938 -5.097656 1.882812 -5.097656 C 1.210938 -5.097656 0.550781 -4.492188 0.550781 -3.867188 C 0.550781 -3.351562 1.222656 -2.597656 2.066406 -2.296875 C 2.71875 -2.058594 3.242188 -1.488281 3.242188 -1.09375 C 3.242188 -0.515625 2.71875 0.046875 2.1875 0.046875 C 1.945312 0.046875 1.652344 -0.0742188 1.386719 -0.257812 C 1.140625 -0.441406 0.769531 -0.882812 0.605469 -1.183594 C 0.597656 -1.195312 0.585938 -1.230469 0.578125 -1.238281 L 0.542969 -1.238281 L 0.542969 -0.550781 L 0.578125 -0.550781 L 0.578125 -0.625 C 0.585938 -0.671875 0.84375 -0.53125 1.101562 -0.339844 C 1.433594 -0.09375 1.847656 0.0742188 2.1875 0.0742188 Z M 2.1875 0.0742188 "/></g></g></g><g fill="#6a7153" fill-opacity="1"><g transform="translate(54.903005, 65.230969)"><g><path d="M 2.679688 0.09375 C 3.535156 0.09375 4.589844 -0.605469 4.8125 -1.3125 L 4.785156 -1.3125 C 4.589844 -0.6875 3.574219 -0.0742188 2.738281 -0.0742188 C 1.855469 -0.0742188 0.992188 -1.304688 0.992188 -2.5625 C 0.992188 -2.863281 1.027344 -3.140625 1.09375 -3.398438 L 4.949219 -3.398438 C 4.847656 -4.425781 3.855469 -5.085938 2.910156 -5.085938 C 1.652344 -5.085938 0.414062 -4.003906 0.414062 -2.339844 C 0.414062 -1.109375 1.535156 0.09375 2.679688 0.09375 Z M 1.101562 -3.433594 C 1.386719 -4.433594 2.140625 -5.050781 2.902344 -5.050781 C 3.535156 -5.050781 4.214844 -4.417969 4.335938 -3.445312 Z M 1.101562 -3.433594 "/></g></g></g><g fill="#6a7153" fill-opacity="1"><g transform="translate(60.127912, 65.230969)"><g><path d="M 0.375 0 L 0.925781 0 L 0.925781 -3.792969 C 1.222656 -4.324219 1.816406 -4.832031 2.175781 -4.832031 C 2.378906 -4.832031 2.570312 -4.675781 2.570312 -4.507812 C 2.570312 -4.34375 2.738281 -4.1875 2.902344 -4.1875 C 3.066406 -4.1875 3.222656 -4.34375 3.222656 -4.507812 C 3.222656 -4.804688 2.828125 -5.085938 2.433594 -5.085938 C 1.984375 -5.085938 1.257812 -4.5 0.925781 -3.882812 L 0.925781 -4.996094 L 0.652344 -4.996094 L 0.238281 -4.886719 L 0.238281 -4.839844 L 0.265625 -4.839844 C 0.320312 -4.820312 0.375 -4.609375 0.375 -4.398438 Z M 0.375 0 "/></g></g></g><g fill="#6a7153" fill-opacity="1"><g transform="translate(63.442835, 65.230969)"><g><path d="M 1.808594 0.09375 L 1.972656 0.09375 L 3.636719 -4.519531 C 3.738281 -4.773438 3.847656 -4.96875 3.941406 -4.96875 L 3.941406 -4.996094 L 3.417969 -4.996094 L 3.417969 -4.96875 L 3.433594 -4.96875 C 3.488281 -4.96875 3.460938 -4.71875 3.371094 -4.464844 L 2.121094 -0.816406 C 1.734375 -2.03125 1.339844 -3.25 0.964844 -4.464844 C 0.882812 -4.71875 0.855469 -4.96875 0.910156 -4.96875 L 0.925781 -4.96875 L 0.917969 -4.996094 L 0.0546875 -4.996094 L 0.0546875 -4.96875 C 0.136719 -4.96875 0.21875 -4.8125 0.3125 -4.582031 Z M 1.808594 0.09375 "/></g></g></g><g fill="#6a7153" fill-opacity="1"><g transform="translate(67.648472, 65.230969)"><g><path d="M 2.679688 0.09375 C 3.535156 0.09375 4.589844 -0.605469 4.8125 -1.3125 L 4.785156 -1.3125 C 4.589844 -0.6875 3.574219 -0.0742188 2.738281 -0.0742188 C 1.855469 -0.0742188 0.992188 -1.304688 0.992188 -2.5625 C 0.992188 -2.863281 1.027344 -3.140625 1.09375 -3.398438 L 4.949219 -3.398438 C 4.847656 -4.425781 3.855469 -5.085938 2.910156 -5.085938 C 1.652344 -5.085938 0.414062 -4.003906 0.414062 -2.339844 C 0.414062 -1.109375 1.535156 0.09375 2.679688 0.09375 Z M 1.101562 -3.433594 C 1.386719 -4.433594 2.140625 -5.050781 2.902344 -5.050781 C 3.535156 -5.050781 4.214844 -4.417969 4.335938 -3.445312 Z M 1.101562 -3.433594 "/></g></g></g><g fill="#6a7153" fill-opacity="1"><g transform="translate(72.873379, 65.230969)"><g/></g></g><g fill="#6a7153" fill-opacity="1"><g transform="translate(75.472058, 65.230969)"><g><path d="M 0.6875 -6.050781 C 0.871094 -6.050781 1.046875 -6.226562 1.046875 -6.410156 C 1.046875 -6.59375 0.871094 -6.769531 0.6875 -6.769531 C 0.503906 -6.769531 0.332031 -6.59375 0.332031 -6.410156 C 0.332031 -6.226562 0.503906 -6.050781 0.6875 -6.050781 Z M -0.871094 1.699219 C -0.828125 1.699219 -0.347656 1.441406 0.09375 1.195312 C 0.53125 0.9375 0.964844 0.191406 0.964844 -0.320312 L 0.964844 -4.996094 L 0.6875 -4.996094 L 0.277344 -4.886719 L 0.277344 -4.839844 L 0.304688 -4.839844 C 0.359375 -4.820312 0.414062 -4.609375 0.414062 -4.398438 L 0.414062 -0.320312 C 0.414062 0.304688 0.21875 1.027344 0.0195312 1.148438 C -0.238281 1.148438 -0.753906 0.917969 -1.011719 0.917969 C -1.222656 0.917969 -1.421875 1.101562 -1.421875 1.285156 C -1.421875 1.515625 -1.148438 1.71875 -0.871094 1.699219 Z M -0.871094 1.699219 "/></g></g></g><g fill="#6a7153" fill-opacity="1"><g transform="translate(77.262668, 65.230969)"><g><path d="M 2.609375 -5.574219 L 3.894531 -6.695312 C 4.207031 -6.980469 4.519531 -7.273438 4.519531 -7.308594 C 4.519531 -7.4375 4.371094 -7.585938 4.242188 -7.585938 C 4.207031 -7.585938 3.910156 -7.273438 3.636719 -6.953125 L 2.535156 -5.648438 Z M 1.605469 0.09375 C 1.992188 0.09375 2.746094 -0.257812 3.359375 -0.800781 C 3.359375 -0.375 3.785156 0.046875 4.207031 0.046875 C 4.554688 0.046875 4.96875 -0.367188 5.042969 -0.78125 L 4.976562 -0.816406 C 4.929688 -0.578125 4.664062 -0.347656 4.425781 -0.347656 C 4.167969 -0.347656 3.921875 -0.570312 3.921875 -0.800781 L 3.921875 -3.574219 C 3.921875 -4.453125 3.242188 -5.085938 2.542969 -5.085938 C 1.589844 -5.085938 0.652344 -4.125 0.652344 -3.710938 C 0.652344 -3.515625 0.789062 -3.324219 0.9375 -3.324219 C 1.101562 -3.324219 1.257812 -3.5 1.257812 -3.601562 C 1.257812 -3.71875 1.074219 -3.96875 1.074219 -4.066406 C 1.074219 -4.363281 1.773438 -5.03125 2.488281 -5.03125 C 2.929688 -5.03125 3.371094 -4.507812 3.371094 -3.773438 L 3.371094 -2.664062 C 1.394531 -2.304688 0.476562 -1.816406 0.476562 -0.828125 C 0.476562 -0.367188 1.039062 0.09375 1.605469 0.09375 Z M 1.882812 -0.203125 C 1.441406 -0.203125 1.011719 -0.542969 1.011719 -0.890625 C 1.011719 -1.882812 1.753906 -2.339844 3.351562 -2.625 L 3.359375 -2.625 L 3.359375 -0.835938 C 2.902344 -0.449219 2.257812 -0.203125 1.882812 -0.203125 Z M 1.882812 -0.203125 "/></g></g></g><g fill="#6a7153" fill-opacity="1"><g transform="translate(82.212096, 65.230969)"><g/></g></g><g fill="#6a7153" fill-opacity="1"><g transform="translate(84.810776, 65.230969)"><g><path d="M 1.605469 0.09375 C 1.992188 0.09375 2.746094 -0.257812 3.359375 -0.800781 C 3.359375 -0.375 3.785156 0.046875 4.207031 0.046875 C 4.554688 0.046875 4.96875 -0.367188 5.042969 -0.78125 L 4.976562 -0.816406 C 4.929688 -0.578125 4.664062 -0.347656 4.425781 -0.347656 C 4.167969 -0.347656 3.921875 -0.570312 3.921875 -0.800781 L 3.921875 -3.574219 C 3.921875 -4.453125 3.242188 -5.085938 2.542969 -5.085938 C 1.589844 -5.085938 0.652344 -4.125 0.652344 -3.710938 C 0.652344 -3.515625 0.789062 -3.324219 0.9375 -3.324219 C 1.101562 -3.324219 1.257812 -3.5 1.257812 -3.601562 C 1.257812 -3.71875 1.074219 -3.96875 1.074219 -4.066406 C 1.074219 -4.363281 1.773438 -5.03125 2.488281 -5.03125 C 2.929688 -5.03125 3.371094 -4.507812 3.371094 -3.773438 L 3.371094 -2.664062 C 1.394531 -2.304688 0.476562 -1.816406 0.476562 -0.828125 C 0.476562 -0.367188 1.039062 0.09375 1.605469 0.09375 Z M 1.882812 -0.203125 C 1.441406 -0.203125 1.011719 -0.542969 1.011719 -0.890625 C 1.011719 -1.882812 1.753906 -2.339844 3.351562 -2.625 L 3.359375 -2.625 L 3.359375 -0.835938 C 2.902344 -0.449219 2.257812 -0.203125 1.882812 -0.203125 Z M 1.882812 -0.203125 "/></g></g></g><g fill="#6a7153" fill-opacity="1"><g transform="translate(89.760204, 65.230969)"><g/></g></g><g fill="#6a7153" fill-opacity="1"><g transform="translate(92.358883, 65.230969)"><g><path d="M 2.1875 0.0742188 C 2.929688 0.0742188 3.664062 -0.578125 3.664062 -1.25 C 3.664062 -1.746094 3.058594 -2.453125 2.304688 -2.726562 C 1.550781 -3.003906 0.945312 -3.636719 0.945312 -4.066406 C 0.945312 -4.574219 1.40625 -5.070312 1.882812 -5.070312 C 2.074219 -5.070312 2.296875 -5.003906 2.507812 -4.894531 C 2.773438 -4.746094 3.195312 -4.335938 3.351562 -4.03125 C 3.359375 -4.023438 3.371094 -3.984375 3.378906 -3.976562 L 3.425781 -3.96875 L 3.425781 -4.554688 L 3.398438 -4.554688 C 3.398438 -4.535156 3.386719 -4.519531 3.386719 -4.5 C 3.386719 -4.5 2.691406 -4.894531 2.542969 -4.96875 L 2.535156 -4.960938 C 2.3125 -5.042969 2.085938 -5.097656 1.882812 -5.097656 C 1.210938 -5.097656 0.550781 -4.492188 0.550781 -3.867188 C 0.550781 -3.351562 1.222656 -2.597656 2.066406 -2.296875 C 2.71875 -2.058594 3.242188 -1.488281 3.242188 -1.09375 C 3.242188 -0.515625 2.71875 0.046875 2.1875 0.046875 C 1.945312 0.046875 1.652344 -0.0742188 1.386719 -0.257812 C 1.140625 -0.441406 0.769531 -0.882812 0.605469 -1.183594 C 0.597656 -1.195312 0.585938 -1.230469 0.578125 -1.238281 L 0.542969 -1.238281 L 0.542969 -0.550781 L 0.578125 -0.550781 L 0.578125 -0.625 C 0.585938 -0.671875 0.84375 -0.53125 1.101562 -0.339844 C 1.433594 -0.09375 1.847656 0.0742188 2.1875 0.0742188 Z M 2.1875 0.0742188 "/></g></g></g><g fill="#6a7153" fill-opacity="1"><g transform="translate(96.491059, 65.230969)"><g><path d="M 1.679688 0.0820312 C 2.304688 0.0820312 3.132812 -0.523438 3.445312 -1.175781 L 3.445312 -0.0078125 L 3.726562 -0.0078125 C 3.792969 -0.046875 3.910156 -0.0820312 4.003906 -0.0820312 L 4.003906 -4.996094 L 3.726562 -4.996094 L 3.726562 -5.003906 L 3.445312 -5.003906 L 3.445312 -1.230469 C 3.1875 -0.742188 2.488281 -0.304688 1.9375 -0.304688 C 1.40625 -0.304688 0.882812 -0.917969 0.882812 -1.542969 L 0.882812 -5.003906 L 0.332031 -5.003906 L 0.332031 -1.542969 C 0.332031 -0.726562 1 0.0820312 1.679688 0.0820312 Z M 1.679688 0.0820312 "/></g></g></g><g fill="#6a7153" fill-opacity="1"><g transform="translate(100.8528, 65.230969)"><g><path d="M 1.605469 0.09375 C 1.992188 0.09375 2.746094 -0.257812 3.359375 -0.800781 C 3.359375 -0.375 3.785156 0.046875 4.207031 0.046875 C 4.554688 0.046875 4.96875 -0.367188 5.042969 -0.78125 L 4.976562 -0.816406 C 4.929688 -0.578125 4.664062 -0.347656 4.425781 -0.347656 C 4.167969 -0.347656 3.921875 -0.570312 3.921875 -0.800781 L 3.921875 -3.574219 C 3.921875 -4.453125 3.242188 -5.085938 2.542969 -5.085938 C 1.589844 -5.085938 0.652344 -4.125 0.652344 -3.710938 C 0.652344 -3.515625 0.789062 -3.324219 0.9375 -3.324219 C 1.101562 -3.324219 1.257812 -3.5 1.257812 -3.601562 C 1.257812 -3.71875 1.074219 -3.96875 1.074219 -4.066406 C 1.074219 -4.363281 1.773438 -5.03125 2.488281 -5.03125 C 2.929688 -5.03125 3.371094 -4.507812 3.371094 -3.773438 L 3.371094 -2.664062 C 1.394531 -2.304688 0.476562 -1.816406 0.476562 -0.828125 C 0.476562 -0.367188 1.039062 0.09375 1.605469 0.09375 Z M 1.882812 -0.203125 C 1.441406 -0.203125 1.011719 -0.542969 1.011719 -0.890625 C 1.011719 -1.882812 1.753906 -2.339844 3.351562 -2.625 L 3.359375 -2.625 L 3.359375 -0.835938 C 2.902344 -0.449219 2.257812 -0.203125 1.882812 -0.203125 Z M 1.882812 -0.203125 "/></g></g></g><g fill="#6a7153" fill-opacity="1"><g transform="translate(105.802225, 65.230969)"><g><path d="M 0.925781 -2.09375 L 1.027344 -2.09375 L 1.324219 -6.511719 C 1.351562 -6.925781 1.203125 -7.335938 0.984375 -7.335938 C 0.761719 -7.335938 0.617188 -6.925781 0.644531 -6.511719 Z M 0.984375 0.046875 C 1.175781 0.046875 1.367188 -0.148438 1.367188 -0.339844 C 1.367188 -0.542969 1.175781 -0.734375 0.984375 -0.734375 C 0.789062 -0.734375 0.597656 -0.542969 0.597656 -0.339844 C 0.597656 -0.148438 0.789062 0.046875 0.984375 0.046875 Z M 0.984375 0.046875 "/></g></g></g></svg>