<svg xmlns="http://www.w3.org/2000/svg" xmlns:xlink="http://www.w3.org/1999/xlink" width="200" zoomAndPan="magnify" viewBox="0 0 150 60" height="80" preserveAspectRatio="xMidYMid meet" version="1.0"><defs><g/></defs><g fill="#6a7153" fill-opacity="1"><g transform="translate(6.382918, 52.228439)"><g><path d="M 5.851562 0.164062 C 6.070312 0.164062 6.457031 -0.0546875 6.84375 -0.386719 C 7.007812 -0.550781 7.175781 -0.664062 7.175781 -0.664062 C 7.230469 -0.664062 7.339844 -0.71875 7.394531 -0.828125 L 8.886719 -2.097656 L 9.988281 -2.980469 C 10.15625 -3.144531 10.429688 -3.367188 10.542969 -3.421875 C 10.652344 -3.476562 10.984375 -3.753906 11.371094 -4.085938 L 12.472656 -4.96875 L 13.300781 -5.683594 L 13.910156 -6.183594 C 14.460938 -6.625 15.125 -7.175781 15.507812 -7.5625 L 16.226562 -8.222656 L 17.277344 -9.050781 L 17.992188 -9.714844 L 19.816406 -11.371094 C 19.980469 -11.480469 20.144531 -11.644531 20.144531 -11.699219 C 20.144531 -11.8125 20.199219 -11.867188 20.257812 -11.867188 C 20.367188 -11.867188 20.640625 -12.03125 21.25 -12.640625 L 21.746094 -13.082031 L 23.070312 -14.238281 L 25.941406 -16.835938 L 26.4375 -17.164062 L 26.824219 -17.550781 C 26.878906 -17.71875 26.988281 -17.828125 27.101562 -17.828125 C 27.15625 -17.882812 27.375 -18.046875 27.542969 -18.269531 C 27.707031 -18.433594 27.929688 -18.601562 27.929688 -18.601562 C 27.984375 -18.601562 28.425781 -18.988281 28.867188 -19.429688 C 29.308594 -19.871094 29.695312 -20.257812 29.75 -20.257812 C 29.804688 -20.257812 29.804688 -20.257812 29.804688 -20.3125 C 29.804688 -20.367188 33.335938 -23.953125 33.832031 -24.449219 C 34.550781 -25.113281 34.882812 -25.445312 34.828125 -25.5 C 34.828125 -25.554688 35.160156 -25.886719 35.269531 -25.886719 C 35.324219 -25.886719 35.433594 -25.941406 35.542969 -26.050781 L 40.015625 -30.355469 C 40.402344 -30.6875 40.789062 -31.019531 40.898438 -31.074219 C 41.285156 -31.238281 41.5625 -32.066406 41.394531 -32.453125 C 41.285156 -32.621094 40.953125 -32.621094 40.84375 -32.453125 C 40.789062 -32.398438 40.734375 -32.234375 40.675781 -32.066406 C 40.511719 -31.515625 39.90625 -30.796875 38.195312 -29.140625 L 32.121094 -23.179688 C 28.3125 -19.429688 26.933594 -18.101562 26.21875 -17.496094 L 24.617188 -16.0625 L 19.925781 -11.757812 C 19.871094 -11.757812 18.324219 -10.429688 17.550781 -9.769531 C 16.667969 -8.941406 16.613281 -8.886719 16.558594 -8.886719 C 16.503906 -8.886719 16.390625 -8.777344 16.28125 -8.664062 C 16.171875 -8.554688 16.007812 -8.390625 15.949219 -8.390625 L 15.398438 -7.949219 L 14.847656 -7.449219 L 14.019531 -6.789062 L 10.816406 -4.195312 L 10.320312 -3.808594 L 8.941406 -2.703125 L 8.335938 -2.207031 C 7.835938 -1.710938 6.292969 -0.550781 6.125 -0.550781 C 5.851562 -0.605469 6.292969 -2.097656 6.898438 -3.257812 L 7.449219 -4.25 L 8.277344 -5.628906 L 8.996094 -6.734375 L 9.382812 -7.394531 L 9.660156 -7.835938 L 9.988281 -8.390625 L 10.597656 -9.328125 L 11.371094 -10.429688 L 12.199219 -11.535156 L 12.75 -12.253906 C 12.859375 -12.363281 13.246094 -12.96875 13.578125 -13.410156 C 14.40625 -14.460938 14.957031 -15.125 15.566406 -15.839844 L 16.335938 -16.835938 L 17.386719 -17.992188 L 18.765625 -19.59375 C 19.484375 -20.476562 20.808594 -22.351562 21.46875 -23.015625 L 25.445312 -27.375 C 26.933594 -28.976562 28.535156 -30.46875 29.582031 -31.625 C 30.742188 -32.894531 32.839844 -34.992188 33.832031 -35.875 C 34.332031 -36.316406 35.214844 -37.144531 35.710938 -37.640625 L 37.089844 -38.910156 C 38.195312 -40.015625 38.746094 -40.734375 38.636719 -41.0625 C 38.582031 -41.285156 38.027344 -41.5625 37.695312 -41.5625 C 37.585938 -41.5625 37.476562 -41.617188 37.421875 -41.671875 C 37.3125 -41.726562 37.035156 -41.78125 36.703125 -41.78125 L 35.875 -41.890625 C 35.269531 -42.003906 32.234375 -42.058594 31.238281 -42.003906 L 28.976562 -41.890625 L 27.597656 -41.78125 L 26.769531 -41.726562 L 24.835938 -41.5625 L 22.628906 -41.285156 L 20.585938 -41.0625 C 18.710938 -40.84375 17.992188 -40.734375 17.109375 -40.566406 L 15.839844 -40.292969 C 15.566406 -40.234375 14.019531 -39.792969 13.578125 -39.683594 L 13.136719 -39.574219 C 12.085938 -39.242188 9.988281 -38.523438 9.878906 -38.359375 C 9.4375 -37.972656 9.933594 -37.917969 10.816406 -38.25 C 11.535156 -38.523438 13.246094 -39.078125 13.910156 -39.242188 L 14.738281 -39.519531 C 15.839844 -39.851562 20.144531 -40.621094 21.304688 -40.675781 L 23.402344 -40.898438 C 24.121094 -41.007812 25.113281 -41.121094 25.554688 -41.121094 C 25.777344 -41.121094 26.105469 -41.121094 26.160156 -41.175781 C 26.382812 -41.285156 29.914062 -41.449219 32.453125 -41.449219 C 35.65625 -41.449219 36.871094 -41.339844 37.421875 -40.898438 C 37.53125 -40.84375 37.53125 -40.789062 37.421875 -40.621094 C 37.3125 -40.457031 37.253906 -40.347656 37.199219 -40.347656 L 37.089844 -40.179688 C 37.089844 -40.070312 36.871094 -39.792969 36.648438 -39.574219 C 35.984375 -38.855469 33.335938 -36.316406 32.730469 -35.820312 L 32.066406 -35.214844 C 31.957031 -35.101562 31.902344 -35.046875 31.847656 -35.101562 L 31.847656 -35.046875 C 31.847656 -34.9375 30.910156 -34 30.082031 -33.117188 L 29.582031 -32.675781 L 29.308594 -32.34375 C 27.929688 -30.796875 25.554688 -28.3125 24.394531 -27.15625 L 24.0625 -26.769531 L 23.125 -25.71875 C 21.082031 -23.511719 19.042969 -20.917969 18.820312 -20.53125 C 18.765625 -20.421875 18.65625 -20.367188 18.601562 -20.3125 C 18.546875 -20.3125 18.488281 -20.3125 18.488281 -20.257812 C 18.488281 -20.199219 17.992188 -19.59375 17.164062 -18.601562 L 16.171875 -17.496094 L 15.621094 -16.777344 L 14.957031 -16.007812 L 14.183594 -15.011719 L 13.246094 -13.910156 C 13.027344 -13.578125 12.695312 -13.027344 12.527344 -12.804688 L 11.8125 -11.921875 L 11.535156 -11.535156 C 11.425781 -11.425781 10.210938 -9.824219 10.210938 -9.769531 C 10.210938 -9.714844 10.15625 -9.605469 10.046875 -9.546875 C 9.988281 -9.4375 9.878906 -9.328125 9.878906 -9.273438 C 9.878906 -9.21875 9.824219 -9.105469 9.769531 -8.996094 L 9.4375 -8.554688 L 9.164062 -8.113281 C 8.71875 -7.507812 7.78125 -5.851562 7.78125 -5.796875 C 7.78125 -5.738281 7.671875 -5.574219 7.5625 -5.464844 C 7.449219 -5.410156 7.339844 -5.242188 7.339844 -5.1875 C 7.339844 -5.132812 7.285156 -5.078125 7.285156 -5.078125 C 7.230469 -5.078125 7.175781 -5.023438 7.175781 -4.96875 C 7.175781 -4.855469 7.007812 -4.527344 6.953125 -4.414062 L 6.566406 -3.753906 C 6.347656 -3.421875 6.183594 -3.144531 6.183594 -3.203125 C 6.125 -3.203125 6.125 -3.203125 6.125 -3.144531 C 6.183594 -3.089844 6.183594 -2.980469 6.125 -2.871094 C 5.90625 -2.484375 5.519531 -1.269531 5.519531 -0.9375 C 5.464844 -0.386719 5.628906 0.109375 5.851562 0.164062 Z M 5.851562 0.164062 "/></g></g></g><g fill="#6a7153" fill-opacity="1"><g transform="translate(38.449827, 52.228439)"><g><path d="M 1.214844 -15.066406 C 1.433594 -15.011719 1.65625 -15.011719 1.875 -15.066406 L 2.042969 -15.066406 C 2.042969 -15.066406 3.035156 -15.289062 4.085938 -15.785156 L 7.230469 -17.21875 C 7.339844 -17.277344 7.339844 -17.441406 7.230469 -17.496094 L 7.175781 -17.550781 L 7.007812 -17.550781 L 6.898438 -17.496094 C 4.46875 -16.449219 2.816406 -15.785156 2.097656 -15.621094 C 2.097656 -15.621094 1.378906 -15.398438 1.324219 -15.621094 C 1.105469 -16.117188 1.488281 -16.722656 1.765625 -17.054688 C 1.988281 -17.332031 2.539062 -17.992188 1.875 -17.992188 C 1.765625 -17.992188 1.601562 -18.046875 1.601562 -18.101562 C 1.546875 -18.324219 1.378906 -18.269531 0.441406 -17.773438 C -0.386719 -17.332031 -1.433594 -16.667969 -2.097656 -16.117188 C -2.375 -15.894531 -2.484375 -15.785156 -2.484375 -15.621094 C -2.484375 -15.34375 -2.316406 -15.289062 -1.988281 -15.289062 C -1.710938 -15.289062 -0.605469 -15.839844 -0.164062 -16.171875 C 0.277344 -16.558594 0.992188 -16.945312 0.992188 -16.890625 L 0.828125 -16.503906 C 0.71875 -16.335938 0.664062 -16.117188 0.664062 -15.949219 C 0.605469 -15.730469 0.605469 -15.566406 0.773438 -15.34375 C 0.882812 -15.179688 0.992188 -15.066406 1.214844 -15.066406 Z M -1.875 -15.785156 L -1.546875 -16.007812 C -1.214844 -16.335938 -0.332031 -16.945312 0.386719 -17.277344 C 0.9375 -17.605469 1.046875 -17.605469 1.046875 -17.496094 C 1.046875 -17.441406 0.882812 -17.332031 0.71875 -17.277344 C 0.277344 -17.054688 0.0546875 -16.890625 -0.0546875 -16.777344 C -0.164062 -16.667969 -1.105469 -16.117188 -1.546875 -15.894531 Z M -1.875 -15.785156 "/></g></g></g><g fill="#6a7153" fill-opacity="1"><g transform="translate(45.514482, 52.228439)"><g><path d="M -18.433594 1.378906 C -17.882812 1.324219 -16.835938 0.9375 -16.007812 0.496094 L -15.234375 0.0546875 L -14.679688 -0.277344 L -13.410156 -1.160156 L -11.09375 -2.925781 L -8.5 -5.023438 C -7.339844 -5.960938 -5.355469 -7.894531 -4.46875 -8.941406 C -4.027344 -9.492188 -3.53125 -9.933594 -3.476562 -9.988281 C -3.3125 -10.210938 -1.988281 -10.816406 -0.9375 -11.148438 C -0.71875 -11.203125 -0.550781 -11.316406 -0.496094 -11.371094 C -0.441406 -11.425781 -0.386719 -11.425781 -0.332031 -11.425781 C -0.277344 -11.371094 -0.164062 -11.425781 -0.0546875 -11.480469 C 0 -11.535156 0.222656 -11.589844 0.332031 -11.644531 C 0.496094 -11.644531 0.664062 -11.699219 0.71875 -11.757812 C 0.773438 -11.757812 0.992188 -11.867188 1.324219 -11.921875 L 6.402344 -13.246094 C 6.625 -13.300781 7.121094 -13.410156 7.5625 -13.46875 C 8.222656 -13.578125 8.277344 -13.578125 8.167969 -13.410156 C 8.003906 -13.246094 8.058594 -13.136719 8.277344 -13.082031 C 8.445312 -13.027344 8.554688 -13.027344 8.886719 -13.191406 L 9.382812 -13.410156 C 9.4375 -13.410156 9.492188 -13.46875 9.605469 -13.578125 C 9.714844 -13.742188 9.605469 -13.964844 9.382812 -14.019531 C 9.105469 -14.074219 8.277344 -13.964844 7.671875 -13.855469 L 6.457031 -13.578125 L 3.367188 -12.804688 C 2.261719 -12.527344 1.324219 -12.253906 -0.164062 -11.757812 L -1.433594 -11.316406 L -2.152344 -11.148438 L -2.757812 -10.929688 C -2.980469 -10.816406 0.332031 -14.515625 0.71875 -15.011719 L 1.433594 -15.949219 L 2.042969 -16.890625 C 2.207031 -17.109375 2.316406 -17.332031 2.316406 -17.386719 C 2.316406 -17.441406 2.261719 -17.550781 2.261719 -17.71875 C 2.261719 -18.160156 1.765625 -18.324219 1.046875 -18.101562 C 0.664062 -17.992188 -0.164062 -17.550781 -0.496094 -17.332031 L -0.992188 -16.945312 C -1.046875 -16.890625 -1.160156 -16.890625 -1.269531 -16.835938 L -1.488281 -16.613281 C -1.710938 -16.449219 -1.710938 -16.0625 -1.546875 -15.894531 C -1.433594 -15.785156 -0.664062 -15.730469 -0.496094 -15.839844 L 0.828125 -16.390625 C 1.105469 -16.503906 -2.261719 -12.640625 -3.203125 -11.425781 C -3.972656 -10.375 -4.414062 -10.15625 -4.800781 -10.046875 C -5.023438 -9.988281 -5.355469 -9.878906 -5.464844 -9.769531 C -5.628906 -9.714844 -5.796875 -9.605469 -5.851562 -9.605469 C -5.960938 -9.660156 -8.996094 -8.167969 -9.769531 -7.78125 C -10.101562 -7.5625 -10.375 -7.449219 -10.429688 -7.449219 C -10.488281 -7.449219 -10.542969 -7.394531 -10.542969 -7.394531 C -10.542969 -7.339844 -10.707031 -7.230469 -10.875 -7.175781 C -11.039062 -7.121094 -11.480469 -6.84375 -11.867188 -6.566406 L -12.695312 -6.070312 C -12.96875 -5.90625 -14.019531 -5.1875 -14.738281 -4.582031 C -15.839844 -3.753906 -18.101562 -1.324219 -18.160156 -0.992188 C -18.160156 -0.9375 -18.214844 -0.828125 -18.269531 -0.773438 L -18.324219 -0.773438 C -18.433594 -0.605469 -18.546875 -0.441406 -18.65625 -0.332031 C -18.710938 -0.0546875 -18.820312 0.164062 -18.988281 0.386719 L -19.042969 0.773438 C -19.097656 1.269531 -18.988281 1.433594 -18.433594 1.378906 Z M -0.882812 -16.28125 C -1.046875 -16.28125 -1.046875 -16.28125 -0.882812 -16.449219 C -0.664062 -16.667969 0 -17.109375 0.550781 -17.332031 C 0.992188 -17.550781 1.546875 -17.605469 1.546875 -17.441406 C 1.546875 -17.164062 -0.332031 -16.28125 -0.882812 -16.28125 Z M -18.546875 0.9375 C -18.65625 0.882812 -18.546875 0.496094 -18.324219 0 C -17.605469 -1.269531 -17.054688 -1.988281 -15.949219 -3.089844 C -14.957031 -4.027344 -14.738281 -4.195312 -13.523438 -5.132812 C -12.914062 -5.574219 -10.652344 -7.007812 -10.542969 -7.007812 L -10.046875 -7.285156 C -9.824219 -7.449219 -9.105469 -7.835938 -8.445312 -8.167969 C -7.835938 -8.445312 -7.285156 -8.71875 -7.285156 -8.777344 C -7.230469 -8.832031 -7.175781 -8.832031 -7.066406 -8.832031 L -6.84375 -8.886719 C -6.84375 -8.941406 -6.566406 -9.050781 -6.347656 -9.164062 L -5.628906 -9.4375 C -5.078125 -9.660156 -5.023438 -9.660156 -5.023438 -9.546875 C -5.023438 -9.492188 -5.078125 -9.4375 -5.078125 -9.4375 C -5.132812 -9.4375 -5.1875 -9.382812 -5.1875 -9.382812 C -5.1875 -9.105469 -7.175781 -7.175781 -9.605469 -4.96875 L -11.203125 -3.53125 C -11.425781 -3.3125 -11.699219 -3.089844 -11.867188 -2.980469 L -12.308594 -2.648438 C -12.695312 -2.316406 -14.515625 -1.046875 -14.625 -1.046875 C -14.679688 -1.046875 -14.738281 -0.992188 -14.738281 -0.9375 C -14.792969 -0.882812 -14.847656 -0.828125 -14.902344 -0.828125 C -14.957031 -0.828125 -15.234375 -0.664062 -15.566406 -0.441406 C -16.449219 0.164062 -17.054688 0.441406 -17.773438 0.71875 Z M -18.546875 0.9375 "/></g></g></g><g fill="#6a7153" fill-opacity="1"><g transform="translate(51.861636, 52.228439)"><g><path d="M 1.214844 -15.066406 C 1.433594 -15.011719 1.65625 -15.011719 1.875 -15.066406 L 2.042969 -15.066406 C 2.042969 -15.066406 3.035156 -15.289062 4.085938 -15.785156 L 7.230469 -17.21875 C 7.339844 -17.277344 7.339844 -17.441406 7.230469 -17.496094 L 7.175781 -17.550781 L 7.007812 -17.550781 L 6.898438 -17.496094 C 4.46875 -16.449219 2.816406 -15.785156 2.097656 -15.621094 C 2.097656 -15.621094 1.378906 -15.398438 1.324219 -15.621094 C 1.105469 -16.117188 1.488281 -16.722656 1.765625 -17.054688 C 1.988281 -17.332031 2.539062 -17.992188 1.875 -17.992188 C 1.765625 -17.992188 1.601562 -18.046875 1.601562 -18.101562 C 1.546875 -18.324219 1.378906 -18.269531 0.441406 -17.773438 C -0.386719 -17.332031 -1.433594 -16.667969 -2.097656 -16.117188 C -2.375 -15.894531 -2.484375 -15.785156 -2.484375 -15.621094 C -2.484375 -15.34375 -2.316406 -15.289062 -1.988281 -15.289062 C -1.710938 -15.289062 -0.605469 -15.839844 -0.164062 -16.171875 C 0.277344 -16.558594 0.992188 -16.945312 0.992188 -16.890625 L 0.828125 -16.503906 C 0.71875 -16.335938 0.664062 -16.117188 0.664062 -15.949219 C 0.605469 -15.730469 0.605469 -15.566406 0.773438 -15.34375 C 0.882812 -15.179688 0.992188 -15.066406 1.214844 -15.066406 Z M -1.875 -15.785156 L -1.546875 -16.007812 C -1.214844 -16.335938 -0.332031 -16.945312 0.386719 -17.277344 C 0.9375 -17.605469 1.046875 -17.605469 1.046875 -17.496094 C 1.046875 -17.441406 0.882812 -17.332031 0.71875 -17.277344 C 0.277344 -17.054688 0.0546875 -16.890625 -0.0546875 -16.777344 C -0.164062 -16.667969 -1.105469 -16.117188 -1.546875 -15.894531 Z M -1.875 -15.785156 "/></g></g></g><g fill="#6a7153" fill-opacity="1"><g transform="translate(58.926291, 52.228439)"><g><path d="M -2.097656 -12.417969 C -1.433594 -12.585938 -0.164062 -13.6875 0.0546875 -14.238281 C 0.164062 -14.40625 0.277344 -14.738281 0.332031 -14.957031 C 0.386719 -15.234375 0.496094 -15.398438 0.664062 -15.507812 L 1.214844 -15.730469 C 1.65625 -15.949219 2.375 -16.171875 3.089844 -16.390625 C 2.648438 -16.226562 4.085938 -16.667969 5.078125 -16.945312 C 5.519531 -17.054688 5.628906 -17.164062 5.464844 -17.332031 C 5.355469 -17.441406 5.242188 -17.441406 4.914062 -17.332031 C 4.25 -17.21875 1.378906 -16.449219 0.773438 -16.0625 C 0.386719 -15.894531 0.277344 -16.0625 0.332031 -16.835938 C 0.441406 -17.550781 0.441406 -17.605469 0.71875 -17.660156 C 1.105469 -17.773438 1.214844 -17.992188 0.992188 -18.269531 C 0.828125 -18.433594 0.664062 -18.378906 0.277344 -18.160156 C -0.222656 -17.882812 -0.277344 -17.660156 -0.277344 -16.613281 C -0.277344 -16.117188 -0.332031 -15.675781 -0.332031 -15.566406 C -0.386719 -15.507812 -0.605469 -15.398438 -0.828125 -15.289062 C -1.046875 -15.234375 -1.214844 -15.125 -1.269531 -15.125 L -1.875 -14.679688 C -2.648438 -14.238281 -2.980469 -13.910156 -3.035156 -13.46875 C -3.035156 -13.136719 -3.035156 -13.027344 -2.871094 -12.859375 C -2.757812 -12.75 -2.648438 -12.585938 -2.648438 -12.585938 C -2.648438 -12.417969 -2.316406 -12.308594 -2.097656 -12.417969 Z M -2.097656 -13.027344 C -2.316406 -13.027344 -2.539062 -13.246094 -2.539062 -13.46875 C -2.539062 -13.796875 -1.601562 -14.351562 -1.488281 -14.40625 L -0.9375 -14.738281 L -0.550781 -14.957031 L -0.550781 -14.679688 C -0.605469 -14.351562 -0.71875 -14.183594 -1.324219 -13.578125 C -1.65625 -13.246094 -1.988281 -13.027344 -2.097656 -13.027344 Z M -2.097656 -13.027344 "/></g></g></g><g fill="#6a7153" fill-opacity="1"><g transform="translate(72.741518, 52.228439)"><g><path d="M -2.429688 -11.371094 C -2.375 -11.371094 -2.316406 -11.644531 -2.207031 -12.253906 C -2.097656 -13.246094 -1.765625 -13.964844 -0.9375 -15.179688 C -0.222656 -16.28125 1.933594 -19.042969 2.042969 -19.042969 C 2.097656 -19.097656 2.152344 -19.152344 2.152344 -19.207031 C 2.261719 -19.316406 2.375 -19.371094 2.484375 -19.429688 L 3.476562 -20.089844 C 3.972656 -20.367188 4.085938 -20.421875 4.527344 -20.753906 L 5.023438 -21.082031 C 5.078125 -21.082031 5.628906 -21.414062 5.960938 -21.691406 C 6.347656 -21.96875 7.394531 -22.628906 7.5625 -22.738281 L 8.113281 -23.125 L 8.71875 -23.566406 L 9.4375 -24.121094 L 10.816406 -25.222656 C 11.644531 -25.832031 13.578125 -27.542969 13.6875 -28.039062 C 13.796875 -28.480469 13.46875 -28.699219 12.859375 -28.480469 C 12.253906 -28.3125 11.425781 -27.816406 10.984375 -27.488281 C 10.488281 -27.15625 9.824219 -26.824219 9.328125 -26.4375 C 7.894531 -25.390625 6.402344 -24.230469 4.96875 -22.960938 C 4.359375 -22.410156 3.089844 -21.195312 2.816406 -20.972656 L 1.710938 -19.871094 C 1.601562 -19.816406 1.546875 -19.816406 1.546875 -19.816406 C 1.488281 -19.871094 1.433594 -19.816406 1.433594 -19.816406 C 1.433594 -19.703125 0.828125 -19.539062 0.71875 -19.59375 C 0.664062 -19.648438 0.605469 -19.59375 0.605469 -19.539062 C 0.605469 -19.429688 0.882812 -19.152344 0.992188 -19.152344 L 1.105469 -19.152344 C 0.9375 -18.988281 0.882812 -18.875 0.882812 -18.820312 L 0.664062 -18.546875 C 0.496094 -18.378906 0.386719 -18.269531 0.386719 -18.214844 C 0.386719 -18.160156 0.386719 -18.101562 0.332031 -18.101562 C 0.277344 -18.101562 0.109375 -17.882812 -0.109375 -17.605469 L -0.550781 -17.054688 C -0.605469 -17.054688 -0.605469 -16.945312 -0.605469 -16.890625 C -0.664062 -16.777344 -0.71875 -16.722656 -0.773438 -16.722656 L -0.9375 -16.558594 C -0.9375 -16.449219 -0.9375 -16.449219 -0.992188 -16.449219 C -1.046875 -16.449219 -1.105469 -16.390625 -1.105469 -16.335938 C -1.105469 -16.226562 -1.160156 -16.171875 -1.214844 -16.171875 C -1.214844 -16.226562 -1.269531 -16.171875 -1.269531 -16.117188 C -1.269531 -16.007812 -1.601562 -15.507812 -1.875 -15.125 C -2.097656 -14.792969 -2.152344 -14.625 -2.207031 -14.515625 C -2.207031 -14.40625 -2.261719 -14.296875 -2.316406 -14.128906 C -2.59375 -13.742188 -2.816406 -12.75 -2.703125 -12.144531 C -2.648438 -11.535156 -2.59375 -11.425781 -2.429688 -11.371094 Z M 3.585938 -20.699219 C 3.421875 -20.640625 3.53125 -20.699219 3.972656 -21.195312 C 4.46875 -21.746094 7.285156 -24.175781 7.394531 -24.175781 L 9.382812 -25.777344 L 10.210938 -26.328125 L 10.652344 -26.714844 L 10.984375 -26.933594 L 11.867188 -27.488281 L 12.253906 -27.707031 L 12.527344 -27.871094 L 12.640625 -27.929688 C 12.695312 -27.984375 12.75 -27.984375 12.859375 -27.984375 C 12.914062 -28.039062 12.96875 -27.984375 12.96875 -27.871094 C 12.96875 -27.871094 12.96875 -27.816406 12.914062 -27.761719 L 12.804688 -27.652344 L 12.804688 -27.597656 L 12.640625 -27.488281 L 12.585938 -27.429688 L 12.472656 -27.265625 L 12.308594 -27.101562 L 11.535156 -26.382812 L 10.488281 -25.554688 C 10.046875 -25.167969 9.714844 -24.890625 9.660156 -24.890625 L 9.328125 -24.671875 C 8.886719 -24.285156 7.617188 -23.402344 7.394531 -23.238281 C 7.175781 -23.125 6.511719 -22.683594 6.292969 -22.519531 C 5.960938 -22.242188 5.078125 -21.582031 4.855469 -21.46875 L 4.636719 -21.304688 Z M 3.585938 -20.699219 "/></g></g></g><g fill="#6a7153" fill-opacity="1"><g transform="translate(77.598465, 52.228439)"><g><path d="M 2.316406 -18.988281 C 2.539062 -19.042969 2.757812 -19.429688 2.703125 -19.648438 C 2.703125 -19.757812 2.59375 -19.871094 2.539062 -19.925781 C 2.316406 -20.089844 2.097656 -19.980469 2.042969 -19.648438 C 2.042969 -19.484375 1.988281 -19.371094 1.933594 -19.316406 C 1.765625 -19.207031 2.097656 -18.875 2.316406 -18.988281 Z M -0.828125 -15.011719 C -0.222656 -15.066406 0.828125 -15.398438 1.710938 -15.785156 L 4.140625 -16.890625 L 4.800781 -17.164062 C 4.96875 -17.277344 4.96875 -17.441406 4.855469 -17.496094 L 4.746094 -17.550781 L 4.636719 -17.550781 L 4.527344 -17.496094 C 2.097656 -16.449219 0.441406 -15.785156 -0.332031 -15.621094 C -0.332031 -15.621094 -0.773438 -15.453125 -0.992188 -15.566406 C -0.992188 -15.785156 -0.9375 -16.007812 -0.773438 -16.226562 L 0.164062 -17 C 0.828125 -17.550781 0.992188 -17.828125 0.71875 -17.9375 C 0.605469 -17.992188 0.164062 -17.828125 -0.222656 -17.550781 C -1.214844 -16.722656 -1.65625 -16.171875 -1.65625 -15.621094 L -1.65625 -15.453125 C -1.65625 -15.125 -1.378906 -14.957031 -0.828125 -15.011719 Z M -0.828125 -15.011719 "/></g></g></g><g fill="#6a7153" fill-opacity="1"><g transform="translate(82.234646, 52.228439)"><g><path d="M 7.175781 -13.855469 C 8.609375 -14.019531 11.148438 -14.625 13.355469 -15.566406 C 14.792969 -16.117188 15.011719 -16.171875 16.890625 -17.054688 L 17.054688 -17.164062 C 17.164062 -17.21875 17.277344 -17.21875 17.332031 -17.332031 C 17.386719 -17.441406 17.277344 -17.496094 17.21875 -17.550781 L 17.054688 -17.550781 C 16.945312 -17.496094 16.835938 -17.496094 16.722656 -17.441406 L 16.171875 -17.164062 L 15.949219 -17.109375 L 14.128906 -16.335938 L 13.410156 -16.117188 C 11.371094 -15.34375 9.328125 -14.515625 6.734375 -14.351562 C 5.796875 -14.351562 5.410156 -14.460938 5.1875 -14.847656 C 5.023438 -15.066406 5.023438 -15.289062 5.078125 -15.730469 C 5.132812 -16.28125 5.574219 -16.835938 5.90625 -17.054688 C 6.125 -17.21875 6.183594 -17.386719 6.015625 -17.550781 C 5.851562 -17.660156 5.355469 -17.550781 5.1875 -17.441406 C 5.023438 -17.277344 2.484375 -16.503906 2.207031 -16.558594 C 2.042969 -16.613281 2.042969 -16.613281 2.207031 -16.890625 C 2.316406 -17.164062 2.316406 -17.21875 2.207031 -17.332031 C 2.042969 -17.496094 1.765625 -17.496094 1.433594 -17.21875 L 1.160156 -17 L 0.332031 -16.503906 L 0.222656 -16.390625 L 0 -16.28125 C -0.0546875 -16.28125 -0.222656 -16.171875 -0.277344 -16.226562 C -0.277344 -16.28125 -0.109375 -16.390625 -0.0546875 -16.449219 C 0.441406 -16.890625 0.882812 -17.441406 0.828125 -17.605469 L 0.828125 -17.773438 C 0.828125 -17.882812 0.441406 -17.9375 0.332031 -17.882812 C 0.222656 -17.773438 -1.324219 -16.007812 -1.488281 -15.730469 C -1.65625 -15.398438 -1.710938 -15.234375 -1.546875 -15.066406 C -1.324219 -14.847656 -0.992188 -15.011719 0.0546875 -15.675781 C 0.828125 -16.226562 1.378906 -16.503906 1.214844 -16.335938 C 1.160156 -16.28125 1.214844 -16.171875 1.324219 -16.0625 C 1.546875 -15.894531 1.601562 -15.894531 1.988281 -15.894531 C 2.484375 -15.949219 3.808594 -16.28125 4.085938 -16.449219 C 4.25 -16.503906 4.359375 -16.558594 4.359375 -16.503906 C 4.414062 -16.503906 4.414062 -16.28125 4.359375 -16.0625 C 4.027344 -14.847656 4.414062 -14.183594 5.519531 -13.910156 C 5.960938 -13.796875 6.347656 -13.796875 7.175781 -13.855469 Z M 7.175781 -13.855469 "/></g></g></g><g fill="#6a7153" fill-opacity="1"><g transform="translate(99.289165, 52.228439)"><g><path d="M 2.316406 -18.988281 C 2.539062 -19.042969 2.757812 -19.429688 2.703125 -19.648438 C 2.703125 -19.757812 2.59375 -19.871094 2.539062 -19.925781 C 2.316406 -20.089844 2.097656 -19.980469 2.042969 -19.648438 C 2.042969 -19.484375 1.988281 -19.371094 1.933594 -19.316406 C 1.765625 -19.207031 2.097656 -18.875 2.316406 -18.988281 Z M -0.828125 -15.011719 C -0.222656 -15.066406 0.828125 -15.398438 1.710938 -15.785156 L 4.140625 -16.890625 L 4.800781 -17.164062 C 4.96875 -17.277344 4.96875 -17.441406 4.855469 -17.496094 L 4.746094 -17.550781 L 4.636719 -17.550781 L 4.527344 -17.496094 C 2.097656 -16.449219 0.441406 -15.785156 -0.332031 -15.621094 C -0.332031 -15.621094 -0.773438 -15.453125 -0.992188 -15.566406 C -0.992188 -15.785156 -0.9375 -16.007812 -0.773438 -16.226562 L 0.164062 -17 C 0.828125 -17.550781 0.992188 -17.828125 0.71875 -17.9375 C 0.605469 -17.992188 0.164062 -17.828125 -0.222656 -17.550781 C -1.214844 -16.722656 -1.65625 -16.171875 -1.65625 -15.621094 L -1.65625 -15.453125 C -1.65625 -15.125 -1.378906 -14.957031 -0.828125 -15.011719 Z M -0.828125 -15.011719 "/></g></g></g><g fill="#6a7153" fill-opacity="1"><g transform="translate(103.925347, 52.228439)"><g><path d="M 24.890625 -26.160156 C 24.617188 -26.273438 24.175781 -26.328125 22.90625 -26.4375 C 21.746094 -26.546875 13.191406 -26.878906 12.144531 -26.878906 L 10.597656 -26.933594 L 9.546875 -26.933594 C 9.714844 -27.15625 10.210938 -27.707031 10.542969 -27.984375 C 10.761719 -28.148438 10.984375 -28.371094 11.203125 -28.644531 C 11.425781 -28.921875 12.199219 -29.640625 12.585938 -29.96875 L 13.136719 -30.410156 L 13.355469 -30.6875 C 13.523438 -30.851562 13.523438 -30.910156 13.410156 -31.074219 C 13.355469 -31.183594 13.246094 -31.238281 13.191406 -31.238281 C 13.082031 -31.238281 12.417969 -30.742188 12.363281 -30.578125 L 11.867188 -30.136719 C 11.257812 -29.640625 11.148438 -29.582031 11.039062 -29.417969 C 10.929688 -29.308594 9.492188 -27.929688 9.273438 -27.761719 L 9.105469 -27.597656 L 8.664062 -27.101562 L 8.445312 -26.878906 L 0.664062 -26.714844 L -0.550781 -26.601562 C -1.488281 -26.546875 -4.140625 -26.328125 -4.582031 -26.21875 C -5.023438 -26.105469 -5.242188 -25.886719 -5.078125 -25.71875 C -5.023438 -25.609375 -3.917969 -25.71875 -3.144531 -25.886719 C -2.980469 -25.941406 -1.65625 -26.105469 -0.332031 -26.160156 L 1.046875 -26.273438 L 2.539062 -26.328125 L 4.359375 -26.4375 C 4.855469 -26.492188 6.734375 -26.492188 7.949219 -26.492188 C 7.894531 -26.382812 7.78125 -26.328125 7.726562 -26.21875 L 7.5625 -26.105469 L 7.394531 -25.886719 L 6.734375 -25.167969 C 5.960938 -24.339844 3.53125 -21.691406 3.035156 -20.972656 C 3.035156 -20.972656 2.152344 -19.925781 2.152344 -19.980469 C 2.152344 -19.925781 1.933594 -19.703125 1.710938 -19.484375 C 1.433594 -19.207031 0.992188 -18.710938 -0.164062 -17.332031 L -0.605469 -16.835938 L -1.046875 -16.28125 C -1.160156 -16.117188 -1.214844 -16.007812 -1.269531 -16.007812 C -1.378906 -16.007812 -1.65625 -15.675781 -2.539062 -14.515625 C -2.871094 -14.128906 -3.144531 -13.796875 -3.257812 -13.742188 C -3.3125 -13.632812 -3.863281 -12.96875 -4.46875 -12.253906 L -5.851562 -10.542969 L -8.113281 -7.507812 C -8.664062 -6.734375 -8.996094 -6.292969 -9.105469 -6.347656 L -9.105469 -6.238281 C -9.105469 -6.183594 -9.105469 -6.070312 -9.164062 -5.960938 C -9.21875 -5.796875 -9.273438 -5.738281 -9.328125 -5.796875 C -9.328125 -5.738281 -9.382812 -5.683594 -9.382812 -5.683594 C -9.382812 -5.574219 -9.382812 -5.519531 -9.4375 -5.519531 C -9.4375 -5.574219 -9.605469 -5.242188 -9.714844 -4.855469 C -9.933594 -4.304688 -9.988281 -4.085938 -9.933594 -3.808594 C -9.824219 -3.476562 -9.769531 -3.421875 -9.605469 -3.367188 C -9.382812 -3.367188 -9.273438 -3.367188 -9.21875 -3.476562 C -9.105469 -3.644531 -9.105469 -3.644531 -9.328125 -3.699219 C -9.546875 -3.699219 -9.546875 -3.753906 -9.546875 -3.972656 C -9.492188 -4.25 -9.050781 -5.1875 -8.664062 -5.796875 C -7.617188 -7.339844 -4.855469 -10.875 -3.089844 -12.914062 L -2.207031 -13.964844 L -0.386719 -16.0625 L 1.105469 -17.71875 L 1.601562 -18.324219 L 2.261719 -19.042969 C 2.757812 -19.59375 3.203125 -20.144531 4.140625 -21.25 C 4.46875 -21.636719 4.855469 -22.023438 5.023438 -22.1875 C 5.1875 -22.351562 5.464844 -22.683594 5.628906 -22.90625 L 6.566406 -23.898438 C 7.175781 -24.5625 7.5625 -24.890625 7.894531 -25.332031 L 8.390625 -25.832031 C 8.554688 -26.050781 8.71875 -26.160156 8.832031 -26.328125 L 9.105469 -26.492188 C 9.546875 -26.546875 9.878906 -26.492188 10.046875 -26.492188 L 10.265625 -26.492188 C 13.46875 -26.4375 21.140625 -26.21875 22.242188 -26.050781 C 22.574219 -25.941406 23.125 -25.941406 23.402344 -25.886719 C 23.953125 -25.886719 23.953125 -25.886719 23.84375 -25.664062 C 23.734375 -25.554688 23.789062 -25.445312 23.84375 -25.390625 C 23.953125 -25.277344 24.007812 -25.222656 24.0625 -25.277344 L 24.617188 -25.5 C 25.222656 -25.777344 25.277344 -25.941406 24.890625 -26.160156 Z M 24.890625 -26.160156 "/></g></g></g><g fill="#6a7153" fill-opacity="1"><g transform="translate(108.616715, 52.228439)"><g><path d="M 1.214844 -15.066406 C 1.433594 -15.011719 1.65625 -15.011719 1.875 -15.066406 L 2.042969 -15.066406 C 2.042969 -15.066406 3.035156 -15.289062 4.085938 -15.785156 L 7.230469 -17.21875 C 7.339844 -17.277344 7.339844 -17.441406 7.230469 -17.496094 L 7.175781 -17.550781 L 7.007812 -17.550781 L 6.898438 -17.496094 C 4.46875 -16.449219 2.816406 -15.785156 2.097656 -15.621094 C 2.097656 -15.621094 1.378906 -15.398438 1.324219 -15.621094 C 1.105469 -16.117188 1.488281 -16.722656 1.765625 -17.054688 C 1.988281 -17.332031 2.539062 -17.992188 1.875 -17.992188 C 1.765625 -17.992188 1.601562 -18.046875 1.601562 -18.101562 C 1.546875 -18.324219 1.378906 -18.269531 0.441406 -17.773438 C -0.386719 -17.332031 -1.433594 -16.667969 -2.097656 -16.117188 C -2.375 -15.894531 -2.484375 -15.785156 -2.484375 -15.621094 C -2.484375 -15.34375 -2.316406 -15.289062 -1.988281 -15.289062 C -1.710938 -15.289062 -0.605469 -15.839844 -0.164062 -16.171875 C 0.277344 -16.558594 0.992188 -16.945312 0.992188 -16.890625 L 0.828125 -16.503906 C 0.71875 -16.335938 0.664062 -16.117188 0.664062 -15.949219 C 0.605469 -15.730469 0.605469 -15.566406 0.773438 -15.34375 C 0.882812 -15.179688 0.992188 -15.066406 1.214844 -15.066406 Z M -1.875 -15.785156 L -1.546875 -16.007812 C -1.214844 -16.335938 -0.332031 -16.945312 0.386719 -17.277344 C 0.9375 -17.605469 1.046875 -17.605469 1.046875 -17.496094 C 1.046875 -17.441406 0.882812 -17.332031 0.71875 -17.277344 C 0.277344 -17.054688 0.0546875 -16.890625 -0.0546875 -16.777344 C -0.164062 -16.667969 -1.105469 -16.117188 -1.546875 -15.894531 Z M -1.875 -15.785156 "/></g></g></g><g fill="#6a7153" fill-opacity="1"><g transform="translate(115.68137, 52.228439)"><g><path d="M 1.269531 -13.136719 L 2.757812 -14.957031 C 4.195312 -16.835938 5.90625 -18.710938 6.84375 -19.484375 L 7.835938 -20.421875 L 8.609375 -21.027344 L 9.4375 -21.636719 C 9.769531 -21.855469 10.761719 -22.519531 11.039062 -22.796875 L 11.867188 -23.457031 C 12.527344 -23.898438 14.019531 -25.113281 14.570312 -25.71875 C 15.566406 -26.714844 16.0625 -27.265625 16.558594 -27.929688 C 17 -28.535156 17.109375 -28.699219 17.054688 -28.921875 C 17 -29.253906 16.722656 -29.199219 16.117188 -28.867188 C 15.894531 -28.699219 15.398438 -28.371094 15.125 -28.09375 L 14.183594 -27.375 C 13.6875 -27.042969 12.75 -26.160156 11.921875 -25.277344 C 11.257812 -24.5625 11.09375 -24.394531 10.210938 -23.566406 L 9.660156 -23.015625 L 7.507812 -20.808594 C 7.121094 -20.421875 6.238281 -19.816406 5.355469 -19.371094 C 4.855469 -19.152344 4.304688 -18.820312 4.027344 -18.65625 L 3.144531 -18.101562 L 2.757812 -17.882812 L 2.59375 -18.046875 C 2.207031 -18.546875 1.601562 -18.488281 0.496094 -17.882812 C -0.222656 -17.496094 -1.546875 -16.335938 -1.988281 -15.675781 C -2.375 -15.125 -2.207031 -14.792969 -1.601562 -15.011719 C -1.046875 -15.179688 -0.164062 -15.621094 0.277344 -15.894531 L 0.496094 -16.007812 C 0.550781 -16.007812 0.773438 -16.171875 1.046875 -16.335938 L 1.601562 -16.613281 L 2.097656 -16.890625 L 3.972656 -18.046875 C 4.46875 -18.324219 4.855469 -18.546875 4.914062 -18.546875 C 4.914062 -18.546875 4.691406 -18.269531 4.414062 -18.046875 C 3.699219 -17.332031 0.773438 -13.6875 0.773438 -13.46875 C 0.828125 -13.191406 1.105469 -13.027344 1.269531 -13.136719 Z M 10.046875 -22.410156 C 9.769531 -22.296875 10.488281 -23.125 11.589844 -24.121094 L 12.308594 -24.835938 C 12.695312 -25.332031 13.082031 -25.71875 13.578125 -26.160156 L 14.019531 -26.601562 L 14.738281 -27.210938 C 16.226562 -28.3125 16.449219 -28.371094 15.621094 -27.375 C 15.125 -26.714844 14.738281 -26.382812 13.410156 -25.113281 C 12.914062 -24.671875 12.253906 -24.121094 11.867188 -23.84375 L 10.984375 -23.125 Z M -1.046875 -15.839844 C -1.214844 -15.839844 -0.828125 -16.28125 -0.332031 -16.722656 L 0.109375 -17.109375 C 0.164062 -17.164062 0.332031 -17.277344 0.605469 -17.386719 L 1.160156 -17.660156 C 1.324219 -17.71875 1.710938 -17.71875 1.820312 -17.660156 C 1.933594 -17.550781 1.65625 -17.21875 1.214844 -17 C 0.9375 -16.835938 0.71875 -16.722656 0.664062 -16.667969 C 0.605469 -16.667969 0.222656 -16.503906 -0.222656 -16.28125 C -0.605469 -16.0625 -0.992188 -15.839844 -1.046875 -15.839844 Z M -1.046875 -15.839844 "/></g></g></g><g fill="#6a7153" fill-opacity="1"><g transform="translate(124.456998, 52.228439)"><g><path d="M 1.214844 -15.066406 C 1.433594 -15.011719 1.65625 -15.011719 1.875 -15.066406 L 2.042969 -15.066406 C 2.042969 -15.066406 3.035156 -15.289062 4.085938 -15.785156 L 7.230469 -17.21875 C 7.339844 -17.277344 7.339844 -17.441406 7.230469 -17.496094 L 7.175781 -17.550781 L 7.007812 -17.550781 L 6.898438 -17.496094 C 4.46875 -16.449219 2.816406 -15.785156 2.097656 -15.621094 C 2.097656 -15.621094 1.378906 -15.398438 1.324219 -15.621094 C 1.105469 -16.117188 1.488281 -16.722656 1.765625 -17.054688 C 1.988281 -17.332031 2.539062 -17.992188 1.875 -17.992188 C 1.765625 -17.992188 1.601562 -18.046875 1.601562 -18.101562 C 1.546875 -18.324219 1.378906 -18.269531 0.441406 -17.773438 C -0.386719 -17.332031 -1.433594 -16.667969 -2.097656 -16.117188 C -2.375 -15.894531 -2.484375 -15.785156 -2.484375 -15.621094 C -2.484375 -15.34375 -2.316406 -15.289062 -1.988281 -15.289062 C -1.710938 -15.289062 -0.605469 -15.839844 -0.164062 -16.171875 C 0.277344 -16.558594 0.992188 -16.945312 0.992188 -16.890625 L 0.828125 -16.503906 C 0.71875 -16.335938 0.664062 -16.117188 0.664062 -15.949219 C 0.605469 -15.730469 0.605469 -15.566406 0.773438 -15.34375 C 0.882812 -15.179688 0.992188 -15.066406 1.214844 -15.066406 Z M -1.875 -15.785156 L -1.546875 -16.007812 C -1.214844 -16.335938 -0.332031 -16.945312 0.386719 -17.277344 C 0.9375 -17.605469 1.046875 -17.605469 1.046875 -17.496094 C 1.046875 -17.441406 0.882812 -17.332031 0.71875 -17.277344 C 0.277344 -17.054688 0.0546875 -16.890625 -0.0546875 -16.777344 C -0.164062 -16.667969 -1.105469 -16.117188 -1.546875 -15.894531 Z M -1.875 -15.785156 "/></g></g></g><g fill="#6a7153" fill-opacity="1"><g transform="translate(131.521653, 52.228439)"><g><path d="M -2.097656 -12.417969 C -1.433594 -12.585938 -0.164062 -13.6875 0.0546875 -14.238281 C 0.164062 -14.40625 0.277344 -14.738281 0.332031 -14.957031 C 0.386719 -15.234375 0.496094 -15.398438 0.664062 -15.507812 L 1.214844 -15.730469 C 1.65625 -15.949219 2.375 -16.171875 3.089844 -16.390625 C 2.648438 -16.226562 4.085938 -16.667969 5.078125 -16.945312 C 5.519531 -17.054688 5.628906 -17.164062 5.464844 -17.332031 C 5.355469 -17.441406 5.242188 -17.441406 4.914062 -17.332031 C 4.25 -17.21875 1.378906 -16.449219 0.773438 -16.0625 C 0.386719 -15.894531 0.277344 -16.0625 0.332031 -16.835938 C 0.441406 -17.550781 0.441406 -17.605469 0.71875 -17.660156 C 1.105469 -17.773438 1.214844 -17.992188 0.992188 -18.269531 C 0.828125 -18.433594 0.664062 -18.378906 0.277344 -18.160156 C -0.222656 -17.882812 -0.277344 -17.660156 -0.277344 -16.613281 C -0.277344 -16.117188 -0.332031 -15.675781 -0.332031 -15.566406 C -0.386719 -15.507812 -0.605469 -15.398438 -0.828125 -15.289062 C -1.046875 -15.234375 -1.214844 -15.125 -1.269531 -15.125 L -1.875 -14.679688 C -2.648438 -14.238281 -2.980469 -13.910156 -3.035156 -13.46875 C -3.035156 -13.136719 -3.035156 -13.027344 -2.871094 -12.859375 C -2.757812 -12.75 -2.648438 -12.585938 -2.648438 -12.585938 C -2.648438 -12.417969 -2.316406 -12.308594 -2.097656 -12.417969 Z M -2.097656 -13.027344 C -2.316406 -13.027344 -2.539062 -13.246094 -2.539062 -13.46875 C -2.539062 -13.796875 -1.601562 -14.351562 -1.488281 -14.40625 L -0.9375 -14.738281 L -0.550781 -14.957031 L -0.550781 -14.679688 C -0.605469 -14.351562 -0.71875 -14.183594 -1.324219 -13.578125 C -1.65625 -13.246094 -1.988281 -13.027344 -2.097656 -13.027344 Z M -2.097656 -13.027344 "/></g></g></g><g fill="#6a7153" fill-opacity="1"><g transform="translate(45.460835, 52.697263)"><g><path d="M 0.191406 0 L 1.015625 0 L 1.015625 -2.941406 C 1.214844 -3.269531 1.578125 -3.570312 1.804688 -3.570312 C 1.992188 -3.570312 2.179688 -3.449219 2.179688 -3.320312 C 2.179688 -3.078125 2.421875 -2.835938 2.664062 -2.835938 C 2.90625 -2.835938 3.140625 -3.078125 3.140625 -3.320312 C 3.140625 -3.640625 2.671875 -3.957031 2.183594 -3.957031 C 1.828125 -3.957031 1.269531 -3.527344 1.007812 -3.070312 L 1.007812 -3.882812 L 0.601562 -3.882812 L 0.601562 -3.890625 C 0.472656 -3.863281 0.207031 -3.792969 0.078125 -3.757812 L 0.0859375 -3.71875 L 0.105469 -3.71875 C 0.148438 -3.707031 0.191406 -3.542969 0.191406 -3.378906 Z M 0.191406 0 "/></g></g></g><g fill="#6a7153" fill-opacity="1"><g transform="translate(48.672979, 52.697263)"><g><path d="M 2.140625 0.0703125 C 2.8125 0.0703125 3.640625 -0.472656 3.8125 -1.019531 L 3.777344 -1.027344 C 3.640625 -0.59375 2.878906 -0.171875 2.226562 -0.171875 C 1.699219 -0.171875 1.183594 -1.136719 1.183594 -2.113281 C 1.183594 -2.300781 1.199219 -2.476562 1.226562 -2.640625 L 3.957031 -2.640625 C 3.878906 -3.441406 3.085938 -3.957031 2.320312 -3.957031 C 1.3125 -3.957031 0.320312 -3.097656 0.320312 -1.777344 C 0.320312 -0.84375 1.222656 0.0703125 2.140625 0.0703125 Z M 1.234375 -2.699219 C 1.390625 -3.441406 1.84375 -3.898438 2.300781 -3.898438 C 2.605469 -3.898438 2.949219 -3.433594 3.035156 -2.707031 Z M 1.234375 -2.699219 "/></g></g></g><g fill="#6a7153" fill-opacity="1"><g transform="translate(52.841628, 52.697263)"><g><path d="M 2.921875 -1.0625 C 2.921875 -1.515625 2.414062 -2.09375 1.785156 -2.261719 C 1.328125 -2.386719 0.964844 -2.835938 0.964844 -3.191406 C 0.964844 -3.554688 1.277344 -3.90625 1.597656 -3.90625 C 1.699219 -3.90625 1.8125 -3.871094 1.929688 -3.8125 C 1.792969 -3.878906 2.164062 -3.527344 2.675781 -3.097656 C 2.691406 -3.09375 2.714844 -3.0625 2.726562 -3.054688 L 2.757812 -3.054688 L 2.757812 -3.5625 L 2.734375 -3.5625 C 2.734375 -3.550781 2.726562 -3.535156 2.726562 -3.519531 C 2.726562 -3.519531 2.199219 -3.8125 2.097656 -3.855469 C 2.0625 -3.882812 2.027344 -3.90625 1.992188 -3.925781 L 1.976562 -3.90625 C 1.847656 -3.949219 1.722656 -3.96875 1.597656 -3.96875 C 0.984375 -3.96875 0.378906 -3.449219 0.378906 -2.914062 C 0.378906 -2.414062 0.84375 -1.800781 1.421875 -1.640625 C 1.898438 -1.515625 2.285156 -1.128906 2.285156 -0.84375 C 2.285156 -0.414062 1.929688 0.0429688 1.550781 -0.0078125 C 1.429688 -0.148438 1.058594 -0.484375 0.484375 -0.964844 C 0.472656 -0.972656 0.449219 -1 0.4375 -1.007812 L 0.429688 -0.984375 L 0.429688 -0.398438 L 0.457031 -0.398438 L 0.457031 -0.457031 C 0.457031 -0.484375 0.644531 -0.386719 0.835938 -0.25 C 0.933594 -0.171875 1.050781 -0.113281 1.148438 -0.0429688 L 1.148438 -0.0507812 C 1.285156 0.015625 1.421875 0.0585938 1.550781 0.0625 C 1.59375 0.0859375 1.605469 0.0859375 1.597656 0.0625 C 2.261719 0.0625 2.921875 -0.492188 2.921875 -1.0625 Z M 2.921875 -1.0625 "/></g></g></g><g fill="#6a7153" fill-opacity="1"><g transform="translate(56.132291, 52.697263)"><g><path d="M 2.140625 0.0703125 C 2.8125 0.0703125 3.640625 -0.472656 3.8125 -1.019531 L 3.777344 -1.027344 C 3.640625 -0.59375 2.878906 -0.171875 2.226562 -0.171875 C 1.699219 -0.171875 1.183594 -1.136719 1.183594 -2.113281 C 1.183594 -2.300781 1.199219 -2.476562 1.226562 -2.640625 L 3.957031 -2.640625 C 3.878906 -3.441406 3.085938 -3.957031 2.320312 -3.957031 C 1.3125 -3.957031 0.320312 -3.097656 0.320312 -1.777344 C 0.320312 -0.84375 1.222656 0.0703125 2.140625 0.0703125 Z M 1.234375 -2.699219 C 1.390625 -3.441406 1.84375 -3.898438 2.300781 -3.898438 C 2.605469 -3.898438 2.949219 -3.433594 3.035156 -2.707031 Z M 1.234375 -2.699219 "/></g></g></g><g fill="#6a7153" fill-opacity="1"><g transform="translate(60.30094, 52.697263)"><g><path d="M 0.191406 0 L 1.015625 0 L 1.015625 -2.941406 C 1.214844 -3.269531 1.578125 -3.570312 1.804688 -3.570312 C 1.992188 -3.570312 2.179688 -3.449219 2.179688 -3.320312 C 2.179688 -3.078125 2.421875 -2.835938 2.664062 -2.835938 C 2.90625 -2.835938 3.140625 -3.078125 3.140625 -3.320312 C 3.140625 -3.640625 2.671875 -3.957031 2.183594 -3.957031 C 1.828125 -3.957031 1.269531 -3.527344 1.007812 -3.070312 L 1.007812 -3.882812 L 0.601562 -3.882812 L 0.601562 -3.890625 C 0.472656 -3.863281 0.207031 -3.792969 0.078125 -3.757812 L 0.0859375 -3.71875 L 0.105469 -3.71875 C 0.148438 -3.707031 0.191406 -3.542969 0.191406 -3.378906 Z M 0.191406 0 "/></g></g></g><g fill="#6a7153" fill-opacity="1"><g transform="translate(63.513083, 52.697263)"><g><path d="M 1.757812 0.0625 L 2 0.0625 C 2.457031 -1.113281 2.90625 -2.300781 3.371094 -3.476562 C 3.457031 -3.691406 3.554688 -3.871094 3.621094 -3.871094 L 3.621094 -3.882812 L 3.042969 -3.882812 L 3.042969 -3.863281 L 3.054688 -3.863281 C 3.09375 -3.863281 3.085938 -3.726562 3.042969 -3.5625 L 2.179688 -1.113281 C 1.855469 -1.898438 1.527344 -2.683594 1.214844 -3.46875 C 1.128906 -3.683594 1.078125 -3.863281 1.140625 -3.863281 L 1.140625 -3.882812 L 0.0507812 -3.882812 L 0.0507812 -3.863281 C 0.105469 -3.863281 0.191406 -3.742188 0.269531 -3.570312 Z M 1.757812 0.0625 "/></g></g></g><g fill="#6a7153" fill-opacity="1"><g transform="translate(67.346242, 52.697263)"><g><path d="M 2.140625 0.0703125 C 2.8125 0.0703125 3.640625 -0.472656 3.8125 -1.019531 L 3.777344 -1.027344 C 3.640625 -0.59375 2.878906 -0.171875 2.226562 -0.171875 C 1.699219 -0.171875 1.183594 -1.136719 1.183594 -2.113281 C 1.183594 -2.300781 1.199219 -2.476562 1.226562 -2.640625 L 3.957031 -2.640625 C 3.878906 -3.441406 3.085938 -3.957031 2.320312 -3.957031 C 1.3125 -3.957031 0.320312 -3.097656 0.320312 -1.777344 C 0.320312 -0.84375 1.222656 0.0703125 2.140625 0.0703125 Z M 1.234375 -2.699219 C 1.390625 -3.441406 1.84375 -3.898438 2.300781 -3.898438 C 2.605469 -3.898438 2.949219 -3.433594 3.035156 -2.707031 Z M 1.234375 -2.699219 "/></g></g></g><g fill="#6a7153" fill-opacity="1"><g transform="translate(71.514891, 52.697263)"><g/></g></g><g fill="#6a7153" fill-opacity="1"><g transform="translate(73.534972, 52.697263)"><g><path d="M 0.734375 -4.710938 C 1 -4.710938 1.265625 -4.976562 1.265625 -5.242188 C 1.265625 -5.511719 1 -5.777344 0.734375 -5.777344 C 0.464844 -5.777344 0.199219 -5.511719 0.199219 -5.242188 C 0.199219 -4.976562 0.464844 -4.710938 0.734375 -4.710938 Z M -0.679688 1.320312 C -0.644531 1.320312 -0.269531 1.121094 0.0703125 0.929688 C 0.613281 0.613281 1.140625 -0.0859375 1.140625 -0.484375 L 1.140625 -3.882812 L 0.734375 -3.882812 L 0.734375 -3.890625 L 0.214844 -3.75 L 0.214844 -3.714844 C 0.285156 -3.714844 0.320312 -3.554688 0.320312 -3.378906 L 0.320312 -0.484375 C 0.320312 0.0859375 0.144531 0.75 -0.0351562 0.855469 C -0.226562 0.855469 -0.59375 0.714844 -0.785156 0.714844 C -0.949219 0.714844 -1.105469 0.855469 -1.105469 1 C -1.105469 1.179688 -0.890625 1.335938 -0.679688 1.320312 Z M -0.679688 1.320312 "/></g></g></g><g fill="#6a7153" fill-opacity="1"><g transform="translate(75.319496, 52.697263)"><g><path d="M 2.277344 -4.960938 C 2.492188 -5.140625 2.699219 -5.339844 2.699219 -5.382812 C 2.699219 -5.570312 2.476562 -5.796875 2.292969 -5.796875 C 2.25 -5.796875 2.0625 -5.570312 1.898438 -5.335938 L 1.140625 -4.226562 L 1.242188 -4.121094 Z M 3.914062 -0.886719 L 3.847656 -0.914062 C 3.8125 -0.726562 3.597656 -0.550781 3.40625 -0.550781 C 3.21875 -0.550781 3.042969 -0.699219 3.042969 -0.855469 L 3.042969 -2.75 C 3.042969 -3.449219 2.492188 -3.957031 1.933594 -3.957031 C 1.164062 -3.957031 0.40625 -3.207031 0.40625 -2.886719 C 0.40625 -2.597656 0.664062 -2.3125 0.921875 -2.3125 C 1.121094 -2.3125 1.320312 -2.578125 1.320312 -2.71875 C 1.320312 -2.835938 1.179688 -3.035156 1.179688 -3.164062 C 1.179688 -3.371094 1.527344 -3.855469 1.878906 -3.855469 C 2.054688 -3.855469 2.226562 -3.511719 2.226562 -3.042969 L 2.226562 -2.0625 C 0.890625 -1.820312 0.265625 -1.464844 0.265625 -0.726562 C 0.265625 -0.320312 0.691406 0.0703125 1.128906 0.0703125 C 1.371094 0.0703125 1.855469 -0.1875 2.269531 -0.601562 C 2.390625 -0.25 2.734375 0.0351562 3.078125 0.0351562 C 3.421875 0.0351562 3.839844 -0.421875 3.921875 -0.886719 Z M 1.570312 -0.355469 C 1.335938 -0.355469 1.101562 -0.578125 1.101562 -0.808594 C 1.101562 -1.535156 1.464844 -1.847656 2.226562 -2 L 2.226562 -0.855469 C 2.226562 -0.785156 2.234375 -0.714844 2.257812 -0.644531 C 2.050781 -0.472656 1.757812 -0.355469 1.570312 -0.355469 Z M 1.570312 -0.355469 "/></g></g></g><g fill="#6a7153" fill-opacity="1"><g transform="translate(79.159793, 52.697263)"><g/></g></g><g fill="#6a7153" fill-opacity="1"><g transform="translate(81.179874, 52.697263)"><g><path d="M 3.914062 -0.886719 L 3.847656 -0.914062 C 3.8125 -0.726562 3.597656 -0.550781 3.40625 -0.550781 C 3.21875 -0.550781 3.042969 -0.699219 3.042969 -0.855469 L 3.042969 -2.75 C 3.042969 -3.449219 2.492188 -3.957031 1.933594 -3.957031 C 1.164062 -3.957031 0.40625 -3.207031 0.40625 -2.886719 C 0.40625 -2.597656 0.664062 -2.3125 0.921875 -2.3125 C 1.121094 -2.3125 1.320312 -2.578125 1.320312 -2.71875 C 1.320312 -2.835938 1.179688 -3.035156 1.179688 -3.164062 C 1.179688 -3.371094 1.527344 -3.855469 1.878906 -3.855469 C 2.054688 -3.855469 2.226562 -3.511719 2.226562 -3.042969 L 2.226562 -2.0625 C 0.890625 -1.820312 0.265625 -1.464844 0.265625 -0.726562 C 0.265625 -0.320312 0.691406 0.0703125 1.128906 0.0703125 C 1.371094 0.0703125 1.855469 -0.1875 2.269531 -0.601562 C 2.390625 -0.25 2.734375 0.0351562 3.078125 0.0351562 C 3.421875 0.0351562 3.839844 -0.421875 3.921875 -0.886719 Z M 1.570312 -0.355469 C 1.335938 -0.355469 1.101562 -0.578125 1.101562 -0.808594 C 1.101562 -1.535156 1.464844 -1.847656 2.226562 -2 L 2.226562 -0.855469 C 2.226562 -0.785156 2.234375 -0.714844 2.257812 -0.644531 C 2.050781 -0.472656 1.757812 -0.355469 1.570312 -0.355469 Z M 1.570312 -0.355469 "/></g></g></g><g fill="#6a7153" fill-opacity="1"><g transform="translate(85.020171, 52.697263)"><g/></g></g><g fill="#6a7153" fill-opacity="1"><g transform="translate(87.040252, 52.697263)"><g><path d="M 2.921875 -1.0625 C 2.921875 -1.515625 2.414062 -2.09375 1.785156 -2.261719 C 1.328125 -2.386719 0.964844 -2.835938 0.964844 -3.191406 C 0.964844 -3.554688 1.277344 -3.90625 1.597656 -3.90625 C 1.699219 -3.90625 1.8125 -3.871094 1.929688 -3.8125 C 1.792969 -3.878906 2.164062 -3.527344 2.675781 -3.097656 C 2.691406 -3.09375 2.714844 -3.0625 2.726562 -3.054688 L 2.757812 -3.054688 L 2.757812 -3.5625 L 2.734375 -3.5625 C 2.734375 -3.550781 2.726562 -3.535156 2.726562 -3.519531 C 2.726562 -3.519531 2.199219 -3.8125 2.097656 -3.855469 C 2.0625 -3.882812 2.027344 -3.90625 1.992188 -3.925781 L 1.976562 -3.90625 C 1.847656 -3.949219 1.722656 -3.96875 1.597656 -3.96875 C 0.984375 -3.96875 0.378906 -3.449219 0.378906 -2.914062 C 0.378906 -2.414062 0.84375 -1.800781 1.421875 -1.640625 C 1.898438 -1.515625 2.285156 -1.128906 2.285156 -0.84375 C 2.285156 -0.414062 1.929688 0.0429688 1.550781 -0.0078125 C 1.429688 -0.148438 1.058594 -0.484375 0.484375 -0.964844 C 0.472656 -0.972656 0.449219 -1 0.4375 -1.007812 L 0.429688 -0.984375 L 0.429688 -0.398438 L 0.457031 -0.398438 L 0.457031 -0.457031 C 0.457031 -0.484375 0.644531 -0.386719 0.835938 -0.25 C 0.933594 -0.171875 1.050781 -0.113281 1.148438 -0.0429688 L 1.148438 -0.0507812 C 1.285156 0.015625 1.421875 0.0585938 1.550781 0.0625 C 1.59375 0.0859375 1.605469 0.0859375 1.597656 0.0625 C 2.261719 0.0625 2.921875 -0.492188 2.921875 -1.0625 Z M 2.921875 -1.0625 "/></g></g></g><g fill="#6a7153" fill-opacity="1"><g transform="translate(90.330915, 52.697263)"><g><path d="M 1.308594 0.0703125 C 1.792969 0.0703125 2.433594 -0.394531 2.675781 -0.898438 L 2.675781 0 L 3.085938 0 L 3.085938 0.0078125 L 3.5 -0.105469 L 3.5 -3.882812 L 2.675781 -3.882812 L 2.675781 -0.992188 C 2.511719 -0.734375 2.0625 -0.5 1.691406 -0.5 C 1.335938 -0.5 0.976562 -0.84375 0.976562 -1.191406 L 0.976562 -3.882812 L 0.15625 -3.882812 L 0.15625 -1.191406 C 0.15625 -0.558594 0.726562 0.0703125 1.308594 0.0703125 Z M 1.308594 0.0703125 "/></g></g></g><g fill="#6a7153" fill-opacity="1"><g transform="translate(94.106971, 52.697263)"><g><path d="M 3.914062 -0.886719 L 3.847656 -0.914062 C 3.8125 -0.726562 3.597656 -0.550781 3.40625 -0.550781 C 3.21875 -0.550781 3.042969 -0.699219 3.042969 -0.855469 L 3.042969 -2.75 C 3.042969 -3.449219 2.492188 -3.957031 1.933594 -3.957031 C 1.164062 -3.957031 0.40625 -3.207031 0.40625 -2.886719 C 0.40625 -2.597656 0.664062 -2.3125 0.921875 -2.3125 C 1.121094 -2.3125 1.320312 -2.578125 1.320312 -2.71875 C 1.320312 -2.835938 1.179688 -3.035156 1.179688 -3.164062 C 1.179688 -3.371094 1.527344 -3.855469 1.878906 -3.855469 C 2.054688 -3.855469 2.226562 -3.511719 2.226562 -3.042969 L 2.226562 -2.0625 C 0.890625 -1.820312 0.265625 -1.464844 0.265625 -0.726562 C 0.265625 -0.320312 0.691406 0.0703125 1.128906 0.0703125 C 1.371094 0.0703125 1.855469 -0.1875 2.269531 -0.601562 C 2.390625 -0.25 2.734375 0.0351562 3.078125 0.0351562 C 3.421875 0.0351562 3.839844 -0.421875 3.921875 -0.886719 Z M 1.570312 -0.355469 C 1.335938 -0.355469 1.101562 -0.578125 1.101562 -0.808594 C 1.101562 -1.535156 1.464844 -1.847656 2.226562 -2 L 2.226562 -0.855469 C 2.226562 -0.785156 2.234375 -0.714844 2.257812 -0.644531 C 2.050781 -0.472656 1.757812 -0.355469 1.570312 -0.355469 Z M 1.570312 -0.355469 "/></g></g></g><g fill="#6a7153" fill-opacity="1"><g transform="translate(97.947268, 52.697263)"><g><path d="M 0.929688 -1.628906 L 1.078125 -1.628906 L 1.507812 -4.828125 C 1.5625 -5.269531 1.335938 -5.707031 1 -5.707031 C 0.671875 -5.707031 0.441406 -5.269531 0.5 -4.828125 Z M 1 0.0351562 C 1.285156 0.0351562 1.570312 -0.25 1.570312 -0.535156 C 1.570312 -0.820312 1.285156 -1.105469 1 -1.105469 C 0.714844 -1.105469 0.429688 -0.820312 0.429688 -0.535156 C 0.429688 -0.25 0.714844 0.0351562 1 0.0351562 Z M 1 0.0351562 "/></g></g></g></svg>