<svg xmlns="http://www.w3.org/2000/svg" xmlns:xlink="http://www.w3.org/1999/xlink" width="419" zoomAndPan="magnify" viewBox="0 0 314.25 170.249993" height="227" preserveAspectRatio="xMidYMid meet" version="1.0"><defs><clipPath id="7b7b3044f2"><path d="M 0.316406 122 L 11 122 L 11 145 L 0.316406 145 Z M 0.316406 122 " clip-rule="nonzero"/></clipPath></defs><path fill="#ffffff" d="M 45.558594 94.820312 L 51.1875 94.820312 L 51.1875 64.984375 L 55.769531 64.984375 C 68.628906 64.984375 81.167969 58.226562 81.167969 48.820312 C 81.167969 39.816406 70.800781 30.96875 60.269531 30.96875 L 45.558594 30.96875 Z M 51.1875 63.777344 L 51.1875 31.933594 L 58.820312 31.933594 C 67.425781 31.933594 75.863281 39.816406 75.863281 47.855469 C 75.863281 57.101562 65.894531 63.777344 55.769531 63.777344 Z M 51.1875 63.777344 " fill-opacity="1" fill-rule="nonzero"/><path fill="#ffffff" d="M 85.992188 94.820312 L 90.816406 94.820312 L 90.816406 30.96875 L 88.40625 30.96875 L 84.789062 31.933594 L 84.789062 32.332031 L 85.027344 32.332031 C 85.507812 32.496094 85.992188 34.34375 85.992188 36.195312 Z M 85.992188 94.820312 " fill-opacity="1" fill-rule="nonzero"/><path fill="#ffffff" d="M 108.417969 95.621094 C 111.796875 95.621094 118.386719 92.566406 123.769531 87.824219 C 123.769531 91.519531 127.472656 95.222656 131.167969 95.222656 C 134.222656 95.222656 137.839844 91.601562 138.484375 87.984375 L 137.921875 87.664062 C 137.519531 89.753906 135.1875 91.765625 133.097656 91.765625 C 130.847656 91.765625 128.675781 89.832031 128.675781 87.824219 L 128.675781 63.535156 C 128.675781 55.816406 122.726562 50.269531 116.617188 50.269531 C 108.257812 50.269531 100.058594 58.710938 100.058594 62.328125 C 100.058594 64.019531 101.265625 65.707031 102.550781 65.707031 C 103.996094 65.707031 105.367188 64.179688 105.367188 63.292969 C 105.367188 62.25 103.757812 60.078125 103.757812 59.191406 C 103.757812 56.621094 109.867188 50.75 116.136719 50.75 C 119.996094 50.75 123.851562 55.335938 123.851562 61.769531 L 123.851562 71.496094 C 106.570312 74.632812 98.53125 78.894531 98.53125 87.582031 C 98.53125 91.601562 103.4375 95.621094 108.417969 95.621094 Z M 110.828125 93.050781 C 106.972656 93.050781 103.195312 90.074219 103.195312 87.019531 C 103.195312 78.335938 109.703125 74.3125 123.691406 71.816406 L 123.769531 71.816406 L 123.769531 87.5 C 119.753906 90.878906 114.125 93.050781 110.828125 93.050781 Z M 110.828125 93.050781 " fill-opacity="1" fill-rule="nonzero"/><path fill="#ffffff" d="M 140.976562 94.820312 L 145.796875 94.820312 L 145.796875 61.605469 C 148.371094 56.941406 153.59375 52.519531 156.730469 52.519531 C 158.5 52.519531 160.1875 53.886719 160.1875 55.335938 C 160.1875 56.78125 161.632812 58.148438 163.082031 58.148438 C 164.527344 58.148438 165.894531 56.78125 165.894531 55.335938 C 165.894531 52.761719 162.4375 50.269531 158.980469 50.269531 C 155.042969 50.269531 148.691406 55.414062 145.796875 60.804688 L 145.796875 51.070312 L 143.386719 51.070312 L 139.769531 52.035156 L 139.769531 52.441406 L 140.011719 52.441406 C 140.492188 52.601562 140.976562 54.449219 140.976562 56.296875 Z M 140.976562 94.820312 " fill-opacity="1" fill-rule="nonzero"/><path fill="#ffffff" d="M 185.023438 95.621094 C 188.320312 95.621094 193.464844 91.925781 195.394531 88.144531 L 194.832031 87.824219 C 193.464844 90.554688 189.285156 93.289062 186.472656 93.289062 C 182.851562 93.289062 179.316406 89.589844 179.316406 83.800781 L 179.476562 53.644531 L 192.824219 53.644531 L 192.824219 51.070312 L 179.476562 51.070312 L 179.476562 40.535156 L 179.074219 40.535156 L 169.351562 52.117188 L 169.351562 52.921875 L 174.574219 52.921875 L 174.574219 82.757812 C 174.574219 90.554688 179.722656 95.621094 185.023438 95.621094 Z M 185.023438 95.621094 " fill-opacity="1" fill-rule="nonzero"/><path fill="#ffffff" d="M 198.210938 112.511719 L 203.03125 112.511719 L 203.03125 90.394531 C 206.164062 93.210938 210.265625 95.222656 213.804688 95.222656 C 224.652344 95.222656 235.265625 82.835938 235.265625 72.542969 C 235.265625 61.285156 225.699219 50.269531 215.894531 50.269531 C 211.3125 50.269531 205.363281 53.324219 203.03125 56.703125 L 203.03125 51.070312 L 200.621094 51.070312 L 197.003906 52.035156 L 197.003906 52.441406 L 197.246094 52.441406 C 197.726562 52.601562 198.210938 54.449219 198.210938 56.296875 Z M 214.125 94.015625 C 210.105469 94.015625 204.636719 88.949219 203.03125 83.800781 L 203.03125 58.550781 C 205.203125 55.253906 210.105469 52.28125 213.722656 52.28125 C 221.921875 52.28125 229.960938 63.054688 229.960938 74.070312 C 229.960938 83.15625 222.082031 94.015625 214.125 94.015625 Z M 214.125 94.015625 " fill-opacity="1" fill-rule="nonzero"/><path fill="#ffffff" d="M 242.097656 94.820312 L 246.921875 94.820312 L 246.921875 61.285156 C 249.894531 57.425781 256.566406 53.644531 260.34375 53.644531 C 265.246094 53.644531 269.109375 58.148438 269.109375 62.734375 L 269.109375 94.820312 L 273.929688 94.820312 L 273.929688 62.734375 C 273.929688 56.460938 269.109375 50.269531 263.160156 50.269531 C 259.136719 50.269531 251.097656 55.496094 246.921875 60.804688 L 246.921875 30.96875 L 244.511719 30.96875 L 240.890625 31.933594 L 240.890625 32.332031 L 241.132812 32.332031 C 241.613281 32.496094 242.097656 34.34375 242.097656 36.195312 Z M 242.097656 94.820312 " fill-opacity="1" fill-rule="nonzero"/><g clip-path="url(#7b7b3044f2)"><path fill="#ffffff" d="M 10.222656 133.425781 L 10.222656 132.175781 L 1.960938 132.175781 L 1.960938 124.210938 L 10.222656 124.210938 L 10.222656 122.960938 L 0.746094 122.960938 L 0.746094 144.804688 L 1.960938 144.804688 L 1.960938 133.425781 Z M 10.222656 133.425781 " fill-opacity="1" fill-rule="nonzero"/></g><path fill="#ffffff" d="M 35.667969 133.882812 C 35.667969 130.578125 34.617188 127.878906 32.511719 125.777344 C 30.390625 123.699219 27.691406 122.65625 24.414062 122.65625 C 21.109375 122.65625 18.40625 123.707031 16.3125 125.800781 C 14.230469 127.882812 13.191406 130.578125 13.191406 133.882812 C 13.191406 137.1875 14.238281 139.890625 16.335938 141.984375 C 18.417969 144.066406 21.109375 145.105469 24.414062 145.105469 C 27.714844 145.105469 30.414062 144.0625 32.511719 141.960938 C 34.617188 139.878906 35.667969 137.1875 35.667969 133.882812 Z M 34.40625 133.882812 C 34.40625 136.835938 33.476562 139.242188 31.625 141.097656 C 29.753906 142.9375 27.347656 143.855469 24.414062 143.855469 C 21.496094 143.855469 19.101562 142.917969 17.222656 141.039062 C 15.367188 139.183594 14.441406 136.800781 14.441406 133.882812 C 14.441406 130.96875 15.378906 128.574219 17.246094 126.703125 C 19.125 124.824219 21.515625 123.882812 24.414062 123.882812 C 27.347656 123.882812 29.753906 124.820312 31.625 126.691406 C 33.476562 128.546875 34.40625 130.945312 34.40625 133.882812 Z M 34.40625 133.882812 " fill-opacity="1" fill-rule="nonzero"/><path fill="#ffffff" d="M 49.09375 124.210938 L 49.09375 122.960938 L 38.179688 122.960938 L 38.179688 124.210938 L 43.003906 124.210938 L 43.003906 144.804688 L 44.257812 144.804688 L 44.257812 124.210938 Z M 49.09375 124.210938 " fill-opacity="1" fill-rule="nonzero"/><path fill="#ffffff" d="M 74.292969 133.882812 C 74.292969 130.578125 73.242188 127.878906 71.136719 125.777344 C 69.015625 123.699219 66.316406 122.65625 63.039062 122.65625 C 59.734375 122.65625 57.03125 123.707031 54.9375 125.800781 C 52.855469 127.882812 51.816406 130.578125 51.816406 133.882812 C 51.816406 137.1875 52.863281 139.890625 54.960938 141.984375 C 57.042969 144.066406 59.734375 145.105469 63.039062 145.105469 C 66.339844 145.105469 69.039062 144.0625 71.136719 141.960938 C 73.242188 139.878906 74.292969 137.1875 74.292969 133.882812 Z M 73.03125 133.882812 C 73.03125 136.835938 72.101562 139.242188 70.25 141.097656 C 68.378906 142.9375 65.972656 143.855469 63.039062 143.855469 C 60.121094 143.855469 57.726562 142.917969 55.847656 141.039062 C 53.992188 139.183594 53.066406 136.800781 53.066406 133.882812 C 53.066406 130.96875 54.003906 128.574219 55.871094 126.703125 C 57.75 124.824219 60.140625 123.882812 63.039062 123.882812 C 65.972656 123.882812 68.378906 124.820312 70.25 126.691406 C 72.101562 128.546875 73.03125 130.945312 73.03125 133.882812 Z M 73.03125 133.882812 " fill-opacity="1" fill-rule="nonzero"/><path fill="#ffffff" d="M 99.433594 134.246094 L 90.828125 134.246094 L 90.828125 135.507812 L 98.054688 135.507812 C 97.847656 137.464844 97.035156 139.21875 95.609375 140.769531 C 93.730469 142.828125 91.253906 143.855469 88.175781 143.855469 C 85.300781 143.855469 82.90625 142.917969 80.988281 141.039062 C 79.109375 139.167969 78.171875 136.78125 78.171875 133.882812 C 78.171875 131.003906 79.117188 128.621094 81.011719 126.726562 C 82.910156 124.832031 85.300781 123.882812 88.175781 123.882812 C 91.699219 123.882812 94.441406 125.230469 96.40625 127.917969 L 97.410156 127.160156 C 95.164062 124.160156 92.085938 122.65625 88.175781 122.65625 C 84.910156 122.65625 82.21875 123.71875 80.101562 125.835938 C 78 127.941406 76.957031 130.625 76.957031 133.882812 C 76.957031 137.1875 78 139.890625 80.101562 141.984375 C 82.179688 144.066406 84.871094 145.105469 88.175781 145.105469 C 91.640625 145.105469 94.421875 143.996094 96.523438 141.773438 C 98.460938 139.734375 99.433594 137.222656 99.433594 134.246094 Z M 99.433594 134.246094 " fill-opacity="1" fill-rule="nonzero"/><path fill="#ffffff" d="M 114.871094 144.804688 L 107.867188 133.882812 C 108.746094 133.882812 109.554688 133.777344 110.289062 133.566406 C 111.019531 133.351562 111.65625 133.015625 112.191406 132.574219 C 112.738281 132.121094 113.15625 131.550781 113.457031 130.851562 C 113.75 130.160156 113.898438 129.332031 113.898438 128.375 C 113.898438 127.503906 113.738281 126.730469 113.421875 126.058594 C 113.097656 125.382812 112.675781 124.8125 112.144531 124.351562 C 111.613281 123.894531 110.984375 123.546875 110.253906 123.3125 C 109.519531 123.078125 108.746094 122.960938 107.925781 122.960938 L 102.890625 122.960938 L 102.890625 144.804688 L 104.105469 144.804688 L 104.105469 133.882812 L 106.464844 133.882812 L 113.410156 144.804688 Z M 112.613281 128.351562 C 112.613281 129.730469 112.207031 130.792969 111.398438 131.53125 C 110.59375 132.265625 109.542969 132.628906 108.242188 132.628906 L 104.105469 132.628906 L 104.105469 124.210938 L 107.902344 124.210938 C 108.558594 124.210938 109.167969 124.300781 109.738281 124.480469 C 110.304688 124.652344 110.804688 124.90625 111.234375 125.242188 C 111.660156 125.578125 111.996094 126.007812 112.238281 126.527344 C 112.488281 127.050781 112.613281 127.660156 112.613281 128.351562 Z M 112.613281 128.351562 " fill-opacity="1" fill-rule="nonzero"/><path fill="#ffffff" d="M 133.773438 144.804688 L 125.03125 122.257812 L 116.3125 144.804688 L 117.539062 144.804688 L 120.074219 138.253906 L 130.011719 138.253906 L 132.523438 144.804688 Z M 129.496094 137.003906 L 120.566406 137.003906 L 125.03125 125.441406 Z M 129.496094 137.003906 " fill-opacity="1" fill-rule="nonzero"/><path fill="#ffffff" d="M 146.527344 133.425781 L 146.527344 132.175781 L 138.265625 132.175781 L 138.265625 124.210938 L 146.527344 124.210938 L 146.527344 122.960938 L 137.050781 122.960938 L 137.050781 144.804688 L 138.265625 144.804688 L 138.265625 133.425781 Z M 146.527344 133.425781 " fill-opacity="1" fill-rule="nonzero"/><path fill="#ffffff" d="M 151.542969 144.804688 L 151.542969 122.960938 L 150.316406 122.960938 L 150.316406 144.804688 Z M 151.542969 144.804688 " fill-opacity="1" fill-rule="nonzero"/><path fill="#ffffff" d="M 172.246094 144.804688 L 163.503906 122.257812 L 154.785156 144.804688 L 156.011719 144.804688 L 158.546875 138.253906 L 168.480469 138.253906 L 170.996094 144.804688 Z M 167.96875 137.003906 L 159.039062 137.003906 L 163.503906 125.441406 Z M 167.96875 137.003906 " fill-opacity="1" fill-rule="nonzero"/><path fill="#ffffff" d="M 207.933594 144.804688 L 202.242188 122.292969 L 194.808594 141.808594 L 187.386719 122.316406 L 181.695312 144.804688 L 182.945312 144.804688 L 187.632812 126.421875 L 194.808594 145.351562 L 201.996094 126.445312 L 206.648438 144.804688 Z M 207.933594 144.804688 " fill-opacity="1" fill-rule="nonzero"/><path fill="#ffffff" d="M 226.988281 144.804688 L 218.246094 122.257812 L 209.527344 144.804688 L 210.753906 144.804688 L 213.289062 138.253906 L 223.222656 138.253906 L 225.738281 144.804688 Z M 222.710938 137.003906 L 213.78125 137.003906 L 218.246094 125.441406 Z M 222.710938 137.003906 " fill-opacity="1" fill-rule="nonzero"/><path fill="#ffffff" d="M 240.234375 124.210938 L 240.234375 122.960938 L 229.316406 122.960938 L 229.316406 124.210938 L 234.144531 124.210938 L 234.144531 144.804688 L 235.394531 144.804688 L 235.394531 124.210938 Z M 240.234375 124.210938 " fill-opacity="1" fill-rule="nonzero"/><path fill="#ffffff" d="M 254.082031 144.804688 L 254.082031 143.550781 L 244.847656 143.550781 L 244.847656 133.519531 L 254.082031 133.519531 L 254.082031 132.175781 L 244.847656 132.175781 L 244.847656 124.210938 L 254.082031 124.210938 L 254.082031 122.960938 L 243.597656 122.960938 L 243.597656 144.804688 Z M 254.082031 144.804688 " fill-opacity="1" fill-rule="nonzero"/><path fill="#ffffff" d="M 270.195312 144.804688 L 263.195312 133.882812 C 264.074219 133.882812 264.882812 133.777344 265.613281 133.566406 C 266.34375 133.351562 266.980469 133.015625 267.519531 132.574219 C 268.0625 132.121094 268.484375 131.550781 268.78125 130.851562 C 269.078125 130.160156 269.226562 129.332031 269.226562 128.375 C 269.226562 127.503906 269.066406 126.730469 268.746094 126.058594 C 268.425781 125.382812 268 124.8125 267.472656 124.351562 C 266.941406 123.894531 266.308594 123.546875 265.578125 123.3125 C 264.847656 123.078125 264.070312 122.960938 263.253906 122.960938 L 258.214844 122.960938 L 258.214844 144.804688 L 259.429688 144.804688 L 259.429688 133.882812 L 261.792969 133.882812 L 268.734375 144.804688 Z M 267.941406 128.351562 C 267.941406 129.730469 267.535156 130.792969 266.726562 131.53125 C 265.921875 132.265625 264.871094 132.628906 263.570312 132.628906 L 259.429688 132.628906 L 259.429688 124.210938 L 263.230469 124.210938 C 263.882812 124.210938 264.496094 124.300781 265.066406 124.480469 C 265.632812 124.652344 266.132812 124.90625 266.5625 125.242188 C 266.988281 125.578125 267.324219 126.007812 267.566406 126.527344 C 267.816406 127.050781 267.941406 127.660156 267.941406 128.351562 Z M 267.941406 128.351562 " fill-opacity="1" fill-rule="nonzero"/><path fill="#ffffff" d="M 290.597656 145.164062 L 290.597656 122.960938 L 289.347656 122.960938 L 289.347656 141.925781 L 273.039062 122.808594 L 273.039062 144.804688 L 274.269531 144.804688 L 274.269531 126.269531 Z M 290.597656 145.164062 " fill-opacity="1" fill-rule="nonzero"/><path fill="#ffffff" d="M 310.964844 144.804688 L 302.222656 122.257812 L 293.503906 144.804688 L 294.730469 144.804688 L 297.269531 138.253906 L 307.203125 138.253906 L 309.714844 144.804688 Z M 306.6875 137.003906 L 297.757812 137.003906 L 302.222656 125.441406 Z M 306.6875 137.003906 " fill-opacity="1" fill-rule="nonzero"/></svg>