<svg xmlns="http://www.w3.org/2000/svg" xmlns:xlink="http://www.w3.org/1999/xlink" width="559" zoomAndPan="magnify" viewBox="0 0 419.25 226.499995" height="302" preserveAspectRatio="xMidYMid meet" version="1.0"><defs><g/></defs><g fill="#ffffff" fill-opacity="1"><g transform="translate(48.173148, 126.702277)"><g><path d="M 12.894531 0 L 20.417969 0 L 20.417969 -39.867188 L 26.542969 -39.867188 C 43.734375 -39.867188 60.5 -48.894531 60.5 -61.464844 C 60.5 -73.5 46.636719 -85.320312 32.558594 -85.320312 L 12.894531 -85.320312 Z M 20.417969 -41.480469 L 20.417969 -84.03125 L 30.625 -84.03125 C 42.125 -84.03125 53.40625 -73.5 53.40625 -62.757812 C 53.40625 -50.398438 40.082031 -41.480469 26.542969 -41.480469 Z M 20.417969 -41.480469 "/></g></g><g transform="translate(110.821582, 126.702277)"><g><path d="M 4.296875 0 L 10.746094 0 L 10.746094 -85.320312 L 7.523438 -85.320312 L 2.6875 -84.03125 L 2.6875 -83.496094 L 3.007812 -83.496094 C 3.652344 -83.28125 4.296875 -80.808594 4.296875 -78.335938 Z M 4.296875 0 "/></g></g><g transform="translate(126.295638, 126.702277)"><g><path d="M 18.804688 1.074219 C 23.320312 1.074219 32.128906 -3.007812 39.328125 -9.347656 C 39.328125 -4.40625 44.273438 0.539062 49.214844 0.539062 C 53.300781 0.539062 58.136719 -4.296875 58.996094 -9.132812 L 58.242188 -9.5625 C 57.707031 -6.769531 54.589844 -4.082031 51.796875 -4.082031 C 48.785156 -4.082031 45.886719 -6.664062 45.886719 -9.347656 L 45.886719 -41.800781 C 45.886719 -52.117188 37.933594 -59.53125 29.765625 -59.53125 C 18.589844 -59.53125 7.628906 -48.25 7.628906 -43.414062 C 7.628906 -41.15625 9.242188 -38.898438 10.960938 -38.898438 C 12.894531 -38.898438 14.722656 -40.941406 14.722656 -42.125 C 14.722656 -43.519531 12.574219 -46.421875 12.574219 -47.605469 C 12.574219 -51.042969 20.738281 -58.886719 29.121094 -58.886719 C 34.28125 -58.886719 39.4375 -52.761719 39.4375 -44.164062 L 39.4375 -31.164062 C 16.332031 -26.972656 5.585938 -21.277344 5.585938 -9.671875 C 5.585938 -4.296875 12.144531 1.074219 18.804688 1.074219 Z M 22.027344 -2.363281 C 16.871094 -2.363281 11.820312 -6.339844 11.820312 -10.421875 C 11.820312 -22.027344 20.523438 -27.402344 39.222656 -30.734375 L 39.328125 -30.734375 L 39.328125 -9.777344 C 33.957031 -5.265625 26.433594 -2.363281 22.027344 -2.363281 Z M 22.027344 -2.363281 "/></g></g></g><g fill="#ffffff" fill-opacity="1"><g transform="translate(184.215889, 126.702277)"><g><path d="M 4.40625 0 L 10.851562 0 L 10.851562 -44.378906 C 14.292969 -50.613281 21.277344 -56.523438 25.46875 -56.523438 C 27.832031 -56.523438 30.089844 -54.695312 30.089844 -52.761719 C 30.089844 -50.828125 32.023438 -49 33.957031 -49 C 35.890625 -49 37.71875 -50.828125 37.71875 -52.761719 C 37.71875 -56.199219 33.097656 -59.53125 28.476562 -59.53125 C 23.210938 -59.53125 14.722656 -52.65625 10.851562 -45.453125 L 10.851562 -58.457031 L 7.628906 -58.457031 L 2.792969 -57.167969 L 2.792969 -56.628906 L 3.117188 -56.628906 C 3.761719 -56.414062 4.40625 -53.945312 4.40625 -51.472656 Z M 4.40625 0 "/></g></g><g transform="translate(223.008487, 126.702277)"><g><path d="M 24.5 1.074219 C 28.90625 1.074219 35.785156 -3.867188 38.363281 -8.917969 L 37.609375 -9.347656 C 35.785156 -5.695312 30.195312 -2.042969 26.433594 -2.042969 C 21.597656 -2.042969 16.871094 -6.984375 16.871094 -14.722656 L 17.085938 -55.019531 L 34.925781 -55.019531 L 34.925781 -58.457031 L 17.085938 -58.457031 L 17.085938 -72.535156 L 16.546875 -72.535156 L 3.546875 -57.0625 L 3.546875 -55.984375 L 10.53125 -55.984375 L 10.53125 -16.117188 C 10.53125 -5.695312 17.410156 1.074219 24.5 1.074219 Z M 24.5 1.074219 "/></g></g><g transform="translate(262.445837, 126.702277)"><g><path d="M 2.6875 23.640625 L 9.132812 23.640625 L 9.132812 -5.910156 C 13.324219 -2.148438 18.804688 0.539062 23.535156 0.539062 C 38.039062 0.539062 52.226562 -16.011719 52.226562 -29.765625 C 52.226562 -44.808594 39.4375 -59.53125 26.328125 -59.53125 C 20.203125 -59.53125 12.25 -55.449219 9.132812 -50.933594 L 9.132812 -58.457031 L 5.910156 -58.457031 L 1.074219 -57.167969 L 1.074219 -56.628906 L 1.398438 -56.628906 C 2.042969 -56.414062 2.6875 -53.945312 2.6875 -51.472656 Z M 23.964844 -1.074219 C 18.589844 -1.074219 11.28125 -7.84375 9.132812 -14.722656 L 9.132812 -48.464844 C 12.035156 -52.871094 18.589844 -56.84375 23.425781 -56.84375 C 34.386719 -56.84375 45.132812 -42.445312 45.132812 -27.722656 C 45.132812 -15.582031 34.601562 -1.074219 23.964844 -1.074219 Z M 23.964844 -1.074219 "/></g></g></g><g fill="#ffffff" fill-opacity="1"><g transform="translate(319.506418, 126.702277)"><g><path d="M 4.296875 0 L 10.746094 0 L 10.746094 -44.808594 C 14.722656 -49.96875 23.640625 -55.019531 28.691406 -55.019531 C 35.246094 -55.019531 40.40625 -49 40.40625 -42.875 L 40.40625 0 L 46.851562 0 L 46.851562 -42.875 C 46.851562 -51.257812 40.40625 -59.53125 32.453125 -59.53125 C 27.078125 -59.53125 16.332031 -52.546875 10.746094 -45.453125 L 10.746094 -85.320312 L 7.523438 -85.320312 L 2.6875 -84.03125 L 2.6875 -83.496094 L 3.007812 -83.496094 C 3.652344 -83.28125 4.296875 -80.808594 4.296875 -78.335938 Z M 4.296875 0 "/></g></g></g><g fill="#ffffff" fill-opacity="1"><g transform="translate(-1.949616, 193.495494)"><g><path d="M 15.78125 -15.203125 L 15.78125 -16.875 L 4.734375 -16.875 L 4.734375 -27.515625 L 15.78125 -27.515625 L 15.78125 -29.1875 L 3.109375 -29.1875 L 3.109375 0 L 4.734375 0 L 4.734375 -15.203125 Z M 15.78125 -15.203125 "/></g></g></g><g fill="#ffffff" fill-opacity="1"><g transform="translate(15.75259, 193.495494)"><g><path d="M 32.09375 -14.59375 C 32.09375 -19.007812 30.6875 -22.617188 27.875 -25.421875 C 25.039062 -28.203125 21.429688 -29.59375 17.046875 -29.59375 C 12.628906 -29.59375 9.019531 -28.191406 6.21875 -25.390625 C 3.4375 -22.609375 2.046875 -19.007812 2.046875 -14.59375 C 2.046875 -10.175781 3.445312 -6.566406 6.25 -3.765625 C 9.03125 -0.984375 12.628906 0.40625 17.046875 0.40625 C 21.460938 0.40625 25.070312 -0.992188 27.875 -3.796875 C 30.6875 -6.578125 32.09375 -10.175781 32.09375 -14.59375 Z M 30.40625 -14.59375 C 30.40625 -10.644531 29.164062 -7.429688 26.6875 -4.953125 C 24.1875 -2.492188 20.972656 -1.265625 17.046875 -1.265625 C 13.148438 -1.265625 9.945312 -2.519531 7.4375 -5.03125 C 4.957031 -7.507812 3.71875 -10.695312 3.71875 -14.59375 C 3.71875 -18.488281 4.96875 -21.6875 7.46875 -24.1875 C 9.976562 -26.695312 13.171875 -27.953125 17.046875 -27.953125 C 20.972656 -27.953125 24.1875 -26.703125 26.6875 -24.203125 C 29.164062 -21.722656 30.40625 -18.519531 30.40625 -14.59375 Z M 30.40625 -14.59375 "/></g></g></g><g fill="#ffffff" fill-opacity="1"><g transform="translate(49.358169, 193.495494)"><g><path d="M 16.4375 -27.515625 L 16.4375 -29.1875 L 1.84375 -29.1875 L 1.84375 -27.515625 L 8.296875 -27.515625 L 8.296875 0 L 9.96875 0 L 9.96875 -27.515625 Z M 16.4375 -27.515625 "/></g></g></g><g fill="#ffffff" fill-opacity="1"><g transform="translate(67.387439, 193.495494)"><g><path d="M 32.09375 -14.59375 C 32.09375 -19.007812 30.6875 -22.617188 27.875 -25.421875 C 25.039062 -28.203125 21.429688 -29.59375 17.046875 -29.59375 C 12.628906 -29.59375 9.019531 -28.191406 6.21875 -25.390625 C 3.4375 -22.609375 2.046875 -19.007812 2.046875 -14.59375 C 2.046875 -10.175781 3.445312 -6.566406 6.25 -3.765625 C 9.03125 -0.984375 12.628906 0.40625 17.046875 0.40625 C 21.460938 0.40625 25.070312 -0.992188 27.875 -3.796875 C 30.6875 -6.578125 32.09375 -10.175781 32.09375 -14.59375 Z M 30.40625 -14.59375 C 30.40625 -10.644531 29.164062 -7.429688 26.6875 -4.953125 C 24.1875 -2.492188 20.972656 -1.265625 17.046875 -1.265625 C 13.148438 -1.265625 9.945312 -2.519531 7.4375 -5.03125 C 4.957031 -7.507812 3.71875 -10.695312 3.71875 -14.59375 C 3.71875 -18.488281 4.96875 -21.6875 7.46875 -24.1875 C 9.976562 -26.695312 13.171875 -27.953125 17.046875 -27.953125 C 20.972656 -27.953125 24.1875 -26.703125 26.6875 -24.203125 C 29.164062 -21.722656 30.40625 -18.519531 30.40625 -14.59375 Z M 30.40625 -14.59375 "/></g></g></g><g fill="#ffffff" fill-opacity="1"><g transform="translate(100.993018, 193.495494)"><g><path d="M 32.09375 -14.109375 L 20.59375 -14.109375 L 20.59375 -12.421875 L 30.25 -12.421875 C 29.976562 -9.804688 28.890625 -7.460938 26.984375 -5.390625 C 24.472656 -2.640625 21.160156 -1.265625 17.046875 -1.265625 C 13.203125 -1.265625 10 -2.519531 7.4375 -5.03125 C 4.925781 -7.53125 3.671875 -10.71875 3.671875 -14.59375 C 3.671875 -18.4375 4.9375 -21.625 7.46875 -24.15625 C 10.007812 -26.6875 13.203125 -27.953125 17.046875 -27.953125 C 21.753906 -27.953125 25.421875 -26.15625 28.046875 -22.5625 L 29.390625 -23.578125 C 26.390625 -27.585938 22.273438 -29.59375 17.046875 -29.59375 C 12.679688 -29.59375 9.082031 -28.175781 6.25 -25.34375 C 3.445312 -22.53125 2.046875 -18.945312 2.046875 -14.59375 C 2.046875 -10.175781 3.445312 -6.566406 6.25 -3.765625 C 9.03125 -0.984375 12.628906 0.40625 17.046875 0.40625 C 21.679688 0.40625 25.398438 -1.078125 28.203125 -4.046875 C 30.796875 -6.773438 32.09375 -10.128906 32.09375 -14.109375 Z M 32.09375 -14.109375 "/></g></g></g><g fill="#ffffff" fill-opacity="1"><g transform="translate(134.598597, 193.495494)"><g><path d="M 19.125 0 L 9.765625 -14.59375 C 10.941406 -14.59375 12.019531 -14.734375 13 -15.015625 C 13.976562 -15.304688 14.828125 -15.75 15.546875 -16.34375 C 16.273438 -16.945312 16.835938 -17.710938 17.234375 -18.640625 C 17.628906 -19.566406 17.828125 -20.671875 17.828125 -21.953125 C 17.828125 -23.117188 17.613281 -24.148438 17.1875 -25.046875 C 16.757812 -25.953125 16.191406 -26.710938 15.484375 -27.328125 C 14.773438 -27.941406 13.929688 -28.40625 12.953125 -28.71875 C 11.972656 -29.03125 10.9375 -29.1875 9.84375 -29.1875 L 3.109375 -29.1875 L 3.109375 0 L 4.734375 0 L 4.734375 -14.59375 L 7.890625 -14.59375 L 17.171875 0 Z M 16.109375 -21.984375 C 16.109375 -20.140625 15.566406 -18.722656 14.484375 -17.734375 C 13.410156 -16.753906 12.003906 -16.265625 10.265625 -16.265625 L 4.734375 -16.265625 L 4.734375 -27.515625 L 9.8125 -27.515625 C 10.6875 -27.515625 11.503906 -27.394531 12.265625 -27.15625 C 13.023438 -26.925781 13.691406 -26.585938 14.265625 -26.140625 C 14.835938 -25.691406 15.285156 -25.117188 15.609375 -24.421875 C 15.941406 -23.722656 16.109375 -22.910156 16.109375 -21.984375 Z M 16.109375 -21.984375 "/></g></g></g><g fill="#ffffff" fill-opacity="1"><g transform="translate(154.385815, 193.495494)"><g><path d="M 24.609375 0 L 12.921875 -30.125 L 1.265625 0 L 2.90625 0 L 6.296875 -8.75 L 19.578125 -8.75 L 22.9375 0 Z M 18.890625 -10.421875 L 6.953125 -10.421875 L 12.921875 -25.875 Z M 18.890625 -10.421875 "/></g></g></g><g fill="#ffffff" fill-opacity="1"><g transform="translate(180.264563, 193.495494)"><g><path d="M 15.78125 -15.203125 L 15.78125 -16.875 L 4.734375 -16.875 L 4.734375 -27.515625 L 15.78125 -27.515625 L 15.78125 -29.1875 L 3.109375 -29.1875 L 3.109375 0 L 4.734375 0 L 4.734375 -15.203125 Z M 15.78125 -15.203125 "/></g></g></g><g fill="#ffffff" fill-opacity="1"><g transform="translate(197.966769, 193.495494)"><g><path d="M 4.78125 0 L 4.78125 -29.1875 L 3.140625 -29.1875 L 3.140625 0 Z M 4.78125 0 "/></g></g></g><g fill="#ffffff" fill-opacity="1"><g transform="translate(205.816246, 193.495494)"><g><path d="M 24.609375 0 L 12.921875 -30.125 L 1.265625 0 L 2.90625 0 L 6.296875 -8.75 L 19.578125 -8.75 L 22.9375 0 Z M 18.890625 -10.421875 L 6.953125 -10.421875 L 12.921875 -25.875 Z M 18.890625 -10.421875 "/></g></g></g><g fill="#ffffff" fill-opacity="1"><g transform="translate(231.69498, 193.495494)"><g/></g></g><g fill="#ffffff" fill-opacity="1"><g transform="translate(242.120064, 193.495494)"><g><path d="M 36.015625 0 L 28.40625 -30.078125 L 18.46875 -4 L 8.546875 -30.046875 L 0.9375 0 L 2.609375 0 L 8.875 -24.5625 L 18.46875 0.734375 L 28.078125 -24.53125 L 34.296875 0 Z M 36.015625 0 "/></g></g></g><g fill="#ffffff" fill-opacity="1"><g transform="translate(278.996249, 193.495494)"><g><path d="M 24.609375 0 L 12.921875 -30.125 L 1.265625 0 L 2.90625 0 L 6.296875 -8.75 L 19.578125 -8.75 L 22.9375 0 Z M 18.890625 -10.421875 L 6.953125 -10.421875 L 12.921875 -25.875 Z M 18.890625 -10.421875 "/></g></g></g><g fill="#ffffff" fill-opacity="1"><g transform="translate(304.874997, 193.495494)"><g><path d="M 16.4375 -27.515625 L 16.4375 -29.1875 L 1.84375 -29.1875 L 1.84375 -27.515625 L 8.296875 -27.515625 L 8.296875 0 L 9.96875 0 L 9.96875 -27.515625 Z M 16.4375 -27.515625 "/></g></g></g><g fill="#ffffff" fill-opacity="1"><g transform="translate(322.904254, 193.495494)"><g><path d="M 16.921875 0 L 16.921875 -1.671875 L 4.578125 -1.671875 L 4.578125 -15.078125 L 16.921875 -15.078125 L 16.921875 -16.875 L 4.578125 -16.875 L 4.578125 -27.515625 L 16.921875 -27.515625 L 16.921875 -29.1875 L 2.90625 -29.1875 L 2.90625 0 Z M 16.921875 0 "/></g></g></g><g fill="#ffffff" fill-opacity="1"><g transform="translate(342.241764, 193.495494)"><g><path d="M 19.125 0 L 9.765625 -14.59375 C 10.941406 -14.59375 12.019531 -14.734375 13 -15.015625 C 13.976562 -15.304688 14.828125 -15.75 15.546875 -16.34375 C 16.273438 -16.945312 16.835938 -17.710938 17.234375 -18.640625 C 17.628906 -19.566406 17.828125 -20.671875 17.828125 -21.953125 C 17.828125 -23.117188 17.613281 -24.148438 17.1875 -25.046875 C 16.757812 -25.953125 16.191406 -26.710938 15.484375 -27.328125 C 14.773438 -27.941406 13.929688 -28.40625 12.953125 -28.71875 C 11.972656 -29.03125 10.9375 -29.1875 9.84375 -29.1875 L 3.109375 -29.1875 L 3.109375 0 L 4.734375 0 L 4.734375 -14.59375 L 7.890625 -14.59375 L 17.171875 0 Z M 16.109375 -21.984375 C 16.109375 -20.140625 15.566406 -18.722656 14.484375 -17.734375 C 13.410156 -16.753906 12.003906 -16.265625 10.265625 -16.265625 L 4.734375 -16.265625 L 4.734375 -27.515625 L 9.8125 -27.515625 C 10.6875 -27.515625 11.503906 -27.394531 12.265625 -27.15625 C 13.023438 -26.925781 13.691406 -26.585938 14.265625 -26.140625 C 14.835938 -25.691406 15.285156 -25.117188 15.609375 -24.421875 C 15.941406 -23.722656 16.109375 -22.910156 16.109375 -21.984375 Z M 16.109375 -21.984375 "/></g></g></g><g fill="#ffffff" fill-opacity="1"><g transform="translate(362.028996, 193.495494)"><g><path d="M 26.609375 0.484375 L 26.609375 -29.1875 L 24.9375 -29.1875 L 24.9375 -3.84375 L 3.140625 -29.390625 L 3.140625 0 L 4.78125 0 L 4.78125 -24.765625 Z M 26.609375 0.484375 "/></g></g></g><g fill="#ffffff" fill-opacity="1"><g transform="translate(391.260121, 193.495494)"><g><path d="M 24.609375 0 L 12.921875 -30.125 L 1.265625 0 L 2.90625 0 L 6.296875 -8.75 L 19.578125 -8.75 L 22.9375 0 Z M 18.890625 -10.421875 L 6.953125 -10.421875 L 12.921875 -25.875 Z M 18.890625 -10.421875 "/></g></g></g></svg>